<?xml version="1.0" encoding="UTF-8"?>
<svg xmlns="http://www.w3.org/2000/svg" width="1920" height="1080" viewBox="0 0 1920 1080" fill="none">
  <defs>
    
    <linearGradient id="gradMain" x1="12%" y1="14%" x2="84%" y2="88%">
      <stop offset="0%" stop-color="#F3BCD3" stop-opacity="0.95"/>
      <stop offset="48%" stop-color="#F7EEE5" stop-opacity="0.60"/>
      <stop offset="100%" stop-color="#D4DCF8" stop-opacity="0.95"/>
    </linearGradient>
    <linearGradient id="gradPink" x1="8%" y1="10%" x2="70%" y2="72%">
      <stop offset="0%" stop-color="#F4BDD4" stop-opacity="1"/>
      <stop offset="100%" stop-color="#FAF5EF" stop-opacity="0.20"/>
    </linearGradient>
    <linearGradient id="gradBlue" x1="32%" y1="22%" x2="82%" y2="90%">
      <stop offset="0%" stop-color="#EEF1FC" stop-opacity="0.20"/>
      <stop offset="100%" stop-color="#D4DCF8" stop-opacity="1"/>
    </linearGradient>
    <radialGradient id="haloPink" cx="50%" cy="50%" r="50%">
      <stop offset="0%" stop-color="#F5C6DA" stop-opacity="0.34"/>
      <stop offset="100%" stop-color="#F5C6DA" stop-opacity="0"/>
    </radialGradient>
    <radialGradient id="haloBlue" cx="50%" cy="50%" r="50%">
      <stop offset="0%" stop-color="#D7DEF8" stop-opacity="0.36"/>
      <stop offset="100%" stop-color="#D7DEF8" stop-opacity="0"/>
    </radialGradient>
    <radialGradient id="haloCream" cx="50%" cy="50%" r="50%">
      <stop offset="0%" stop-color="#F7EFE4" stop-opacity="0.26"/>
      <stop offset="100%" stop-color="#F7EFE4" stop-opacity="0"/>
    </radialGradient>
    <radialGradient id="centerWash" cx="50%" cy="50%" r="54%">
      <stop offset="0%" stop-color="#F6EFF2" stop-opacity="0.24"/>
      <stop offset="60%" stop-color="#FFFFFF" stop-opacity="0.05"/>
      <stop offset="100%" stop-color="#FFFFFF" stop-opacity="0"/>
    </radialGradient>
    
  </defs>
  <g><ellipse cx="1420.0" cy="290.0" rx="510.0" ry="300.0" fill="url(#haloPink)" opacity="0.720"/>
<ellipse cx="1380.0" cy="860.0" rx="520.0" ry="320.0" fill="url(#haloBlue)" opacity="0.740"/>
<ellipse cx="550.0" cy="790.0" rx="280.0" ry="220.0" fill="url(#haloCream)" opacity="0.520"/></g>
  <g><path d="M 134.73 907.86 C 125.63 886.91, 87.12 826.16, 80.11 782.16 C 73.10 738.15, 92.29 689.56, 92.68 643.84 C 93.06 598.11, 75.45 552.23, 82.40 507.80 C 89.35 463.37, 117.06 421.40, 134.40 377.25 C 151.74 333.11, 163.46 287.20, 186.44 242.93 C 209.41 198.67, 240.45 154.66, 272.25 111.67 C 304.04 68.67, 335.56 23.54, 377.21 -15.04 C 418.86 -53.62, 475.66 -85.99, 522.14 -119.80 C 568.61 -153.61, 606.84 -189.59, 656.07 -217.91 C 705.30 -246.23, 761.14 -270.31, 817.51 -289.72 C 873.87 -309.12, 935.38 -321.04, 994.26 -334.34 C 1053.13 -347.65, 1111.70 -362.99, 1170.75 -369.54 C 1229.79 -376.08, 1290.61 -374.48, 1348.54 -373.60 C 1406.47 -372.72, 1463.64 -373.38, 1518.34 -364.25 C 1573.04 -355.12, 1626.66 -335.70, 1676.75 -318.84 C 1726.83 -301.98, 1770.62 -280.69, 1818.86 -263.11 C 1867.11 -245.53, 1920.72 -234.31, 1966.20 -213.37 C 2011.68 -192.43, 2050.11 -162.32, 2091.74 -137.47 C 2133.37 -112.62, 2177.91 -92.36, 2215.97 -64.26 C 2254.03 -36.17, 2290.05 -2.01, 2320.08 31.10 C 2350.12 64.22, 2369.98 98.20, 2396.17 134.42 C 2422.36 170.64, 2450.28 209.45, 2477.22 248.41 C 2504.17 287.37, 2537.63 325.40, 2557.81 368.18 C 2578.00 410.96, 2594.06 458.03, 2598.33 505.09 C 2602.60 552.14, 2592.28 602.79, 2583.45 650.53 C 2574.61 698.26, 2562.08 744.72, 2545.31 791.49 C 2528.54 838.27, 2510.69 886.17, 2482.84 931.18 C 2454.99 976.18, 2395.64 1039.80, 2378.21 1061.52" transform="" fill="none" stroke="url(#gradPink)" stroke-width="260.4" stroke-linecap="round" stroke-linejoin="round" opacity="0.038"/>
<path d="M 134.73 907.86 C 125.63 886.91, 87.12 826.16, 80.11 782.16 C 73.10 738.15, 92.29 689.56, 92.68 643.84 C 93.06 598.11, 75.45 552.23, 82.40 507.80 C 89.35 463.37, 117.06 421.40, 134.40 377.25 C 151.74 333.11, 163.46 287.20, 186.44 242.93 C 209.41 198.67, 240.45 154.66, 272.25 111.67 C 304.04 68.67, 335.56 23.54, 377.21 -15.04 C 418.86 -53.62, 475.66 -85.99, 522.14 -119.80 C 568.61 -153.61, 606.84 -189.59, 656.07 -217.91 C 705.30 -246.23, 761.14 -270.31, 817.51 -289.72 C 873.87 -309.12, 935.38 -321.04, 994.26 -334.34 C 1053.13 -347.65, 1111.70 -362.99, 1170.75 -369.54 C 1229.79 -376.08, 1290.61 -374.48, 1348.54 -373.60 C 1406.47 -372.72, 1463.64 -373.38, 1518.34 -364.25 C 1573.04 -355.12, 1626.66 -335.70, 1676.75 -318.84 C 1726.83 -301.98, 1770.62 -280.69, 1818.86 -263.11 C 1867.11 -245.53, 1920.72 -234.31, 1966.20 -213.37 C 2011.68 -192.43, 2050.11 -162.32, 2091.74 -137.47 C 2133.37 -112.62, 2177.91 -92.36, 2215.97 -64.26 C 2254.03 -36.17, 2290.05 -2.01, 2320.08 31.10 C 2350.12 64.22, 2369.98 98.20, 2396.17 134.42 C 2422.36 170.64, 2450.28 209.45, 2477.22 248.41 C 2504.17 287.37, 2537.63 325.40, 2557.81 368.18 C 2578.00 410.96, 2594.06 458.03, 2598.33 505.09 C 2602.60 552.14, 2592.28 602.79, 2583.45 650.53 C 2574.61 698.26, 2562.08 744.72, 2545.31 791.49 C 2528.54 838.27, 2510.69 886.17, 2482.84 931.18 C 2454.99 976.18, 2395.64 1039.80, 2378.21 1061.52" transform="" fill="none" stroke="url(#gradPink)" stroke-width="210.0" stroke-linecap="round" stroke-linejoin="round" opacity="0.057"/>
<path d="M 134.73 907.86 C 125.63 886.91, 87.12 826.16, 80.11 782.16 C 73.10 738.15, 92.29 689.56, 92.68 643.84 C 93.06 598.11, 75.45 552.23, 82.40 507.80 C 89.35 463.37, 117.06 421.40, 134.40 377.25 C 151.74 333.11, 163.46 287.20, 186.44 242.93 C 209.41 198.67, 240.45 154.66, 272.25 111.67 C 304.04 68.67, 335.56 23.54, 377.21 -15.04 C 418.86 -53.62, 475.66 -85.99, 522.14 -119.80 C 568.61 -153.61, 606.84 -189.59, 656.07 -217.91 C 705.30 -246.23, 761.14 -270.31, 817.51 -289.72 C 873.87 -309.12, 935.38 -321.04, 994.26 -334.34 C 1053.13 -347.65, 1111.70 -362.99, 1170.75 -369.54 C 1229.79 -376.08, 1290.61 -374.48, 1348.54 -373.60 C 1406.47 -372.72, 1463.64 -373.38, 1518.34 -364.25 C 1573.04 -355.12, 1626.66 -335.70, 1676.75 -318.84 C 1726.83 -301.98, 1770.62 -280.69, 1818.86 -263.11 C 1867.11 -245.53, 1920.72 -234.31, 1966.20 -213.37 C 2011.68 -192.43, 2050.11 -162.32, 2091.74 -137.47 C 2133.37 -112.62, 2177.91 -92.36, 2215.97 -64.26 C 2254.03 -36.17, 2290.05 -2.01, 2320.08 31.10 C 2350.12 64.22, 2369.98 98.20, 2396.17 134.42 C 2422.36 170.64, 2450.28 209.45, 2477.22 248.41 C 2504.17 287.37, 2537.63 325.40, 2557.81 368.18 C 2578.00 410.96, 2594.06 458.03, 2598.33 505.09 C 2602.60 552.14, 2592.28 602.79, 2583.45 650.53 C 2574.61 698.26, 2562.08 744.72, 2545.31 791.49 C 2528.54 838.27, 2510.69 886.17, 2482.84 931.18 C 2454.99 976.18, 2395.64 1039.80, 2378.21 1061.52" transform="" fill="none" stroke="url(#gradPink)" stroke-width="168.0" stroke-linecap="round" stroke-linejoin="round" opacity="0.087"/>
<path d="M 134.73 907.86 C 125.63 886.91, 87.12 826.16, 80.11 782.16 C 73.10 738.15, 92.29 689.56, 92.68 643.84 C 93.06 598.11, 75.45 552.23, 82.40 507.80 C 89.35 463.37, 117.06 421.40, 134.40 377.25 C 151.74 333.11, 163.46 287.20, 186.44 242.93 C 209.41 198.67, 240.45 154.66, 272.25 111.67 C 304.04 68.67, 335.56 23.54, 377.21 -15.04 C 418.86 -53.62, 475.66 -85.99, 522.14 -119.80 C 568.61 -153.61, 606.84 -189.59, 656.07 -217.91 C 705.30 -246.23, 761.14 -270.31, 817.51 -289.72 C 873.87 -309.12, 935.38 -321.04, 994.26 -334.34 C 1053.13 -347.65, 1111.70 -362.99, 1170.75 -369.54 C 1229.79 -376.08, 1290.61 -374.48, 1348.54 -373.60 C 1406.47 -372.72, 1463.64 -373.38, 1518.34 -364.25 C 1573.04 -355.12, 1626.66 -335.70, 1676.75 -318.84 C 1726.83 -301.98, 1770.62 -280.69, 1818.86 -263.11 C 1867.11 -245.53, 1920.72 -234.31, 1966.20 -213.37 C 2011.68 -192.43, 2050.11 -162.32, 2091.74 -137.47 C 2133.37 -112.62, 2177.91 -92.36, 2215.97 -64.26 C 2254.03 -36.17, 2290.05 -2.01, 2320.08 31.10 C 2350.12 64.22, 2369.98 98.20, 2396.17 134.42 C 2422.36 170.64, 2450.28 209.45, 2477.22 248.41 C 2504.17 287.37, 2537.63 325.40, 2557.81 368.18 C 2578.00 410.96, 2594.06 458.03, 2598.33 505.09 C 2602.60 552.14, 2592.28 602.79, 2583.45 650.53 C 2574.61 698.26, 2562.08 744.72, 2545.31 791.49 C 2528.54 838.27, 2510.69 886.17, 2482.84 931.18 C 2454.99 976.18, 2395.64 1039.80, 2378.21 1061.52" transform="" fill="none" stroke="url(#gradPink)" stroke-width="121.0" stroke-linecap="round" stroke-linejoin="round" opacity="0.065"/>
<path d="M 134.73 907.86 C 125.63 886.91, 87.12 826.16, 80.11 782.16 C 73.10 738.15, 92.29 689.56, 92.68 643.84 C 93.06 598.11, 75.45 552.23, 82.40 507.80 C 89.35 463.37, 117.06 421.40, 134.40 377.25 C 151.74 333.11, 163.46 287.20, 186.44 242.93 C 209.41 198.67, 240.45 154.66, 272.25 111.67 C 304.04 68.67, 335.56 23.54, 377.21 -15.04 C 418.86 -53.62, 475.66 -85.99, 522.14 -119.80 C 568.61 -153.61, 606.84 -189.59, 656.07 -217.91 C 705.30 -246.23, 761.14 -270.31, 817.51 -289.72 C 873.87 -309.12, 935.38 -321.04, 994.26 -334.34 C 1053.13 -347.65, 1111.70 -362.99, 1170.75 -369.54 C 1229.79 -376.08, 1290.61 -374.48, 1348.54 -373.60 C 1406.47 -372.72, 1463.64 -373.38, 1518.34 -364.25 C 1573.04 -355.12, 1626.66 -335.70, 1676.75 -318.84 C 1726.83 -301.98, 1770.62 -280.69, 1818.86 -263.11 C 1867.11 -245.53, 1920.72 -234.31, 1966.20 -213.37 C 2011.68 -192.43, 2050.11 -162.32, 2091.74 -137.47 C 2133.37 -112.62, 2177.91 -92.36, 2215.97 -64.26 C 2254.03 -36.17, 2290.05 -2.01, 2320.08 31.10 C 2350.12 64.22, 2369.98 98.20, 2396.17 134.42 C 2422.36 170.64, 2450.28 209.45, 2477.22 248.41 C 2504.17 287.37, 2537.63 325.40, 2557.81 368.18 C 2578.00 410.96, 2594.06 458.03, 2598.33 505.09 C 2602.60 552.14, 2592.28 602.79, 2583.45 650.53 C 2574.61 698.26, 2562.08 744.72, 2545.31 791.49 C 2528.54 838.27, 2510.69 886.17, 2482.84 931.18 C 2454.99 976.18, 2395.64 1039.80, 2378.21 1061.52" transform="translate(4.00 2.00)" fill="none" stroke="url(#gradPink)" stroke-width="260.4" stroke-linecap="round" stroke-linejoin="round" opacity="0.038"/>
<path d="M 134.73 907.86 C 125.63 886.91, 87.12 826.16, 80.11 782.16 C 73.10 738.15, 92.29 689.56, 92.68 643.84 C 93.06 598.11, 75.45 552.23, 82.40 507.80 C 89.35 463.37, 117.06 421.40, 134.40 377.25 C 151.74 333.11, 163.46 287.20, 186.44 242.93 C 209.41 198.67, 240.45 154.66, 272.25 111.67 C 304.04 68.67, 335.56 23.54, 377.21 -15.04 C 418.86 -53.62, 475.66 -85.99, 522.14 -119.80 C 568.61 -153.61, 606.84 -189.59, 656.07 -217.91 C 705.30 -246.23, 761.14 -270.31, 817.51 -289.72 C 873.87 -309.12, 935.38 -321.04, 994.26 -334.34 C 1053.13 -347.65, 1111.70 -362.99, 1170.75 -369.54 C 1229.79 -376.08, 1290.61 -374.48, 1348.54 -373.60 C 1406.47 -372.72, 1463.64 -373.38, 1518.34 -364.25 C 1573.04 -355.12, 1626.66 -335.70, 1676.75 -318.84 C 1726.83 -301.98, 1770.62 -280.69, 1818.86 -263.11 C 1867.11 -245.53, 1920.72 -234.31, 1966.20 -213.37 C 2011.68 -192.43, 2050.11 -162.32, 2091.74 -137.47 C 2133.37 -112.62, 2177.91 -92.36, 2215.97 -64.26 C 2254.03 -36.17, 2290.05 -2.01, 2320.08 31.10 C 2350.12 64.22, 2369.98 98.20, 2396.17 134.42 C 2422.36 170.64, 2450.28 209.45, 2477.22 248.41 C 2504.17 287.37, 2537.63 325.40, 2557.81 368.18 C 2578.00 410.96, 2594.06 458.03, 2598.33 505.09 C 2602.60 552.14, 2592.28 602.79, 2583.45 650.53 C 2574.61 698.26, 2562.08 744.72, 2545.31 791.49 C 2528.54 838.27, 2510.69 886.17, 2482.84 931.18 C 2454.99 976.18, 2395.64 1039.80, 2378.21 1061.52" transform="translate(4.00 2.00)" fill="none" stroke="url(#gradPink)" stroke-width="210.0" stroke-linecap="round" stroke-linejoin="round" opacity="0.057"/>
<path d="M 134.73 907.86 C 125.63 886.91, 87.12 826.16, 80.11 782.16 C 73.10 738.15, 92.29 689.56, 92.68 643.84 C 93.06 598.11, 75.45 552.23, 82.40 507.80 C 89.35 463.37, 117.06 421.40, 134.40 377.25 C 151.74 333.11, 163.46 287.20, 186.44 242.93 C 209.41 198.67, 240.45 154.66, 272.25 111.67 C 304.04 68.67, 335.56 23.54, 377.21 -15.04 C 418.86 -53.62, 475.66 -85.99, 522.14 -119.80 C 568.61 -153.61, 606.84 -189.59, 656.07 -217.91 C 705.30 -246.23, 761.14 -270.31, 817.51 -289.72 C 873.87 -309.12, 935.38 -321.04, 994.26 -334.34 C 1053.13 -347.65, 1111.70 -362.99, 1170.75 -369.54 C 1229.79 -376.08, 1290.61 -374.48, 1348.54 -373.60 C 1406.47 -372.72, 1463.64 -373.38, 1518.34 -364.25 C 1573.04 -355.12, 1626.66 -335.70, 1676.75 -318.84 C 1726.83 -301.98, 1770.62 -280.69, 1818.86 -263.11 C 1867.11 -245.53, 1920.72 -234.31, 1966.20 -213.37 C 2011.68 -192.43, 2050.11 -162.32, 2091.74 -137.47 C 2133.37 -112.62, 2177.91 -92.36, 2215.97 -64.26 C 2254.03 -36.17, 2290.05 -2.01, 2320.08 31.10 C 2350.12 64.22, 2369.98 98.20, 2396.17 134.42 C 2422.36 170.64, 2450.28 209.45, 2477.22 248.41 C 2504.17 287.37, 2537.63 325.40, 2557.81 368.18 C 2578.00 410.96, 2594.06 458.03, 2598.33 505.09 C 2602.60 552.14, 2592.28 602.79, 2583.45 650.53 C 2574.61 698.26, 2562.08 744.72, 2545.31 791.49 C 2528.54 838.27, 2510.69 886.17, 2482.84 931.18 C 2454.99 976.18, 2395.64 1039.80, 2378.21 1061.52" transform="translate(4.00 2.00)" fill="none" stroke="url(#gradPink)" stroke-width="168.0" stroke-linecap="round" stroke-linejoin="round" opacity="0.087"/>
<path d="M 134.73 907.86 C 125.63 886.91, 87.12 826.16, 80.11 782.16 C 73.10 738.15, 92.29 689.56, 92.68 643.84 C 93.06 598.11, 75.45 552.23, 82.40 507.80 C 89.35 463.37, 117.06 421.40, 134.40 377.25 C 151.74 333.11, 163.46 287.20, 186.44 242.93 C 209.41 198.67, 240.45 154.66, 272.25 111.67 C 304.04 68.67, 335.56 23.54, 377.21 -15.04 C 418.86 -53.62, 475.66 -85.99, 522.14 -119.80 C 568.61 -153.61, 606.84 -189.59, 656.07 -217.91 C 705.30 -246.23, 761.14 -270.31, 817.51 -289.72 C 873.87 -309.12, 935.38 -321.04, 994.26 -334.34 C 1053.13 -347.65, 1111.70 -362.99, 1170.75 -369.54 C 1229.79 -376.08, 1290.61 -374.48, 1348.54 -373.60 C 1406.47 -372.72, 1463.64 -373.38, 1518.34 -364.25 C 1573.04 -355.12, 1626.66 -335.70, 1676.75 -318.84 C 1726.83 -301.98, 1770.62 -280.69, 1818.86 -263.11 C 1867.11 -245.53, 1920.72 -234.31, 1966.20 -213.37 C 2011.68 -192.43, 2050.11 -162.32, 2091.74 -137.47 C 2133.37 -112.62, 2177.91 -92.36, 2215.97 -64.26 C 2254.03 -36.17, 2290.05 -2.01, 2320.08 31.10 C 2350.12 64.22, 2369.98 98.20, 2396.17 134.42 C 2422.36 170.64, 2450.28 209.45, 2477.22 248.41 C 2504.17 287.37, 2537.63 325.40, 2557.81 368.18 C 2578.00 410.96, 2594.06 458.03, 2598.33 505.09 C 2602.60 552.14, 2592.28 602.79, 2583.45 650.53 C 2574.61 698.26, 2562.08 744.72, 2545.31 791.49 C 2528.54 838.27, 2510.69 886.17, 2482.84 931.18 C 2454.99 976.18, 2395.64 1039.80, 2378.21 1061.52" transform="translate(4.00 2.00)" fill="none" stroke="url(#gradPink)" stroke-width="121.0" stroke-linecap="round" stroke-linejoin="round" opacity="0.065"/>
<path d="M 134.73 907.86 C 125.63 886.91, 87.12 826.16, 80.11 782.16 C 73.10 738.15, 92.29 689.56, 92.68 643.84 C 93.06 598.11, 75.45 552.23, 82.40 507.80 C 89.35 463.37, 117.06 421.40, 134.40 377.25 C 151.74 333.11, 163.46 287.20, 186.44 242.93 C 209.41 198.67, 240.45 154.66, 272.25 111.67 C 304.04 68.67, 335.56 23.54, 377.21 -15.04 C 418.86 -53.62, 475.66 -85.99, 522.14 -119.80 C 568.61 -153.61, 606.84 -189.59, 656.07 -217.91 C 705.30 -246.23, 761.14 -270.31, 817.51 -289.72 C 873.87 -309.12, 935.38 -321.04, 994.26 -334.34 C 1053.13 -347.65, 1111.70 -362.99, 1170.75 -369.54 C 1229.79 -376.08, 1290.61 -374.48, 1348.54 -373.60 C 1406.47 -372.72, 1463.64 -373.38, 1518.34 -364.25 C 1573.04 -355.12, 1626.66 -335.70, 1676.75 -318.84 C 1726.83 -301.98, 1770.62 -280.69, 1818.86 -263.11 C 1867.11 -245.53, 1920.72 -234.31, 1966.20 -213.37 C 2011.68 -192.43, 2050.11 -162.32, 2091.74 -137.47 C 2133.37 -112.62, 2177.91 -92.36, 2215.97 -64.26 C 2254.03 -36.17, 2290.05 -2.01, 2320.08 31.10 C 2350.12 64.22, 2369.98 98.20, 2396.17 134.42 C 2422.36 170.64, 2450.28 209.45, 2477.22 248.41 C 2504.17 287.37, 2537.63 325.40, 2557.81 368.18 C 2578.00 410.96, 2594.06 458.03, 2598.33 505.09 C 2602.60 552.14, 2592.28 602.79, 2583.45 650.53 C 2574.61 698.26, 2562.08 744.72, 2545.31 791.49 C 2528.54 838.27, 2510.69 886.17, 2482.84 931.18 C 2454.99 976.18, 2395.64 1039.80, 2378.21 1061.52" transform="translate(-3.00 1.10)" fill="none" stroke="url(#gradPink)" stroke-width="260.4" stroke-linecap="round" stroke-linejoin="round" opacity="0.038"/>
<path d="M 134.73 907.86 C 125.63 886.91, 87.12 826.16, 80.11 782.16 C 73.10 738.15, 92.29 689.56, 92.68 643.84 C 93.06 598.11, 75.45 552.23, 82.40 507.80 C 89.35 463.37, 117.06 421.40, 134.40 377.25 C 151.74 333.11, 163.46 287.20, 186.44 242.93 C 209.41 198.67, 240.45 154.66, 272.25 111.67 C 304.04 68.67, 335.56 23.54, 377.21 -15.04 C 418.86 -53.62, 475.66 -85.99, 522.14 -119.80 C 568.61 -153.61, 606.84 -189.59, 656.07 -217.91 C 705.30 -246.23, 761.14 -270.31, 817.51 -289.72 C 873.87 -309.12, 935.38 -321.04, 994.26 -334.34 C 1053.13 -347.65, 1111.70 -362.99, 1170.75 -369.54 C 1229.79 -376.08, 1290.61 -374.48, 1348.54 -373.60 C 1406.47 -372.72, 1463.64 -373.38, 1518.34 -364.25 C 1573.04 -355.12, 1626.66 -335.70, 1676.75 -318.84 C 1726.83 -301.98, 1770.62 -280.69, 1818.86 -263.11 C 1867.11 -245.53, 1920.72 -234.31, 1966.20 -213.37 C 2011.68 -192.43, 2050.11 -162.32, 2091.74 -137.47 C 2133.37 -112.62, 2177.91 -92.36, 2215.97 -64.26 C 2254.03 -36.17, 2290.05 -2.01, 2320.08 31.10 C 2350.12 64.22, 2369.98 98.20, 2396.17 134.42 C 2422.36 170.64, 2450.28 209.45, 2477.22 248.41 C 2504.17 287.37, 2537.63 325.40, 2557.81 368.18 C 2578.00 410.96, 2594.06 458.03, 2598.33 505.09 C 2602.60 552.14, 2592.28 602.79, 2583.45 650.53 C 2574.61 698.26, 2562.08 744.72, 2545.31 791.49 C 2528.54 838.27, 2510.69 886.17, 2482.84 931.18 C 2454.99 976.18, 2395.64 1039.80, 2378.21 1061.52" transform="translate(-3.00 1.10)" fill="none" stroke="url(#gradPink)" stroke-width="210.0" stroke-linecap="round" stroke-linejoin="round" opacity="0.057"/>
<path d="M 134.73 907.86 C 125.63 886.91, 87.12 826.16, 80.11 782.16 C 73.10 738.15, 92.29 689.56, 92.68 643.84 C 93.06 598.11, 75.45 552.23, 82.40 507.80 C 89.35 463.37, 117.06 421.40, 134.40 377.25 C 151.74 333.11, 163.46 287.20, 186.44 242.93 C 209.41 198.67, 240.45 154.66, 272.25 111.67 C 304.04 68.67, 335.56 23.54, 377.21 -15.04 C 418.86 -53.62, 475.66 -85.99, 522.14 -119.80 C 568.61 -153.61, 606.84 -189.59, 656.07 -217.91 C 705.30 -246.23, 761.14 -270.31, 817.51 -289.72 C 873.87 -309.12, 935.38 -321.04, 994.26 -334.34 C 1053.13 -347.65, 1111.70 -362.99, 1170.75 -369.54 C 1229.79 -376.08, 1290.61 -374.48, 1348.54 -373.60 C 1406.47 -372.72, 1463.64 -373.38, 1518.34 -364.25 C 1573.04 -355.12, 1626.66 -335.70, 1676.75 -318.84 C 1726.83 -301.98, 1770.62 -280.69, 1818.86 -263.11 C 1867.11 -245.53, 1920.72 -234.31, 1966.20 -213.37 C 2011.68 -192.43, 2050.11 -162.32, 2091.74 -137.47 C 2133.37 -112.62, 2177.91 -92.36, 2215.97 -64.26 C 2254.03 -36.17, 2290.05 -2.01, 2320.08 31.10 C 2350.12 64.22, 2369.98 98.20, 2396.17 134.42 C 2422.36 170.64, 2450.28 209.45, 2477.22 248.41 C 2504.17 287.37, 2537.63 325.40, 2557.81 368.18 C 2578.00 410.96, 2594.06 458.03, 2598.33 505.09 C 2602.60 552.14, 2592.28 602.79, 2583.45 650.53 C 2574.61 698.26, 2562.08 744.72, 2545.31 791.49 C 2528.54 838.27, 2510.69 886.17, 2482.84 931.18 C 2454.99 976.18, 2395.64 1039.80, 2378.21 1061.52" transform="translate(-3.00 1.10)" fill="none" stroke="url(#gradPink)" stroke-width="168.0" stroke-linecap="round" stroke-linejoin="round" opacity="0.087"/>
<path d="M 134.73 907.86 C 125.63 886.91, 87.12 826.16, 80.11 782.16 C 73.10 738.15, 92.29 689.56, 92.68 643.84 C 93.06 598.11, 75.45 552.23, 82.40 507.80 C 89.35 463.37, 117.06 421.40, 134.40 377.25 C 151.74 333.11, 163.46 287.20, 186.44 242.93 C 209.41 198.67, 240.45 154.66, 272.25 111.67 C 304.04 68.67, 335.56 23.54, 377.21 -15.04 C 418.86 -53.62, 475.66 -85.99, 522.14 -119.80 C 568.61 -153.61, 606.84 -189.59, 656.07 -217.91 C 705.30 -246.23, 761.14 -270.31, 817.51 -289.72 C 873.87 -309.12, 935.38 -321.04, 994.26 -334.34 C 1053.13 -347.65, 1111.70 -362.99, 1170.75 -369.54 C 1229.79 -376.08, 1290.61 -374.48, 1348.54 -373.60 C 1406.47 -372.72, 1463.64 -373.38, 1518.34 -364.25 C 1573.04 -355.12, 1626.66 -335.70, 1676.75 -318.84 C 1726.83 -301.98, 1770.62 -280.69, 1818.86 -263.11 C 1867.11 -245.53, 1920.72 -234.31, 1966.20 -213.37 C 2011.68 -192.43, 2050.11 -162.32, 2091.74 -137.47 C 2133.37 -112.62, 2177.91 -92.36, 2215.97 -64.26 C 2254.03 -36.17, 2290.05 -2.01, 2320.08 31.10 C 2350.12 64.22, 2369.98 98.20, 2396.17 134.42 C 2422.36 170.64, 2450.28 209.45, 2477.22 248.41 C 2504.17 287.37, 2537.63 325.40, 2557.81 368.18 C 2578.00 410.96, 2594.06 458.03, 2598.33 505.09 C 2602.60 552.14, 2592.28 602.79, 2583.45 650.53 C 2574.61 698.26, 2562.08 744.72, 2545.31 791.49 C 2528.54 838.27, 2510.69 886.17, 2482.84 931.18 C 2454.99 976.18, 2395.64 1039.80, 2378.21 1061.52" transform="translate(-3.00 1.10)" fill="none" stroke="url(#gradPink)" stroke-width="121.0" stroke-linecap="round" stroke-linejoin="round" opacity="0.065"/>
<path d="M 2094.61 175.24 C 2107.99 193.34, 2155.79 244.92, 2174.92 283.82 C 2194.05 322.72, 2199.54 366.35, 2209.39 408.66 C 2219.25 450.97, 2232.62 493.18, 2234.06 537.68 C 2235.50 582.18, 2228.02 631.05, 2218.05 675.65 C 2208.07 720.24, 2195.97 762.43, 2174.22 805.24 C 2152.46 848.06, 2121.15 890.58, 2087.52 932.53 C 2053.90 974.47, 2014.31 1021.31, 1972.47 1056.90 C 1930.64 1092.49, 1885.44 1118.49, 1836.52 1146.09 C 1787.60 1173.68, 1731.66 1198.80, 1678.94 1222.47 C 1626.23 1246.14, 1575.13 1270.54, 1520.24 1288.12 C 1465.35 1305.70, 1406.37 1317.50, 1349.62 1327.96 C 1292.87 1338.42, 1235.90 1349.02, 1179.73 1350.90 C 1123.56 1352.78, 1067.86 1343.08, 1012.60 1339.25 C 957.34 1335.41, 901.26 1334.70, 848.18 1327.89 C 795.09 1321.09, 742.87 1312.06, 694.07 1298.42 C 645.28 1284.77, 603.12 1264.36, 555.39 1246.01 C 507.66 1227.66, 449.70 1212.53, 407.69 1188.34 C 365.68 1164.14, 338.32 1130.98, 303.32 1100.86 C 268.31 1070.73, 227.65 1040.51, 197.68 1007.59 C 167.70 974.68, 141.69 940.64, 123.45 903.39 C 105.21 866.15, 104.83 823.73, 88.24 784.12 C 71.65 744.51, 34.34 706.78, 23.91 665.75 C 13.48 624.72, 15.29 581.70, 25.67 537.93 C 36.05 494.17, 70.22 446.31, 86.18 403.18 C 102.14 360.05, 105.41 318.86, 121.43 279.17 C 137.45 239.48, 154.91 203.30, 182.29 165.02 C 209.67 126.75, 248.84 86.53, 285.72 49.51 C 322.61 12.50, 383.95 -39.31, 403.60 -57.08" transform="" fill="none" stroke="url(#gradMain)" stroke-width="241.8" stroke-linecap="round" stroke-linejoin="round" opacity="0.036"/>
<path d="M 2094.61 175.24 C 2107.99 193.34, 2155.79 244.92, 2174.92 283.82 C 2194.05 322.72, 2199.54 366.35, 2209.39 408.66 C 2219.25 450.97, 2232.62 493.18, 2234.06 537.68 C 2235.50 582.18, 2228.02 631.05, 2218.05 675.65 C 2208.07 720.24, 2195.97 762.43, 2174.22 805.24 C 2152.46 848.06, 2121.15 890.58, 2087.52 932.53 C 2053.90 974.47, 2014.31 1021.31, 1972.47 1056.90 C 1930.64 1092.49, 1885.44 1118.49, 1836.52 1146.09 C 1787.60 1173.68, 1731.66 1198.80, 1678.94 1222.47 C 1626.23 1246.14, 1575.13 1270.54, 1520.24 1288.12 C 1465.35 1305.70, 1406.37 1317.50, 1349.62 1327.96 C 1292.87 1338.42, 1235.90 1349.02, 1179.73 1350.90 C 1123.56 1352.78, 1067.86 1343.08, 1012.60 1339.25 C 957.34 1335.41, 901.26 1334.70, 848.18 1327.89 C 795.09 1321.09, 742.87 1312.06, 694.07 1298.42 C 645.28 1284.77, 603.12 1264.36, 555.39 1246.01 C 507.66 1227.66, 449.70 1212.53, 407.69 1188.34 C 365.68 1164.14, 338.32 1130.98, 303.32 1100.86 C 268.31 1070.73, 227.65 1040.51, 197.68 1007.59 C 167.70 974.68, 141.69 940.64, 123.45 903.39 C 105.21 866.15, 104.83 823.73, 88.24 784.12 C 71.65 744.51, 34.34 706.78, 23.91 665.75 C 13.48 624.72, 15.29 581.70, 25.67 537.93 C 36.05 494.17, 70.22 446.31, 86.18 403.18 C 102.14 360.05, 105.41 318.86, 121.43 279.17 C 137.45 239.48, 154.91 203.30, 182.29 165.02 C 209.67 126.75, 248.84 86.53, 285.72 49.51 C 322.61 12.50, 383.95 -39.31, 403.60 -57.08" transform="" fill="none" stroke="url(#gradMain)" stroke-width="195.0" stroke-linecap="round" stroke-linejoin="round" opacity="0.054"/>
<path d="M 2094.61 175.24 C 2107.99 193.34, 2155.79 244.92, 2174.92 283.82 C 2194.05 322.72, 2199.54 366.35, 2209.39 408.66 C 2219.25 450.97, 2232.62 493.18, 2234.06 537.68 C 2235.50 582.18, 2228.02 631.05, 2218.05 675.65 C 2208.07 720.24, 2195.97 762.43, 2174.22 805.24 C 2152.46 848.06, 2121.15 890.58, 2087.52 932.53 C 2053.90 974.47, 2014.31 1021.31, 1972.47 1056.90 C 1930.64 1092.49, 1885.44 1118.49, 1836.52 1146.09 C 1787.60 1173.68, 1731.66 1198.80, 1678.94 1222.47 C 1626.23 1246.14, 1575.13 1270.54, 1520.24 1288.12 C 1465.35 1305.70, 1406.37 1317.50, 1349.62 1327.96 C 1292.87 1338.42, 1235.90 1349.02, 1179.73 1350.90 C 1123.56 1352.78, 1067.86 1343.08, 1012.60 1339.25 C 957.34 1335.41, 901.26 1334.70, 848.18 1327.89 C 795.09 1321.09, 742.87 1312.06, 694.07 1298.42 C 645.28 1284.77, 603.12 1264.36, 555.39 1246.01 C 507.66 1227.66, 449.70 1212.53, 407.69 1188.34 C 365.68 1164.14, 338.32 1130.98, 303.32 1100.86 C 268.31 1070.73, 227.65 1040.51, 197.68 1007.59 C 167.70 974.68, 141.69 940.64, 123.45 903.39 C 105.21 866.15, 104.83 823.73, 88.24 784.12 C 71.65 744.51, 34.34 706.78, 23.91 665.75 C 13.48 624.72, 15.29 581.70, 25.67 537.93 C 36.05 494.17, 70.22 446.31, 86.18 403.18 C 102.14 360.05, 105.41 318.86, 121.43 279.17 C 137.45 239.48, 154.91 203.30, 182.29 165.02 C 209.67 126.75, 248.84 86.53, 285.72 49.51 C 322.61 12.50, 383.95 -39.31, 403.60 -57.08" transform="" fill="none" stroke="url(#gradMain)" stroke-width="156.0" stroke-linecap="round" stroke-linejoin="round" opacity="0.083"/>
<path d="M 2094.61 175.24 C 2107.99 193.34, 2155.79 244.92, 2174.92 283.82 C 2194.05 322.72, 2199.54 366.35, 2209.39 408.66 C 2219.25 450.97, 2232.62 493.18, 2234.06 537.68 C 2235.50 582.18, 2228.02 631.05, 2218.05 675.65 C 2208.07 720.24, 2195.97 762.43, 2174.22 805.24 C 2152.46 848.06, 2121.15 890.58, 2087.52 932.53 C 2053.90 974.47, 2014.31 1021.31, 1972.47 1056.90 C 1930.64 1092.49, 1885.44 1118.49, 1836.52 1146.09 C 1787.60 1173.68, 1731.66 1198.80, 1678.94 1222.47 C 1626.23 1246.14, 1575.13 1270.54, 1520.24 1288.12 C 1465.35 1305.70, 1406.37 1317.50, 1349.62 1327.96 C 1292.87 1338.42, 1235.90 1349.02, 1179.73 1350.90 C 1123.56 1352.78, 1067.86 1343.08, 1012.60 1339.25 C 957.34 1335.41, 901.26 1334.70, 848.18 1327.89 C 795.09 1321.09, 742.87 1312.06, 694.07 1298.42 C 645.28 1284.77, 603.12 1264.36, 555.39 1246.01 C 507.66 1227.66, 449.70 1212.53, 407.69 1188.34 C 365.68 1164.14, 338.32 1130.98, 303.32 1100.86 C 268.31 1070.73, 227.65 1040.51, 197.68 1007.59 C 167.70 974.68, 141.69 940.64, 123.45 903.39 C 105.21 866.15, 104.83 823.73, 88.24 784.12 C 71.65 744.51, 34.34 706.78, 23.91 665.75 C 13.48 624.72, 15.29 581.70, 25.67 537.93 C 36.05 494.17, 70.22 446.31, 86.18 403.18 C 102.14 360.05, 105.41 318.86, 121.43 279.17 C 137.45 239.48, 154.91 203.30, 182.29 165.02 C 209.67 126.75, 248.84 86.53, 285.72 49.51 C 322.61 12.50, 383.95 -39.31, 403.60 -57.08" transform="" fill="none" stroke="url(#gradMain)" stroke-width="112.3" stroke-linecap="round" stroke-linejoin="round" opacity="0.061"/>
<path d="M 2094.61 175.24 C 2107.99 193.34, 2155.79 244.92, 2174.92 283.82 C 2194.05 322.72, 2199.54 366.35, 2209.39 408.66 C 2219.25 450.97, 2232.62 493.18, 2234.06 537.68 C 2235.50 582.18, 2228.02 631.05, 2218.05 675.65 C 2208.07 720.24, 2195.97 762.43, 2174.22 805.24 C 2152.46 848.06, 2121.15 890.58, 2087.52 932.53 C 2053.90 974.47, 2014.31 1021.31, 1972.47 1056.90 C 1930.64 1092.49, 1885.44 1118.49, 1836.52 1146.09 C 1787.60 1173.68, 1731.66 1198.80, 1678.94 1222.47 C 1626.23 1246.14, 1575.13 1270.54, 1520.24 1288.12 C 1465.35 1305.70, 1406.37 1317.50, 1349.62 1327.96 C 1292.87 1338.42, 1235.90 1349.02, 1179.73 1350.90 C 1123.56 1352.78, 1067.86 1343.08, 1012.60 1339.25 C 957.34 1335.41, 901.26 1334.70, 848.18 1327.89 C 795.09 1321.09, 742.87 1312.06, 694.07 1298.42 C 645.28 1284.77, 603.12 1264.36, 555.39 1246.01 C 507.66 1227.66, 449.70 1212.53, 407.69 1188.34 C 365.68 1164.14, 338.32 1130.98, 303.32 1100.86 C 268.31 1070.73, 227.65 1040.51, 197.68 1007.59 C 167.70 974.68, 141.69 940.64, 123.45 903.39 C 105.21 866.15, 104.83 823.73, 88.24 784.12 C 71.65 744.51, 34.34 706.78, 23.91 665.75 C 13.48 624.72, 15.29 581.70, 25.67 537.93 C 36.05 494.17, 70.22 446.31, 86.18 403.18 C 102.14 360.05, 105.41 318.86, 121.43 279.17 C 137.45 239.48, 154.91 203.30, 182.29 165.02 C 209.67 126.75, 248.84 86.53, 285.72 49.51 C 322.61 12.50, 383.95 -39.31, 403.60 -57.08" transform="translate(4.00 2.00)" fill="none" stroke="url(#gradMain)" stroke-width="241.8" stroke-linecap="round" stroke-linejoin="round" opacity="0.036"/>
<path d="M 2094.61 175.24 C 2107.99 193.34, 2155.79 244.92, 2174.92 283.82 C 2194.05 322.72, 2199.54 366.35, 2209.39 408.66 C 2219.25 450.97, 2232.62 493.18, 2234.06 537.68 C 2235.50 582.18, 2228.02 631.05, 2218.05 675.65 C 2208.07 720.24, 2195.97 762.43, 2174.22 805.24 C 2152.46 848.06, 2121.15 890.58, 2087.52 932.53 C 2053.90 974.47, 2014.31 1021.31, 1972.47 1056.90 C 1930.64 1092.49, 1885.44 1118.49, 1836.52 1146.09 C 1787.60 1173.68, 1731.66 1198.80, 1678.94 1222.47 C 1626.23 1246.14, 1575.13 1270.54, 1520.24 1288.12 C 1465.35 1305.70, 1406.37 1317.50, 1349.62 1327.96 C 1292.87 1338.42, 1235.90 1349.02, 1179.73 1350.90 C 1123.56 1352.78, 1067.86 1343.08, 1012.60 1339.25 C 957.34 1335.41, 901.26 1334.70, 848.18 1327.89 C 795.09 1321.09, 742.87 1312.06, 694.07 1298.42 C 645.28 1284.77, 603.12 1264.36, 555.39 1246.01 C 507.66 1227.66, 449.70 1212.53, 407.69 1188.34 C 365.68 1164.14, 338.32 1130.98, 303.32 1100.86 C 268.31 1070.73, 227.65 1040.51, 197.68 1007.59 C 167.70 974.68, 141.69 940.64, 123.45 903.39 C 105.21 866.15, 104.83 823.73, 88.24 784.12 C 71.65 744.51, 34.34 706.78, 23.91 665.75 C 13.48 624.72, 15.29 581.70, 25.67 537.93 C 36.05 494.17, 70.22 446.31, 86.18 403.18 C 102.14 360.05, 105.41 318.86, 121.43 279.17 C 137.45 239.48, 154.91 203.30, 182.29 165.02 C 209.67 126.75, 248.84 86.53, 285.72 49.51 C 322.61 12.50, 383.95 -39.31, 403.60 -57.08" transform="translate(4.00 2.00)" fill="none" stroke="url(#gradMain)" stroke-width="195.0" stroke-linecap="round" stroke-linejoin="round" opacity="0.054"/>
<path d="M 2094.61 175.24 C 2107.99 193.34, 2155.79 244.92, 2174.92 283.82 C 2194.05 322.72, 2199.54 366.35, 2209.39 408.66 C 2219.25 450.97, 2232.62 493.18, 2234.06 537.68 C 2235.50 582.18, 2228.02 631.05, 2218.05 675.65 C 2208.07 720.24, 2195.97 762.43, 2174.22 805.24 C 2152.46 848.06, 2121.15 890.58, 2087.52 932.53 C 2053.90 974.47, 2014.31 1021.31, 1972.47 1056.90 C 1930.64 1092.49, 1885.44 1118.49, 1836.52 1146.09 C 1787.60 1173.68, 1731.66 1198.80, 1678.94 1222.47 C 1626.23 1246.14, 1575.13 1270.54, 1520.24 1288.12 C 1465.35 1305.70, 1406.37 1317.50, 1349.62 1327.96 C 1292.87 1338.42, 1235.90 1349.02, 1179.73 1350.90 C 1123.56 1352.78, 1067.86 1343.08, 1012.60 1339.25 C 957.34 1335.41, 901.26 1334.70, 848.18 1327.89 C 795.09 1321.09, 742.87 1312.06, 694.07 1298.42 C 645.28 1284.77, 603.12 1264.36, 555.39 1246.01 C 507.66 1227.66, 449.70 1212.53, 407.69 1188.34 C 365.68 1164.14, 338.32 1130.98, 303.32 1100.86 C 268.31 1070.73, 227.65 1040.51, 197.68 1007.59 C 167.70 974.68, 141.69 940.64, 123.45 903.39 C 105.21 866.15, 104.83 823.73, 88.24 784.12 C 71.65 744.51, 34.34 706.78, 23.91 665.75 C 13.48 624.72, 15.29 581.70, 25.67 537.93 C 36.05 494.17, 70.22 446.31, 86.18 403.18 C 102.14 360.05, 105.41 318.86, 121.43 279.17 C 137.45 239.48, 154.91 203.30, 182.29 165.02 C 209.67 126.75, 248.84 86.53, 285.72 49.51 C 322.61 12.50, 383.95 -39.31, 403.60 -57.08" transform="translate(4.00 2.00)" fill="none" stroke="url(#gradMain)" stroke-width="156.0" stroke-linecap="round" stroke-linejoin="round" opacity="0.083"/>
<path d="M 2094.61 175.24 C 2107.99 193.34, 2155.79 244.92, 2174.92 283.82 C 2194.05 322.72, 2199.54 366.35, 2209.39 408.66 C 2219.25 450.97, 2232.62 493.18, 2234.06 537.68 C 2235.50 582.18, 2228.02 631.05, 2218.05 675.65 C 2208.07 720.24, 2195.97 762.43, 2174.22 805.24 C 2152.46 848.06, 2121.15 890.58, 2087.52 932.53 C 2053.90 974.47, 2014.31 1021.31, 1972.47 1056.90 C 1930.64 1092.49, 1885.44 1118.49, 1836.52 1146.09 C 1787.60 1173.68, 1731.66 1198.80, 1678.94 1222.47 C 1626.23 1246.14, 1575.13 1270.54, 1520.24 1288.12 C 1465.35 1305.70, 1406.37 1317.50, 1349.62 1327.96 C 1292.87 1338.42, 1235.90 1349.02, 1179.73 1350.90 C 1123.56 1352.78, 1067.86 1343.08, 1012.60 1339.25 C 957.34 1335.41, 901.26 1334.70, 848.18 1327.89 C 795.09 1321.09, 742.87 1312.06, 694.07 1298.42 C 645.28 1284.77, 603.12 1264.36, 555.39 1246.01 C 507.66 1227.66, 449.70 1212.53, 407.69 1188.34 C 365.68 1164.14, 338.32 1130.98, 303.32 1100.86 C 268.31 1070.73, 227.65 1040.51, 197.68 1007.59 C 167.70 974.68, 141.69 940.64, 123.45 903.39 C 105.21 866.15, 104.83 823.73, 88.24 784.12 C 71.65 744.51, 34.34 706.78, 23.91 665.75 C 13.48 624.72, 15.29 581.70, 25.67 537.93 C 36.05 494.17, 70.22 446.31, 86.18 403.18 C 102.14 360.05, 105.41 318.86, 121.43 279.17 C 137.45 239.48, 154.91 203.30, 182.29 165.02 C 209.67 126.75, 248.84 86.53, 285.72 49.51 C 322.61 12.50, 383.95 -39.31, 403.60 -57.08" transform="translate(4.00 2.00)" fill="none" stroke="url(#gradMain)" stroke-width="112.3" stroke-linecap="round" stroke-linejoin="round" opacity="0.061"/>
<path d="M 2094.61 175.24 C 2107.99 193.34, 2155.79 244.92, 2174.92 283.82 C 2194.05 322.72, 2199.54 366.35, 2209.39 408.66 C 2219.25 450.97, 2232.62 493.18, 2234.06 537.68 C 2235.50 582.18, 2228.02 631.05, 2218.05 675.65 C 2208.07 720.24, 2195.97 762.43, 2174.22 805.24 C 2152.46 848.06, 2121.15 890.58, 2087.52 932.53 C 2053.90 974.47, 2014.31 1021.31, 1972.47 1056.90 C 1930.64 1092.49, 1885.44 1118.49, 1836.52 1146.09 C 1787.60 1173.68, 1731.66 1198.80, 1678.94 1222.47 C 1626.23 1246.14, 1575.13 1270.54, 1520.24 1288.12 C 1465.35 1305.70, 1406.37 1317.50, 1349.62 1327.96 C 1292.87 1338.42, 1235.90 1349.02, 1179.73 1350.90 C 1123.56 1352.78, 1067.86 1343.08, 1012.60 1339.25 C 957.34 1335.41, 901.26 1334.70, 848.18 1327.89 C 795.09 1321.09, 742.87 1312.06, 694.07 1298.42 C 645.28 1284.77, 603.12 1264.36, 555.39 1246.01 C 507.66 1227.66, 449.70 1212.53, 407.69 1188.34 C 365.68 1164.14, 338.32 1130.98, 303.32 1100.86 C 268.31 1070.73, 227.65 1040.51, 197.68 1007.59 C 167.70 974.68, 141.69 940.64, 123.45 903.39 C 105.21 866.15, 104.83 823.73, 88.24 784.12 C 71.65 744.51, 34.34 706.78, 23.91 665.75 C 13.48 624.72, 15.29 581.70, 25.67 537.93 C 36.05 494.17, 70.22 446.31, 86.18 403.18 C 102.14 360.05, 105.41 318.86, 121.43 279.17 C 137.45 239.48, 154.91 203.30, 182.29 165.02 C 209.67 126.75, 248.84 86.53, 285.72 49.51 C 322.61 12.50, 383.95 -39.31, 403.60 -57.08" transform="translate(-3.00 1.10)" fill="none" stroke="url(#gradMain)" stroke-width="241.8" stroke-linecap="round" stroke-linejoin="round" opacity="0.036"/>
<path d="M 2094.61 175.24 C 2107.99 193.34, 2155.79 244.92, 2174.92 283.82 C 2194.05 322.72, 2199.54 366.35, 2209.39 408.66 C 2219.25 450.97, 2232.62 493.18, 2234.06 537.68 C 2235.50 582.18, 2228.02 631.05, 2218.05 675.65 C 2208.07 720.24, 2195.97 762.43, 2174.22 805.24 C 2152.46 848.06, 2121.15 890.58, 2087.52 932.53 C 2053.90 974.47, 2014.31 1021.31, 1972.47 1056.90 C 1930.64 1092.49, 1885.44 1118.49, 1836.52 1146.09 C 1787.60 1173.68, 1731.66 1198.80, 1678.94 1222.47 C 1626.23 1246.14, 1575.13 1270.54, 1520.24 1288.12 C 1465.35 1305.70, 1406.37 1317.50, 1349.62 1327.96 C 1292.87 1338.42, 1235.90 1349.02, 1179.73 1350.90 C 1123.56 1352.78, 1067.86 1343.08, 1012.60 1339.25 C 957.34 1335.41, 901.26 1334.70, 848.18 1327.89 C 795.09 1321.09, 742.87 1312.06, 694.07 1298.42 C 645.28 1284.77, 603.12 1264.36, 555.39 1246.01 C 507.66 1227.66, 449.70 1212.53, 407.69 1188.34 C 365.68 1164.14, 338.32 1130.98, 303.32 1100.86 C 268.31 1070.73, 227.65 1040.51, 197.68 1007.59 C 167.70 974.68, 141.69 940.64, 123.45 903.39 C 105.21 866.15, 104.83 823.73, 88.24 784.12 C 71.65 744.51, 34.34 706.78, 23.91 665.75 C 13.48 624.72, 15.29 581.70, 25.67 537.93 C 36.05 494.17, 70.22 446.31, 86.18 403.18 C 102.14 360.05, 105.41 318.86, 121.43 279.17 C 137.45 239.48, 154.91 203.30, 182.29 165.02 C 209.67 126.75, 248.84 86.53, 285.72 49.51 C 322.61 12.50, 383.95 -39.31, 403.60 -57.08" transform="translate(-3.00 1.10)" fill="none" stroke="url(#gradMain)" stroke-width="195.0" stroke-linecap="round" stroke-linejoin="round" opacity="0.054"/>
<path d="M 2094.61 175.24 C 2107.99 193.34, 2155.79 244.92, 2174.92 283.82 C 2194.05 322.72, 2199.54 366.35, 2209.39 408.66 C 2219.25 450.97, 2232.62 493.18, 2234.06 537.68 C 2235.50 582.18, 2228.02 631.05, 2218.05 675.65 C 2208.07 720.24, 2195.97 762.43, 2174.22 805.24 C 2152.46 848.06, 2121.15 890.58, 2087.52 932.53 C 2053.90 974.47, 2014.31 1021.31, 1972.47 1056.90 C 1930.64 1092.49, 1885.44 1118.49, 1836.52 1146.09 C 1787.60 1173.68, 1731.66 1198.80, 1678.94 1222.47 C 1626.23 1246.14, 1575.13 1270.54, 1520.24 1288.12 C 1465.35 1305.70, 1406.37 1317.50, 1349.62 1327.96 C 1292.87 1338.42, 1235.90 1349.02, 1179.73 1350.90 C 1123.56 1352.78, 1067.86 1343.08, 1012.60 1339.25 C 957.34 1335.41, 901.26 1334.70, 848.18 1327.89 C 795.09 1321.09, 742.87 1312.06, 694.07 1298.42 C 645.28 1284.77, 603.12 1264.36, 555.39 1246.01 C 507.66 1227.66, 449.70 1212.53, 407.69 1188.34 C 365.68 1164.14, 338.32 1130.98, 303.32 1100.86 C 268.31 1070.73, 227.65 1040.51, 197.68 1007.59 C 167.70 974.68, 141.69 940.64, 123.45 903.39 C 105.21 866.15, 104.83 823.73, 88.24 784.12 C 71.65 744.51, 34.34 706.78, 23.91 665.75 C 13.48 624.72, 15.29 581.70, 25.67 537.93 C 36.05 494.17, 70.22 446.31, 86.18 403.18 C 102.14 360.05, 105.41 318.86, 121.43 279.17 C 137.45 239.48, 154.91 203.30, 182.29 165.02 C 209.67 126.75, 248.84 86.53, 285.72 49.51 C 322.61 12.50, 383.95 -39.31, 403.60 -57.08" transform="translate(-3.00 1.10)" fill="none" stroke="url(#gradMain)" stroke-width="156.0" stroke-linecap="round" stroke-linejoin="round" opacity="0.083"/>
<path d="M 2094.61 175.24 C 2107.99 193.34, 2155.79 244.92, 2174.92 283.82 C 2194.05 322.72, 2199.54 366.35, 2209.39 408.66 C 2219.25 450.97, 2232.62 493.18, 2234.06 537.68 C 2235.50 582.18, 2228.02 631.05, 2218.05 675.65 C 2208.07 720.24, 2195.97 762.43, 2174.22 805.24 C 2152.46 848.06, 2121.15 890.58, 2087.52 932.53 C 2053.90 974.47, 2014.31 1021.31, 1972.47 1056.90 C 1930.64 1092.49, 1885.44 1118.49, 1836.52 1146.09 C 1787.60 1173.68, 1731.66 1198.80, 1678.94 1222.47 C 1626.23 1246.14, 1575.13 1270.54, 1520.24 1288.12 C 1465.35 1305.70, 1406.37 1317.50, 1349.62 1327.96 C 1292.87 1338.42, 1235.90 1349.02, 1179.73 1350.90 C 1123.56 1352.78, 1067.86 1343.08, 1012.60 1339.25 C 957.34 1335.41, 901.26 1334.70, 848.18 1327.89 C 795.09 1321.09, 742.87 1312.06, 694.07 1298.42 C 645.28 1284.77, 603.12 1264.36, 555.39 1246.01 C 507.66 1227.66, 449.70 1212.53, 407.69 1188.34 C 365.68 1164.14, 338.32 1130.98, 303.32 1100.86 C 268.31 1070.73, 227.65 1040.51, 197.68 1007.59 C 167.70 974.68, 141.69 940.64, 123.45 903.39 C 105.21 866.15, 104.83 823.73, 88.24 784.12 C 71.65 744.51, 34.34 706.78, 23.91 665.75 C 13.48 624.72, 15.29 581.70, 25.67 537.93 C 36.05 494.17, 70.22 446.31, 86.18 403.18 C 102.14 360.05, 105.41 318.86, 121.43 279.17 C 137.45 239.48, 154.91 203.30, 182.29 165.02 C 209.67 126.75, 248.84 86.53, 285.72 49.51 C 322.61 12.50, 383.95 -39.31, 403.60 -57.08" transform="translate(-3.00 1.10)" fill="none" stroke="url(#gradMain)" stroke-width="112.3" stroke-linecap="round" stroke-linejoin="round" opacity="0.061"/>
<path d="M 583.65 427.92 C 591.30 412.75, 614.40 366.12, 629.52 336.88 C 644.63 307.64, 656.70 280.33, 674.32 252.48 C 691.94 224.62, 712.99 195.78, 735.25 169.73 C 757.50 143.68, 780.72 119.49, 807.85 96.20 C 834.99 72.91, 867.40 49.82, 898.03 29.98 C 928.67 10.13, 960.00 -5.26, 991.68 -22.87 C 1023.35 -40.47, 1054.33 -61.33, 1088.10 -75.64 C 1121.86 -89.96, 1158.34 -99.66, 1194.27 -108.74 C 1230.19 -117.82, 1267.19 -124.72, 1303.66 -130.15 C 1340.13 -135.58, 1377.14 -138.66, 1413.10 -141.34 C 1449.06 -144.02, 1484.27 -149.92, 1519.42 -146.23 C 1554.56 -142.55, 1588.90 -123.46, 1623.96 -119.23 C 1659.02 -115.01, 1696.86 -128.80, 1729.80 -120.89 C 1762.74 -112.99, 1791.59 -84.11, 1821.60 -71.79 C 1851.61 -59.46, 1881.16 -59.06, 1909.85 -46.93 C 1938.53 -34.80, 1966.66 -15.49, 1993.73 1.00 C 2020.80 17.50, 2047.08 33.70, 2072.28 52.04 C 2097.48 70.38, 2120.86 91.79, 2144.92 111.04 C 2168.99 130.30, 2195.31 146.75, 2216.68 167.59 C 2238.06 188.43, 2252.40 213.27, 2273.19 236.06 C 2293.97 258.86, 2319.85 280.31, 2341.38 304.36 C 2362.92 328.41, 2388.80 352.82, 2402.38 380.36 C 2415.95 407.90, 2416.76 439.52, 2422.84 469.62 C 2428.92 499.72, 2432.38 530.50, 2438.87 560.95 C 2445.37 591.39, 2460.27 620.85, 2461.82 652.28 C 2463.37 683.72, 2454.40 717.17, 2448.18 749.55 C 2441.96 781.94, 2436.32 815.07, 2424.49 846.57 C 2412.66 878.08, 2385.08 923.25, 2377.20 938.59" transform="" fill="none" stroke="url(#gradBlue)" stroke-width="220.1" stroke-linecap="round" stroke-linejoin="round" opacity="0.032"/>
<path d="M 583.65 427.92 C 591.30 412.75, 614.40 366.12, 629.52 336.88 C 644.63 307.64, 656.70 280.33, 674.32 252.48 C 691.94 224.62, 712.99 195.78, 735.25 169.73 C 757.50 143.68, 780.72 119.49, 807.85 96.20 C 834.99 72.91, 867.40 49.82, 898.03 29.98 C 928.67 10.13, 960.00 -5.26, 991.68 -22.87 C 1023.35 -40.47, 1054.33 -61.33, 1088.10 -75.64 C 1121.86 -89.96, 1158.34 -99.66, 1194.27 -108.74 C 1230.19 -117.82, 1267.19 -124.72, 1303.66 -130.15 C 1340.13 -135.58, 1377.14 -138.66, 1413.10 -141.34 C 1449.06 -144.02, 1484.27 -149.92, 1519.42 -146.23 C 1554.56 -142.55, 1588.90 -123.46, 1623.96 -119.23 C 1659.02 -115.01, 1696.86 -128.80, 1729.80 -120.89 C 1762.74 -112.99, 1791.59 -84.11, 1821.60 -71.79 C 1851.61 -59.46, 1881.16 -59.06, 1909.85 -46.93 C 1938.53 -34.80, 1966.66 -15.49, 1993.73 1.00 C 2020.80 17.50, 2047.08 33.70, 2072.28 52.04 C 2097.48 70.38, 2120.86 91.79, 2144.92 111.04 C 2168.99 130.30, 2195.31 146.75, 2216.68 167.59 C 2238.06 188.43, 2252.40 213.27, 2273.19 236.06 C 2293.97 258.86, 2319.85 280.31, 2341.38 304.36 C 2362.92 328.41, 2388.80 352.82, 2402.38 380.36 C 2415.95 407.90, 2416.76 439.52, 2422.84 469.62 C 2428.92 499.72, 2432.38 530.50, 2438.87 560.95 C 2445.37 591.39, 2460.27 620.85, 2461.82 652.28 C 2463.37 683.72, 2454.40 717.17, 2448.18 749.55 C 2441.96 781.94, 2436.32 815.07, 2424.49 846.57 C 2412.66 878.08, 2385.08 923.25, 2377.20 938.59" transform="" fill="none" stroke="url(#gradBlue)" stroke-width="177.5" stroke-linecap="round" stroke-linejoin="round" opacity="0.048"/>
<path d="M 583.65 427.92 C 591.30 412.75, 614.40 366.12, 629.52 336.88 C 644.63 307.64, 656.70 280.33, 674.32 252.48 C 691.94 224.62, 712.99 195.78, 735.25 169.73 C 757.50 143.68, 780.72 119.49, 807.85 96.20 C 834.99 72.91, 867.40 49.82, 898.03 29.98 C 928.67 10.13, 960.00 -5.26, 991.68 -22.87 C 1023.35 -40.47, 1054.33 -61.33, 1088.10 -75.64 C 1121.86 -89.96, 1158.34 -99.66, 1194.27 -108.74 C 1230.19 -117.82, 1267.19 -124.72, 1303.66 -130.15 C 1340.13 -135.58, 1377.14 -138.66, 1413.10 -141.34 C 1449.06 -144.02, 1484.27 -149.92, 1519.42 -146.23 C 1554.56 -142.55, 1588.90 -123.46, 1623.96 -119.23 C 1659.02 -115.01, 1696.86 -128.80, 1729.80 -120.89 C 1762.74 -112.99, 1791.59 -84.11, 1821.60 -71.79 C 1851.61 -59.46, 1881.16 -59.06, 1909.85 -46.93 C 1938.53 -34.80, 1966.66 -15.49, 1993.73 1.00 C 2020.80 17.50, 2047.08 33.70, 2072.28 52.04 C 2097.48 70.38, 2120.86 91.79, 2144.92 111.04 C 2168.99 130.30, 2195.31 146.75, 2216.68 167.59 C 2238.06 188.43, 2252.40 213.27, 2273.19 236.06 C 2293.97 258.86, 2319.85 280.31, 2341.38 304.36 C 2362.92 328.41, 2388.80 352.82, 2402.38 380.36 C 2415.95 407.90, 2416.76 439.52, 2422.84 469.62 C 2428.92 499.72, 2432.38 530.50, 2438.87 560.95 C 2445.37 591.39, 2460.27 620.85, 2461.82 652.28 C 2463.37 683.72, 2454.40 717.17, 2448.18 749.55 C 2441.96 781.94, 2436.32 815.07, 2424.49 846.57 C 2412.66 878.08, 2385.08 923.25, 2377.20 938.59" transform="" fill="none" stroke="url(#gradBlue)" stroke-width="142.0" stroke-linecap="round" stroke-linejoin="round" opacity="0.074"/>
<path d="M 583.65 427.92 C 591.30 412.75, 614.40 366.12, 629.52 336.88 C 644.63 307.64, 656.70 280.33, 674.32 252.48 C 691.94 224.62, 712.99 195.78, 735.25 169.73 C 757.50 143.68, 780.72 119.49, 807.85 96.20 C 834.99 72.91, 867.40 49.82, 898.03 29.98 C 928.67 10.13, 960.00 -5.26, 991.68 -22.87 C 1023.35 -40.47, 1054.33 -61.33, 1088.10 -75.64 C 1121.86 -89.96, 1158.34 -99.66, 1194.27 -108.74 C 1230.19 -117.82, 1267.19 -124.72, 1303.66 -130.15 C 1340.13 -135.58, 1377.14 -138.66, 1413.10 -141.34 C 1449.06 -144.02, 1484.27 -149.92, 1519.42 -146.23 C 1554.56 -142.55, 1588.90 -123.46, 1623.96 -119.23 C 1659.02 -115.01, 1696.86 -128.80, 1729.80 -120.89 C 1762.74 -112.99, 1791.59 -84.11, 1821.60 -71.79 C 1851.61 -59.46, 1881.16 -59.06, 1909.85 -46.93 C 1938.53 -34.80, 1966.66 -15.49, 1993.73 1.00 C 2020.80 17.50, 2047.08 33.70, 2072.28 52.04 C 2097.48 70.38, 2120.86 91.79, 2144.92 111.04 C 2168.99 130.30, 2195.31 146.75, 2216.68 167.59 C 2238.06 188.43, 2252.40 213.27, 2273.19 236.06 C 2293.97 258.86, 2319.85 280.31, 2341.38 304.36 C 2362.92 328.41, 2388.80 352.82, 2402.38 380.36 C 2415.95 407.90, 2416.76 439.52, 2422.84 469.62 C 2428.92 499.72, 2432.38 530.50, 2438.87 560.95 C 2445.37 591.39, 2460.27 620.85, 2461.82 652.28 C 2463.37 683.72, 2454.40 717.17, 2448.18 749.55 C 2441.96 781.94, 2436.32 815.07, 2424.49 846.57 C 2412.66 878.08, 2385.08 923.25, 2377.20 938.59" transform="" fill="none" stroke="url(#gradBlue)" stroke-width="102.2" stroke-linecap="round" stroke-linejoin="round" opacity="0.054"/>
<path d="M 583.65 427.92 C 591.30 412.75, 614.40 366.12, 629.52 336.88 C 644.63 307.64, 656.70 280.33, 674.32 252.48 C 691.94 224.62, 712.99 195.78, 735.25 169.73 C 757.50 143.68, 780.72 119.49, 807.85 96.20 C 834.99 72.91, 867.40 49.82, 898.03 29.98 C 928.67 10.13, 960.00 -5.26, 991.68 -22.87 C 1023.35 -40.47, 1054.33 -61.33, 1088.10 -75.64 C 1121.86 -89.96, 1158.34 -99.66, 1194.27 -108.74 C 1230.19 -117.82, 1267.19 -124.72, 1303.66 -130.15 C 1340.13 -135.58, 1377.14 -138.66, 1413.10 -141.34 C 1449.06 -144.02, 1484.27 -149.92, 1519.42 -146.23 C 1554.56 -142.55, 1588.90 -123.46, 1623.96 -119.23 C 1659.02 -115.01, 1696.86 -128.80, 1729.80 -120.89 C 1762.74 -112.99, 1791.59 -84.11, 1821.60 -71.79 C 1851.61 -59.46, 1881.16 -59.06, 1909.85 -46.93 C 1938.53 -34.80, 1966.66 -15.49, 1993.73 1.00 C 2020.80 17.50, 2047.08 33.70, 2072.28 52.04 C 2097.48 70.38, 2120.86 91.79, 2144.92 111.04 C 2168.99 130.30, 2195.31 146.75, 2216.68 167.59 C 2238.06 188.43, 2252.40 213.27, 2273.19 236.06 C 2293.97 258.86, 2319.85 280.31, 2341.38 304.36 C 2362.92 328.41, 2388.80 352.82, 2402.38 380.36 C 2415.95 407.90, 2416.76 439.52, 2422.84 469.62 C 2428.92 499.72, 2432.38 530.50, 2438.87 560.95 C 2445.37 591.39, 2460.27 620.85, 2461.82 652.28 C 2463.37 683.72, 2454.40 717.17, 2448.18 749.55 C 2441.96 781.94, 2436.32 815.07, 2424.49 846.57 C 2412.66 878.08, 2385.08 923.25, 2377.20 938.59" transform="translate(4.00 2.00)" fill="none" stroke="url(#gradBlue)" stroke-width="220.1" stroke-linecap="round" stroke-linejoin="round" opacity="0.032"/>
<path d="M 583.65 427.92 C 591.30 412.75, 614.40 366.12, 629.52 336.88 C 644.63 307.64, 656.70 280.33, 674.32 252.48 C 691.94 224.62, 712.99 195.78, 735.25 169.73 C 757.50 143.68, 780.72 119.49, 807.85 96.20 C 834.99 72.91, 867.40 49.82, 898.03 29.98 C 928.67 10.13, 960.00 -5.26, 991.68 -22.87 C 1023.35 -40.47, 1054.33 -61.33, 1088.10 -75.64 C 1121.86 -89.96, 1158.34 -99.66, 1194.27 -108.74 C 1230.19 -117.82, 1267.19 -124.72, 1303.66 -130.15 C 1340.13 -135.58, 1377.14 -138.66, 1413.10 -141.34 C 1449.06 -144.02, 1484.27 -149.92, 1519.42 -146.23 C 1554.56 -142.55, 1588.90 -123.46, 1623.96 -119.23 C 1659.02 -115.01, 1696.86 -128.80, 1729.80 -120.89 C 1762.74 -112.99, 1791.59 -84.11, 1821.60 -71.79 C 1851.61 -59.46, 1881.16 -59.06, 1909.85 -46.93 C 1938.53 -34.80, 1966.66 -15.49, 1993.73 1.00 C 2020.80 17.50, 2047.08 33.70, 2072.28 52.04 C 2097.48 70.38, 2120.86 91.79, 2144.92 111.04 C 2168.99 130.30, 2195.31 146.75, 2216.68 167.59 C 2238.06 188.43, 2252.40 213.27, 2273.19 236.06 C 2293.97 258.86, 2319.85 280.31, 2341.38 304.36 C 2362.92 328.41, 2388.80 352.82, 2402.38 380.36 C 2415.95 407.90, 2416.76 439.52, 2422.84 469.62 C 2428.92 499.72, 2432.38 530.50, 2438.87 560.95 C 2445.37 591.39, 2460.27 620.85, 2461.82 652.28 C 2463.37 683.72, 2454.40 717.17, 2448.18 749.55 C 2441.96 781.94, 2436.32 815.07, 2424.49 846.57 C 2412.66 878.08, 2385.08 923.25, 2377.20 938.59" transform="translate(4.00 2.00)" fill="none" stroke="url(#gradBlue)" stroke-width="177.5" stroke-linecap="round" stroke-linejoin="round" opacity="0.048"/>
<path d="M 583.65 427.92 C 591.30 412.75, 614.40 366.12, 629.52 336.88 C 644.63 307.64, 656.70 280.33, 674.32 252.48 C 691.94 224.62, 712.99 195.78, 735.25 169.73 C 757.50 143.68, 780.72 119.49, 807.85 96.20 C 834.99 72.91, 867.40 49.82, 898.03 29.98 C 928.67 10.13, 960.00 -5.26, 991.68 -22.87 C 1023.35 -40.47, 1054.33 -61.33, 1088.10 -75.64 C 1121.86 -89.96, 1158.34 -99.66, 1194.27 -108.74 C 1230.19 -117.82, 1267.19 -124.72, 1303.66 -130.15 C 1340.13 -135.58, 1377.14 -138.66, 1413.10 -141.34 C 1449.06 -144.02, 1484.27 -149.92, 1519.42 -146.23 C 1554.56 -142.55, 1588.90 -123.46, 1623.96 -119.23 C 1659.02 -115.01, 1696.86 -128.80, 1729.80 -120.89 C 1762.74 -112.99, 1791.59 -84.11, 1821.60 -71.79 C 1851.61 -59.46, 1881.16 -59.06, 1909.85 -46.93 C 1938.53 -34.80, 1966.66 -15.49, 1993.73 1.00 C 2020.80 17.50, 2047.08 33.70, 2072.28 52.04 C 2097.48 70.38, 2120.86 91.79, 2144.92 111.04 C 2168.99 130.30, 2195.31 146.75, 2216.68 167.59 C 2238.06 188.43, 2252.40 213.27, 2273.19 236.06 C 2293.97 258.86, 2319.85 280.31, 2341.38 304.36 C 2362.92 328.41, 2388.80 352.82, 2402.38 380.36 C 2415.95 407.90, 2416.76 439.52, 2422.84 469.62 C 2428.92 499.72, 2432.38 530.50, 2438.87 560.95 C 2445.37 591.39, 2460.27 620.85, 2461.82 652.28 C 2463.37 683.72, 2454.40 717.17, 2448.18 749.55 C 2441.96 781.94, 2436.32 815.07, 2424.49 846.57 C 2412.66 878.08, 2385.08 923.25, 2377.20 938.59" transform="translate(4.00 2.00)" fill="none" stroke="url(#gradBlue)" stroke-width="142.0" stroke-linecap="round" stroke-linejoin="round" opacity="0.074"/>
<path d="M 583.65 427.92 C 591.30 412.75, 614.40 366.12, 629.52 336.88 C 644.63 307.64, 656.70 280.33, 674.32 252.48 C 691.94 224.62, 712.99 195.78, 735.25 169.73 C 757.50 143.68, 780.72 119.49, 807.85 96.20 C 834.99 72.91, 867.40 49.82, 898.03 29.98 C 928.67 10.13, 960.00 -5.26, 991.68 -22.87 C 1023.35 -40.47, 1054.33 -61.33, 1088.10 -75.64 C 1121.86 -89.96, 1158.34 -99.66, 1194.27 -108.74 C 1230.19 -117.82, 1267.19 -124.72, 1303.66 -130.15 C 1340.13 -135.58, 1377.14 -138.66, 1413.10 -141.34 C 1449.06 -144.02, 1484.27 -149.92, 1519.42 -146.23 C 1554.56 -142.55, 1588.90 -123.46, 1623.96 -119.23 C 1659.02 -115.01, 1696.86 -128.80, 1729.80 -120.89 C 1762.74 -112.99, 1791.59 -84.11, 1821.60 -71.79 C 1851.61 -59.46, 1881.16 -59.06, 1909.85 -46.93 C 1938.53 -34.80, 1966.66 -15.49, 1993.73 1.00 C 2020.80 17.50, 2047.08 33.70, 2072.28 52.04 C 2097.48 70.38, 2120.86 91.79, 2144.92 111.04 C 2168.99 130.30, 2195.31 146.75, 2216.68 167.59 C 2238.06 188.43, 2252.40 213.27, 2273.19 236.06 C 2293.97 258.86, 2319.85 280.31, 2341.38 304.36 C 2362.92 328.41, 2388.80 352.82, 2402.38 380.36 C 2415.95 407.90, 2416.76 439.52, 2422.84 469.62 C 2428.92 499.72, 2432.38 530.50, 2438.87 560.95 C 2445.37 591.39, 2460.27 620.85, 2461.82 652.28 C 2463.37 683.72, 2454.40 717.17, 2448.18 749.55 C 2441.96 781.94, 2436.32 815.07, 2424.49 846.57 C 2412.66 878.08, 2385.08 923.25, 2377.20 938.59" transform="translate(4.00 2.00)" fill="none" stroke="url(#gradBlue)" stroke-width="102.2" stroke-linecap="round" stroke-linejoin="round" opacity="0.054"/>
<path d="M 583.65 427.92 C 591.30 412.75, 614.40 366.12, 629.52 336.88 C 644.63 307.64, 656.70 280.33, 674.32 252.48 C 691.94 224.62, 712.99 195.78, 735.25 169.73 C 757.50 143.68, 780.72 119.49, 807.85 96.20 C 834.99 72.91, 867.40 49.82, 898.03 29.98 C 928.67 10.13, 960.00 -5.26, 991.68 -22.87 C 1023.35 -40.47, 1054.33 -61.33, 1088.10 -75.64 C 1121.86 -89.96, 1158.34 -99.66, 1194.27 -108.74 C 1230.19 -117.82, 1267.19 -124.72, 1303.66 -130.15 C 1340.13 -135.58, 1377.14 -138.66, 1413.10 -141.34 C 1449.06 -144.02, 1484.27 -149.92, 1519.42 -146.23 C 1554.56 -142.55, 1588.90 -123.46, 1623.96 -119.23 C 1659.02 -115.01, 1696.86 -128.80, 1729.80 -120.89 C 1762.74 -112.99, 1791.59 -84.11, 1821.60 -71.79 C 1851.61 -59.46, 1881.16 -59.06, 1909.85 -46.93 C 1938.53 -34.80, 1966.66 -15.49, 1993.73 1.00 C 2020.80 17.50, 2047.08 33.70, 2072.28 52.04 C 2097.48 70.38, 2120.86 91.79, 2144.92 111.04 C 2168.99 130.30, 2195.31 146.75, 2216.68 167.59 C 2238.06 188.43, 2252.40 213.27, 2273.19 236.06 C 2293.97 258.86, 2319.85 280.31, 2341.38 304.36 C 2362.92 328.41, 2388.80 352.82, 2402.38 380.36 C 2415.95 407.90, 2416.76 439.52, 2422.84 469.62 C 2428.92 499.72, 2432.38 530.50, 2438.87 560.95 C 2445.37 591.39, 2460.27 620.85, 2461.82 652.28 C 2463.37 683.72, 2454.40 717.17, 2448.18 749.55 C 2441.96 781.94, 2436.32 815.07, 2424.49 846.57 C 2412.66 878.08, 2385.08 923.25, 2377.20 938.59" transform="translate(-3.00 1.10)" fill="none" stroke="url(#gradBlue)" stroke-width="220.1" stroke-linecap="round" stroke-linejoin="round" opacity="0.032"/>
<path d="M 583.65 427.92 C 591.30 412.75, 614.40 366.12, 629.52 336.88 C 644.63 307.64, 656.70 280.33, 674.32 252.48 C 691.94 224.62, 712.99 195.78, 735.25 169.73 C 757.50 143.68, 780.72 119.49, 807.85 96.20 C 834.99 72.91, 867.40 49.82, 898.03 29.98 C 928.67 10.13, 960.00 -5.26, 991.68 -22.87 C 1023.35 -40.47, 1054.33 -61.33, 1088.10 -75.64 C 1121.86 -89.96, 1158.34 -99.66, 1194.27 -108.74 C 1230.19 -117.82, 1267.19 -124.72, 1303.66 -130.15 C 1340.13 -135.58, 1377.14 -138.66, 1413.10 -141.34 C 1449.06 -144.02, 1484.27 -149.92, 1519.42 -146.23 C 1554.56 -142.55, 1588.90 -123.46, 1623.96 -119.23 C 1659.02 -115.01, 1696.86 -128.80, 1729.80 -120.89 C 1762.74 -112.99, 1791.59 -84.11, 1821.60 -71.79 C 1851.61 -59.46, 1881.16 -59.06, 1909.85 -46.93 C 1938.53 -34.80, 1966.66 -15.49, 1993.73 1.00 C 2020.80 17.50, 2047.08 33.70, 2072.28 52.04 C 2097.48 70.38, 2120.86 91.79, 2144.92 111.04 C 2168.99 130.30, 2195.31 146.75, 2216.68 167.59 C 2238.06 188.43, 2252.40 213.27, 2273.19 236.06 C 2293.97 258.86, 2319.85 280.31, 2341.38 304.36 C 2362.92 328.41, 2388.80 352.82, 2402.38 380.36 C 2415.95 407.90, 2416.76 439.52, 2422.84 469.62 C 2428.92 499.72, 2432.38 530.50, 2438.87 560.95 C 2445.37 591.39, 2460.27 620.85, 2461.82 652.28 C 2463.37 683.72, 2454.40 717.17, 2448.18 749.55 C 2441.96 781.94, 2436.32 815.07, 2424.49 846.57 C 2412.66 878.08, 2385.08 923.25, 2377.20 938.59" transform="translate(-3.00 1.10)" fill="none" stroke="url(#gradBlue)" stroke-width="177.5" stroke-linecap="round" stroke-linejoin="round" opacity="0.048"/>
<path d="M 583.65 427.92 C 591.30 412.75, 614.40 366.12, 629.52 336.88 C 644.63 307.64, 656.70 280.33, 674.32 252.48 C 691.94 224.62, 712.99 195.78, 735.25 169.73 C 757.50 143.68, 780.72 119.49, 807.85 96.20 C 834.99 72.91, 867.40 49.82, 898.03 29.98 C 928.67 10.13, 960.00 -5.26, 991.68 -22.87 C 1023.35 -40.47, 1054.33 -61.33, 1088.10 -75.64 C 1121.86 -89.96, 1158.34 -99.66, 1194.27 -108.74 C 1230.19 -117.82, 1267.19 -124.72, 1303.66 -130.15 C 1340.13 -135.58, 1377.14 -138.66, 1413.10 -141.34 C 1449.06 -144.02, 1484.27 -149.92, 1519.42 -146.23 C 1554.56 -142.55, 1588.90 -123.46, 1623.96 -119.23 C 1659.02 -115.01, 1696.86 -128.80, 1729.80 -120.89 C 1762.74 -112.99, 1791.59 -84.11, 1821.60 -71.79 C 1851.61 -59.46, 1881.16 -59.06, 1909.85 -46.93 C 1938.53 -34.80, 1966.66 -15.49, 1993.73 1.00 C 2020.80 17.50, 2047.08 33.70, 2072.28 52.04 C 2097.48 70.38, 2120.86 91.79, 2144.92 111.04 C 2168.99 130.30, 2195.31 146.75, 2216.68 167.59 C 2238.06 188.43, 2252.40 213.27, 2273.19 236.06 C 2293.97 258.86, 2319.85 280.31, 2341.38 304.36 C 2362.92 328.41, 2388.80 352.82, 2402.38 380.36 C 2415.95 407.90, 2416.76 439.52, 2422.84 469.62 C 2428.92 499.72, 2432.38 530.50, 2438.87 560.95 C 2445.37 591.39, 2460.27 620.85, 2461.82 652.28 C 2463.37 683.72, 2454.40 717.17, 2448.18 749.55 C 2441.96 781.94, 2436.32 815.07, 2424.49 846.57 C 2412.66 878.08, 2385.08 923.25, 2377.20 938.59" transform="translate(-3.00 1.10)" fill="none" stroke="url(#gradBlue)" stroke-width="142.0" stroke-linecap="round" stroke-linejoin="round" opacity="0.074"/>
<path d="M 583.65 427.92 C 591.30 412.75, 614.40 366.12, 629.52 336.88 C 644.63 307.64, 656.70 280.33, 674.32 252.48 C 691.94 224.62, 712.99 195.78, 735.25 169.73 C 757.50 143.68, 780.72 119.49, 807.85 96.20 C 834.99 72.91, 867.40 49.82, 898.03 29.98 C 928.67 10.13, 960.00 -5.26, 991.68 -22.87 C 1023.35 -40.47, 1054.33 -61.33, 1088.10 -75.64 C 1121.86 -89.96, 1158.34 -99.66, 1194.27 -108.74 C 1230.19 -117.82, 1267.19 -124.72, 1303.66 -130.15 C 1340.13 -135.58, 1377.14 -138.66, 1413.10 -141.34 C 1449.06 -144.02, 1484.27 -149.92, 1519.42 -146.23 C 1554.56 -142.55, 1588.90 -123.46, 1623.96 -119.23 C 1659.02 -115.01, 1696.86 -128.80, 1729.80 -120.89 C 1762.74 -112.99, 1791.59 -84.11, 1821.60 -71.79 C 1851.61 -59.46, 1881.16 -59.06, 1909.85 -46.93 C 1938.53 -34.80, 1966.66 -15.49, 1993.73 1.00 C 2020.80 17.50, 2047.08 33.70, 2072.28 52.04 C 2097.48 70.38, 2120.86 91.79, 2144.92 111.04 C 2168.99 130.30, 2195.31 146.75, 2216.68 167.59 C 2238.06 188.43, 2252.40 213.27, 2273.19 236.06 C 2293.97 258.86, 2319.85 280.31, 2341.38 304.36 C 2362.92 328.41, 2388.80 352.82, 2402.38 380.36 C 2415.95 407.90, 2416.76 439.52, 2422.84 469.62 C 2428.92 499.72, 2432.38 530.50, 2438.87 560.95 C 2445.37 591.39, 2460.27 620.85, 2461.82 652.28 C 2463.37 683.72, 2454.40 717.17, 2448.18 749.55 C 2441.96 781.94, 2436.32 815.07, 2424.49 846.57 C 2412.66 878.08, 2385.08 923.25, 2377.20 938.59" transform="translate(-3.00 1.10)" fill="none" stroke="url(#gradBlue)" stroke-width="102.2" stroke-linecap="round" stroke-linejoin="round" opacity="0.054"/>
<path d="M 1369.46 58.97 C 1378.69 64.80, 1405.90 81.45, 1424.89 93.99 C 1443.87 106.52, 1465.29 119.65, 1483.36 134.19 C 1501.43 148.73, 1517.75 165.57, 1533.30 181.25 C 1548.85 196.92, 1561.13 212.55, 1576.66 228.25 C 1592.19 243.94, 1611.58 258.40, 1626.49 275.41 C 1641.40 292.42, 1655.20 311.30, 1666.11 330.30 C 1677.02 349.30, 1683.03 369.33, 1691.94 389.41 C 1700.85 409.49, 1712.07 429.71, 1719.57 450.78 C 1727.07 471.85, 1733.17 494.17, 1736.96 515.82 C 1740.75 537.46, 1740.17 557.97, 1742.31 580.64 C 1744.45 603.31, 1751.39 628.44, 1749.80 651.84 C 1748.20 675.23, 1741.37 697.99, 1732.73 721.02 C 1724.08 744.04, 1706.51 767.55, 1697.91 789.99 C 1689.31 812.44, 1691.74 833.24, 1681.14 855.69 C 1670.55 878.15, 1651.37 904.08, 1634.33 924.74 C 1617.28 945.40, 1597.77 961.60, 1578.88 979.68 C 1559.99 997.75, 1541.50 1015.30, 1521.00 1033.18 C 1500.51 1051.06, 1480.77 1071.50, 1455.91 1086.96 C 1431.05 1102.42, 1398.25 1111.28, 1371.83 1125.96 C 1345.42 1140.65, 1323.37 1161.99, 1297.42 1175.07 C 1271.46 1188.16, 1243.04 1194.20, 1216.10 1204.48 C 1189.16 1214.76, 1164.01 1230.64, 1135.78 1236.77 C 1107.55 1242.91, 1075.62 1236.03, 1046.70 1241.28 C 1017.78 1246.52, 991.06 1265.06, 962.24 1268.24 C 933.41 1271.43, 902.67 1259.72, 873.75 1260.39 C 844.84 1261.07, 816.54 1270.81, 788.75 1272.29 C 760.96 1273.77, 734.54 1271.94, 706.98 1269.28 C 679.43 1266.61, 637.33 1258.46, 623.40 1256.30" transform="" fill="none" stroke="url(#gradMain)" stroke-width="201.5" stroke-linecap="round" stroke-linejoin="round" opacity="0.028"/>
<path d="M 1369.46 58.97 C 1378.69 64.80, 1405.90 81.45, 1424.89 93.99 C 1443.87 106.52, 1465.29 119.65, 1483.36 134.19 C 1501.43 148.73, 1517.75 165.57, 1533.30 181.25 C 1548.85 196.92, 1561.13 212.55, 1576.66 228.25 C 1592.19 243.94, 1611.58 258.40, 1626.49 275.41 C 1641.40 292.42, 1655.20 311.30, 1666.11 330.30 C 1677.02 349.30, 1683.03 369.33, 1691.94 389.41 C 1700.85 409.49, 1712.07 429.71, 1719.57 450.78 C 1727.07 471.85, 1733.17 494.17, 1736.96 515.82 C 1740.75 537.46, 1740.17 557.97, 1742.31 580.64 C 1744.45 603.31, 1751.39 628.44, 1749.80 651.84 C 1748.20 675.23, 1741.37 697.99, 1732.73 721.02 C 1724.08 744.04, 1706.51 767.55, 1697.91 789.99 C 1689.31 812.44, 1691.74 833.24, 1681.14 855.69 C 1670.55 878.15, 1651.37 904.08, 1634.33 924.74 C 1617.28 945.40, 1597.77 961.60, 1578.88 979.68 C 1559.99 997.75, 1541.50 1015.30, 1521.00 1033.18 C 1500.51 1051.06, 1480.77 1071.50, 1455.91 1086.96 C 1431.05 1102.42, 1398.25 1111.28, 1371.83 1125.96 C 1345.42 1140.65, 1323.37 1161.99, 1297.42 1175.07 C 1271.46 1188.16, 1243.04 1194.20, 1216.10 1204.48 C 1189.16 1214.76, 1164.01 1230.64, 1135.78 1236.77 C 1107.55 1242.91, 1075.62 1236.03, 1046.70 1241.28 C 1017.78 1246.52, 991.06 1265.06, 962.24 1268.24 C 933.41 1271.43, 902.67 1259.72, 873.75 1260.39 C 844.84 1261.07, 816.54 1270.81, 788.75 1272.29 C 760.96 1273.77, 734.54 1271.94, 706.98 1269.28 C 679.43 1266.61, 637.33 1258.46, 623.40 1256.30" transform="" fill="none" stroke="url(#gradMain)" stroke-width="162.5" stroke-linecap="round" stroke-linejoin="round" opacity="0.042"/>
<path d="M 1369.46 58.97 C 1378.69 64.80, 1405.90 81.45, 1424.89 93.99 C 1443.87 106.52, 1465.29 119.65, 1483.36 134.19 C 1501.43 148.73, 1517.75 165.57, 1533.30 181.25 C 1548.85 196.92, 1561.13 212.55, 1576.66 228.25 C 1592.19 243.94, 1611.58 258.40, 1626.49 275.41 C 1641.40 292.42, 1655.20 311.30, 1666.11 330.30 C 1677.02 349.30, 1683.03 369.33, 1691.94 389.41 C 1700.85 409.49, 1712.07 429.71, 1719.57 450.78 C 1727.07 471.85, 1733.17 494.17, 1736.96 515.82 C 1740.75 537.46, 1740.17 557.97, 1742.31 580.64 C 1744.45 603.31, 1751.39 628.44, 1749.80 651.84 C 1748.20 675.23, 1741.37 697.99, 1732.73 721.02 C 1724.08 744.04, 1706.51 767.55, 1697.91 789.99 C 1689.31 812.44, 1691.74 833.24, 1681.14 855.69 C 1670.55 878.15, 1651.37 904.08, 1634.33 924.74 C 1617.28 945.40, 1597.77 961.60, 1578.88 979.68 C 1559.99 997.75, 1541.50 1015.30, 1521.00 1033.18 C 1500.51 1051.06, 1480.77 1071.50, 1455.91 1086.96 C 1431.05 1102.42, 1398.25 1111.28, 1371.83 1125.96 C 1345.42 1140.65, 1323.37 1161.99, 1297.42 1175.07 C 1271.46 1188.16, 1243.04 1194.20, 1216.10 1204.48 C 1189.16 1214.76, 1164.01 1230.64, 1135.78 1236.77 C 1107.55 1242.91, 1075.62 1236.03, 1046.70 1241.28 C 1017.78 1246.52, 991.06 1265.06, 962.24 1268.24 C 933.41 1271.43, 902.67 1259.72, 873.75 1260.39 C 844.84 1261.07, 816.54 1270.81, 788.75 1272.29 C 760.96 1273.77, 734.54 1271.94, 706.98 1269.28 C 679.43 1266.61, 637.33 1258.46, 623.40 1256.30" transform="" fill="none" stroke="url(#gradMain)" stroke-width="130.0" stroke-linecap="round" stroke-linejoin="round" opacity="0.064"/>
<path d="M 1369.46 58.97 C 1378.69 64.80, 1405.90 81.45, 1424.89 93.99 C 1443.87 106.52, 1465.29 119.65, 1483.36 134.19 C 1501.43 148.73, 1517.75 165.57, 1533.30 181.25 C 1548.85 196.92, 1561.13 212.55, 1576.66 228.25 C 1592.19 243.94, 1611.58 258.40, 1626.49 275.41 C 1641.40 292.42, 1655.20 311.30, 1666.11 330.30 C 1677.02 349.30, 1683.03 369.33, 1691.94 389.41 C 1700.85 409.49, 1712.07 429.71, 1719.57 450.78 C 1727.07 471.85, 1733.17 494.17, 1736.96 515.82 C 1740.75 537.46, 1740.17 557.97, 1742.31 580.64 C 1744.45 603.31, 1751.39 628.44, 1749.80 651.84 C 1748.20 675.23, 1741.37 697.99, 1732.73 721.02 C 1724.08 744.04, 1706.51 767.55, 1697.91 789.99 C 1689.31 812.44, 1691.74 833.24, 1681.14 855.69 C 1670.55 878.15, 1651.37 904.08, 1634.33 924.74 C 1617.28 945.40, 1597.77 961.60, 1578.88 979.68 C 1559.99 997.75, 1541.50 1015.30, 1521.00 1033.18 C 1500.51 1051.06, 1480.77 1071.50, 1455.91 1086.96 C 1431.05 1102.42, 1398.25 1111.28, 1371.83 1125.96 C 1345.42 1140.65, 1323.37 1161.99, 1297.42 1175.07 C 1271.46 1188.16, 1243.04 1194.20, 1216.10 1204.48 C 1189.16 1214.76, 1164.01 1230.64, 1135.78 1236.77 C 1107.55 1242.91, 1075.62 1236.03, 1046.70 1241.28 C 1017.78 1246.52, 991.06 1265.06, 962.24 1268.24 C 933.41 1271.43, 902.67 1259.72, 873.75 1260.39 C 844.84 1261.07, 816.54 1270.81, 788.75 1272.29 C 760.96 1273.77, 734.54 1271.94, 706.98 1269.28 C 679.43 1266.61, 637.33 1258.46, 623.40 1256.30" transform="" fill="none" stroke="url(#gradMain)" stroke-width="93.6" stroke-linecap="round" stroke-linejoin="round" opacity="0.048"/>
<path d="M 1369.46 58.97 C 1378.69 64.80, 1405.90 81.45, 1424.89 93.99 C 1443.87 106.52, 1465.29 119.65, 1483.36 134.19 C 1501.43 148.73, 1517.75 165.57, 1533.30 181.25 C 1548.85 196.92, 1561.13 212.55, 1576.66 228.25 C 1592.19 243.94, 1611.58 258.40, 1626.49 275.41 C 1641.40 292.42, 1655.20 311.30, 1666.11 330.30 C 1677.02 349.30, 1683.03 369.33, 1691.94 389.41 C 1700.85 409.49, 1712.07 429.71, 1719.57 450.78 C 1727.07 471.85, 1733.17 494.17, 1736.96 515.82 C 1740.75 537.46, 1740.17 557.97, 1742.31 580.64 C 1744.45 603.31, 1751.39 628.44, 1749.80 651.84 C 1748.20 675.23, 1741.37 697.99, 1732.73 721.02 C 1724.08 744.04, 1706.51 767.55, 1697.91 789.99 C 1689.31 812.44, 1691.74 833.24, 1681.14 855.69 C 1670.55 878.15, 1651.37 904.08, 1634.33 924.74 C 1617.28 945.40, 1597.77 961.60, 1578.88 979.68 C 1559.99 997.75, 1541.50 1015.30, 1521.00 1033.18 C 1500.51 1051.06, 1480.77 1071.50, 1455.91 1086.96 C 1431.05 1102.42, 1398.25 1111.28, 1371.83 1125.96 C 1345.42 1140.65, 1323.37 1161.99, 1297.42 1175.07 C 1271.46 1188.16, 1243.04 1194.20, 1216.10 1204.48 C 1189.16 1214.76, 1164.01 1230.64, 1135.78 1236.77 C 1107.55 1242.91, 1075.62 1236.03, 1046.70 1241.28 C 1017.78 1246.52, 991.06 1265.06, 962.24 1268.24 C 933.41 1271.43, 902.67 1259.72, 873.75 1260.39 C 844.84 1261.07, 816.54 1270.81, 788.75 1272.29 C 760.96 1273.77, 734.54 1271.94, 706.98 1269.28 C 679.43 1266.61, 637.33 1258.46, 623.40 1256.30" transform="translate(4.00 2.00)" fill="none" stroke="url(#gradMain)" stroke-width="201.5" stroke-linecap="round" stroke-linejoin="round" opacity="0.028"/>
<path d="M 1369.46 58.97 C 1378.69 64.80, 1405.90 81.45, 1424.89 93.99 C 1443.87 106.52, 1465.29 119.65, 1483.36 134.19 C 1501.43 148.73, 1517.75 165.57, 1533.30 181.25 C 1548.85 196.92, 1561.13 212.55, 1576.66 228.25 C 1592.19 243.94, 1611.58 258.40, 1626.49 275.41 C 1641.40 292.42, 1655.20 311.30, 1666.11 330.30 C 1677.02 349.30, 1683.03 369.33, 1691.94 389.41 C 1700.85 409.49, 1712.07 429.71, 1719.57 450.78 C 1727.07 471.85, 1733.17 494.17, 1736.96 515.82 C 1740.75 537.46, 1740.17 557.97, 1742.31 580.64 C 1744.45 603.31, 1751.39 628.44, 1749.80 651.84 C 1748.20 675.23, 1741.37 697.99, 1732.73 721.02 C 1724.08 744.04, 1706.51 767.55, 1697.91 789.99 C 1689.31 812.44, 1691.74 833.24, 1681.14 855.69 C 1670.55 878.15, 1651.37 904.08, 1634.33 924.74 C 1617.28 945.40, 1597.77 961.60, 1578.88 979.68 C 1559.99 997.75, 1541.50 1015.30, 1521.00 1033.18 C 1500.51 1051.06, 1480.77 1071.50, 1455.91 1086.96 C 1431.05 1102.42, 1398.25 1111.28, 1371.83 1125.96 C 1345.42 1140.65, 1323.37 1161.99, 1297.42 1175.07 C 1271.46 1188.16, 1243.04 1194.20, 1216.10 1204.48 C 1189.16 1214.76, 1164.01 1230.64, 1135.78 1236.77 C 1107.55 1242.91, 1075.62 1236.03, 1046.70 1241.28 C 1017.78 1246.52, 991.06 1265.06, 962.24 1268.24 C 933.41 1271.43, 902.67 1259.72, 873.75 1260.39 C 844.84 1261.07, 816.54 1270.81, 788.75 1272.29 C 760.96 1273.77, 734.54 1271.94, 706.98 1269.28 C 679.43 1266.61, 637.33 1258.46, 623.40 1256.30" transform="translate(4.00 2.00)" fill="none" stroke="url(#gradMain)" stroke-width="162.5" stroke-linecap="round" stroke-linejoin="round" opacity="0.042"/>
<path d="M 1369.46 58.97 C 1378.69 64.80, 1405.90 81.45, 1424.89 93.99 C 1443.87 106.52, 1465.29 119.65, 1483.36 134.19 C 1501.43 148.73, 1517.75 165.57, 1533.30 181.25 C 1548.85 196.92, 1561.13 212.55, 1576.66 228.25 C 1592.19 243.94, 1611.58 258.40, 1626.49 275.41 C 1641.40 292.42, 1655.20 311.30, 1666.11 330.30 C 1677.02 349.30, 1683.03 369.33, 1691.94 389.41 C 1700.85 409.49, 1712.07 429.71, 1719.57 450.78 C 1727.07 471.85, 1733.17 494.17, 1736.96 515.82 C 1740.75 537.46, 1740.17 557.97, 1742.31 580.64 C 1744.45 603.31, 1751.39 628.44, 1749.80 651.84 C 1748.20 675.23, 1741.37 697.99, 1732.73 721.02 C 1724.08 744.04, 1706.51 767.55, 1697.91 789.99 C 1689.31 812.44, 1691.74 833.24, 1681.14 855.69 C 1670.55 878.15, 1651.37 904.08, 1634.33 924.74 C 1617.28 945.40, 1597.77 961.60, 1578.88 979.68 C 1559.99 997.75, 1541.50 1015.30, 1521.00 1033.18 C 1500.51 1051.06, 1480.77 1071.50, 1455.91 1086.96 C 1431.05 1102.42, 1398.25 1111.28, 1371.83 1125.96 C 1345.42 1140.65, 1323.37 1161.99, 1297.42 1175.07 C 1271.46 1188.16, 1243.04 1194.20, 1216.10 1204.48 C 1189.16 1214.76, 1164.01 1230.64, 1135.78 1236.77 C 1107.55 1242.91, 1075.62 1236.03, 1046.70 1241.28 C 1017.78 1246.52, 991.06 1265.06, 962.24 1268.24 C 933.41 1271.43, 902.67 1259.72, 873.75 1260.39 C 844.84 1261.07, 816.54 1270.81, 788.75 1272.29 C 760.96 1273.77, 734.54 1271.94, 706.98 1269.28 C 679.43 1266.61, 637.33 1258.46, 623.40 1256.30" transform="translate(4.00 2.00)" fill="none" stroke="url(#gradMain)" stroke-width="130.0" stroke-linecap="round" stroke-linejoin="round" opacity="0.064"/>
<path d="M 1369.46 58.97 C 1378.69 64.80, 1405.90 81.45, 1424.89 93.99 C 1443.87 106.52, 1465.29 119.65, 1483.36 134.19 C 1501.43 148.73, 1517.75 165.57, 1533.30 181.25 C 1548.85 196.92, 1561.13 212.55, 1576.66 228.25 C 1592.19 243.94, 1611.58 258.40, 1626.49 275.41 C 1641.40 292.42, 1655.20 311.30, 1666.11 330.30 C 1677.02 349.30, 1683.03 369.33, 1691.94 389.41 C 1700.85 409.49, 1712.07 429.71, 1719.57 450.78 C 1727.07 471.85, 1733.17 494.17, 1736.96 515.82 C 1740.75 537.46, 1740.17 557.97, 1742.31 580.64 C 1744.45 603.31, 1751.39 628.44, 1749.80 651.84 C 1748.20 675.23, 1741.37 697.99, 1732.73 721.02 C 1724.08 744.04, 1706.51 767.55, 1697.91 789.99 C 1689.31 812.44, 1691.74 833.24, 1681.14 855.69 C 1670.55 878.15, 1651.37 904.08, 1634.33 924.74 C 1617.28 945.40, 1597.77 961.60, 1578.88 979.68 C 1559.99 997.75, 1541.50 1015.30, 1521.00 1033.18 C 1500.51 1051.06, 1480.77 1071.50, 1455.91 1086.96 C 1431.05 1102.42, 1398.25 1111.28, 1371.83 1125.96 C 1345.42 1140.65, 1323.37 1161.99, 1297.42 1175.07 C 1271.46 1188.16, 1243.04 1194.20, 1216.10 1204.48 C 1189.16 1214.76, 1164.01 1230.64, 1135.78 1236.77 C 1107.55 1242.91, 1075.62 1236.03, 1046.70 1241.28 C 1017.78 1246.52, 991.06 1265.06, 962.24 1268.24 C 933.41 1271.43, 902.67 1259.72, 873.75 1260.39 C 844.84 1261.07, 816.54 1270.81, 788.75 1272.29 C 760.96 1273.77, 734.54 1271.94, 706.98 1269.28 C 679.43 1266.61, 637.33 1258.46, 623.40 1256.30" transform="translate(4.00 2.00)" fill="none" stroke="url(#gradMain)" stroke-width="93.6" stroke-linecap="round" stroke-linejoin="round" opacity="0.048"/>
<path d="M 1369.46 58.97 C 1378.69 64.80, 1405.90 81.45, 1424.89 93.99 C 1443.87 106.52, 1465.29 119.65, 1483.36 134.19 C 1501.43 148.73, 1517.75 165.57, 1533.30 181.25 C 1548.85 196.92, 1561.13 212.55, 1576.66 228.25 C 1592.19 243.94, 1611.58 258.40, 1626.49 275.41 C 1641.40 292.42, 1655.20 311.30, 1666.11 330.30 C 1677.02 349.30, 1683.03 369.33, 1691.94 389.41 C 1700.85 409.49, 1712.07 429.71, 1719.57 450.78 C 1727.07 471.85, 1733.17 494.17, 1736.96 515.82 C 1740.75 537.46, 1740.17 557.97, 1742.31 580.64 C 1744.45 603.31, 1751.39 628.44, 1749.80 651.84 C 1748.20 675.23, 1741.37 697.99, 1732.73 721.02 C 1724.08 744.04, 1706.51 767.55, 1697.91 789.99 C 1689.31 812.44, 1691.74 833.24, 1681.14 855.69 C 1670.55 878.15, 1651.37 904.08, 1634.33 924.74 C 1617.28 945.40, 1597.77 961.60, 1578.88 979.68 C 1559.99 997.75, 1541.50 1015.30, 1521.00 1033.18 C 1500.51 1051.06, 1480.77 1071.50, 1455.91 1086.96 C 1431.05 1102.42, 1398.25 1111.28, 1371.83 1125.96 C 1345.42 1140.65, 1323.37 1161.99, 1297.42 1175.07 C 1271.46 1188.16, 1243.04 1194.20, 1216.10 1204.48 C 1189.16 1214.76, 1164.01 1230.64, 1135.78 1236.77 C 1107.55 1242.91, 1075.62 1236.03, 1046.70 1241.28 C 1017.78 1246.52, 991.06 1265.06, 962.24 1268.24 C 933.41 1271.43, 902.67 1259.72, 873.75 1260.39 C 844.84 1261.07, 816.54 1270.81, 788.75 1272.29 C 760.96 1273.77, 734.54 1271.94, 706.98 1269.28 C 679.43 1266.61, 637.33 1258.46, 623.40 1256.30" transform="translate(-3.00 1.10)" fill="none" stroke="url(#gradMain)" stroke-width="201.5" stroke-linecap="round" stroke-linejoin="round" opacity="0.028"/>
<path d="M 1369.46 58.97 C 1378.69 64.80, 1405.90 81.45, 1424.89 93.99 C 1443.87 106.52, 1465.29 119.65, 1483.36 134.19 C 1501.43 148.73, 1517.75 165.57, 1533.30 181.25 C 1548.85 196.92, 1561.13 212.55, 1576.66 228.25 C 1592.19 243.94, 1611.58 258.40, 1626.49 275.41 C 1641.40 292.42, 1655.20 311.30, 1666.11 330.30 C 1677.02 349.30, 1683.03 369.33, 1691.94 389.41 C 1700.85 409.49, 1712.07 429.71, 1719.57 450.78 C 1727.07 471.85, 1733.17 494.17, 1736.96 515.82 C 1740.75 537.46, 1740.17 557.97, 1742.31 580.64 C 1744.45 603.31, 1751.39 628.44, 1749.80 651.84 C 1748.20 675.23, 1741.37 697.99, 1732.73 721.02 C 1724.08 744.04, 1706.51 767.55, 1697.91 789.99 C 1689.31 812.44, 1691.74 833.24, 1681.14 855.69 C 1670.55 878.15, 1651.37 904.08, 1634.33 924.74 C 1617.28 945.40, 1597.77 961.60, 1578.88 979.68 C 1559.99 997.75, 1541.50 1015.30, 1521.00 1033.18 C 1500.51 1051.06, 1480.77 1071.50, 1455.91 1086.96 C 1431.05 1102.42, 1398.25 1111.28, 1371.83 1125.96 C 1345.42 1140.65, 1323.37 1161.99, 1297.42 1175.07 C 1271.46 1188.16, 1243.04 1194.20, 1216.10 1204.48 C 1189.16 1214.76, 1164.01 1230.64, 1135.78 1236.77 C 1107.55 1242.91, 1075.62 1236.03, 1046.70 1241.28 C 1017.78 1246.52, 991.06 1265.06, 962.24 1268.24 C 933.41 1271.43, 902.67 1259.72, 873.75 1260.39 C 844.84 1261.07, 816.54 1270.81, 788.75 1272.29 C 760.96 1273.77, 734.54 1271.94, 706.98 1269.28 C 679.43 1266.61, 637.33 1258.46, 623.40 1256.30" transform="translate(-3.00 1.10)" fill="none" stroke="url(#gradMain)" stroke-width="162.5" stroke-linecap="round" stroke-linejoin="round" opacity="0.042"/>
<path d="M 1369.46 58.97 C 1378.69 64.80, 1405.90 81.45, 1424.89 93.99 C 1443.87 106.52, 1465.29 119.65, 1483.36 134.19 C 1501.43 148.73, 1517.75 165.57, 1533.30 181.25 C 1548.85 196.92, 1561.13 212.55, 1576.66 228.25 C 1592.19 243.94, 1611.58 258.40, 1626.49 275.41 C 1641.40 292.42, 1655.20 311.30, 1666.11 330.30 C 1677.02 349.30, 1683.03 369.33, 1691.94 389.41 C 1700.85 409.49, 1712.07 429.71, 1719.57 450.78 C 1727.07 471.85, 1733.17 494.17, 1736.96 515.82 C 1740.75 537.46, 1740.17 557.97, 1742.31 580.64 C 1744.45 603.31, 1751.39 628.44, 1749.80 651.84 C 1748.20 675.23, 1741.37 697.99, 1732.73 721.02 C 1724.08 744.04, 1706.51 767.55, 1697.91 789.99 C 1689.31 812.44, 1691.74 833.24, 1681.14 855.69 C 1670.55 878.15, 1651.37 904.08, 1634.33 924.74 C 1617.28 945.40, 1597.77 961.60, 1578.88 979.68 C 1559.99 997.75, 1541.50 1015.30, 1521.00 1033.18 C 1500.51 1051.06, 1480.77 1071.50, 1455.91 1086.96 C 1431.05 1102.42, 1398.25 1111.28, 1371.83 1125.96 C 1345.42 1140.65, 1323.37 1161.99, 1297.42 1175.07 C 1271.46 1188.16, 1243.04 1194.20, 1216.10 1204.48 C 1189.16 1214.76, 1164.01 1230.64, 1135.78 1236.77 C 1107.55 1242.91, 1075.62 1236.03, 1046.70 1241.28 C 1017.78 1246.52, 991.06 1265.06, 962.24 1268.24 C 933.41 1271.43, 902.67 1259.72, 873.75 1260.39 C 844.84 1261.07, 816.54 1270.81, 788.75 1272.29 C 760.96 1273.77, 734.54 1271.94, 706.98 1269.28 C 679.43 1266.61, 637.33 1258.46, 623.40 1256.30" transform="translate(-3.00 1.10)" fill="none" stroke="url(#gradMain)" stroke-width="130.0" stroke-linecap="round" stroke-linejoin="round" opacity="0.064"/>
<path d="M 1369.46 58.97 C 1378.69 64.80, 1405.90 81.45, 1424.89 93.99 C 1443.87 106.52, 1465.29 119.65, 1483.36 134.19 C 1501.43 148.73, 1517.75 165.57, 1533.30 181.25 C 1548.85 196.92, 1561.13 212.55, 1576.66 228.25 C 1592.19 243.94, 1611.58 258.40, 1626.49 275.41 C 1641.40 292.42, 1655.20 311.30, 1666.11 330.30 C 1677.02 349.30, 1683.03 369.33, 1691.94 389.41 C 1700.85 409.49, 1712.07 429.71, 1719.57 450.78 C 1727.07 471.85, 1733.17 494.17, 1736.96 515.82 C 1740.75 537.46, 1740.17 557.97, 1742.31 580.64 C 1744.45 603.31, 1751.39 628.44, 1749.80 651.84 C 1748.20 675.23, 1741.37 697.99, 1732.73 721.02 C 1724.08 744.04, 1706.51 767.55, 1697.91 789.99 C 1689.31 812.44, 1691.74 833.24, 1681.14 855.69 C 1670.55 878.15, 1651.37 904.08, 1634.33 924.74 C 1617.28 945.40, 1597.77 961.60, 1578.88 979.68 C 1559.99 997.75, 1541.50 1015.30, 1521.00 1033.18 C 1500.51 1051.06, 1480.77 1071.50, 1455.91 1086.96 C 1431.05 1102.42, 1398.25 1111.28, 1371.83 1125.96 C 1345.42 1140.65, 1323.37 1161.99, 1297.42 1175.07 C 1271.46 1188.16, 1243.04 1194.20, 1216.10 1204.48 C 1189.16 1214.76, 1164.01 1230.64, 1135.78 1236.77 C 1107.55 1242.91, 1075.62 1236.03, 1046.70 1241.28 C 1017.78 1246.52, 991.06 1265.06, 962.24 1268.24 C 933.41 1271.43, 902.67 1259.72, 873.75 1260.39 C 844.84 1261.07, 816.54 1270.81, 788.75 1272.29 C 760.96 1273.77, 734.54 1271.94, 706.98 1269.28 C 679.43 1266.61, 637.33 1258.46, 623.40 1256.30" transform="translate(-3.00 1.10)" fill="none" stroke="url(#gradMain)" stroke-width="93.6" stroke-linecap="round" stroke-linejoin="round" opacity="0.048"/></g>
</svg>
