<?xml version="1.0" encoding="UTF-8"?>
<svg xmlns="http://www.w3.org/2000/svg" width="1920" height="1080" viewBox="0 0 1920 1080" fill="none">
  <defs>
    
    <linearGradient id="gradMain" x1="12%" y1="14%" x2="84%" y2="88%">
      <stop offset="0%" stop-color="#F3BCD3" stop-opacity="0.95"/>
      <stop offset="48%" stop-color="#F7EEE5" stop-opacity="0.60"/>
      <stop offset="100%" stop-color="#D4DCF8" stop-opacity="0.95"/>
    </linearGradient>
    <linearGradient id="gradPink" x1="8%" y1="10%" x2="70%" y2="72%">
      <stop offset="0%" stop-color="#F4BDD4" stop-opacity="1"/>
      <stop offset="100%" stop-color="#FAF5EF" stop-opacity="0.20"/>
    </linearGradient>
    <linearGradient id="gradBlue" x1="32%" y1="22%" x2="82%" y2="90%">
      <stop offset="0%" stop-color="#EEF1FC" stop-opacity="0.20"/>
      <stop offset="100%" stop-color="#D4DCF8" stop-opacity="1"/>
    </linearGradient>
    <radialGradient id="haloPink" cx="50%" cy="50%" r="50%">
      <stop offset="0%" stop-color="#F5C6DA" stop-opacity="0.34"/>
      <stop offset="100%" stop-color="#F5C6DA" stop-opacity="0"/>
    </radialGradient>
    <radialGradient id="haloBlue" cx="50%" cy="50%" r="50%">
      <stop offset="0%" stop-color="#D7DEF8" stop-opacity="0.36"/>
      <stop offset="100%" stop-color="#D7DEF8" stop-opacity="0"/>
    </radialGradient>
    <radialGradient id="haloCream" cx="50%" cy="50%" r="50%">
      <stop offset="0%" stop-color="#F7EFE4" stop-opacity="0.26"/>
      <stop offset="100%" stop-color="#F7EFE4" stop-opacity="0"/>
    </radialGradient>
    <radialGradient id="centerWash" cx="50%" cy="50%" r="54%">
      <stop offset="0%" stop-color="#F6EFF2" stop-opacity="0.24"/>
      <stop offset="60%" stop-color="#FFFFFF" stop-opacity="0.05"/>
      <stop offset="100%" stop-color="#FFFFFF" stop-opacity="0"/>
    </radialGradient>
    
  </defs>
  <ellipse cx="960.0" cy="540.0" rx="499.2" ry="280.8" fill="url(#centerWash)" opacity="0.8"/>
  <g><ellipse cx="1140.0" cy="310.0" rx="250.0" ry="170.0" fill="url(#haloPink)" opacity="0.750"/>
<ellipse cx="1260.0" cy="740.0" rx="300.0" ry="210.0" fill="url(#haloBlue)" opacity="0.750"/>
<ellipse cx="980.0" cy="650.0" rx="170.0" ry="120.0" fill="url(#haloCream)" opacity="0.600"/></g>
  <g><path d="M 1625.02 439.09 C 1640.80 472.96, 1657.80 511.60, 1654.57 550.18 C 1651.34 588.75, 1628.80 633.98, 1605.66 670.57 C 1582.51 707.15, 1552.32 741.91, 1515.69 769.68 C 1479.06 797.46, 1431.78 820.25, 1385.87 837.22 C 1339.95 854.19, 1288.95 866.53, 1240.22 871.50 C 1191.49 876.48, 1139.00 872.73, 1093.49 867.07 C 1047.98 861.42, 1007.50 851.00, 967.17 837.58 C 926.83 824.15, 885.30 809.02, 851.47 786.51 C 817.65 764.00, 785.81 733.88, 764.21 702.52 C 742.61 671.16, 727.36 634.29, 721.88 598.34 C 716.41 562.39, 721.32 523.29, 731.37 486.82 C 741.42 450.36, 759.49 413.66, 782.17 379.54 C 804.85 345.42, 834.00 309.30, 867.47 282.10 C 900.95 254.89, 941.25 233.46, 983.03 216.29 C 1024.80 199.11, 1073.02 184.03, 1118.12 179.04 C 1163.22 174.05, 1211.95 179.73, 1253.63 186.34 C 1295.31 192.95, 1331.94 204.25, 1368.20 218.71 C 1404.46 233.17, 1439.24 251.73, 1471.18 273.11 C 1503.13 294.48, 1534.25 319.29, 1559.89 346.96 C 1585.53 374.62, 1609.24 405.22, 1625.02 439.09 Z" transform="" fill="none" stroke="url(#gradMain)" stroke-width="173.6" stroke-linecap="round" stroke-linejoin="round" opacity="0.038"/>
<path d="M 1625.02 439.09 C 1640.80 472.96, 1657.80 511.60, 1654.57 550.18 C 1651.34 588.75, 1628.80 633.98, 1605.66 670.57 C 1582.51 707.15, 1552.32 741.91, 1515.69 769.68 C 1479.06 797.46, 1431.78 820.25, 1385.87 837.22 C 1339.95 854.19, 1288.95 866.53, 1240.22 871.50 C 1191.49 876.48, 1139.00 872.73, 1093.49 867.07 C 1047.98 861.42, 1007.50 851.00, 967.17 837.58 C 926.83 824.15, 885.30 809.02, 851.47 786.51 C 817.65 764.00, 785.81 733.88, 764.21 702.52 C 742.61 671.16, 727.36 634.29, 721.88 598.34 C 716.41 562.39, 721.32 523.29, 731.37 486.82 C 741.42 450.36, 759.49 413.66, 782.17 379.54 C 804.85 345.42, 834.00 309.30, 867.47 282.10 C 900.95 254.89, 941.25 233.46, 983.03 216.29 C 1024.80 199.11, 1073.02 184.03, 1118.12 179.04 C 1163.22 174.05, 1211.95 179.73, 1253.63 186.34 C 1295.31 192.95, 1331.94 204.25, 1368.20 218.71 C 1404.46 233.17, 1439.24 251.73, 1471.18 273.11 C 1503.13 294.48, 1534.25 319.29, 1559.89 346.96 C 1585.53 374.62, 1609.24 405.22, 1625.02 439.09 Z" transform="" fill="none" stroke="url(#gradMain)" stroke-width="140.0" stroke-linecap="round" stroke-linejoin="round" opacity="0.057"/>
<path d="M 1625.02 439.09 C 1640.80 472.96, 1657.80 511.60, 1654.57 550.18 C 1651.34 588.75, 1628.80 633.98, 1605.66 670.57 C 1582.51 707.15, 1552.32 741.91, 1515.69 769.68 C 1479.06 797.46, 1431.78 820.25, 1385.87 837.22 C 1339.95 854.19, 1288.95 866.53, 1240.22 871.50 C 1191.49 876.48, 1139.00 872.73, 1093.49 867.07 C 1047.98 861.42, 1007.50 851.00, 967.17 837.58 C 926.83 824.15, 885.30 809.02, 851.47 786.51 C 817.65 764.00, 785.81 733.88, 764.21 702.52 C 742.61 671.16, 727.36 634.29, 721.88 598.34 C 716.41 562.39, 721.32 523.29, 731.37 486.82 C 741.42 450.36, 759.49 413.66, 782.17 379.54 C 804.85 345.42, 834.00 309.30, 867.47 282.10 C 900.95 254.89, 941.25 233.46, 983.03 216.29 C 1024.80 199.11, 1073.02 184.03, 1118.12 179.04 C 1163.22 174.05, 1211.95 179.73, 1253.63 186.34 C 1295.31 192.95, 1331.94 204.25, 1368.20 218.71 C 1404.46 233.17, 1439.24 251.73, 1471.18 273.11 C 1503.13 294.48, 1534.25 319.29, 1559.89 346.96 C 1585.53 374.62, 1609.24 405.22, 1625.02 439.09 Z" transform="" fill="none" stroke="url(#gradMain)" stroke-width="112.0" stroke-linecap="round" stroke-linejoin="round" opacity="0.087"/>
<path d="M 1625.02 439.09 C 1640.80 472.96, 1657.80 511.60, 1654.57 550.18 C 1651.34 588.75, 1628.80 633.98, 1605.66 670.57 C 1582.51 707.15, 1552.32 741.91, 1515.69 769.68 C 1479.06 797.46, 1431.78 820.25, 1385.87 837.22 C 1339.95 854.19, 1288.95 866.53, 1240.22 871.50 C 1191.49 876.48, 1139.00 872.73, 1093.49 867.07 C 1047.98 861.42, 1007.50 851.00, 967.17 837.58 C 926.83 824.15, 885.30 809.02, 851.47 786.51 C 817.65 764.00, 785.81 733.88, 764.21 702.52 C 742.61 671.16, 727.36 634.29, 721.88 598.34 C 716.41 562.39, 721.32 523.29, 731.37 486.82 C 741.42 450.36, 759.49 413.66, 782.17 379.54 C 804.85 345.42, 834.00 309.30, 867.47 282.10 C 900.95 254.89, 941.25 233.46, 983.03 216.29 C 1024.80 199.11, 1073.02 184.03, 1118.12 179.04 C 1163.22 174.05, 1211.95 179.73, 1253.63 186.34 C 1295.31 192.95, 1331.94 204.25, 1368.20 218.71 C 1404.46 233.17, 1439.24 251.73, 1471.18 273.11 C 1503.13 294.48, 1534.25 319.29, 1559.89 346.96 C 1585.53 374.62, 1609.24 405.22, 1625.02 439.09 Z" transform="" fill="none" stroke="url(#gradMain)" stroke-width="80.6" stroke-linecap="round" stroke-linejoin="round" opacity="0.065"/>
<path d="M 1625.02 439.09 C 1640.80 472.96, 1657.80 511.60, 1654.57 550.18 C 1651.34 588.75, 1628.80 633.98, 1605.66 670.57 C 1582.51 707.15, 1552.32 741.91, 1515.69 769.68 C 1479.06 797.46, 1431.78 820.25, 1385.87 837.22 C 1339.95 854.19, 1288.95 866.53, 1240.22 871.50 C 1191.49 876.48, 1139.00 872.73, 1093.49 867.07 C 1047.98 861.42, 1007.50 851.00, 967.17 837.58 C 926.83 824.15, 885.30 809.02, 851.47 786.51 C 817.65 764.00, 785.81 733.88, 764.21 702.52 C 742.61 671.16, 727.36 634.29, 721.88 598.34 C 716.41 562.39, 721.32 523.29, 731.37 486.82 C 741.42 450.36, 759.49 413.66, 782.17 379.54 C 804.85 345.42, 834.00 309.30, 867.47 282.10 C 900.95 254.89, 941.25 233.46, 983.03 216.29 C 1024.80 199.11, 1073.02 184.03, 1118.12 179.04 C 1163.22 174.05, 1211.95 179.73, 1253.63 186.34 C 1295.31 192.95, 1331.94 204.25, 1368.20 218.71 C 1404.46 233.17, 1439.24 251.73, 1471.18 273.11 C 1503.13 294.48, 1534.25 319.29, 1559.89 346.96 C 1585.53 374.62, 1609.24 405.22, 1625.02 439.09 Z" transform="translate(3.00 2.00)" fill="none" stroke="url(#gradMain)" stroke-width="173.6" stroke-linecap="round" stroke-linejoin="round" opacity="0.038"/>
<path d="M 1625.02 439.09 C 1640.80 472.96, 1657.80 511.60, 1654.57 550.18 C 1651.34 588.75, 1628.80 633.98, 1605.66 670.57 C 1582.51 707.15, 1552.32 741.91, 1515.69 769.68 C 1479.06 797.46, 1431.78 820.25, 1385.87 837.22 C 1339.95 854.19, 1288.95 866.53, 1240.22 871.50 C 1191.49 876.48, 1139.00 872.73, 1093.49 867.07 C 1047.98 861.42, 1007.50 851.00, 967.17 837.58 C 926.83 824.15, 885.30 809.02, 851.47 786.51 C 817.65 764.00, 785.81 733.88, 764.21 702.52 C 742.61 671.16, 727.36 634.29, 721.88 598.34 C 716.41 562.39, 721.32 523.29, 731.37 486.82 C 741.42 450.36, 759.49 413.66, 782.17 379.54 C 804.85 345.42, 834.00 309.30, 867.47 282.10 C 900.95 254.89, 941.25 233.46, 983.03 216.29 C 1024.80 199.11, 1073.02 184.03, 1118.12 179.04 C 1163.22 174.05, 1211.95 179.73, 1253.63 186.34 C 1295.31 192.95, 1331.94 204.25, 1368.20 218.71 C 1404.46 233.17, 1439.24 251.73, 1471.18 273.11 C 1503.13 294.48, 1534.25 319.29, 1559.89 346.96 C 1585.53 374.62, 1609.24 405.22, 1625.02 439.09 Z" transform="translate(3.00 2.00)" fill="none" stroke="url(#gradMain)" stroke-width="140.0" stroke-linecap="round" stroke-linejoin="round" opacity="0.057"/>
<path d="M 1625.02 439.09 C 1640.80 472.96, 1657.80 511.60, 1654.57 550.18 C 1651.34 588.75, 1628.80 633.98, 1605.66 670.57 C 1582.51 707.15, 1552.32 741.91, 1515.69 769.68 C 1479.06 797.46, 1431.78 820.25, 1385.87 837.22 C 1339.95 854.19, 1288.95 866.53, 1240.22 871.50 C 1191.49 876.48, 1139.00 872.73, 1093.49 867.07 C 1047.98 861.42, 1007.50 851.00, 967.17 837.58 C 926.83 824.15, 885.30 809.02, 851.47 786.51 C 817.65 764.00, 785.81 733.88, 764.21 702.52 C 742.61 671.16, 727.36 634.29, 721.88 598.34 C 716.41 562.39, 721.32 523.29, 731.37 486.82 C 741.42 450.36, 759.49 413.66, 782.17 379.54 C 804.85 345.42, 834.00 309.30, 867.47 282.10 C 900.95 254.89, 941.25 233.46, 983.03 216.29 C 1024.80 199.11, 1073.02 184.03, 1118.12 179.04 C 1163.22 174.05, 1211.95 179.73, 1253.63 186.34 C 1295.31 192.95, 1331.94 204.25, 1368.20 218.71 C 1404.46 233.17, 1439.24 251.73, 1471.18 273.11 C 1503.13 294.48, 1534.25 319.29, 1559.89 346.96 C 1585.53 374.62, 1609.24 405.22, 1625.02 439.09 Z" transform="translate(3.00 2.00)" fill="none" stroke="url(#gradMain)" stroke-width="112.0" stroke-linecap="round" stroke-linejoin="round" opacity="0.087"/>
<path d="M 1625.02 439.09 C 1640.80 472.96, 1657.80 511.60, 1654.57 550.18 C 1651.34 588.75, 1628.80 633.98, 1605.66 670.57 C 1582.51 707.15, 1552.32 741.91, 1515.69 769.68 C 1479.06 797.46, 1431.78 820.25, 1385.87 837.22 C 1339.95 854.19, 1288.95 866.53, 1240.22 871.50 C 1191.49 876.48, 1139.00 872.73, 1093.49 867.07 C 1047.98 861.42, 1007.50 851.00, 967.17 837.58 C 926.83 824.15, 885.30 809.02, 851.47 786.51 C 817.65 764.00, 785.81 733.88, 764.21 702.52 C 742.61 671.16, 727.36 634.29, 721.88 598.34 C 716.41 562.39, 721.32 523.29, 731.37 486.82 C 741.42 450.36, 759.49 413.66, 782.17 379.54 C 804.85 345.42, 834.00 309.30, 867.47 282.10 C 900.95 254.89, 941.25 233.46, 983.03 216.29 C 1024.80 199.11, 1073.02 184.03, 1118.12 179.04 C 1163.22 174.05, 1211.95 179.73, 1253.63 186.34 C 1295.31 192.95, 1331.94 204.25, 1368.20 218.71 C 1404.46 233.17, 1439.24 251.73, 1471.18 273.11 C 1503.13 294.48, 1534.25 319.29, 1559.89 346.96 C 1585.53 374.62, 1609.24 405.22, 1625.02 439.09 Z" transform="translate(3.00 2.00)" fill="none" stroke="url(#gradMain)" stroke-width="80.6" stroke-linecap="round" stroke-linejoin="round" opacity="0.065"/>
<path d="M 1625.02 439.09 C 1640.80 472.96, 1657.80 511.60, 1654.57 550.18 C 1651.34 588.75, 1628.80 633.98, 1605.66 670.57 C 1582.51 707.15, 1552.32 741.91, 1515.69 769.68 C 1479.06 797.46, 1431.78 820.25, 1385.87 837.22 C 1339.95 854.19, 1288.95 866.53, 1240.22 871.50 C 1191.49 876.48, 1139.00 872.73, 1093.49 867.07 C 1047.98 861.42, 1007.50 851.00, 967.17 837.58 C 926.83 824.15, 885.30 809.02, 851.47 786.51 C 817.65 764.00, 785.81 733.88, 764.21 702.52 C 742.61 671.16, 727.36 634.29, 721.88 598.34 C 716.41 562.39, 721.32 523.29, 731.37 486.82 C 741.42 450.36, 759.49 413.66, 782.17 379.54 C 804.85 345.42, 834.00 309.30, 867.47 282.10 C 900.95 254.89, 941.25 233.46, 983.03 216.29 C 1024.80 199.11, 1073.02 184.03, 1118.12 179.04 C 1163.22 174.05, 1211.95 179.73, 1253.63 186.34 C 1295.31 192.95, 1331.94 204.25, 1368.20 218.71 C 1404.46 233.17, 1439.24 251.73, 1471.18 273.11 C 1503.13 294.48, 1534.25 319.29, 1559.89 346.96 C 1585.53 374.62, 1609.24 405.22, 1625.02 439.09 Z" transform="translate(-2.25 1.10)" fill="none" stroke="url(#gradMain)" stroke-width="173.6" stroke-linecap="round" stroke-linejoin="round" opacity="0.038"/>
<path d="M 1625.02 439.09 C 1640.80 472.96, 1657.80 511.60, 1654.57 550.18 C 1651.34 588.75, 1628.80 633.98, 1605.66 670.57 C 1582.51 707.15, 1552.32 741.91, 1515.69 769.68 C 1479.06 797.46, 1431.78 820.25, 1385.87 837.22 C 1339.95 854.19, 1288.95 866.53, 1240.22 871.50 C 1191.49 876.48, 1139.00 872.73, 1093.49 867.07 C 1047.98 861.42, 1007.50 851.00, 967.17 837.58 C 926.83 824.15, 885.30 809.02, 851.47 786.51 C 817.65 764.00, 785.81 733.88, 764.21 702.52 C 742.61 671.16, 727.36 634.29, 721.88 598.34 C 716.41 562.39, 721.32 523.29, 731.37 486.82 C 741.42 450.36, 759.49 413.66, 782.17 379.54 C 804.85 345.42, 834.00 309.30, 867.47 282.10 C 900.95 254.89, 941.25 233.46, 983.03 216.29 C 1024.80 199.11, 1073.02 184.03, 1118.12 179.04 C 1163.22 174.05, 1211.95 179.73, 1253.63 186.34 C 1295.31 192.95, 1331.94 204.25, 1368.20 218.71 C 1404.46 233.17, 1439.24 251.73, 1471.18 273.11 C 1503.13 294.48, 1534.25 319.29, 1559.89 346.96 C 1585.53 374.62, 1609.24 405.22, 1625.02 439.09 Z" transform="translate(-2.25 1.10)" fill="none" stroke="url(#gradMain)" stroke-width="140.0" stroke-linecap="round" stroke-linejoin="round" opacity="0.057"/>
<path d="M 1625.02 439.09 C 1640.80 472.96, 1657.80 511.60, 1654.57 550.18 C 1651.34 588.75, 1628.80 633.98, 1605.66 670.57 C 1582.51 707.15, 1552.32 741.91, 1515.69 769.68 C 1479.06 797.46, 1431.78 820.25, 1385.87 837.22 C 1339.95 854.19, 1288.95 866.53, 1240.22 871.50 C 1191.49 876.48, 1139.00 872.73, 1093.49 867.07 C 1047.98 861.42, 1007.50 851.00, 967.17 837.58 C 926.83 824.15, 885.30 809.02, 851.47 786.51 C 817.65 764.00, 785.81 733.88, 764.21 702.52 C 742.61 671.16, 727.36 634.29, 721.88 598.34 C 716.41 562.39, 721.32 523.29, 731.37 486.82 C 741.42 450.36, 759.49 413.66, 782.17 379.54 C 804.85 345.42, 834.00 309.30, 867.47 282.10 C 900.95 254.89, 941.25 233.46, 983.03 216.29 C 1024.80 199.11, 1073.02 184.03, 1118.12 179.04 C 1163.22 174.05, 1211.95 179.73, 1253.63 186.34 C 1295.31 192.95, 1331.94 204.25, 1368.20 218.71 C 1404.46 233.17, 1439.24 251.73, 1471.18 273.11 C 1503.13 294.48, 1534.25 319.29, 1559.89 346.96 C 1585.53 374.62, 1609.24 405.22, 1625.02 439.09 Z" transform="translate(-2.25 1.10)" fill="none" stroke="url(#gradMain)" stroke-width="112.0" stroke-linecap="round" stroke-linejoin="round" opacity="0.087"/>
<path d="M 1625.02 439.09 C 1640.80 472.96, 1657.80 511.60, 1654.57 550.18 C 1651.34 588.75, 1628.80 633.98, 1605.66 670.57 C 1582.51 707.15, 1552.32 741.91, 1515.69 769.68 C 1479.06 797.46, 1431.78 820.25, 1385.87 837.22 C 1339.95 854.19, 1288.95 866.53, 1240.22 871.50 C 1191.49 876.48, 1139.00 872.73, 1093.49 867.07 C 1047.98 861.42, 1007.50 851.00, 967.17 837.58 C 926.83 824.15, 885.30 809.02, 851.47 786.51 C 817.65 764.00, 785.81 733.88, 764.21 702.52 C 742.61 671.16, 727.36 634.29, 721.88 598.34 C 716.41 562.39, 721.32 523.29, 731.37 486.82 C 741.42 450.36, 759.49 413.66, 782.17 379.54 C 804.85 345.42, 834.00 309.30, 867.47 282.10 C 900.95 254.89, 941.25 233.46, 983.03 216.29 C 1024.80 199.11, 1073.02 184.03, 1118.12 179.04 C 1163.22 174.05, 1211.95 179.73, 1253.63 186.34 C 1295.31 192.95, 1331.94 204.25, 1368.20 218.71 C 1404.46 233.17, 1439.24 251.73, 1471.18 273.11 C 1503.13 294.48, 1534.25 319.29, 1559.89 346.96 C 1585.53 374.62, 1609.24 405.22, 1625.02 439.09 Z" transform="translate(-2.25 1.10)" fill="none" stroke="url(#gradMain)" stroke-width="80.6" stroke-linecap="round" stroke-linejoin="round" opacity="0.065"/>
<path d="M 1527.11 459.13 C 1536.82 486.00, 1540.68 516.35, 1537.77 546.48 C 1534.86 576.60, 1526.06 611.20, 1509.67 639.89 C 1493.27 668.57, 1467.91 696.99, 1439.40 718.60 C 1410.90 740.21, 1374.19 757.35, 1338.64 769.53 C 1303.10 781.72, 1263.52 786.97, 1226.15 791.71 C 1188.77 796.44, 1149.74 801.59, 1114.39 797.96 C 1079.04 794.33, 1044.85 781.90, 1014.04 769.93 C 983.24 757.97, 953.99 744.23, 929.57 726.16 C 905.15 708.10, 882.11 685.90, 867.51 661.53 C 852.92 637.16, 846.24 607.78, 842.01 579.93 C 837.79 552.08, 837.21 522.42, 842.15 494.41 C 847.10 466.39, 855.80 438.56, 871.69 411.83 C 887.58 385.11, 911.08 354.90, 937.51 334.05 C 963.93 313.20, 998.04 300.70, 1030.24 286.74 C 1062.43 272.78, 1096.45 254.90, 1130.68 250.28 C 1164.90 245.67, 1203.20 252.12, 1235.58 259.06 C 1267.95 266.00, 1295.85 279.97, 1324.92 291.91 C 1353.98 303.86, 1384.18 315.17, 1409.94 330.73 C 1435.71 346.28, 1459.98 363.83, 1479.51 385.23 C 1499.04 406.63, 1517.40 432.25, 1527.11 459.13 Z" transform="" fill="none" stroke="url(#gradPink)" stroke-width="151.9" stroke-linecap="round" stroke-linejoin="round" opacity="0.036"/>
<path d="M 1527.11 459.13 C 1536.82 486.00, 1540.68 516.35, 1537.77 546.48 C 1534.86 576.60, 1526.06 611.20, 1509.67 639.89 C 1493.27 668.57, 1467.91 696.99, 1439.40 718.60 C 1410.90 740.21, 1374.19 757.35, 1338.64 769.53 C 1303.10 781.72, 1263.52 786.97, 1226.15 791.71 C 1188.77 796.44, 1149.74 801.59, 1114.39 797.96 C 1079.04 794.33, 1044.85 781.90, 1014.04 769.93 C 983.24 757.97, 953.99 744.23, 929.57 726.16 C 905.15 708.10, 882.11 685.90, 867.51 661.53 C 852.92 637.16, 846.24 607.78, 842.01 579.93 C 837.79 552.08, 837.21 522.42, 842.15 494.41 C 847.10 466.39, 855.80 438.56, 871.69 411.83 C 887.58 385.11, 911.08 354.90, 937.51 334.05 C 963.93 313.20, 998.04 300.70, 1030.24 286.74 C 1062.43 272.78, 1096.45 254.90, 1130.68 250.28 C 1164.90 245.67, 1203.20 252.12, 1235.58 259.06 C 1267.95 266.00, 1295.85 279.97, 1324.92 291.91 C 1353.98 303.86, 1384.18 315.17, 1409.94 330.73 C 1435.71 346.28, 1459.98 363.83, 1479.51 385.23 C 1499.04 406.63, 1517.40 432.25, 1527.11 459.13 Z" transform="" fill="none" stroke="url(#gradPink)" stroke-width="122.5" stroke-linecap="round" stroke-linejoin="round" opacity="0.054"/>
<path d="M 1527.11 459.13 C 1536.82 486.00, 1540.68 516.35, 1537.77 546.48 C 1534.86 576.60, 1526.06 611.20, 1509.67 639.89 C 1493.27 668.57, 1467.91 696.99, 1439.40 718.60 C 1410.90 740.21, 1374.19 757.35, 1338.64 769.53 C 1303.10 781.72, 1263.52 786.97, 1226.15 791.71 C 1188.77 796.44, 1149.74 801.59, 1114.39 797.96 C 1079.04 794.33, 1044.85 781.90, 1014.04 769.93 C 983.24 757.97, 953.99 744.23, 929.57 726.16 C 905.15 708.10, 882.11 685.90, 867.51 661.53 C 852.92 637.16, 846.24 607.78, 842.01 579.93 C 837.79 552.08, 837.21 522.42, 842.15 494.41 C 847.10 466.39, 855.80 438.56, 871.69 411.83 C 887.58 385.11, 911.08 354.90, 937.51 334.05 C 963.93 313.20, 998.04 300.70, 1030.24 286.74 C 1062.43 272.78, 1096.45 254.90, 1130.68 250.28 C 1164.90 245.67, 1203.20 252.12, 1235.58 259.06 C 1267.95 266.00, 1295.85 279.97, 1324.92 291.91 C 1353.98 303.86, 1384.18 315.17, 1409.94 330.73 C 1435.71 346.28, 1459.98 363.83, 1479.51 385.23 C 1499.04 406.63, 1517.40 432.25, 1527.11 459.13 Z" transform="" fill="none" stroke="url(#gradPink)" stroke-width="98.0" stroke-linecap="round" stroke-linejoin="round" opacity="0.083"/>
<path d="M 1527.11 459.13 C 1536.82 486.00, 1540.68 516.35, 1537.77 546.48 C 1534.86 576.60, 1526.06 611.20, 1509.67 639.89 C 1493.27 668.57, 1467.91 696.99, 1439.40 718.60 C 1410.90 740.21, 1374.19 757.35, 1338.64 769.53 C 1303.10 781.72, 1263.52 786.97, 1226.15 791.71 C 1188.77 796.44, 1149.74 801.59, 1114.39 797.96 C 1079.04 794.33, 1044.85 781.90, 1014.04 769.93 C 983.24 757.97, 953.99 744.23, 929.57 726.16 C 905.15 708.10, 882.11 685.90, 867.51 661.53 C 852.92 637.16, 846.24 607.78, 842.01 579.93 C 837.79 552.08, 837.21 522.42, 842.15 494.41 C 847.10 466.39, 855.80 438.56, 871.69 411.83 C 887.58 385.11, 911.08 354.90, 937.51 334.05 C 963.93 313.20, 998.04 300.70, 1030.24 286.74 C 1062.43 272.78, 1096.45 254.90, 1130.68 250.28 C 1164.90 245.67, 1203.20 252.12, 1235.58 259.06 C 1267.95 266.00, 1295.85 279.97, 1324.92 291.91 C 1353.98 303.86, 1384.18 315.17, 1409.94 330.73 C 1435.71 346.28, 1459.98 363.83, 1479.51 385.23 C 1499.04 406.63, 1517.40 432.25, 1527.11 459.13 Z" transform="" fill="none" stroke="url(#gradPink)" stroke-width="70.6" stroke-linecap="round" stroke-linejoin="round" opacity="0.061"/>
<path d="M 1527.11 459.13 C 1536.82 486.00, 1540.68 516.35, 1537.77 546.48 C 1534.86 576.60, 1526.06 611.20, 1509.67 639.89 C 1493.27 668.57, 1467.91 696.99, 1439.40 718.60 C 1410.90 740.21, 1374.19 757.35, 1338.64 769.53 C 1303.10 781.72, 1263.52 786.97, 1226.15 791.71 C 1188.77 796.44, 1149.74 801.59, 1114.39 797.96 C 1079.04 794.33, 1044.85 781.90, 1014.04 769.93 C 983.24 757.97, 953.99 744.23, 929.57 726.16 C 905.15 708.10, 882.11 685.90, 867.51 661.53 C 852.92 637.16, 846.24 607.78, 842.01 579.93 C 837.79 552.08, 837.21 522.42, 842.15 494.41 C 847.10 466.39, 855.80 438.56, 871.69 411.83 C 887.58 385.11, 911.08 354.90, 937.51 334.05 C 963.93 313.20, 998.04 300.70, 1030.24 286.74 C 1062.43 272.78, 1096.45 254.90, 1130.68 250.28 C 1164.90 245.67, 1203.20 252.12, 1235.58 259.06 C 1267.95 266.00, 1295.85 279.97, 1324.92 291.91 C 1353.98 303.86, 1384.18 315.17, 1409.94 330.73 C 1435.71 346.28, 1459.98 363.83, 1479.51 385.23 C 1499.04 406.63, 1517.40 432.25, 1527.11 459.13 Z" transform="translate(3.00 2.00)" fill="none" stroke="url(#gradPink)" stroke-width="151.9" stroke-linecap="round" stroke-linejoin="round" opacity="0.036"/>
<path d="M 1527.11 459.13 C 1536.82 486.00, 1540.68 516.35, 1537.77 546.48 C 1534.86 576.60, 1526.06 611.20, 1509.67 639.89 C 1493.27 668.57, 1467.91 696.99, 1439.40 718.60 C 1410.90 740.21, 1374.19 757.35, 1338.64 769.53 C 1303.10 781.72, 1263.52 786.97, 1226.15 791.71 C 1188.77 796.44, 1149.74 801.59, 1114.39 797.96 C 1079.04 794.33, 1044.85 781.90, 1014.04 769.93 C 983.24 757.97, 953.99 744.23, 929.57 726.16 C 905.15 708.10, 882.11 685.90, 867.51 661.53 C 852.92 637.16, 846.24 607.78, 842.01 579.93 C 837.79 552.08, 837.21 522.42, 842.15 494.41 C 847.10 466.39, 855.80 438.56, 871.69 411.83 C 887.58 385.11, 911.08 354.90, 937.51 334.05 C 963.93 313.20, 998.04 300.70, 1030.24 286.74 C 1062.43 272.78, 1096.45 254.90, 1130.68 250.28 C 1164.90 245.67, 1203.20 252.12, 1235.58 259.06 C 1267.95 266.00, 1295.85 279.97, 1324.92 291.91 C 1353.98 303.86, 1384.18 315.17, 1409.94 330.73 C 1435.71 346.28, 1459.98 363.83, 1479.51 385.23 C 1499.04 406.63, 1517.40 432.25, 1527.11 459.13 Z" transform="translate(3.00 2.00)" fill="none" stroke="url(#gradPink)" stroke-width="122.5" stroke-linecap="round" stroke-linejoin="round" opacity="0.054"/>
<path d="M 1527.11 459.13 C 1536.82 486.00, 1540.68 516.35, 1537.77 546.48 C 1534.86 576.60, 1526.06 611.20, 1509.67 639.89 C 1493.27 668.57, 1467.91 696.99, 1439.40 718.60 C 1410.90 740.21, 1374.19 757.35, 1338.64 769.53 C 1303.10 781.72, 1263.52 786.97, 1226.15 791.71 C 1188.77 796.44, 1149.74 801.59, 1114.39 797.96 C 1079.04 794.33, 1044.85 781.90, 1014.04 769.93 C 983.24 757.97, 953.99 744.23, 929.57 726.16 C 905.15 708.10, 882.11 685.90, 867.51 661.53 C 852.92 637.16, 846.24 607.78, 842.01 579.93 C 837.79 552.08, 837.21 522.42, 842.15 494.41 C 847.10 466.39, 855.80 438.56, 871.69 411.83 C 887.58 385.11, 911.08 354.90, 937.51 334.05 C 963.93 313.20, 998.04 300.70, 1030.24 286.74 C 1062.43 272.78, 1096.45 254.90, 1130.68 250.28 C 1164.90 245.67, 1203.20 252.12, 1235.58 259.06 C 1267.95 266.00, 1295.85 279.97, 1324.92 291.91 C 1353.98 303.86, 1384.18 315.17, 1409.94 330.73 C 1435.71 346.28, 1459.98 363.83, 1479.51 385.23 C 1499.04 406.63, 1517.40 432.25, 1527.11 459.13 Z" transform="translate(3.00 2.00)" fill="none" stroke="url(#gradPink)" stroke-width="98.0" stroke-linecap="round" stroke-linejoin="round" opacity="0.083"/>
<path d="M 1527.11 459.13 C 1536.82 486.00, 1540.68 516.35, 1537.77 546.48 C 1534.86 576.60, 1526.06 611.20, 1509.67 639.89 C 1493.27 668.57, 1467.91 696.99, 1439.40 718.60 C 1410.90 740.21, 1374.19 757.35, 1338.64 769.53 C 1303.10 781.72, 1263.52 786.97, 1226.15 791.71 C 1188.77 796.44, 1149.74 801.59, 1114.39 797.96 C 1079.04 794.33, 1044.85 781.90, 1014.04 769.93 C 983.24 757.97, 953.99 744.23, 929.57 726.16 C 905.15 708.10, 882.11 685.90, 867.51 661.53 C 852.92 637.16, 846.24 607.78, 842.01 579.93 C 837.79 552.08, 837.21 522.42, 842.15 494.41 C 847.10 466.39, 855.80 438.56, 871.69 411.83 C 887.58 385.11, 911.08 354.90, 937.51 334.05 C 963.93 313.20, 998.04 300.70, 1030.24 286.74 C 1062.43 272.78, 1096.45 254.90, 1130.68 250.28 C 1164.90 245.67, 1203.20 252.12, 1235.58 259.06 C 1267.95 266.00, 1295.85 279.97, 1324.92 291.91 C 1353.98 303.86, 1384.18 315.17, 1409.94 330.73 C 1435.71 346.28, 1459.98 363.83, 1479.51 385.23 C 1499.04 406.63, 1517.40 432.25, 1527.11 459.13 Z" transform="translate(3.00 2.00)" fill="none" stroke="url(#gradPink)" stroke-width="70.6" stroke-linecap="round" stroke-linejoin="round" opacity="0.061"/>
<path d="M 1527.11 459.13 C 1536.82 486.00, 1540.68 516.35, 1537.77 546.48 C 1534.86 576.60, 1526.06 611.20, 1509.67 639.89 C 1493.27 668.57, 1467.91 696.99, 1439.40 718.60 C 1410.90 740.21, 1374.19 757.35, 1338.64 769.53 C 1303.10 781.72, 1263.52 786.97, 1226.15 791.71 C 1188.77 796.44, 1149.74 801.59, 1114.39 797.96 C 1079.04 794.33, 1044.85 781.90, 1014.04 769.93 C 983.24 757.97, 953.99 744.23, 929.57 726.16 C 905.15 708.10, 882.11 685.90, 867.51 661.53 C 852.92 637.16, 846.24 607.78, 842.01 579.93 C 837.79 552.08, 837.21 522.42, 842.15 494.41 C 847.10 466.39, 855.80 438.56, 871.69 411.83 C 887.58 385.11, 911.08 354.90, 937.51 334.05 C 963.93 313.20, 998.04 300.70, 1030.24 286.74 C 1062.43 272.78, 1096.45 254.90, 1130.68 250.28 C 1164.90 245.67, 1203.20 252.12, 1235.58 259.06 C 1267.95 266.00, 1295.85 279.97, 1324.92 291.91 C 1353.98 303.86, 1384.18 315.17, 1409.94 330.73 C 1435.71 346.28, 1459.98 363.83, 1479.51 385.23 C 1499.04 406.63, 1517.40 432.25, 1527.11 459.13 Z" transform="translate(-2.25 1.10)" fill="none" stroke="url(#gradPink)" stroke-width="151.9" stroke-linecap="round" stroke-linejoin="round" opacity="0.036"/>
<path d="M 1527.11 459.13 C 1536.82 486.00, 1540.68 516.35, 1537.77 546.48 C 1534.86 576.60, 1526.06 611.20, 1509.67 639.89 C 1493.27 668.57, 1467.91 696.99, 1439.40 718.60 C 1410.90 740.21, 1374.19 757.35, 1338.64 769.53 C 1303.10 781.72, 1263.52 786.97, 1226.15 791.71 C 1188.77 796.44, 1149.74 801.59, 1114.39 797.96 C 1079.04 794.33, 1044.85 781.90, 1014.04 769.93 C 983.24 757.97, 953.99 744.23, 929.57 726.16 C 905.15 708.10, 882.11 685.90, 867.51 661.53 C 852.92 637.16, 846.24 607.78, 842.01 579.93 C 837.79 552.08, 837.21 522.42, 842.15 494.41 C 847.10 466.39, 855.80 438.56, 871.69 411.83 C 887.58 385.11, 911.08 354.90, 937.51 334.05 C 963.93 313.20, 998.04 300.70, 1030.24 286.74 C 1062.43 272.78, 1096.45 254.90, 1130.68 250.28 C 1164.90 245.67, 1203.20 252.12, 1235.58 259.06 C 1267.95 266.00, 1295.85 279.97, 1324.92 291.91 C 1353.98 303.86, 1384.18 315.17, 1409.94 330.73 C 1435.71 346.28, 1459.98 363.83, 1479.51 385.23 C 1499.04 406.63, 1517.40 432.25, 1527.11 459.13 Z" transform="translate(-2.25 1.10)" fill="none" stroke="url(#gradPink)" stroke-width="122.5" stroke-linecap="round" stroke-linejoin="round" opacity="0.054"/>
<path d="M 1527.11 459.13 C 1536.82 486.00, 1540.68 516.35, 1537.77 546.48 C 1534.86 576.60, 1526.06 611.20, 1509.67 639.89 C 1493.27 668.57, 1467.91 696.99, 1439.40 718.60 C 1410.90 740.21, 1374.19 757.35, 1338.64 769.53 C 1303.10 781.72, 1263.52 786.97, 1226.15 791.71 C 1188.77 796.44, 1149.74 801.59, 1114.39 797.96 C 1079.04 794.33, 1044.85 781.90, 1014.04 769.93 C 983.24 757.97, 953.99 744.23, 929.57 726.16 C 905.15 708.10, 882.11 685.90, 867.51 661.53 C 852.92 637.16, 846.24 607.78, 842.01 579.93 C 837.79 552.08, 837.21 522.42, 842.15 494.41 C 847.10 466.39, 855.80 438.56, 871.69 411.83 C 887.58 385.11, 911.08 354.90, 937.51 334.05 C 963.93 313.20, 998.04 300.70, 1030.24 286.74 C 1062.43 272.78, 1096.45 254.90, 1130.68 250.28 C 1164.90 245.67, 1203.20 252.12, 1235.58 259.06 C 1267.95 266.00, 1295.85 279.97, 1324.92 291.91 C 1353.98 303.86, 1384.18 315.17, 1409.94 330.73 C 1435.71 346.28, 1459.98 363.83, 1479.51 385.23 C 1499.04 406.63, 1517.40 432.25, 1527.11 459.13 Z" transform="translate(-2.25 1.10)" fill="none" stroke="url(#gradPink)" stroke-width="98.0" stroke-linecap="round" stroke-linejoin="round" opacity="0.083"/>
<path d="M 1527.11 459.13 C 1536.82 486.00, 1540.68 516.35, 1537.77 546.48 C 1534.86 576.60, 1526.06 611.20, 1509.67 639.89 C 1493.27 668.57, 1467.91 696.99, 1439.40 718.60 C 1410.90 740.21, 1374.19 757.35, 1338.64 769.53 C 1303.10 781.72, 1263.52 786.97, 1226.15 791.71 C 1188.77 796.44, 1149.74 801.59, 1114.39 797.96 C 1079.04 794.33, 1044.85 781.90, 1014.04 769.93 C 983.24 757.97, 953.99 744.23, 929.57 726.16 C 905.15 708.10, 882.11 685.90, 867.51 661.53 C 852.92 637.16, 846.24 607.78, 842.01 579.93 C 837.79 552.08, 837.21 522.42, 842.15 494.41 C 847.10 466.39, 855.80 438.56, 871.69 411.83 C 887.58 385.11, 911.08 354.90, 937.51 334.05 C 963.93 313.20, 998.04 300.70, 1030.24 286.74 C 1062.43 272.78, 1096.45 254.90, 1130.68 250.28 C 1164.90 245.67, 1203.20 252.12, 1235.58 259.06 C 1267.95 266.00, 1295.85 279.97, 1324.92 291.91 C 1353.98 303.86, 1384.18 315.17, 1409.94 330.73 C 1435.71 346.28, 1459.98 363.83, 1479.51 385.23 C 1499.04 406.63, 1517.40 432.25, 1527.11 459.13 Z" transform="translate(-2.25 1.10)" fill="none" stroke="url(#gradPink)" stroke-width="70.6" stroke-linecap="round" stroke-linejoin="round" opacity="0.061"/>
<path d="M 1436.08 477.45 C 1445.53 497.50, 1456.01 520.63, 1455.43 543.03 C 1454.84 565.43, 1445.84 590.80, 1432.56 611.87 C 1419.29 632.94, 1397.56 652.57, 1375.76 669.44 C 1353.96 686.32, 1328.48 702.83, 1301.77 713.12 C 1275.06 723.41, 1244.00 727.70, 1215.48 731.20 C 1186.95 734.70, 1157.47 736.88, 1130.63 734.12 C 1103.79 731.35, 1078.37 723.61, 1054.42 714.61 C 1030.47 705.62, 1006.20 694.04, 986.93 680.17 C 967.66 666.30, 950.78 649.88, 938.81 631.40 C 926.85 612.93, 918.77 590.64, 915.14 569.31 C 911.51 547.98, 911.83 525.22, 917.04 503.42 C 922.25 481.61, 933.17 458.77, 946.41 438.48 C 959.65 418.19, 976.99 397.97, 996.49 381.67 C 1016.00 365.37, 1038.99 350.80, 1063.43 340.67 C 1087.87 330.54, 1116.98 323.81, 1143.13 320.89 C 1169.28 317.97, 1195.73 319.22, 1220.33 323.17 C 1244.92 327.13, 1268.62 335.67, 1290.68 344.62 C 1312.74 353.57, 1334.67 363.84, 1352.68 376.86 C 1370.69 389.88, 1384.84 405.96, 1398.74 422.73 C 1412.64 439.49, 1426.63 457.40, 1436.08 477.45 Z" transform="" fill="none" stroke="url(#gradMain)" stroke-width="133.3" stroke-linecap="round" stroke-linejoin="round" opacity="0.034"/>
<path d="M 1436.08 477.45 C 1445.53 497.50, 1456.01 520.63, 1455.43 543.03 C 1454.84 565.43, 1445.84 590.80, 1432.56 611.87 C 1419.29 632.94, 1397.56 652.57, 1375.76 669.44 C 1353.96 686.32, 1328.48 702.83, 1301.77 713.12 C 1275.06 723.41, 1244.00 727.70, 1215.48 731.20 C 1186.95 734.70, 1157.47 736.88, 1130.63 734.12 C 1103.79 731.35, 1078.37 723.61, 1054.42 714.61 C 1030.47 705.62, 1006.20 694.04, 986.93 680.17 C 967.66 666.30, 950.78 649.88, 938.81 631.40 C 926.85 612.93, 918.77 590.64, 915.14 569.31 C 911.51 547.98, 911.83 525.22, 917.04 503.42 C 922.25 481.61, 933.17 458.77, 946.41 438.48 C 959.65 418.19, 976.99 397.97, 996.49 381.67 C 1016.00 365.37, 1038.99 350.80, 1063.43 340.67 C 1087.87 330.54, 1116.98 323.81, 1143.13 320.89 C 1169.28 317.97, 1195.73 319.22, 1220.33 323.17 C 1244.92 327.13, 1268.62 335.67, 1290.68 344.62 C 1312.74 353.57, 1334.67 363.84, 1352.68 376.86 C 1370.69 389.88, 1384.84 405.96, 1398.74 422.73 C 1412.64 439.49, 1426.63 457.40, 1436.08 477.45 Z" transform="" fill="none" stroke="url(#gradMain)" stroke-width="107.5" stroke-linecap="round" stroke-linejoin="round" opacity="0.051"/>
<path d="M 1436.08 477.45 C 1445.53 497.50, 1456.01 520.63, 1455.43 543.03 C 1454.84 565.43, 1445.84 590.80, 1432.56 611.87 C 1419.29 632.94, 1397.56 652.57, 1375.76 669.44 C 1353.96 686.32, 1328.48 702.83, 1301.77 713.12 C 1275.06 723.41, 1244.00 727.70, 1215.48 731.20 C 1186.95 734.70, 1157.47 736.88, 1130.63 734.12 C 1103.79 731.35, 1078.37 723.61, 1054.42 714.61 C 1030.47 705.62, 1006.20 694.04, 986.93 680.17 C 967.66 666.30, 950.78 649.88, 938.81 631.40 C 926.85 612.93, 918.77 590.64, 915.14 569.31 C 911.51 547.98, 911.83 525.22, 917.04 503.42 C 922.25 481.61, 933.17 458.77, 946.41 438.48 C 959.65 418.19, 976.99 397.97, 996.49 381.67 C 1016.00 365.37, 1038.99 350.80, 1063.43 340.67 C 1087.87 330.54, 1116.98 323.81, 1143.13 320.89 C 1169.28 317.97, 1195.73 319.22, 1220.33 323.17 C 1244.92 327.13, 1268.62 335.67, 1290.68 344.62 C 1312.74 353.57, 1334.67 363.84, 1352.68 376.86 C 1370.69 389.88, 1384.84 405.96, 1398.74 422.73 C 1412.64 439.49, 1426.63 457.40, 1436.08 477.45 Z" transform="" fill="none" stroke="url(#gradMain)" stroke-width="86.0" stroke-linecap="round" stroke-linejoin="round" opacity="0.078"/>
<path d="M 1436.08 477.45 C 1445.53 497.50, 1456.01 520.63, 1455.43 543.03 C 1454.84 565.43, 1445.84 590.80, 1432.56 611.87 C 1419.29 632.94, 1397.56 652.57, 1375.76 669.44 C 1353.96 686.32, 1328.48 702.83, 1301.77 713.12 C 1275.06 723.41, 1244.00 727.70, 1215.48 731.20 C 1186.95 734.70, 1157.47 736.88, 1130.63 734.12 C 1103.79 731.35, 1078.37 723.61, 1054.42 714.61 C 1030.47 705.62, 1006.20 694.04, 986.93 680.17 C 967.66 666.30, 950.78 649.88, 938.81 631.40 C 926.85 612.93, 918.77 590.64, 915.14 569.31 C 911.51 547.98, 911.83 525.22, 917.04 503.42 C 922.25 481.61, 933.17 458.77, 946.41 438.48 C 959.65 418.19, 976.99 397.97, 996.49 381.67 C 1016.00 365.37, 1038.99 350.80, 1063.43 340.67 C 1087.87 330.54, 1116.98 323.81, 1143.13 320.89 C 1169.28 317.97, 1195.73 319.22, 1220.33 323.17 C 1244.92 327.13, 1268.62 335.67, 1290.68 344.62 C 1312.74 353.57, 1334.67 363.84, 1352.68 376.86 C 1370.69 389.88, 1384.84 405.96, 1398.74 422.73 C 1412.64 439.49, 1426.63 457.40, 1436.08 477.45 Z" transform="" fill="none" stroke="url(#gradMain)" stroke-width="61.9" stroke-linecap="round" stroke-linejoin="round" opacity="0.058"/>
<path d="M 1436.08 477.45 C 1445.53 497.50, 1456.01 520.63, 1455.43 543.03 C 1454.84 565.43, 1445.84 590.80, 1432.56 611.87 C 1419.29 632.94, 1397.56 652.57, 1375.76 669.44 C 1353.96 686.32, 1328.48 702.83, 1301.77 713.12 C 1275.06 723.41, 1244.00 727.70, 1215.48 731.20 C 1186.95 734.70, 1157.47 736.88, 1130.63 734.12 C 1103.79 731.35, 1078.37 723.61, 1054.42 714.61 C 1030.47 705.62, 1006.20 694.04, 986.93 680.17 C 967.66 666.30, 950.78 649.88, 938.81 631.40 C 926.85 612.93, 918.77 590.64, 915.14 569.31 C 911.51 547.98, 911.83 525.22, 917.04 503.42 C 922.25 481.61, 933.17 458.77, 946.41 438.48 C 959.65 418.19, 976.99 397.97, 996.49 381.67 C 1016.00 365.37, 1038.99 350.80, 1063.43 340.67 C 1087.87 330.54, 1116.98 323.81, 1143.13 320.89 C 1169.28 317.97, 1195.73 319.22, 1220.33 323.17 C 1244.92 327.13, 1268.62 335.67, 1290.68 344.62 C 1312.74 353.57, 1334.67 363.84, 1352.68 376.86 C 1370.69 389.88, 1384.84 405.96, 1398.74 422.73 C 1412.64 439.49, 1426.63 457.40, 1436.08 477.45 Z" transform="translate(3.00 2.00)" fill="none" stroke="url(#gradMain)" stroke-width="133.3" stroke-linecap="round" stroke-linejoin="round" opacity="0.034"/>
<path d="M 1436.08 477.45 C 1445.53 497.50, 1456.01 520.63, 1455.43 543.03 C 1454.84 565.43, 1445.84 590.80, 1432.56 611.87 C 1419.29 632.94, 1397.56 652.57, 1375.76 669.44 C 1353.96 686.32, 1328.48 702.83, 1301.77 713.12 C 1275.06 723.41, 1244.00 727.70, 1215.48 731.20 C 1186.95 734.70, 1157.47 736.88, 1130.63 734.12 C 1103.79 731.35, 1078.37 723.61, 1054.42 714.61 C 1030.47 705.62, 1006.20 694.04, 986.93 680.17 C 967.66 666.30, 950.78 649.88, 938.81 631.40 C 926.85 612.93, 918.77 590.64, 915.14 569.31 C 911.51 547.98, 911.83 525.22, 917.04 503.42 C 922.25 481.61, 933.17 458.77, 946.41 438.48 C 959.65 418.19, 976.99 397.97, 996.49 381.67 C 1016.00 365.37, 1038.99 350.80, 1063.43 340.67 C 1087.87 330.54, 1116.98 323.81, 1143.13 320.89 C 1169.28 317.97, 1195.73 319.22, 1220.33 323.17 C 1244.92 327.13, 1268.62 335.67, 1290.68 344.62 C 1312.74 353.57, 1334.67 363.84, 1352.68 376.86 C 1370.69 389.88, 1384.84 405.96, 1398.74 422.73 C 1412.64 439.49, 1426.63 457.40, 1436.08 477.45 Z" transform="translate(3.00 2.00)" fill="none" stroke="url(#gradMain)" stroke-width="107.5" stroke-linecap="round" stroke-linejoin="round" opacity="0.051"/>
<path d="M 1436.08 477.45 C 1445.53 497.50, 1456.01 520.63, 1455.43 543.03 C 1454.84 565.43, 1445.84 590.80, 1432.56 611.87 C 1419.29 632.94, 1397.56 652.57, 1375.76 669.44 C 1353.96 686.32, 1328.48 702.83, 1301.77 713.12 C 1275.06 723.41, 1244.00 727.70, 1215.48 731.20 C 1186.95 734.70, 1157.47 736.88, 1130.63 734.12 C 1103.79 731.35, 1078.37 723.61, 1054.42 714.61 C 1030.47 705.62, 1006.20 694.04, 986.93 680.17 C 967.66 666.30, 950.78 649.88, 938.81 631.40 C 926.85 612.93, 918.77 590.64, 915.14 569.31 C 911.51 547.98, 911.83 525.22, 917.04 503.42 C 922.25 481.61, 933.17 458.77, 946.41 438.48 C 959.65 418.19, 976.99 397.97, 996.49 381.67 C 1016.00 365.37, 1038.99 350.80, 1063.43 340.67 C 1087.87 330.54, 1116.98 323.81, 1143.13 320.89 C 1169.28 317.97, 1195.73 319.22, 1220.33 323.17 C 1244.92 327.13, 1268.62 335.67, 1290.68 344.62 C 1312.74 353.57, 1334.67 363.84, 1352.68 376.86 C 1370.69 389.88, 1384.84 405.96, 1398.74 422.73 C 1412.64 439.49, 1426.63 457.40, 1436.08 477.45 Z" transform="translate(3.00 2.00)" fill="none" stroke="url(#gradMain)" stroke-width="86.0" stroke-linecap="round" stroke-linejoin="round" opacity="0.078"/>
<path d="M 1436.08 477.45 C 1445.53 497.50, 1456.01 520.63, 1455.43 543.03 C 1454.84 565.43, 1445.84 590.80, 1432.56 611.87 C 1419.29 632.94, 1397.56 652.57, 1375.76 669.44 C 1353.96 686.32, 1328.48 702.83, 1301.77 713.12 C 1275.06 723.41, 1244.00 727.70, 1215.48 731.20 C 1186.95 734.70, 1157.47 736.88, 1130.63 734.12 C 1103.79 731.35, 1078.37 723.61, 1054.42 714.61 C 1030.47 705.62, 1006.20 694.04, 986.93 680.17 C 967.66 666.30, 950.78 649.88, 938.81 631.40 C 926.85 612.93, 918.77 590.64, 915.14 569.31 C 911.51 547.98, 911.83 525.22, 917.04 503.42 C 922.25 481.61, 933.17 458.77, 946.41 438.48 C 959.65 418.19, 976.99 397.97, 996.49 381.67 C 1016.00 365.37, 1038.99 350.80, 1063.43 340.67 C 1087.87 330.54, 1116.98 323.81, 1143.13 320.89 C 1169.28 317.97, 1195.73 319.22, 1220.33 323.17 C 1244.92 327.13, 1268.62 335.67, 1290.68 344.62 C 1312.74 353.57, 1334.67 363.84, 1352.68 376.86 C 1370.69 389.88, 1384.84 405.96, 1398.74 422.73 C 1412.64 439.49, 1426.63 457.40, 1436.08 477.45 Z" transform="translate(3.00 2.00)" fill="none" stroke="url(#gradMain)" stroke-width="61.9" stroke-linecap="round" stroke-linejoin="round" opacity="0.058"/>
<path d="M 1436.08 477.45 C 1445.53 497.50, 1456.01 520.63, 1455.43 543.03 C 1454.84 565.43, 1445.84 590.80, 1432.56 611.87 C 1419.29 632.94, 1397.56 652.57, 1375.76 669.44 C 1353.96 686.32, 1328.48 702.83, 1301.77 713.12 C 1275.06 723.41, 1244.00 727.70, 1215.48 731.20 C 1186.95 734.70, 1157.47 736.88, 1130.63 734.12 C 1103.79 731.35, 1078.37 723.61, 1054.42 714.61 C 1030.47 705.62, 1006.20 694.04, 986.93 680.17 C 967.66 666.30, 950.78 649.88, 938.81 631.40 C 926.85 612.93, 918.77 590.64, 915.14 569.31 C 911.51 547.98, 911.83 525.22, 917.04 503.42 C 922.25 481.61, 933.17 458.77, 946.41 438.48 C 959.65 418.19, 976.99 397.97, 996.49 381.67 C 1016.00 365.37, 1038.99 350.80, 1063.43 340.67 C 1087.87 330.54, 1116.98 323.81, 1143.13 320.89 C 1169.28 317.97, 1195.73 319.22, 1220.33 323.17 C 1244.92 327.13, 1268.62 335.67, 1290.68 344.62 C 1312.74 353.57, 1334.67 363.84, 1352.68 376.86 C 1370.69 389.88, 1384.84 405.96, 1398.74 422.73 C 1412.64 439.49, 1426.63 457.40, 1436.08 477.45 Z" transform="translate(-2.25 1.10)" fill="none" stroke="url(#gradMain)" stroke-width="133.3" stroke-linecap="round" stroke-linejoin="round" opacity="0.034"/>
<path d="M 1436.08 477.45 C 1445.53 497.50, 1456.01 520.63, 1455.43 543.03 C 1454.84 565.43, 1445.84 590.80, 1432.56 611.87 C 1419.29 632.94, 1397.56 652.57, 1375.76 669.44 C 1353.96 686.32, 1328.48 702.83, 1301.77 713.12 C 1275.06 723.41, 1244.00 727.70, 1215.48 731.20 C 1186.95 734.70, 1157.47 736.88, 1130.63 734.12 C 1103.79 731.35, 1078.37 723.61, 1054.42 714.61 C 1030.47 705.62, 1006.20 694.04, 986.93 680.17 C 967.66 666.30, 950.78 649.88, 938.81 631.40 C 926.85 612.93, 918.77 590.64, 915.14 569.31 C 911.51 547.98, 911.83 525.22, 917.04 503.42 C 922.25 481.61, 933.17 458.77, 946.41 438.48 C 959.65 418.19, 976.99 397.97, 996.49 381.67 C 1016.00 365.37, 1038.99 350.80, 1063.43 340.67 C 1087.87 330.54, 1116.98 323.81, 1143.13 320.89 C 1169.28 317.97, 1195.73 319.22, 1220.33 323.17 C 1244.92 327.13, 1268.62 335.67, 1290.68 344.62 C 1312.74 353.57, 1334.67 363.84, 1352.68 376.86 C 1370.69 389.88, 1384.84 405.96, 1398.74 422.73 C 1412.64 439.49, 1426.63 457.40, 1436.08 477.45 Z" transform="translate(-2.25 1.10)" fill="none" stroke="url(#gradMain)" stroke-width="107.5" stroke-linecap="round" stroke-linejoin="round" opacity="0.051"/>
<path d="M 1436.08 477.45 C 1445.53 497.50, 1456.01 520.63, 1455.43 543.03 C 1454.84 565.43, 1445.84 590.80, 1432.56 611.87 C 1419.29 632.94, 1397.56 652.57, 1375.76 669.44 C 1353.96 686.32, 1328.48 702.83, 1301.77 713.12 C 1275.06 723.41, 1244.00 727.70, 1215.48 731.20 C 1186.95 734.70, 1157.47 736.88, 1130.63 734.12 C 1103.79 731.35, 1078.37 723.61, 1054.42 714.61 C 1030.47 705.62, 1006.20 694.04, 986.93 680.17 C 967.66 666.30, 950.78 649.88, 938.81 631.40 C 926.85 612.93, 918.77 590.64, 915.14 569.31 C 911.51 547.98, 911.83 525.22, 917.04 503.42 C 922.25 481.61, 933.17 458.77, 946.41 438.48 C 959.65 418.19, 976.99 397.97, 996.49 381.67 C 1016.00 365.37, 1038.99 350.80, 1063.43 340.67 C 1087.87 330.54, 1116.98 323.81, 1143.13 320.89 C 1169.28 317.97, 1195.73 319.22, 1220.33 323.17 C 1244.92 327.13, 1268.62 335.67, 1290.68 344.62 C 1312.74 353.57, 1334.67 363.84, 1352.68 376.86 C 1370.69 389.88, 1384.84 405.96, 1398.74 422.73 C 1412.64 439.49, 1426.63 457.40, 1436.08 477.45 Z" transform="translate(-2.25 1.10)" fill="none" stroke="url(#gradMain)" stroke-width="86.0" stroke-linecap="round" stroke-linejoin="round" opacity="0.078"/>
<path d="M 1436.08 477.45 C 1445.53 497.50, 1456.01 520.63, 1455.43 543.03 C 1454.84 565.43, 1445.84 590.80, 1432.56 611.87 C 1419.29 632.94, 1397.56 652.57, 1375.76 669.44 C 1353.96 686.32, 1328.48 702.83, 1301.77 713.12 C 1275.06 723.41, 1244.00 727.70, 1215.48 731.20 C 1186.95 734.70, 1157.47 736.88, 1130.63 734.12 C 1103.79 731.35, 1078.37 723.61, 1054.42 714.61 C 1030.47 705.62, 1006.20 694.04, 986.93 680.17 C 967.66 666.30, 950.78 649.88, 938.81 631.40 C 926.85 612.93, 918.77 590.64, 915.14 569.31 C 911.51 547.98, 911.83 525.22, 917.04 503.42 C 922.25 481.61, 933.17 458.77, 946.41 438.48 C 959.65 418.19, 976.99 397.97, 996.49 381.67 C 1016.00 365.37, 1038.99 350.80, 1063.43 340.67 C 1087.87 330.54, 1116.98 323.81, 1143.13 320.89 C 1169.28 317.97, 1195.73 319.22, 1220.33 323.17 C 1244.92 327.13, 1268.62 335.67, 1290.68 344.62 C 1312.74 353.57, 1334.67 363.84, 1352.68 376.86 C 1370.69 389.88, 1384.84 405.96, 1398.74 422.73 C 1412.64 439.49, 1426.63 457.40, 1436.08 477.45 Z" transform="translate(-2.25 1.10)" fill="none" stroke="url(#gradMain)" stroke-width="61.9" stroke-linecap="round" stroke-linejoin="round" opacity="0.058"/>
<path d="M 1377.71 489.63 C 1383.84 504.60, 1383.87 522.25, 1382.49 538.94 C 1381.11 555.64, 1378.34 573.92, 1369.43 589.80 C 1360.52 605.68, 1345.58 621.32, 1329.03 634.21 C 1312.48 647.10, 1290.48 659.19, 1270.11 667.13 C 1249.73 675.07, 1227.86 679.38, 1206.78 681.87 C 1185.70 684.35, 1163.85 684.17, 1143.65 682.06 C 1123.44 679.94, 1103.30 675.95, 1085.53 669.18 C 1067.77 662.40, 1051.19 652.16, 1037.07 641.43 C 1022.95 630.70, 1009.39 618.58, 1000.82 604.80 C 992.26 591.02, 987.61 574.48, 985.68 558.76 C 983.75 543.04, 986.10 526.61, 989.25 510.48 C 992.39 494.35, 995.99 477.30, 1004.55 461.97 C 1013.11 446.64, 1025.79 430.50, 1040.58 418.52 C 1055.37 406.54, 1074.65 397.68, 1093.28 390.09 C 1111.90 382.50, 1132.79 375.15, 1152.31 372.99 C 1171.84 370.83, 1191.65 374.04, 1210.40 377.11 C 1229.16 380.19, 1248.78 384.72, 1264.83 391.46 C 1280.89 398.20, 1293.25 407.95, 1306.73 417.56 C 1320.22 427.17, 1333.90 437.11, 1345.73 449.12 C 1357.56 461.14, 1371.59 474.66, 1377.71 489.63 Z" transform="" fill="none" stroke="url(#gradBlue)" stroke-width="111.6" stroke-linecap="round" stroke-linejoin="round" opacity="0.032"/>
<path d="M 1377.71 489.63 C 1383.84 504.60, 1383.87 522.25, 1382.49 538.94 C 1381.11 555.64, 1378.34 573.92, 1369.43 589.80 C 1360.52 605.68, 1345.58 621.32, 1329.03 634.21 C 1312.48 647.10, 1290.48 659.19, 1270.11 667.13 C 1249.73 675.07, 1227.86 679.38, 1206.78 681.87 C 1185.70 684.35, 1163.85 684.17, 1143.65 682.06 C 1123.44 679.94, 1103.30 675.95, 1085.53 669.18 C 1067.77 662.40, 1051.19 652.16, 1037.07 641.43 C 1022.95 630.70, 1009.39 618.58, 1000.82 604.80 C 992.26 591.02, 987.61 574.48, 985.68 558.76 C 983.75 543.04, 986.10 526.61, 989.25 510.48 C 992.39 494.35, 995.99 477.30, 1004.55 461.97 C 1013.11 446.64, 1025.79 430.50, 1040.58 418.52 C 1055.37 406.54, 1074.65 397.68, 1093.28 390.09 C 1111.90 382.50, 1132.79 375.15, 1152.31 372.99 C 1171.84 370.83, 1191.65 374.04, 1210.40 377.11 C 1229.16 380.19, 1248.78 384.72, 1264.83 391.46 C 1280.89 398.20, 1293.25 407.95, 1306.73 417.56 C 1320.22 427.17, 1333.90 437.11, 1345.73 449.12 C 1357.56 461.14, 1371.59 474.66, 1377.71 489.63 Z" transform="" fill="none" stroke="url(#gradBlue)" stroke-width="90.0" stroke-linecap="round" stroke-linejoin="round" opacity="0.048"/>
<path d="M 1377.71 489.63 C 1383.84 504.60, 1383.87 522.25, 1382.49 538.94 C 1381.11 555.64, 1378.34 573.92, 1369.43 589.80 C 1360.52 605.68, 1345.58 621.32, 1329.03 634.21 C 1312.48 647.10, 1290.48 659.19, 1270.11 667.13 C 1249.73 675.07, 1227.86 679.38, 1206.78 681.87 C 1185.70 684.35, 1163.85 684.17, 1143.65 682.06 C 1123.44 679.94, 1103.30 675.95, 1085.53 669.18 C 1067.77 662.40, 1051.19 652.16, 1037.07 641.43 C 1022.95 630.70, 1009.39 618.58, 1000.82 604.80 C 992.26 591.02, 987.61 574.48, 985.68 558.76 C 983.75 543.04, 986.10 526.61, 989.25 510.48 C 992.39 494.35, 995.99 477.30, 1004.55 461.97 C 1013.11 446.64, 1025.79 430.50, 1040.58 418.52 C 1055.37 406.54, 1074.65 397.68, 1093.28 390.09 C 1111.90 382.50, 1132.79 375.15, 1152.31 372.99 C 1171.84 370.83, 1191.65 374.04, 1210.40 377.11 C 1229.16 380.19, 1248.78 384.72, 1264.83 391.46 C 1280.89 398.20, 1293.25 407.95, 1306.73 417.56 C 1320.22 427.17, 1333.90 437.11, 1345.73 449.12 C 1357.56 461.14, 1371.59 474.66, 1377.71 489.63 Z" transform="" fill="none" stroke="url(#gradBlue)" stroke-width="72.0" stroke-linecap="round" stroke-linejoin="round" opacity="0.074"/>
<path d="M 1377.71 489.63 C 1383.84 504.60, 1383.87 522.25, 1382.49 538.94 C 1381.11 555.64, 1378.34 573.92, 1369.43 589.80 C 1360.52 605.68, 1345.58 621.32, 1329.03 634.21 C 1312.48 647.10, 1290.48 659.19, 1270.11 667.13 C 1249.73 675.07, 1227.86 679.38, 1206.78 681.87 C 1185.70 684.35, 1163.85 684.17, 1143.65 682.06 C 1123.44 679.94, 1103.30 675.95, 1085.53 669.18 C 1067.77 662.40, 1051.19 652.16, 1037.07 641.43 C 1022.95 630.70, 1009.39 618.58, 1000.82 604.80 C 992.26 591.02, 987.61 574.48, 985.68 558.76 C 983.75 543.04, 986.10 526.61, 989.25 510.48 C 992.39 494.35, 995.99 477.30, 1004.55 461.97 C 1013.11 446.64, 1025.79 430.50, 1040.58 418.52 C 1055.37 406.54, 1074.65 397.68, 1093.28 390.09 C 1111.90 382.50, 1132.79 375.15, 1152.31 372.99 C 1171.84 370.83, 1191.65 374.04, 1210.40 377.11 C 1229.16 380.19, 1248.78 384.72, 1264.83 391.46 C 1280.89 398.20, 1293.25 407.95, 1306.73 417.56 C 1320.22 427.17, 1333.90 437.11, 1345.73 449.12 C 1357.56 461.14, 1371.59 474.66, 1377.71 489.63 Z" transform="" fill="none" stroke="url(#gradBlue)" stroke-width="51.8" stroke-linecap="round" stroke-linejoin="round" opacity="0.054"/>
<path d="M 1377.71 489.63 C 1383.84 504.60, 1383.87 522.25, 1382.49 538.94 C 1381.11 555.64, 1378.34 573.92, 1369.43 589.80 C 1360.52 605.68, 1345.58 621.32, 1329.03 634.21 C 1312.48 647.10, 1290.48 659.19, 1270.11 667.13 C 1249.73 675.07, 1227.86 679.38, 1206.78 681.87 C 1185.70 684.35, 1163.85 684.17, 1143.65 682.06 C 1123.44 679.94, 1103.30 675.95, 1085.53 669.18 C 1067.77 662.40, 1051.19 652.16, 1037.07 641.43 C 1022.95 630.70, 1009.39 618.58, 1000.82 604.80 C 992.26 591.02, 987.61 574.48, 985.68 558.76 C 983.75 543.04, 986.10 526.61, 989.25 510.48 C 992.39 494.35, 995.99 477.30, 1004.55 461.97 C 1013.11 446.64, 1025.79 430.50, 1040.58 418.52 C 1055.37 406.54, 1074.65 397.68, 1093.28 390.09 C 1111.90 382.50, 1132.79 375.15, 1152.31 372.99 C 1171.84 370.83, 1191.65 374.04, 1210.40 377.11 C 1229.16 380.19, 1248.78 384.72, 1264.83 391.46 C 1280.89 398.20, 1293.25 407.95, 1306.73 417.56 C 1320.22 427.17, 1333.90 437.11, 1345.73 449.12 C 1357.56 461.14, 1371.59 474.66, 1377.71 489.63 Z" transform="translate(3.00 2.00)" fill="none" stroke="url(#gradBlue)" stroke-width="111.6" stroke-linecap="round" stroke-linejoin="round" opacity="0.032"/>
<path d="M 1377.71 489.63 C 1383.84 504.60, 1383.87 522.25, 1382.49 538.94 C 1381.11 555.64, 1378.34 573.92, 1369.43 589.80 C 1360.52 605.68, 1345.58 621.32, 1329.03 634.21 C 1312.48 647.10, 1290.48 659.19, 1270.11 667.13 C 1249.73 675.07, 1227.86 679.38, 1206.78 681.87 C 1185.70 684.35, 1163.85 684.17, 1143.65 682.06 C 1123.44 679.94, 1103.30 675.95, 1085.53 669.18 C 1067.77 662.40, 1051.19 652.16, 1037.07 641.43 C 1022.95 630.70, 1009.39 618.58, 1000.82 604.80 C 992.26 591.02, 987.61 574.48, 985.68 558.76 C 983.75 543.04, 986.10 526.61, 989.25 510.48 C 992.39 494.35, 995.99 477.30, 1004.55 461.97 C 1013.11 446.64, 1025.79 430.50, 1040.58 418.52 C 1055.37 406.54, 1074.65 397.68, 1093.28 390.09 C 1111.90 382.50, 1132.79 375.15, 1152.31 372.99 C 1171.84 370.83, 1191.65 374.04, 1210.40 377.11 C 1229.16 380.19, 1248.78 384.72, 1264.83 391.46 C 1280.89 398.20, 1293.25 407.95, 1306.73 417.56 C 1320.22 427.17, 1333.90 437.11, 1345.73 449.12 C 1357.56 461.14, 1371.59 474.66, 1377.71 489.63 Z" transform="translate(3.00 2.00)" fill="none" stroke="url(#gradBlue)" stroke-width="90.0" stroke-linecap="round" stroke-linejoin="round" opacity="0.048"/>
<path d="M 1377.71 489.63 C 1383.84 504.60, 1383.87 522.25, 1382.49 538.94 C 1381.11 555.64, 1378.34 573.92, 1369.43 589.80 C 1360.52 605.68, 1345.58 621.32, 1329.03 634.21 C 1312.48 647.10, 1290.48 659.19, 1270.11 667.13 C 1249.73 675.07, 1227.86 679.38, 1206.78 681.87 C 1185.70 684.35, 1163.85 684.17, 1143.65 682.06 C 1123.44 679.94, 1103.30 675.95, 1085.53 669.18 C 1067.77 662.40, 1051.19 652.16, 1037.07 641.43 C 1022.95 630.70, 1009.39 618.58, 1000.82 604.80 C 992.26 591.02, 987.61 574.48, 985.68 558.76 C 983.75 543.04, 986.10 526.61, 989.25 510.48 C 992.39 494.35, 995.99 477.30, 1004.55 461.97 C 1013.11 446.64, 1025.79 430.50, 1040.58 418.52 C 1055.37 406.54, 1074.65 397.68, 1093.28 390.09 C 1111.90 382.50, 1132.79 375.15, 1152.31 372.99 C 1171.84 370.83, 1191.65 374.04, 1210.40 377.11 C 1229.16 380.19, 1248.78 384.72, 1264.83 391.46 C 1280.89 398.20, 1293.25 407.95, 1306.73 417.56 C 1320.22 427.17, 1333.90 437.11, 1345.73 449.12 C 1357.56 461.14, 1371.59 474.66, 1377.71 489.63 Z" transform="translate(3.00 2.00)" fill="none" stroke="url(#gradBlue)" stroke-width="72.0" stroke-linecap="round" stroke-linejoin="round" opacity="0.074"/>
<path d="M 1377.71 489.63 C 1383.84 504.60, 1383.87 522.25, 1382.49 538.94 C 1381.11 555.64, 1378.34 573.92, 1369.43 589.80 C 1360.52 605.68, 1345.58 621.32, 1329.03 634.21 C 1312.48 647.10, 1290.48 659.19, 1270.11 667.13 C 1249.73 675.07, 1227.86 679.38, 1206.78 681.87 C 1185.70 684.35, 1163.85 684.17, 1143.65 682.06 C 1123.44 679.94, 1103.30 675.95, 1085.53 669.18 C 1067.77 662.40, 1051.19 652.16, 1037.07 641.43 C 1022.95 630.70, 1009.39 618.58, 1000.82 604.80 C 992.26 591.02, 987.61 574.48, 985.68 558.76 C 983.75 543.04, 986.10 526.61, 989.25 510.48 C 992.39 494.35, 995.99 477.30, 1004.55 461.97 C 1013.11 446.64, 1025.79 430.50, 1040.58 418.52 C 1055.37 406.54, 1074.65 397.68, 1093.28 390.09 C 1111.90 382.50, 1132.79 375.15, 1152.31 372.99 C 1171.84 370.83, 1191.65 374.04, 1210.40 377.11 C 1229.16 380.19, 1248.78 384.72, 1264.83 391.46 C 1280.89 398.20, 1293.25 407.95, 1306.73 417.56 C 1320.22 427.17, 1333.90 437.11, 1345.73 449.12 C 1357.56 461.14, 1371.59 474.66, 1377.71 489.63 Z" transform="translate(3.00 2.00)" fill="none" stroke="url(#gradBlue)" stroke-width="51.8" stroke-linecap="round" stroke-linejoin="round" opacity="0.054"/>
<path d="M 1377.71 489.63 C 1383.84 504.60, 1383.87 522.25, 1382.49 538.94 C 1381.11 555.64, 1378.34 573.92, 1369.43 589.80 C 1360.52 605.68, 1345.58 621.32, 1329.03 634.21 C 1312.48 647.10, 1290.48 659.19, 1270.11 667.13 C 1249.73 675.07, 1227.86 679.38, 1206.78 681.87 C 1185.70 684.35, 1163.85 684.17, 1143.65 682.06 C 1123.44 679.94, 1103.30 675.95, 1085.53 669.18 C 1067.77 662.40, 1051.19 652.16, 1037.07 641.43 C 1022.95 630.70, 1009.39 618.58, 1000.82 604.80 C 992.26 591.02, 987.61 574.48, 985.68 558.76 C 983.75 543.04, 986.10 526.61, 989.25 510.48 C 992.39 494.35, 995.99 477.30, 1004.55 461.97 C 1013.11 446.64, 1025.79 430.50, 1040.58 418.52 C 1055.37 406.54, 1074.65 397.68, 1093.28 390.09 C 1111.90 382.50, 1132.79 375.15, 1152.31 372.99 C 1171.84 370.83, 1191.65 374.04, 1210.40 377.11 C 1229.16 380.19, 1248.78 384.72, 1264.83 391.46 C 1280.89 398.20, 1293.25 407.95, 1306.73 417.56 C 1320.22 427.17, 1333.90 437.11, 1345.73 449.12 C 1357.56 461.14, 1371.59 474.66, 1377.71 489.63 Z" transform="translate(-2.25 1.10)" fill="none" stroke="url(#gradBlue)" stroke-width="111.6" stroke-linecap="round" stroke-linejoin="round" opacity="0.032"/>
<path d="M 1377.71 489.63 C 1383.84 504.60, 1383.87 522.25, 1382.49 538.94 C 1381.11 555.64, 1378.34 573.92, 1369.43 589.80 C 1360.52 605.68, 1345.58 621.32, 1329.03 634.21 C 1312.48 647.10, 1290.48 659.19, 1270.11 667.13 C 1249.73 675.07, 1227.86 679.38, 1206.78 681.87 C 1185.70 684.35, 1163.85 684.17, 1143.65 682.06 C 1123.44 679.94, 1103.30 675.95, 1085.53 669.18 C 1067.77 662.40, 1051.19 652.16, 1037.07 641.43 C 1022.95 630.70, 1009.39 618.58, 1000.82 604.80 C 992.26 591.02, 987.61 574.48, 985.68 558.76 C 983.75 543.04, 986.10 526.61, 989.25 510.48 C 992.39 494.35, 995.99 477.30, 1004.55 461.97 C 1013.11 446.64, 1025.79 430.50, 1040.58 418.52 C 1055.37 406.54, 1074.65 397.68, 1093.28 390.09 C 1111.90 382.50, 1132.79 375.15, 1152.31 372.99 C 1171.84 370.83, 1191.65 374.04, 1210.40 377.11 C 1229.16 380.19, 1248.78 384.72, 1264.83 391.46 C 1280.89 398.20, 1293.25 407.95, 1306.73 417.56 C 1320.22 427.17, 1333.90 437.11, 1345.73 449.12 C 1357.56 461.14, 1371.59 474.66, 1377.71 489.63 Z" transform="translate(-2.25 1.10)" fill="none" stroke="url(#gradBlue)" stroke-width="90.0" stroke-linecap="round" stroke-linejoin="round" opacity="0.048"/>
<path d="M 1377.71 489.63 C 1383.84 504.60, 1383.87 522.25, 1382.49 538.94 C 1381.11 555.64, 1378.34 573.92, 1369.43 589.80 C 1360.52 605.68, 1345.58 621.32, 1329.03 634.21 C 1312.48 647.10, 1290.48 659.19, 1270.11 667.13 C 1249.73 675.07, 1227.86 679.38, 1206.78 681.87 C 1185.70 684.35, 1163.85 684.17, 1143.65 682.06 C 1123.44 679.94, 1103.30 675.95, 1085.53 669.18 C 1067.77 662.40, 1051.19 652.16, 1037.07 641.43 C 1022.95 630.70, 1009.39 618.58, 1000.82 604.80 C 992.26 591.02, 987.61 574.48, 985.68 558.76 C 983.75 543.04, 986.10 526.61, 989.25 510.48 C 992.39 494.35, 995.99 477.30, 1004.55 461.97 C 1013.11 446.64, 1025.79 430.50, 1040.58 418.52 C 1055.37 406.54, 1074.65 397.68, 1093.28 390.09 C 1111.90 382.50, 1132.79 375.15, 1152.31 372.99 C 1171.84 370.83, 1191.65 374.04, 1210.40 377.11 C 1229.16 380.19, 1248.78 384.72, 1264.83 391.46 C 1280.89 398.20, 1293.25 407.95, 1306.73 417.56 C 1320.22 427.17, 1333.90 437.11, 1345.73 449.12 C 1357.56 461.14, 1371.59 474.66, 1377.71 489.63 Z" transform="translate(-2.25 1.10)" fill="none" stroke="url(#gradBlue)" stroke-width="72.0" stroke-linecap="round" stroke-linejoin="round" opacity="0.074"/>
<path d="M 1377.71 489.63 C 1383.84 504.60, 1383.87 522.25, 1382.49 538.94 C 1381.11 555.64, 1378.34 573.92, 1369.43 589.80 C 1360.52 605.68, 1345.58 621.32, 1329.03 634.21 C 1312.48 647.10, 1290.48 659.19, 1270.11 667.13 C 1249.73 675.07, 1227.86 679.38, 1206.78 681.87 C 1185.70 684.35, 1163.85 684.17, 1143.65 682.06 C 1123.44 679.94, 1103.30 675.95, 1085.53 669.18 C 1067.77 662.40, 1051.19 652.16, 1037.07 641.43 C 1022.95 630.70, 1009.39 618.58, 1000.82 604.80 C 992.26 591.02, 987.61 574.48, 985.68 558.76 C 983.75 543.04, 986.10 526.61, 989.25 510.48 C 992.39 494.35, 995.99 477.30, 1004.55 461.97 C 1013.11 446.64, 1025.79 430.50, 1040.58 418.52 C 1055.37 406.54, 1074.65 397.68, 1093.28 390.09 C 1111.90 382.50, 1132.79 375.15, 1152.31 372.99 C 1171.84 370.83, 1191.65 374.04, 1210.40 377.11 C 1229.16 380.19, 1248.78 384.72, 1264.83 391.46 C 1280.89 398.20, 1293.25 407.95, 1306.73 417.56 C 1320.22 427.17, 1333.90 437.11, 1345.73 449.12 C 1357.56 461.14, 1371.59 474.66, 1377.71 489.63 Z" transform="translate(-2.25 1.10)" fill="none" stroke="url(#gradBlue)" stroke-width="51.8" stroke-linecap="round" stroke-linejoin="round" opacity="0.054"/></g>
</svg>
