<?xml version="1.0" encoding="UTF-8"?>
<svg xmlns="http://www.w3.org/2000/svg" width="1920" height="1080" viewBox="0 0 1920 1080" fill="none">
  <defs>
    
    <linearGradient id="gradMain" x1="12%" y1="14%" x2="84%" y2="88%">
      <stop offset="0%" stop-color="#F3BCD3" stop-opacity="0.95"/>
      <stop offset="48%" stop-color="#F7EEE5" stop-opacity="0.60"/>
      <stop offset="100%" stop-color="#D4DCF8" stop-opacity="0.95"/>
    </linearGradient>
    <linearGradient id="gradPink" x1="8%" y1="10%" x2="70%" y2="72%">
      <stop offset="0%" stop-color="#F4BDD4" stop-opacity="1"/>
      <stop offset="100%" stop-color="#FAF5EF" stop-opacity="0.20"/>
    </linearGradient>
    <linearGradient id="gradBlue" x1="32%" y1="22%" x2="82%" y2="90%">
      <stop offset="0%" stop-color="#EEF1FC" stop-opacity="0.20"/>
      <stop offset="100%" stop-color="#D4DCF8" stop-opacity="1"/>
    </linearGradient>
    <radialGradient id="haloPink" cx="50%" cy="50%" r="50%">
      <stop offset="0%" stop-color="#F5C6DA" stop-opacity="0.34"/>
      <stop offset="100%" stop-color="#F5C6DA" stop-opacity="0"/>
    </radialGradient>
    <radialGradient id="haloBlue" cx="50%" cy="50%" r="50%">
      <stop offset="0%" stop-color="#D7DEF8" stop-opacity="0.36"/>
      <stop offset="100%" stop-color="#D7DEF8" stop-opacity="0"/>
    </radialGradient>
    <radialGradient id="haloCream" cx="50%" cy="50%" r="50%">
      <stop offset="0%" stop-color="#F7EFE4" stop-opacity="0.26"/>
      <stop offset="100%" stop-color="#F7EFE4" stop-opacity="0"/>
    </radialGradient>
    <radialGradient id="centerWash" cx="50%" cy="50%" r="54%">
      <stop offset="0%" stop-color="#F6EFF2" stop-opacity="0.24"/>
      <stop offset="60%" stop-color="#FFFFFF" stop-opacity="0.05"/>
      <stop offset="100%" stop-color="#FFFFFF" stop-opacity="0"/>
    </radialGradient>
    
  </defs>
  <ellipse cx="960.0" cy="540.0" rx="499.2" ry="280.8" fill="url(#centerWash)" opacity="0.8"/>
  <g><ellipse cx="830.0" cy="255.0" rx="390.0" ry="210.0" fill="url(#haloPink)" opacity="0.720"/>
<ellipse cx="1270.0" cy="760.0" rx="450.0" ry="280.0" fill="url(#haloBlue)" opacity="0.750"/></g>
  <g><path d="M 1723.01 393.20 C 1748.03 449.99, 1785.46 512.68, 1782.81 576.04 C 1780.15 639.39, 1745.60 712.27, 1707.10 773.33 C 1668.59 834.39, 1615.68 894.90, 1551.78 942.39 C 1487.88 989.89, 1402.53 1031.17, 1323.70 1058.29 C 1244.86 1085.42, 1160.29 1094.22, 1078.77 1105.13 C 997.24 1116.04, 913.23 1129.14, 834.55 1123.75 C 755.87 1118.37, 676.97 1097.87, 606.69 1072.82 C 536.42 1047.77, 465.64 1014.39, 412.89 973.44 C 360.14 932.49, 325.37 879.12, 290.19 827.12 C 255.00 775.12, 210.33 720.62, 201.77 661.43 C 193.21 602.25, 222.38 533.65, 238.82 472.01 C 255.26 410.37, 267.07 347.36, 300.42 291.59 C 333.76 235.82, 380.21 181.61, 438.91 137.40 C 497.61 93.18, 580.01 58.15, 652.60 26.32 C 725.19 -5.51, 799.78 -45.69, 874.46 -53.57 C 949.14 -61.45, 1027.99 -34.61, 1100.68 -20.96 C 1173.36 -7.31, 1249.26 4.87, 1310.55 28.33 C 1371.84 51.79, 1414.71 85.33, 1468.41 119.81 C 1522.10 154.30, 1590.30 189.68, 1632.73 235.24 C 1675.17 280.81, 1698.00 336.40, 1723.01 393.20 Z" transform="" fill="none" stroke="url(#gradPink)" stroke-width="204.6" stroke-linecap="round" stroke-linejoin="round" opacity="0.038"/>
<path d="M 1723.01 393.20 C 1748.03 449.99, 1785.46 512.68, 1782.81 576.04 C 1780.15 639.39, 1745.60 712.27, 1707.10 773.33 C 1668.59 834.39, 1615.68 894.90, 1551.78 942.39 C 1487.88 989.89, 1402.53 1031.17, 1323.70 1058.29 C 1244.86 1085.42, 1160.29 1094.22, 1078.77 1105.13 C 997.24 1116.04, 913.23 1129.14, 834.55 1123.75 C 755.87 1118.37, 676.97 1097.87, 606.69 1072.82 C 536.42 1047.77, 465.64 1014.39, 412.89 973.44 C 360.14 932.49, 325.37 879.12, 290.19 827.12 C 255.00 775.12, 210.33 720.62, 201.77 661.43 C 193.21 602.25, 222.38 533.65, 238.82 472.01 C 255.26 410.37, 267.07 347.36, 300.42 291.59 C 333.76 235.82, 380.21 181.61, 438.91 137.40 C 497.61 93.18, 580.01 58.15, 652.60 26.32 C 725.19 -5.51, 799.78 -45.69, 874.46 -53.57 C 949.14 -61.45, 1027.99 -34.61, 1100.68 -20.96 C 1173.36 -7.31, 1249.26 4.87, 1310.55 28.33 C 1371.84 51.79, 1414.71 85.33, 1468.41 119.81 C 1522.10 154.30, 1590.30 189.68, 1632.73 235.24 C 1675.17 280.81, 1698.00 336.40, 1723.01 393.20 Z" transform="" fill="none" stroke="url(#gradPink)" stroke-width="165.0" stroke-linecap="round" stroke-linejoin="round" opacity="0.057"/>
<path d="M 1723.01 393.20 C 1748.03 449.99, 1785.46 512.68, 1782.81 576.04 C 1780.15 639.39, 1745.60 712.27, 1707.10 773.33 C 1668.59 834.39, 1615.68 894.90, 1551.78 942.39 C 1487.88 989.89, 1402.53 1031.17, 1323.70 1058.29 C 1244.86 1085.42, 1160.29 1094.22, 1078.77 1105.13 C 997.24 1116.04, 913.23 1129.14, 834.55 1123.75 C 755.87 1118.37, 676.97 1097.87, 606.69 1072.82 C 536.42 1047.77, 465.64 1014.39, 412.89 973.44 C 360.14 932.49, 325.37 879.12, 290.19 827.12 C 255.00 775.12, 210.33 720.62, 201.77 661.43 C 193.21 602.25, 222.38 533.65, 238.82 472.01 C 255.26 410.37, 267.07 347.36, 300.42 291.59 C 333.76 235.82, 380.21 181.61, 438.91 137.40 C 497.61 93.18, 580.01 58.15, 652.60 26.32 C 725.19 -5.51, 799.78 -45.69, 874.46 -53.57 C 949.14 -61.45, 1027.99 -34.61, 1100.68 -20.96 C 1173.36 -7.31, 1249.26 4.87, 1310.55 28.33 C 1371.84 51.79, 1414.71 85.33, 1468.41 119.81 C 1522.10 154.30, 1590.30 189.68, 1632.73 235.24 C 1675.17 280.81, 1698.00 336.40, 1723.01 393.20 Z" transform="" fill="none" stroke="url(#gradPink)" stroke-width="132.0" stroke-linecap="round" stroke-linejoin="round" opacity="0.087"/>
<path d="M 1723.01 393.20 C 1748.03 449.99, 1785.46 512.68, 1782.81 576.04 C 1780.15 639.39, 1745.60 712.27, 1707.10 773.33 C 1668.59 834.39, 1615.68 894.90, 1551.78 942.39 C 1487.88 989.89, 1402.53 1031.17, 1323.70 1058.29 C 1244.86 1085.42, 1160.29 1094.22, 1078.77 1105.13 C 997.24 1116.04, 913.23 1129.14, 834.55 1123.75 C 755.87 1118.37, 676.97 1097.87, 606.69 1072.82 C 536.42 1047.77, 465.64 1014.39, 412.89 973.44 C 360.14 932.49, 325.37 879.12, 290.19 827.12 C 255.00 775.12, 210.33 720.62, 201.77 661.43 C 193.21 602.25, 222.38 533.65, 238.82 472.01 C 255.26 410.37, 267.07 347.36, 300.42 291.59 C 333.76 235.82, 380.21 181.61, 438.91 137.40 C 497.61 93.18, 580.01 58.15, 652.60 26.32 C 725.19 -5.51, 799.78 -45.69, 874.46 -53.57 C 949.14 -61.45, 1027.99 -34.61, 1100.68 -20.96 C 1173.36 -7.31, 1249.26 4.87, 1310.55 28.33 C 1371.84 51.79, 1414.71 85.33, 1468.41 119.81 C 1522.10 154.30, 1590.30 189.68, 1632.73 235.24 C 1675.17 280.81, 1698.00 336.40, 1723.01 393.20 Z" transform="" fill="none" stroke="url(#gradPink)" stroke-width="95.0" stroke-linecap="round" stroke-linejoin="round" opacity="0.065"/>
<path d="M 1723.01 393.20 C 1748.03 449.99, 1785.46 512.68, 1782.81 576.04 C 1780.15 639.39, 1745.60 712.27, 1707.10 773.33 C 1668.59 834.39, 1615.68 894.90, 1551.78 942.39 C 1487.88 989.89, 1402.53 1031.17, 1323.70 1058.29 C 1244.86 1085.42, 1160.29 1094.22, 1078.77 1105.13 C 997.24 1116.04, 913.23 1129.14, 834.55 1123.75 C 755.87 1118.37, 676.97 1097.87, 606.69 1072.82 C 536.42 1047.77, 465.64 1014.39, 412.89 973.44 C 360.14 932.49, 325.37 879.12, 290.19 827.12 C 255.00 775.12, 210.33 720.62, 201.77 661.43 C 193.21 602.25, 222.38 533.65, 238.82 472.01 C 255.26 410.37, 267.07 347.36, 300.42 291.59 C 333.76 235.82, 380.21 181.61, 438.91 137.40 C 497.61 93.18, 580.01 58.15, 652.60 26.32 C 725.19 -5.51, 799.78 -45.69, 874.46 -53.57 C 949.14 -61.45, 1027.99 -34.61, 1100.68 -20.96 C 1173.36 -7.31, 1249.26 4.87, 1310.55 28.33 C 1371.84 51.79, 1414.71 85.33, 1468.41 119.81 C 1522.10 154.30, 1590.30 189.68, 1632.73 235.24 C 1675.17 280.81, 1698.00 336.40, 1723.01 393.20 Z" transform="translate(4.00 2.00)" fill="none" stroke="url(#gradPink)" stroke-width="204.6" stroke-linecap="round" stroke-linejoin="round" opacity="0.038"/>
<path d="M 1723.01 393.20 C 1748.03 449.99, 1785.46 512.68, 1782.81 576.04 C 1780.15 639.39, 1745.60 712.27, 1707.10 773.33 C 1668.59 834.39, 1615.68 894.90, 1551.78 942.39 C 1487.88 989.89, 1402.53 1031.17, 1323.70 1058.29 C 1244.86 1085.42, 1160.29 1094.22, 1078.77 1105.13 C 997.24 1116.04, 913.23 1129.14, 834.55 1123.75 C 755.87 1118.37, 676.97 1097.87, 606.69 1072.82 C 536.42 1047.77, 465.64 1014.39, 412.89 973.44 C 360.14 932.49, 325.37 879.12, 290.19 827.12 C 255.00 775.12, 210.33 720.62, 201.77 661.43 C 193.21 602.25, 222.38 533.65, 238.82 472.01 C 255.26 410.37, 267.07 347.36, 300.42 291.59 C 333.76 235.82, 380.21 181.61, 438.91 137.40 C 497.61 93.18, 580.01 58.15, 652.60 26.32 C 725.19 -5.51, 799.78 -45.69, 874.46 -53.57 C 949.14 -61.45, 1027.99 -34.61, 1100.68 -20.96 C 1173.36 -7.31, 1249.26 4.87, 1310.55 28.33 C 1371.84 51.79, 1414.71 85.33, 1468.41 119.81 C 1522.10 154.30, 1590.30 189.68, 1632.73 235.24 C 1675.17 280.81, 1698.00 336.40, 1723.01 393.20 Z" transform="translate(4.00 2.00)" fill="none" stroke="url(#gradPink)" stroke-width="165.0" stroke-linecap="round" stroke-linejoin="round" opacity="0.057"/>
<path d="M 1723.01 393.20 C 1748.03 449.99, 1785.46 512.68, 1782.81 576.04 C 1780.15 639.39, 1745.60 712.27, 1707.10 773.33 C 1668.59 834.39, 1615.68 894.90, 1551.78 942.39 C 1487.88 989.89, 1402.53 1031.17, 1323.70 1058.29 C 1244.86 1085.42, 1160.29 1094.22, 1078.77 1105.13 C 997.24 1116.04, 913.23 1129.14, 834.55 1123.75 C 755.87 1118.37, 676.97 1097.87, 606.69 1072.82 C 536.42 1047.77, 465.64 1014.39, 412.89 973.44 C 360.14 932.49, 325.37 879.12, 290.19 827.12 C 255.00 775.12, 210.33 720.62, 201.77 661.43 C 193.21 602.25, 222.38 533.65, 238.82 472.01 C 255.26 410.37, 267.07 347.36, 300.42 291.59 C 333.76 235.82, 380.21 181.61, 438.91 137.40 C 497.61 93.18, 580.01 58.15, 652.60 26.32 C 725.19 -5.51, 799.78 -45.69, 874.46 -53.57 C 949.14 -61.45, 1027.99 -34.61, 1100.68 -20.96 C 1173.36 -7.31, 1249.26 4.87, 1310.55 28.33 C 1371.84 51.79, 1414.71 85.33, 1468.41 119.81 C 1522.10 154.30, 1590.30 189.68, 1632.73 235.24 C 1675.17 280.81, 1698.00 336.40, 1723.01 393.20 Z" transform="translate(4.00 2.00)" fill="none" stroke="url(#gradPink)" stroke-width="132.0" stroke-linecap="round" stroke-linejoin="round" opacity="0.087"/>
<path d="M 1723.01 393.20 C 1748.03 449.99, 1785.46 512.68, 1782.81 576.04 C 1780.15 639.39, 1745.60 712.27, 1707.10 773.33 C 1668.59 834.39, 1615.68 894.90, 1551.78 942.39 C 1487.88 989.89, 1402.53 1031.17, 1323.70 1058.29 C 1244.86 1085.42, 1160.29 1094.22, 1078.77 1105.13 C 997.24 1116.04, 913.23 1129.14, 834.55 1123.75 C 755.87 1118.37, 676.97 1097.87, 606.69 1072.82 C 536.42 1047.77, 465.64 1014.39, 412.89 973.44 C 360.14 932.49, 325.37 879.12, 290.19 827.12 C 255.00 775.12, 210.33 720.62, 201.77 661.43 C 193.21 602.25, 222.38 533.65, 238.82 472.01 C 255.26 410.37, 267.07 347.36, 300.42 291.59 C 333.76 235.82, 380.21 181.61, 438.91 137.40 C 497.61 93.18, 580.01 58.15, 652.60 26.32 C 725.19 -5.51, 799.78 -45.69, 874.46 -53.57 C 949.14 -61.45, 1027.99 -34.61, 1100.68 -20.96 C 1173.36 -7.31, 1249.26 4.87, 1310.55 28.33 C 1371.84 51.79, 1414.71 85.33, 1468.41 119.81 C 1522.10 154.30, 1590.30 189.68, 1632.73 235.24 C 1675.17 280.81, 1698.00 336.40, 1723.01 393.20 Z" transform="translate(4.00 2.00)" fill="none" stroke="url(#gradPink)" stroke-width="95.0" stroke-linecap="round" stroke-linejoin="round" opacity="0.065"/>
<path d="M 1723.01 393.20 C 1748.03 449.99, 1785.46 512.68, 1782.81 576.04 C 1780.15 639.39, 1745.60 712.27, 1707.10 773.33 C 1668.59 834.39, 1615.68 894.90, 1551.78 942.39 C 1487.88 989.89, 1402.53 1031.17, 1323.70 1058.29 C 1244.86 1085.42, 1160.29 1094.22, 1078.77 1105.13 C 997.24 1116.04, 913.23 1129.14, 834.55 1123.75 C 755.87 1118.37, 676.97 1097.87, 606.69 1072.82 C 536.42 1047.77, 465.64 1014.39, 412.89 973.44 C 360.14 932.49, 325.37 879.12, 290.19 827.12 C 255.00 775.12, 210.33 720.62, 201.77 661.43 C 193.21 602.25, 222.38 533.65, 238.82 472.01 C 255.26 410.37, 267.07 347.36, 300.42 291.59 C 333.76 235.82, 380.21 181.61, 438.91 137.40 C 497.61 93.18, 580.01 58.15, 652.60 26.32 C 725.19 -5.51, 799.78 -45.69, 874.46 -53.57 C 949.14 -61.45, 1027.99 -34.61, 1100.68 -20.96 C 1173.36 -7.31, 1249.26 4.87, 1310.55 28.33 C 1371.84 51.79, 1414.71 85.33, 1468.41 119.81 C 1522.10 154.30, 1590.30 189.68, 1632.73 235.24 C 1675.17 280.81, 1698.00 336.40, 1723.01 393.20 Z" transform="translate(-3.00 1.10)" fill="none" stroke="url(#gradPink)" stroke-width="204.6" stroke-linecap="round" stroke-linejoin="round" opacity="0.038"/>
<path d="M 1723.01 393.20 C 1748.03 449.99, 1785.46 512.68, 1782.81 576.04 C 1780.15 639.39, 1745.60 712.27, 1707.10 773.33 C 1668.59 834.39, 1615.68 894.90, 1551.78 942.39 C 1487.88 989.89, 1402.53 1031.17, 1323.70 1058.29 C 1244.86 1085.42, 1160.29 1094.22, 1078.77 1105.13 C 997.24 1116.04, 913.23 1129.14, 834.55 1123.75 C 755.87 1118.37, 676.97 1097.87, 606.69 1072.82 C 536.42 1047.77, 465.64 1014.39, 412.89 973.44 C 360.14 932.49, 325.37 879.12, 290.19 827.12 C 255.00 775.12, 210.33 720.62, 201.77 661.43 C 193.21 602.25, 222.38 533.65, 238.82 472.01 C 255.26 410.37, 267.07 347.36, 300.42 291.59 C 333.76 235.82, 380.21 181.61, 438.91 137.40 C 497.61 93.18, 580.01 58.15, 652.60 26.32 C 725.19 -5.51, 799.78 -45.69, 874.46 -53.57 C 949.14 -61.45, 1027.99 -34.61, 1100.68 -20.96 C 1173.36 -7.31, 1249.26 4.87, 1310.55 28.33 C 1371.84 51.79, 1414.71 85.33, 1468.41 119.81 C 1522.10 154.30, 1590.30 189.68, 1632.73 235.24 C 1675.17 280.81, 1698.00 336.40, 1723.01 393.20 Z" transform="translate(-3.00 1.10)" fill="none" stroke="url(#gradPink)" stroke-width="165.0" stroke-linecap="round" stroke-linejoin="round" opacity="0.057"/>
<path d="M 1723.01 393.20 C 1748.03 449.99, 1785.46 512.68, 1782.81 576.04 C 1780.15 639.39, 1745.60 712.27, 1707.10 773.33 C 1668.59 834.39, 1615.68 894.90, 1551.78 942.39 C 1487.88 989.89, 1402.53 1031.17, 1323.70 1058.29 C 1244.86 1085.42, 1160.29 1094.22, 1078.77 1105.13 C 997.24 1116.04, 913.23 1129.14, 834.55 1123.75 C 755.87 1118.37, 676.97 1097.87, 606.69 1072.82 C 536.42 1047.77, 465.64 1014.39, 412.89 973.44 C 360.14 932.49, 325.37 879.12, 290.19 827.12 C 255.00 775.12, 210.33 720.62, 201.77 661.43 C 193.21 602.25, 222.38 533.65, 238.82 472.01 C 255.26 410.37, 267.07 347.36, 300.42 291.59 C 333.76 235.82, 380.21 181.61, 438.91 137.40 C 497.61 93.18, 580.01 58.15, 652.60 26.32 C 725.19 -5.51, 799.78 -45.69, 874.46 -53.57 C 949.14 -61.45, 1027.99 -34.61, 1100.68 -20.96 C 1173.36 -7.31, 1249.26 4.87, 1310.55 28.33 C 1371.84 51.79, 1414.71 85.33, 1468.41 119.81 C 1522.10 154.30, 1590.30 189.68, 1632.73 235.24 C 1675.17 280.81, 1698.00 336.40, 1723.01 393.20 Z" transform="translate(-3.00 1.10)" fill="none" stroke="url(#gradPink)" stroke-width="132.0" stroke-linecap="round" stroke-linejoin="round" opacity="0.087"/>
<path d="M 1723.01 393.20 C 1748.03 449.99, 1785.46 512.68, 1782.81 576.04 C 1780.15 639.39, 1745.60 712.27, 1707.10 773.33 C 1668.59 834.39, 1615.68 894.90, 1551.78 942.39 C 1487.88 989.89, 1402.53 1031.17, 1323.70 1058.29 C 1244.86 1085.42, 1160.29 1094.22, 1078.77 1105.13 C 997.24 1116.04, 913.23 1129.14, 834.55 1123.75 C 755.87 1118.37, 676.97 1097.87, 606.69 1072.82 C 536.42 1047.77, 465.64 1014.39, 412.89 973.44 C 360.14 932.49, 325.37 879.12, 290.19 827.12 C 255.00 775.12, 210.33 720.62, 201.77 661.43 C 193.21 602.25, 222.38 533.65, 238.82 472.01 C 255.26 410.37, 267.07 347.36, 300.42 291.59 C 333.76 235.82, 380.21 181.61, 438.91 137.40 C 497.61 93.18, 580.01 58.15, 652.60 26.32 C 725.19 -5.51, 799.78 -45.69, 874.46 -53.57 C 949.14 -61.45, 1027.99 -34.61, 1100.68 -20.96 C 1173.36 -7.31, 1249.26 4.87, 1310.55 28.33 C 1371.84 51.79, 1414.71 85.33, 1468.41 119.81 C 1522.10 154.30, 1590.30 189.68, 1632.73 235.24 C 1675.17 280.81, 1698.00 336.40, 1723.01 393.20 Z" transform="translate(-3.00 1.10)" fill="none" stroke="url(#gradPink)" stroke-width="95.0" stroke-linecap="round" stroke-linejoin="round" opacity="0.065"/>
<path d="M 1627.87 412.99 C 1649.54 461.42, 1659.21 521.37, 1654.43 576.00 C 1649.65 630.63, 1629.60 690.19, 1599.18 740.78 C 1568.76 791.38, 1526.13 839.11, 1471.91 879.57 C 1417.70 920.02, 1341.76 959.12, 1273.90 983.52 C 1206.05 1007.91, 1134.93 1019.15, 1064.80 1025.95 C 994.68 1032.76, 919.41 1029.52, 853.14 1024.35 C 786.87 1019.17, 726.33 1014.91, 667.20 994.88 C 608.06 974.86, 545.28 938.55, 498.33 904.19 C 451.38 869.83, 412.08 832.70, 385.49 788.71 C 358.91 744.73, 345.85 691.53, 338.84 640.28 C 331.84 589.04, 333.59 533.03, 343.45 481.25 C 353.31 429.47, 368.44 377.02, 398.01 329.58 C 427.57 282.13, 472.61 238.27, 520.86 196.60 C 569.10 154.92, 625.60 104.59, 687.47 79.54 C 749.34 54.48, 825.87 52.03, 892.06 46.27 C 958.25 40.50, 1024.35 36.26, 1084.60 44.96 C 1144.85 53.65, 1200.49 76.30, 1253.55 98.44 C 1306.61 120.58, 1357.82 146.66, 1402.96 177.82 C 1448.11 208.99, 1486.92 246.24, 1524.40 285.43 C 1561.88 324.63, 1606.19 364.57, 1627.87 412.99 Z" transform="" fill="none" stroke="url(#gradMain)" stroke-width="182.9" stroke-linecap="round" stroke-linejoin="round" opacity="0.036"/>
<path d="M 1627.87 412.99 C 1649.54 461.42, 1659.21 521.37, 1654.43 576.00 C 1649.65 630.63, 1629.60 690.19, 1599.18 740.78 C 1568.76 791.38, 1526.13 839.11, 1471.91 879.57 C 1417.70 920.02, 1341.76 959.12, 1273.90 983.52 C 1206.05 1007.91, 1134.93 1019.15, 1064.80 1025.95 C 994.68 1032.76, 919.41 1029.52, 853.14 1024.35 C 786.87 1019.17, 726.33 1014.91, 667.20 994.88 C 608.06 974.86, 545.28 938.55, 498.33 904.19 C 451.38 869.83, 412.08 832.70, 385.49 788.71 C 358.91 744.73, 345.85 691.53, 338.84 640.28 C 331.84 589.04, 333.59 533.03, 343.45 481.25 C 353.31 429.47, 368.44 377.02, 398.01 329.58 C 427.57 282.13, 472.61 238.27, 520.86 196.60 C 569.10 154.92, 625.60 104.59, 687.47 79.54 C 749.34 54.48, 825.87 52.03, 892.06 46.27 C 958.25 40.50, 1024.35 36.26, 1084.60 44.96 C 1144.85 53.65, 1200.49 76.30, 1253.55 98.44 C 1306.61 120.58, 1357.82 146.66, 1402.96 177.82 C 1448.11 208.99, 1486.92 246.24, 1524.40 285.43 C 1561.88 324.63, 1606.19 364.57, 1627.87 412.99 Z" transform="" fill="none" stroke="url(#gradMain)" stroke-width="147.5" stroke-linecap="round" stroke-linejoin="round" opacity="0.054"/>
<path d="M 1627.87 412.99 C 1649.54 461.42, 1659.21 521.37, 1654.43 576.00 C 1649.65 630.63, 1629.60 690.19, 1599.18 740.78 C 1568.76 791.38, 1526.13 839.11, 1471.91 879.57 C 1417.70 920.02, 1341.76 959.12, 1273.90 983.52 C 1206.05 1007.91, 1134.93 1019.15, 1064.80 1025.95 C 994.68 1032.76, 919.41 1029.52, 853.14 1024.35 C 786.87 1019.17, 726.33 1014.91, 667.20 994.88 C 608.06 974.86, 545.28 938.55, 498.33 904.19 C 451.38 869.83, 412.08 832.70, 385.49 788.71 C 358.91 744.73, 345.85 691.53, 338.84 640.28 C 331.84 589.04, 333.59 533.03, 343.45 481.25 C 353.31 429.47, 368.44 377.02, 398.01 329.58 C 427.57 282.13, 472.61 238.27, 520.86 196.60 C 569.10 154.92, 625.60 104.59, 687.47 79.54 C 749.34 54.48, 825.87 52.03, 892.06 46.27 C 958.25 40.50, 1024.35 36.26, 1084.60 44.96 C 1144.85 53.65, 1200.49 76.30, 1253.55 98.44 C 1306.61 120.58, 1357.82 146.66, 1402.96 177.82 C 1448.11 208.99, 1486.92 246.24, 1524.40 285.43 C 1561.88 324.63, 1606.19 364.57, 1627.87 412.99 Z" transform="" fill="none" stroke="url(#gradMain)" stroke-width="118.0" stroke-linecap="round" stroke-linejoin="round" opacity="0.083"/>
<path d="M 1627.87 412.99 C 1649.54 461.42, 1659.21 521.37, 1654.43 576.00 C 1649.65 630.63, 1629.60 690.19, 1599.18 740.78 C 1568.76 791.38, 1526.13 839.11, 1471.91 879.57 C 1417.70 920.02, 1341.76 959.12, 1273.90 983.52 C 1206.05 1007.91, 1134.93 1019.15, 1064.80 1025.95 C 994.68 1032.76, 919.41 1029.52, 853.14 1024.35 C 786.87 1019.17, 726.33 1014.91, 667.20 994.88 C 608.06 974.86, 545.28 938.55, 498.33 904.19 C 451.38 869.83, 412.08 832.70, 385.49 788.71 C 358.91 744.73, 345.85 691.53, 338.84 640.28 C 331.84 589.04, 333.59 533.03, 343.45 481.25 C 353.31 429.47, 368.44 377.02, 398.01 329.58 C 427.57 282.13, 472.61 238.27, 520.86 196.60 C 569.10 154.92, 625.60 104.59, 687.47 79.54 C 749.34 54.48, 825.87 52.03, 892.06 46.27 C 958.25 40.50, 1024.35 36.26, 1084.60 44.96 C 1144.85 53.65, 1200.49 76.30, 1253.55 98.44 C 1306.61 120.58, 1357.82 146.66, 1402.96 177.82 C 1448.11 208.99, 1486.92 246.24, 1524.40 285.43 C 1561.88 324.63, 1606.19 364.57, 1627.87 412.99 Z" transform="" fill="none" stroke="url(#gradMain)" stroke-width="85.0" stroke-linecap="round" stroke-linejoin="round" opacity="0.061"/>
<path d="M 1627.87 412.99 C 1649.54 461.42, 1659.21 521.37, 1654.43 576.00 C 1649.65 630.63, 1629.60 690.19, 1599.18 740.78 C 1568.76 791.38, 1526.13 839.11, 1471.91 879.57 C 1417.70 920.02, 1341.76 959.12, 1273.90 983.52 C 1206.05 1007.91, 1134.93 1019.15, 1064.80 1025.95 C 994.68 1032.76, 919.41 1029.52, 853.14 1024.35 C 786.87 1019.17, 726.33 1014.91, 667.20 994.88 C 608.06 974.86, 545.28 938.55, 498.33 904.19 C 451.38 869.83, 412.08 832.70, 385.49 788.71 C 358.91 744.73, 345.85 691.53, 338.84 640.28 C 331.84 589.04, 333.59 533.03, 343.45 481.25 C 353.31 429.47, 368.44 377.02, 398.01 329.58 C 427.57 282.13, 472.61 238.27, 520.86 196.60 C 569.10 154.92, 625.60 104.59, 687.47 79.54 C 749.34 54.48, 825.87 52.03, 892.06 46.27 C 958.25 40.50, 1024.35 36.26, 1084.60 44.96 C 1144.85 53.65, 1200.49 76.30, 1253.55 98.44 C 1306.61 120.58, 1357.82 146.66, 1402.96 177.82 C 1448.11 208.99, 1486.92 246.24, 1524.40 285.43 C 1561.88 324.63, 1606.19 364.57, 1627.87 412.99 Z" transform="translate(4.00 2.00)" fill="none" stroke="url(#gradMain)" stroke-width="182.9" stroke-linecap="round" stroke-linejoin="round" opacity="0.036"/>
<path d="M 1627.87 412.99 C 1649.54 461.42, 1659.21 521.37, 1654.43 576.00 C 1649.65 630.63, 1629.60 690.19, 1599.18 740.78 C 1568.76 791.38, 1526.13 839.11, 1471.91 879.57 C 1417.70 920.02, 1341.76 959.12, 1273.90 983.52 C 1206.05 1007.91, 1134.93 1019.15, 1064.80 1025.95 C 994.68 1032.76, 919.41 1029.52, 853.14 1024.35 C 786.87 1019.17, 726.33 1014.91, 667.20 994.88 C 608.06 974.86, 545.28 938.55, 498.33 904.19 C 451.38 869.83, 412.08 832.70, 385.49 788.71 C 358.91 744.73, 345.85 691.53, 338.84 640.28 C 331.84 589.04, 333.59 533.03, 343.45 481.25 C 353.31 429.47, 368.44 377.02, 398.01 329.58 C 427.57 282.13, 472.61 238.27, 520.86 196.60 C 569.10 154.92, 625.60 104.59, 687.47 79.54 C 749.34 54.48, 825.87 52.03, 892.06 46.27 C 958.25 40.50, 1024.35 36.26, 1084.60 44.96 C 1144.85 53.65, 1200.49 76.30, 1253.55 98.44 C 1306.61 120.58, 1357.82 146.66, 1402.96 177.82 C 1448.11 208.99, 1486.92 246.24, 1524.40 285.43 C 1561.88 324.63, 1606.19 364.57, 1627.87 412.99 Z" transform="translate(4.00 2.00)" fill="none" stroke="url(#gradMain)" stroke-width="147.5" stroke-linecap="round" stroke-linejoin="round" opacity="0.054"/>
<path d="M 1627.87 412.99 C 1649.54 461.42, 1659.21 521.37, 1654.43 576.00 C 1649.65 630.63, 1629.60 690.19, 1599.18 740.78 C 1568.76 791.38, 1526.13 839.11, 1471.91 879.57 C 1417.70 920.02, 1341.76 959.12, 1273.90 983.52 C 1206.05 1007.91, 1134.93 1019.15, 1064.80 1025.95 C 994.68 1032.76, 919.41 1029.52, 853.14 1024.35 C 786.87 1019.17, 726.33 1014.91, 667.20 994.88 C 608.06 974.86, 545.28 938.55, 498.33 904.19 C 451.38 869.83, 412.08 832.70, 385.49 788.71 C 358.91 744.73, 345.85 691.53, 338.84 640.28 C 331.84 589.04, 333.59 533.03, 343.45 481.25 C 353.31 429.47, 368.44 377.02, 398.01 329.58 C 427.57 282.13, 472.61 238.27, 520.86 196.60 C 569.10 154.92, 625.60 104.59, 687.47 79.54 C 749.34 54.48, 825.87 52.03, 892.06 46.27 C 958.25 40.50, 1024.35 36.26, 1084.60 44.96 C 1144.85 53.65, 1200.49 76.30, 1253.55 98.44 C 1306.61 120.58, 1357.82 146.66, 1402.96 177.82 C 1448.11 208.99, 1486.92 246.24, 1524.40 285.43 C 1561.88 324.63, 1606.19 364.57, 1627.87 412.99 Z" transform="translate(4.00 2.00)" fill="none" stroke="url(#gradMain)" stroke-width="118.0" stroke-linecap="round" stroke-linejoin="round" opacity="0.083"/>
<path d="M 1627.87 412.99 C 1649.54 461.42, 1659.21 521.37, 1654.43 576.00 C 1649.65 630.63, 1629.60 690.19, 1599.18 740.78 C 1568.76 791.38, 1526.13 839.11, 1471.91 879.57 C 1417.70 920.02, 1341.76 959.12, 1273.90 983.52 C 1206.05 1007.91, 1134.93 1019.15, 1064.80 1025.95 C 994.68 1032.76, 919.41 1029.52, 853.14 1024.35 C 786.87 1019.17, 726.33 1014.91, 667.20 994.88 C 608.06 974.86, 545.28 938.55, 498.33 904.19 C 451.38 869.83, 412.08 832.70, 385.49 788.71 C 358.91 744.73, 345.85 691.53, 338.84 640.28 C 331.84 589.04, 333.59 533.03, 343.45 481.25 C 353.31 429.47, 368.44 377.02, 398.01 329.58 C 427.57 282.13, 472.61 238.27, 520.86 196.60 C 569.10 154.92, 625.60 104.59, 687.47 79.54 C 749.34 54.48, 825.87 52.03, 892.06 46.27 C 958.25 40.50, 1024.35 36.26, 1084.60 44.96 C 1144.85 53.65, 1200.49 76.30, 1253.55 98.44 C 1306.61 120.58, 1357.82 146.66, 1402.96 177.82 C 1448.11 208.99, 1486.92 246.24, 1524.40 285.43 C 1561.88 324.63, 1606.19 364.57, 1627.87 412.99 Z" transform="translate(4.00 2.00)" fill="none" stroke="url(#gradMain)" stroke-width="85.0" stroke-linecap="round" stroke-linejoin="round" opacity="0.061"/>
<path d="M 1627.87 412.99 C 1649.54 461.42, 1659.21 521.37, 1654.43 576.00 C 1649.65 630.63, 1629.60 690.19, 1599.18 740.78 C 1568.76 791.38, 1526.13 839.11, 1471.91 879.57 C 1417.70 920.02, 1341.76 959.12, 1273.90 983.52 C 1206.05 1007.91, 1134.93 1019.15, 1064.80 1025.95 C 994.68 1032.76, 919.41 1029.52, 853.14 1024.35 C 786.87 1019.17, 726.33 1014.91, 667.20 994.88 C 608.06 974.86, 545.28 938.55, 498.33 904.19 C 451.38 869.83, 412.08 832.70, 385.49 788.71 C 358.91 744.73, 345.85 691.53, 338.84 640.28 C 331.84 589.04, 333.59 533.03, 343.45 481.25 C 353.31 429.47, 368.44 377.02, 398.01 329.58 C 427.57 282.13, 472.61 238.27, 520.86 196.60 C 569.10 154.92, 625.60 104.59, 687.47 79.54 C 749.34 54.48, 825.87 52.03, 892.06 46.27 C 958.25 40.50, 1024.35 36.26, 1084.60 44.96 C 1144.85 53.65, 1200.49 76.30, 1253.55 98.44 C 1306.61 120.58, 1357.82 146.66, 1402.96 177.82 C 1448.11 208.99, 1486.92 246.24, 1524.40 285.43 C 1561.88 324.63, 1606.19 364.57, 1627.87 412.99 Z" transform="translate(-3.00 1.10)" fill="none" stroke="url(#gradMain)" stroke-width="182.9" stroke-linecap="round" stroke-linejoin="round" opacity="0.036"/>
<path d="M 1627.87 412.99 C 1649.54 461.42, 1659.21 521.37, 1654.43 576.00 C 1649.65 630.63, 1629.60 690.19, 1599.18 740.78 C 1568.76 791.38, 1526.13 839.11, 1471.91 879.57 C 1417.70 920.02, 1341.76 959.12, 1273.90 983.52 C 1206.05 1007.91, 1134.93 1019.15, 1064.80 1025.95 C 994.68 1032.76, 919.41 1029.52, 853.14 1024.35 C 786.87 1019.17, 726.33 1014.91, 667.20 994.88 C 608.06 974.86, 545.28 938.55, 498.33 904.19 C 451.38 869.83, 412.08 832.70, 385.49 788.71 C 358.91 744.73, 345.85 691.53, 338.84 640.28 C 331.84 589.04, 333.59 533.03, 343.45 481.25 C 353.31 429.47, 368.44 377.02, 398.01 329.58 C 427.57 282.13, 472.61 238.27, 520.86 196.60 C 569.10 154.92, 625.60 104.59, 687.47 79.54 C 749.34 54.48, 825.87 52.03, 892.06 46.27 C 958.25 40.50, 1024.35 36.26, 1084.60 44.96 C 1144.85 53.65, 1200.49 76.30, 1253.55 98.44 C 1306.61 120.58, 1357.82 146.66, 1402.96 177.82 C 1448.11 208.99, 1486.92 246.24, 1524.40 285.43 C 1561.88 324.63, 1606.19 364.57, 1627.87 412.99 Z" transform="translate(-3.00 1.10)" fill="none" stroke="url(#gradMain)" stroke-width="147.5" stroke-linecap="round" stroke-linejoin="round" opacity="0.054"/>
<path d="M 1627.87 412.99 C 1649.54 461.42, 1659.21 521.37, 1654.43 576.00 C 1649.65 630.63, 1629.60 690.19, 1599.18 740.78 C 1568.76 791.38, 1526.13 839.11, 1471.91 879.57 C 1417.70 920.02, 1341.76 959.12, 1273.90 983.52 C 1206.05 1007.91, 1134.93 1019.15, 1064.80 1025.95 C 994.68 1032.76, 919.41 1029.52, 853.14 1024.35 C 786.87 1019.17, 726.33 1014.91, 667.20 994.88 C 608.06 974.86, 545.28 938.55, 498.33 904.19 C 451.38 869.83, 412.08 832.70, 385.49 788.71 C 358.91 744.73, 345.85 691.53, 338.84 640.28 C 331.84 589.04, 333.59 533.03, 343.45 481.25 C 353.31 429.47, 368.44 377.02, 398.01 329.58 C 427.57 282.13, 472.61 238.27, 520.86 196.60 C 569.10 154.92, 625.60 104.59, 687.47 79.54 C 749.34 54.48, 825.87 52.03, 892.06 46.27 C 958.25 40.50, 1024.35 36.26, 1084.60 44.96 C 1144.85 53.65, 1200.49 76.30, 1253.55 98.44 C 1306.61 120.58, 1357.82 146.66, 1402.96 177.82 C 1448.11 208.99, 1486.92 246.24, 1524.40 285.43 C 1561.88 324.63, 1606.19 364.57, 1627.87 412.99 Z" transform="translate(-3.00 1.10)" fill="none" stroke="url(#gradMain)" stroke-width="118.0" stroke-linecap="round" stroke-linejoin="round" opacity="0.083"/>
<path d="M 1627.87 412.99 C 1649.54 461.42, 1659.21 521.37, 1654.43 576.00 C 1649.65 630.63, 1629.60 690.19, 1599.18 740.78 C 1568.76 791.38, 1526.13 839.11, 1471.91 879.57 C 1417.70 920.02, 1341.76 959.12, 1273.90 983.52 C 1206.05 1007.91, 1134.93 1019.15, 1064.80 1025.95 C 994.68 1032.76, 919.41 1029.52, 853.14 1024.35 C 786.87 1019.17, 726.33 1014.91, 667.20 994.88 C 608.06 974.86, 545.28 938.55, 498.33 904.19 C 451.38 869.83, 412.08 832.70, 385.49 788.71 C 358.91 744.73, 345.85 691.53, 338.84 640.28 C 331.84 589.04, 333.59 533.03, 343.45 481.25 C 353.31 429.47, 368.44 377.02, 398.01 329.58 C 427.57 282.13, 472.61 238.27, 520.86 196.60 C 569.10 154.92, 625.60 104.59, 687.47 79.54 C 749.34 54.48, 825.87 52.03, 892.06 46.27 C 958.25 40.50, 1024.35 36.26, 1084.60 44.96 C 1144.85 53.65, 1200.49 76.30, 1253.55 98.44 C 1306.61 120.58, 1357.82 146.66, 1402.96 177.82 C 1448.11 208.99, 1486.92 246.24, 1524.40 285.43 C 1561.88 324.63, 1606.19 364.57, 1627.87 412.99 Z" transform="translate(-3.00 1.10)" fill="none" stroke="url(#gradMain)" stroke-width="85.0" stroke-linecap="round" stroke-linejoin="round" opacity="0.061"/>
<path d="M 1532.81 432.49 C 1549.58 473.33, 1547.62 523.24, 1545.14 569.07 C 1542.66 614.90, 1543.51 663.83, 1517.92 707.48 C 1492.33 751.13, 1439.93 796.62, 1391.61 830.98 C 1343.28 865.34, 1284.85 894.81, 1227.97 913.64 C 1171.09 932.47, 1108.69 937.14, 1050.35 943.95 C 992.00 950.77, 933.97 959.50, 877.89 954.53 C 821.82 949.55, 763.29 930.86, 713.90 914.10 C 664.51 897.34, 619.46 881.66, 581.57 853.96 C 543.67 826.26, 511.68 785.74, 486.54 747.89 C 461.41 710.03, 438.50 669.39, 430.76 626.81 C 423.02 584.24, 431.09 536.87, 440.11 492.44 C 449.13 448.00, 458.81 400.46, 484.88 360.21 C 510.94 319.95, 554.15 285.37, 596.50 250.90 C 638.84 216.43, 687.88 177.27, 738.94 153.38 C 790.01 129.49, 847.69 113.02, 902.87 107.55 C 958.04 102.09, 1017.78 109.90, 1069.99 120.56 C 1122.19 131.22, 1171.93 152.35, 1216.09 171.52 C 1260.25 190.68, 1296.86 210.14, 1334.93 235.56 C 1373.00 260.97, 1411.53 291.19, 1444.51 324.01 C 1477.49 356.83, 1516.04 391.65, 1532.81 432.49 Z" transform="" fill="none" stroke="url(#gradBlue)" stroke-width="164.3" stroke-linecap="round" stroke-linejoin="round" opacity="0.034"/>
<path d="M 1532.81 432.49 C 1549.58 473.33, 1547.62 523.24, 1545.14 569.07 C 1542.66 614.90, 1543.51 663.83, 1517.92 707.48 C 1492.33 751.13, 1439.93 796.62, 1391.61 830.98 C 1343.28 865.34, 1284.85 894.81, 1227.97 913.64 C 1171.09 932.47, 1108.69 937.14, 1050.35 943.95 C 992.00 950.77, 933.97 959.50, 877.89 954.53 C 821.82 949.55, 763.29 930.86, 713.90 914.10 C 664.51 897.34, 619.46 881.66, 581.57 853.96 C 543.67 826.26, 511.68 785.74, 486.54 747.89 C 461.41 710.03, 438.50 669.39, 430.76 626.81 C 423.02 584.24, 431.09 536.87, 440.11 492.44 C 449.13 448.00, 458.81 400.46, 484.88 360.21 C 510.94 319.95, 554.15 285.37, 596.50 250.90 C 638.84 216.43, 687.88 177.27, 738.94 153.38 C 790.01 129.49, 847.69 113.02, 902.87 107.55 C 958.04 102.09, 1017.78 109.90, 1069.99 120.56 C 1122.19 131.22, 1171.93 152.35, 1216.09 171.52 C 1260.25 190.68, 1296.86 210.14, 1334.93 235.56 C 1373.00 260.97, 1411.53 291.19, 1444.51 324.01 C 1477.49 356.83, 1516.04 391.65, 1532.81 432.49 Z" transform="" fill="none" stroke="url(#gradBlue)" stroke-width="132.5" stroke-linecap="round" stroke-linejoin="round" opacity="0.051"/>
<path d="M 1532.81 432.49 C 1549.58 473.33, 1547.62 523.24, 1545.14 569.07 C 1542.66 614.90, 1543.51 663.83, 1517.92 707.48 C 1492.33 751.13, 1439.93 796.62, 1391.61 830.98 C 1343.28 865.34, 1284.85 894.81, 1227.97 913.64 C 1171.09 932.47, 1108.69 937.14, 1050.35 943.95 C 992.00 950.77, 933.97 959.50, 877.89 954.53 C 821.82 949.55, 763.29 930.86, 713.90 914.10 C 664.51 897.34, 619.46 881.66, 581.57 853.96 C 543.67 826.26, 511.68 785.74, 486.54 747.89 C 461.41 710.03, 438.50 669.39, 430.76 626.81 C 423.02 584.24, 431.09 536.87, 440.11 492.44 C 449.13 448.00, 458.81 400.46, 484.88 360.21 C 510.94 319.95, 554.15 285.37, 596.50 250.90 C 638.84 216.43, 687.88 177.27, 738.94 153.38 C 790.01 129.49, 847.69 113.02, 902.87 107.55 C 958.04 102.09, 1017.78 109.90, 1069.99 120.56 C 1122.19 131.22, 1171.93 152.35, 1216.09 171.52 C 1260.25 190.68, 1296.86 210.14, 1334.93 235.56 C 1373.00 260.97, 1411.53 291.19, 1444.51 324.01 C 1477.49 356.83, 1516.04 391.65, 1532.81 432.49 Z" transform="" fill="none" stroke="url(#gradBlue)" stroke-width="106.0" stroke-linecap="round" stroke-linejoin="round" opacity="0.078"/>
<path d="M 1532.81 432.49 C 1549.58 473.33, 1547.62 523.24, 1545.14 569.07 C 1542.66 614.90, 1543.51 663.83, 1517.92 707.48 C 1492.33 751.13, 1439.93 796.62, 1391.61 830.98 C 1343.28 865.34, 1284.85 894.81, 1227.97 913.64 C 1171.09 932.47, 1108.69 937.14, 1050.35 943.95 C 992.00 950.77, 933.97 959.50, 877.89 954.53 C 821.82 949.55, 763.29 930.86, 713.90 914.10 C 664.51 897.34, 619.46 881.66, 581.57 853.96 C 543.67 826.26, 511.68 785.74, 486.54 747.89 C 461.41 710.03, 438.50 669.39, 430.76 626.81 C 423.02 584.24, 431.09 536.87, 440.11 492.44 C 449.13 448.00, 458.81 400.46, 484.88 360.21 C 510.94 319.95, 554.15 285.37, 596.50 250.90 C 638.84 216.43, 687.88 177.27, 738.94 153.38 C 790.01 129.49, 847.69 113.02, 902.87 107.55 C 958.04 102.09, 1017.78 109.90, 1069.99 120.56 C 1122.19 131.22, 1171.93 152.35, 1216.09 171.52 C 1260.25 190.68, 1296.86 210.14, 1334.93 235.56 C 1373.00 260.97, 1411.53 291.19, 1444.51 324.01 C 1477.49 356.83, 1516.04 391.65, 1532.81 432.49 Z" transform="" fill="none" stroke="url(#gradBlue)" stroke-width="76.3" stroke-linecap="round" stroke-linejoin="round" opacity="0.058"/>
<path d="M 1532.81 432.49 C 1549.58 473.33, 1547.62 523.24, 1545.14 569.07 C 1542.66 614.90, 1543.51 663.83, 1517.92 707.48 C 1492.33 751.13, 1439.93 796.62, 1391.61 830.98 C 1343.28 865.34, 1284.85 894.81, 1227.97 913.64 C 1171.09 932.47, 1108.69 937.14, 1050.35 943.95 C 992.00 950.77, 933.97 959.50, 877.89 954.53 C 821.82 949.55, 763.29 930.86, 713.90 914.10 C 664.51 897.34, 619.46 881.66, 581.57 853.96 C 543.67 826.26, 511.68 785.74, 486.54 747.89 C 461.41 710.03, 438.50 669.39, 430.76 626.81 C 423.02 584.24, 431.09 536.87, 440.11 492.44 C 449.13 448.00, 458.81 400.46, 484.88 360.21 C 510.94 319.95, 554.15 285.37, 596.50 250.90 C 638.84 216.43, 687.88 177.27, 738.94 153.38 C 790.01 129.49, 847.69 113.02, 902.87 107.55 C 958.04 102.09, 1017.78 109.90, 1069.99 120.56 C 1122.19 131.22, 1171.93 152.35, 1216.09 171.52 C 1260.25 190.68, 1296.86 210.14, 1334.93 235.56 C 1373.00 260.97, 1411.53 291.19, 1444.51 324.01 C 1477.49 356.83, 1516.04 391.65, 1532.81 432.49 Z" transform="translate(4.00 2.00)" fill="none" stroke="url(#gradBlue)" stroke-width="164.3" stroke-linecap="round" stroke-linejoin="round" opacity="0.034"/>
<path d="M 1532.81 432.49 C 1549.58 473.33, 1547.62 523.24, 1545.14 569.07 C 1542.66 614.90, 1543.51 663.83, 1517.92 707.48 C 1492.33 751.13, 1439.93 796.62, 1391.61 830.98 C 1343.28 865.34, 1284.85 894.81, 1227.97 913.64 C 1171.09 932.47, 1108.69 937.14, 1050.35 943.95 C 992.00 950.77, 933.97 959.50, 877.89 954.53 C 821.82 949.55, 763.29 930.86, 713.90 914.10 C 664.51 897.34, 619.46 881.66, 581.57 853.96 C 543.67 826.26, 511.68 785.74, 486.54 747.89 C 461.41 710.03, 438.50 669.39, 430.76 626.81 C 423.02 584.24, 431.09 536.87, 440.11 492.44 C 449.13 448.00, 458.81 400.46, 484.88 360.21 C 510.94 319.95, 554.15 285.37, 596.50 250.90 C 638.84 216.43, 687.88 177.27, 738.94 153.38 C 790.01 129.49, 847.69 113.02, 902.87 107.55 C 958.04 102.09, 1017.78 109.90, 1069.99 120.56 C 1122.19 131.22, 1171.93 152.35, 1216.09 171.52 C 1260.25 190.68, 1296.86 210.14, 1334.93 235.56 C 1373.00 260.97, 1411.53 291.19, 1444.51 324.01 C 1477.49 356.83, 1516.04 391.65, 1532.81 432.49 Z" transform="translate(4.00 2.00)" fill="none" stroke="url(#gradBlue)" stroke-width="132.5" stroke-linecap="round" stroke-linejoin="round" opacity="0.051"/>
<path d="M 1532.81 432.49 C 1549.58 473.33, 1547.62 523.24, 1545.14 569.07 C 1542.66 614.90, 1543.51 663.83, 1517.92 707.48 C 1492.33 751.13, 1439.93 796.62, 1391.61 830.98 C 1343.28 865.34, 1284.85 894.81, 1227.97 913.64 C 1171.09 932.47, 1108.69 937.14, 1050.35 943.95 C 992.00 950.77, 933.97 959.50, 877.89 954.53 C 821.82 949.55, 763.29 930.86, 713.90 914.10 C 664.51 897.34, 619.46 881.66, 581.57 853.96 C 543.67 826.26, 511.68 785.74, 486.54 747.89 C 461.41 710.03, 438.50 669.39, 430.76 626.81 C 423.02 584.24, 431.09 536.87, 440.11 492.44 C 449.13 448.00, 458.81 400.46, 484.88 360.21 C 510.94 319.95, 554.15 285.37, 596.50 250.90 C 638.84 216.43, 687.88 177.27, 738.94 153.38 C 790.01 129.49, 847.69 113.02, 902.87 107.55 C 958.04 102.09, 1017.78 109.90, 1069.99 120.56 C 1122.19 131.22, 1171.93 152.35, 1216.09 171.52 C 1260.25 190.68, 1296.86 210.14, 1334.93 235.56 C 1373.00 260.97, 1411.53 291.19, 1444.51 324.01 C 1477.49 356.83, 1516.04 391.65, 1532.81 432.49 Z" transform="translate(4.00 2.00)" fill="none" stroke="url(#gradBlue)" stroke-width="106.0" stroke-linecap="round" stroke-linejoin="round" opacity="0.078"/>
<path d="M 1532.81 432.49 C 1549.58 473.33, 1547.62 523.24, 1545.14 569.07 C 1542.66 614.90, 1543.51 663.83, 1517.92 707.48 C 1492.33 751.13, 1439.93 796.62, 1391.61 830.98 C 1343.28 865.34, 1284.85 894.81, 1227.97 913.64 C 1171.09 932.47, 1108.69 937.14, 1050.35 943.95 C 992.00 950.77, 933.97 959.50, 877.89 954.53 C 821.82 949.55, 763.29 930.86, 713.90 914.10 C 664.51 897.34, 619.46 881.66, 581.57 853.96 C 543.67 826.26, 511.68 785.74, 486.54 747.89 C 461.41 710.03, 438.50 669.39, 430.76 626.81 C 423.02 584.24, 431.09 536.87, 440.11 492.44 C 449.13 448.00, 458.81 400.46, 484.88 360.21 C 510.94 319.95, 554.15 285.37, 596.50 250.90 C 638.84 216.43, 687.88 177.27, 738.94 153.38 C 790.01 129.49, 847.69 113.02, 902.87 107.55 C 958.04 102.09, 1017.78 109.90, 1069.99 120.56 C 1122.19 131.22, 1171.93 152.35, 1216.09 171.52 C 1260.25 190.68, 1296.86 210.14, 1334.93 235.56 C 1373.00 260.97, 1411.53 291.19, 1444.51 324.01 C 1477.49 356.83, 1516.04 391.65, 1532.81 432.49 Z" transform="translate(4.00 2.00)" fill="none" stroke="url(#gradBlue)" stroke-width="76.3" stroke-linecap="round" stroke-linejoin="round" opacity="0.058"/>
<path d="M 1532.81 432.49 C 1549.58 473.33, 1547.62 523.24, 1545.14 569.07 C 1542.66 614.90, 1543.51 663.83, 1517.92 707.48 C 1492.33 751.13, 1439.93 796.62, 1391.61 830.98 C 1343.28 865.34, 1284.85 894.81, 1227.97 913.64 C 1171.09 932.47, 1108.69 937.14, 1050.35 943.95 C 992.00 950.77, 933.97 959.50, 877.89 954.53 C 821.82 949.55, 763.29 930.86, 713.90 914.10 C 664.51 897.34, 619.46 881.66, 581.57 853.96 C 543.67 826.26, 511.68 785.74, 486.54 747.89 C 461.41 710.03, 438.50 669.39, 430.76 626.81 C 423.02 584.24, 431.09 536.87, 440.11 492.44 C 449.13 448.00, 458.81 400.46, 484.88 360.21 C 510.94 319.95, 554.15 285.37, 596.50 250.90 C 638.84 216.43, 687.88 177.27, 738.94 153.38 C 790.01 129.49, 847.69 113.02, 902.87 107.55 C 958.04 102.09, 1017.78 109.90, 1069.99 120.56 C 1122.19 131.22, 1171.93 152.35, 1216.09 171.52 C 1260.25 190.68, 1296.86 210.14, 1334.93 235.56 C 1373.00 260.97, 1411.53 291.19, 1444.51 324.01 C 1477.49 356.83, 1516.04 391.65, 1532.81 432.49 Z" transform="translate(-3.00 1.10)" fill="none" stroke="url(#gradBlue)" stroke-width="164.3" stroke-linecap="round" stroke-linejoin="round" opacity="0.034"/>
<path d="M 1532.81 432.49 C 1549.58 473.33, 1547.62 523.24, 1545.14 569.07 C 1542.66 614.90, 1543.51 663.83, 1517.92 707.48 C 1492.33 751.13, 1439.93 796.62, 1391.61 830.98 C 1343.28 865.34, 1284.85 894.81, 1227.97 913.64 C 1171.09 932.47, 1108.69 937.14, 1050.35 943.95 C 992.00 950.77, 933.97 959.50, 877.89 954.53 C 821.82 949.55, 763.29 930.86, 713.90 914.10 C 664.51 897.34, 619.46 881.66, 581.57 853.96 C 543.67 826.26, 511.68 785.74, 486.54 747.89 C 461.41 710.03, 438.50 669.39, 430.76 626.81 C 423.02 584.24, 431.09 536.87, 440.11 492.44 C 449.13 448.00, 458.81 400.46, 484.88 360.21 C 510.94 319.95, 554.15 285.37, 596.50 250.90 C 638.84 216.43, 687.88 177.27, 738.94 153.38 C 790.01 129.49, 847.69 113.02, 902.87 107.55 C 958.04 102.09, 1017.78 109.90, 1069.99 120.56 C 1122.19 131.22, 1171.93 152.35, 1216.09 171.52 C 1260.25 190.68, 1296.86 210.14, 1334.93 235.56 C 1373.00 260.97, 1411.53 291.19, 1444.51 324.01 C 1477.49 356.83, 1516.04 391.65, 1532.81 432.49 Z" transform="translate(-3.00 1.10)" fill="none" stroke="url(#gradBlue)" stroke-width="132.5" stroke-linecap="round" stroke-linejoin="round" opacity="0.051"/>
<path d="M 1532.81 432.49 C 1549.58 473.33, 1547.62 523.24, 1545.14 569.07 C 1542.66 614.90, 1543.51 663.83, 1517.92 707.48 C 1492.33 751.13, 1439.93 796.62, 1391.61 830.98 C 1343.28 865.34, 1284.85 894.81, 1227.97 913.64 C 1171.09 932.47, 1108.69 937.14, 1050.35 943.95 C 992.00 950.77, 933.97 959.50, 877.89 954.53 C 821.82 949.55, 763.29 930.86, 713.90 914.10 C 664.51 897.34, 619.46 881.66, 581.57 853.96 C 543.67 826.26, 511.68 785.74, 486.54 747.89 C 461.41 710.03, 438.50 669.39, 430.76 626.81 C 423.02 584.24, 431.09 536.87, 440.11 492.44 C 449.13 448.00, 458.81 400.46, 484.88 360.21 C 510.94 319.95, 554.15 285.37, 596.50 250.90 C 638.84 216.43, 687.88 177.27, 738.94 153.38 C 790.01 129.49, 847.69 113.02, 902.87 107.55 C 958.04 102.09, 1017.78 109.90, 1069.99 120.56 C 1122.19 131.22, 1171.93 152.35, 1216.09 171.52 C 1260.25 190.68, 1296.86 210.14, 1334.93 235.56 C 1373.00 260.97, 1411.53 291.19, 1444.51 324.01 C 1477.49 356.83, 1516.04 391.65, 1532.81 432.49 Z" transform="translate(-3.00 1.10)" fill="none" stroke="url(#gradBlue)" stroke-width="106.0" stroke-linecap="round" stroke-linejoin="round" opacity="0.078"/>
<path d="M 1532.81 432.49 C 1549.58 473.33, 1547.62 523.24, 1545.14 569.07 C 1542.66 614.90, 1543.51 663.83, 1517.92 707.48 C 1492.33 751.13, 1439.93 796.62, 1391.61 830.98 C 1343.28 865.34, 1284.85 894.81, 1227.97 913.64 C 1171.09 932.47, 1108.69 937.14, 1050.35 943.95 C 992.00 950.77, 933.97 959.50, 877.89 954.53 C 821.82 949.55, 763.29 930.86, 713.90 914.10 C 664.51 897.34, 619.46 881.66, 581.57 853.96 C 543.67 826.26, 511.68 785.74, 486.54 747.89 C 461.41 710.03, 438.50 669.39, 430.76 626.81 C 423.02 584.24, 431.09 536.87, 440.11 492.44 C 449.13 448.00, 458.81 400.46, 484.88 360.21 C 510.94 319.95, 554.15 285.37, 596.50 250.90 C 638.84 216.43, 687.88 177.27, 738.94 153.38 C 790.01 129.49, 847.69 113.02, 902.87 107.55 C 958.04 102.09, 1017.78 109.90, 1069.99 120.56 C 1122.19 131.22, 1171.93 152.35, 1216.09 171.52 C 1260.25 190.68, 1296.86 210.14, 1334.93 235.56 C 1373.00 260.97, 1411.53 291.19, 1444.51 324.01 C 1477.49 356.83, 1516.04 391.65, 1532.81 432.49 Z" transform="translate(-3.00 1.10)" fill="none" stroke="url(#gradBlue)" stroke-width="76.3" stroke-linecap="round" stroke-linejoin="round" opacity="0.058"/>
<path d="M 1415.76 455.83 C 1431.06 489.49, 1451.16 528.01, 1450.98 565.27 C 1450.79 602.53, 1437.10 644.02, 1414.66 679.39 C 1392.22 714.75, 1354.24 748.67, 1316.36 777.47 C 1278.48 806.27, 1233.75 836.03, 1187.37 852.20 C 1141.00 868.36, 1086.56 869.42, 1038.09 874.46 C 989.62 879.50, 942.52 885.71, 896.56 882.44 C 850.61 879.17, 803.99 868.80, 762.36 854.85 C 720.73 840.90, 680.07 821.72, 646.80 798.73 C 613.53 775.75, 581.34 748.23, 562.75 716.96 C 544.17 685.68, 540.01 646.76, 535.29 611.08 C 530.58 575.40, 527.11 539.18, 534.46 502.86 C 541.81 466.55, 557.76 427.02, 579.40 393.20 C 601.04 359.39, 630.53 328.82, 664.32 299.99 C 698.10 271.17, 739.80 237.81, 782.12 220.26 C 824.44 202.72, 873.24 197.89, 918.24 194.72 C 963.24 191.56, 1010.85 194.51, 1052.12 201.26 C 1093.39 208.01, 1128.85 219.71, 1165.83 235.23 C 1202.82 250.75, 1241.81 273.03, 1274.04 294.37 C 1306.27 315.72, 1335.57 336.41, 1359.19 363.31 C 1382.81 390.22, 1400.47 422.17, 1415.76 455.83 Z" transform="" fill="none" stroke="url(#gradMain)" stroke-width="145.7" stroke-linecap="round" stroke-linejoin="round" opacity="0.030"/>
<path d="M 1415.76 455.83 C 1431.06 489.49, 1451.16 528.01, 1450.98 565.27 C 1450.79 602.53, 1437.10 644.02, 1414.66 679.39 C 1392.22 714.75, 1354.24 748.67, 1316.36 777.47 C 1278.48 806.27, 1233.75 836.03, 1187.37 852.20 C 1141.00 868.36, 1086.56 869.42, 1038.09 874.46 C 989.62 879.50, 942.52 885.71, 896.56 882.44 C 850.61 879.17, 803.99 868.80, 762.36 854.85 C 720.73 840.90, 680.07 821.72, 646.80 798.73 C 613.53 775.75, 581.34 748.23, 562.75 716.96 C 544.17 685.68, 540.01 646.76, 535.29 611.08 C 530.58 575.40, 527.11 539.18, 534.46 502.86 C 541.81 466.55, 557.76 427.02, 579.40 393.20 C 601.04 359.39, 630.53 328.82, 664.32 299.99 C 698.10 271.17, 739.80 237.81, 782.12 220.26 C 824.44 202.72, 873.24 197.89, 918.24 194.72 C 963.24 191.56, 1010.85 194.51, 1052.12 201.26 C 1093.39 208.01, 1128.85 219.71, 1165.83 235.23 C 1202.82 250.75, 1241.81 273.03, 1274.04 294.37 C 1306.27 315.72, 1335.57 336.41, 1359.19 363.31 C 1382.81 390.22, 1400.47 422.17, 1415.76 455.83 Z" transform="" fill="none" stroke="url(#gradMain)" stroke-width="117.5" stroke-linecap="round" stroke-linejoin="round" opacity="0.045"/>
<path d="M 1415.76 455.83 C 1431.06 489.49, 1451.16 528.01, 1450.98 565.27 C 1450.79 602.53, 1437.10 644.02, 1414.66 679.39 C 1392.22 714.75, 1354.24 748.67, 1316.36 777.47 C 1278.48 806.27, 1233.75 836.03, 1187.37 852.20 C 1141.00 868.36, 1086.56 869.42, 1038.09 874.46 C 989.62 879.50, 942.52 885.71, 896.56 882.44 C 850.61 879.17, 803.99 868.80, 762.36 854.85 C 720.73 840.90, 680.07 821.72, 646.80 798.73 C 613.53 775.75, 581.34 748.23, 562.75 716.96 C 544.17 685.68, 540.01 646.76, 535.29 611.08 C 530.58 575.40, 527.11 539.18, 534.46 502.86 C 541.81 466.55, 557.76 427.02, 579.40 393.20 C 601.04 359.39, 630.53 328.82, 664.32 299.99 C 698.10 271.17, 739.80 237.81, 782.12 220.26 C 824.44 202.72, 873.24 197.89, 918.24 194.72 C 963.24 191.56, 1010.85 194.51, 1052.12 201.26 C 1093.39 208.01, 1128.85 219.71, 1165.83 235.23 C 1202.82 250.75, 1241.81 273.03, 1274.04 294.37 C 1306.27 315.72, 1335.57 336.41, 1359.19 363.31 C 1382.81 390.22, 1400.47 422.17, 1415.76 455.83 Z" transform="" fill="none" stroke="url(#gradMain)" stroke-width="94.0" stroke-linecap="round" stroke-linejoin="round" opacity="0.069"/>
<path d="M 1415.76 455.83 C 1431.06 489.49, 1451.16 528.01, 1450.98 565.27 C 1450.79 602.53, 1437.10 644.02, 1414.66 679.39 C 1392.22 714.75, 1354.24 748.67, 1316.36 777.47 C 1278.48 806.27, 1233.75 836.03, 1187.37 852.20 C 1141.00 868.36, 1086.56 869.42, 1038.09 874.46 C 989.62 879.50, 942.52 885.71, 896.56 882.44 C 850.61 879.17, 803.99 868.80, 762.36 854.85 C 720.73 840.90, 680.07 821.72, 646.80 798.73 C 613.53 775.75, 581.34 748.23, 562.75 716.96 C 544.17 685.68, 540.01 646.76, 535.29 611.08 C 530.58 575.40, 527.11 539.18, 534.46 502.86 C 541.81 466.55, 557.76 427.02, 579.40 393.20 C 601.04 359.39, 630.53 328.82, 664.32 299.99 C 698.10 271.17, 739.80 237.81, 782.12 220.26 C 824.44 202.72, 873.24 197.89, 918.24 194.72 C 963.24 191.56, 1010.85 194.51, 1052.12 201.26 C 1093.39 208.01, 1128.85 219.71, 1165.83 235.23 C 1202.82 250.75, 1241.81 273.03, 1274.04 294.37 C 1306.27 315.72, 1335.57 336.41, 1359.19 363.31 C 1382.81 390.22, 1400.47 422.17, 1415.76 455.83 Z" transform="" fill="none" stroke="url(#gradMain)" stroke-width="67.7" stroke-linecap="round" stroke-linejoin="round" opacity="0.051"/>
<path d="M 1415.76 455.83 C 1431.06 489.49, 1451.16 528.01, 1450.98 565.27 C 1450.79 602.53, 1437.10 644.02, 1414.66 679.39 C 1392.22 714.75, 1354.24 748.67, 1316.36 777.47 C 1278.48 806.27, 1233.75 836.03, 1187.37 852.20 C 1141.00 868.36, 1086.56 869.42, 1038.09 874.46 C 989.62 879.50, 942.52 885.71, 896.56 882.44 C 850.61 879.17, 803.99 868.80, 762.36 854.85 C 720.73 840.90, 680.07 821.72, 646.80 798.73 C 613.53 775.75, 581.34 748.23, 562.75 716.96 C 544.17 685.68, 540.01 646.76, 535.29 611.08 C 530.58 575.40, 527.11 539.18, 534.46 502.86 C 541.81 466.55, 557.76 427.02, 579.40 393.20 C 601.04 359.39, 630.53 328.82, 664.32 299.99 C 698.10 271.17, 739.80 237.81, 782.12 220.26 C 824.44 202.72, 873.24 197.89, 918.24 194.72 C 963.24 191.56, 1010.85 194.51, 1052.12 201.26 C 1093.39 208.01, 1128.85 219.71, 1165.83 235.23 C 1202.82 250.75, 1241.81 273.03, 1274.04 294.37 C 1306.27 315.72, 1335.57 336.41, 1359.19 363.31 C 1382.81 390.22, 1400.47 422.17, 1415.76 455.83 Z" transform="translate(4.00 2.00)" fill="none" stroke="url(#gradMain)" stroke-width="145.7" stroke-linecap="round" stroke-linejoin="round" opacity="0.030"/>
<path d="M 1415.76 455.83 C 1431.06 489.49, 1451.16 528.01, 1450.98 565.27 C 1450.79 602.53, 1437.10 644.02, 1414.66 679.39 C 1392.22 714.75, 1354.24 748.67, 1316.36 777.47 C 1278.48 806.27, 1233.75 836.03, 1187.37 852.20 C 1141.00 868.36, 1086.56 869.42, 1038.09 874.46 C 989.62 879.50, 942.52 885.71, 896.56 882.44 C 850.61 879.17, 803.99 868.80, 762.36 854.85 C 720.73 840.90, 680.07 821.72, 646.80 798.73 C 613.53 775.75, 581.34 748.23, 562.75 716.96 C 544.17 685.68, 540.01 646.76, 535.29 611.08 C 530.58 575.40, 527.11 539.18, 534.46 502.86 C 541.81 466.55, 557.76 427.02, 579.40 393.20 C 601.04 359.39, 630.53 328.82, 664.32 299.99 C 698.10 271.17, 739.80 237.81, 782.12 220.26 C 824.44 202.72, 873.24 197.89, 918.24 194.72 C 963.24 191.56, 1010.85 194.51, 1052.12 201.26 C 1093.39 208.01, 1128.85 219.71, 1165.83 235.23 C 1202.82 250.75, 1241.81 273.03, 1274.04 294.37 C 1306.27 315.72, 1335.57 336.41, 1359.19 363.31 C 1382.81 390.22, 1400.47 422.17, 1415.76 455.83 Z" transform="translate(4.00 2.00)" fill="none" stroke="url(#gradMain)" stroke-width="117.5" stroke-linecap="round" stroke-linejoin="round" opacity="0.045"/>
<path d="M 1415.76 455.83 C 1431.06 489.49, 1451.16 528.01, 1450.98 565.27 C 1450.79 602.53, 1437.10 644.02, 1414.66 679.39 C 1392.22 714.75, 1354.24 748.67, 1316.36 777.47 C 1278.48 806.27, 1233.75 836.03, 1187.37 852.20 C 1141.00 868.36, 1086.56 869.42, 1038.09 874.46 C 989.62 879.50, 942.52 885.71, 896.56 882.44 C 850.61 879.17, 803.99 868.80, 762.36 854.85 C 720.73 840.90, 680.07 821.72, 646.80 798.73 C 613.53 775.75, 581.34 748.23, 562.75 716.96 C 544.17 685.68, 540.01 646.76, 535.29 611.08 C 530.58 575.40, 527.11 539.18, 534.46 502.86 C 541.81 466.55, 557.76 427.02, 579.40 393.20 C 601.04 359.39, 630.53 328.82, 664.32 299.99 C 698.10 271.17, 739.80 237.81, 782.12 220.26 C 824.44 202.72, 873.24 197.89, 918.24 194.72 C 963.24 191.56, 1010.85 194.51, 1052.12 201.26 C 1093.39 208.01, 1128.85 219.71, 1165.83 235.23 C 1202.82 250.75, 1241.81 273.03, 1274.04 294.37 C 1306.27 315.72, 1335.57 336.41, 1359.19 363.31 C 1382.81 390.22, 1400.47 422.17, 1415.76 455.83 Z" transform="translate(4.00 2.00)" fill="none" stroke="url(#gradMain)" stroke-width="94.0" stroke-linecap="round" stroke-linejoin="round" opacity="0.069"/>
<path d="M 1415.76 455.83 C 1431.06 489.49, 1451.16 528.01, 1450.98 565.27 C 1450.79 602.53, 1437.10 644.02, 1414.66 679.39 C 1392.22 714.75, 1354.24 748.67, 1316.36 777.47 C 1278.48 806.27, 1233.75 836.03, 1187.37 852.20 C 1141.00 868.36, 1086.56 869.42, 1038.09 874.46 C 989.62 879.50, 942.52 885.71, 896.56 882.44 C 850.61 879.17, 803.99 868.80, 762.36 854.85 C 720.73 840.90, 680.07 821.72, 646.80 798.73 C 613.53 775.75, 581.34 748.23, 562.75 716.96 C 544.17 685.68, 540.01 646.76, 535.29 611.08 C 530.58 575.40, 527.11 539.18, 534.46 502.86 C 541.81 466.55, 557.76 427.02, 579.40 393.20 C 601.04 359.39, 630.53 328.82, 664.32 299.99 C 698.10 271.17, 739.80 237.81, 782.12 220.26 C 824.44 202.72, 873.24 197.89, 918.24 194.72 C 963.24 191.56, 1010.85 194.51, 1052.12 201.26 C 1093.39 208.01, 1128.85 219.71, 1165.83 235.23 C 1202.82 250.75, 1241.81 273.03, 1274.04 294.37 C 1306.27 315.72, 1335.57 336.41, 1359.19 363.31 C 1382.81 390.22, 1400.47 422.17, 1415.76 455.83 Z" transform="translate(4.00 2.00)" fill="none" stroke="url(#gradMain)" stroke-width="67.7" stroke-linecap="round" stroke-linejoin="round" opacity="0.051"/>
<path d="M 1415.76 455.83 C 1431.06 489.49, 1451.16 528.01, 1450.98 565.27 C 1450.79 602.53, 1437.10 644.02, 1414.66 679.39 C 1392.22 714.75, 1354.24 748.67, 1316.36 777.47 C 1278.48 806.27, 1233.75 836.03, 1187.37 852.20 C 1141.00 868.36, 1086.56 869.42, 1038.09 874.46 C 989.62 879.50, 942.52 885.71, 896.56 882.44 C 850.61 879.17, 803.99 868.80, 762.36 854.85 C 720.73 840.90, 680.07 821.72, 646.80 798.73 C 613.53 775.75, 581.34 748.23, 562.75 716.96 C 544.17 685.68, 540.01 646.76, 535.29 611.08 C 530.58 575.40, 527.11 539.18, 534.46 502.86 C 541.81 466.55, 557.76 427.02, 579.40 393.20 C 601.04 359.39, 630.53 328.82, 664.32 299.99 C 698.10 271.17, 739.80 237.81, 782.12 220.26 C 824.44 202.72, 873.24 197.89, 918.24 194.72 C 963.24 191.56, 1010.85 194.51, 1052.12 201.26 C 1093.39 208.01, 1128.85 219.71, 1165.83 235.23 C 1202.82 250.75, 1241.81 273.03, 1274.04 294.37 C 1306.27 315.72, 1335.57 336.41, 1359.19 363.31 C 1382.81 390.22, 1400.47 422.17, 1415.76 455.83 Z" transform="translate(-3.00 1.10)" fill="none" stroke="url(#gradMain)" stroke-width="145.7" stroke-linecap="round" stroke-linejoin="round" opacity="0.030"/>
<path d="M 1415.76 455.83 C 1431.06 489.49, 1451.16 528.01, 1450.98 565.27 C 1450.79 602.53, 1437.10 644.02, 1414.66 679.39 C 1392.22 714.75, 1354.24 748.67, 1316.36 777.47 C 1278.48 806.27, 1233.75 836.03, 1187.37 852.20 C 1141.00 868.36, 1086.56 869.42, 1038.09 874.46 C 989.62 879.50, 942.52 885.71, 896.56 882.44 C 850.61 879.17, 803.99 868.80, 762.36 854.85 C 720.73 840.90, 680.07 821.72, 646.80 798.73 C 613.53 775.75, 581.34 748.23, 562.75 716.96 C 544.17 685.68, 540.01 646.76, 535.29 611.08 C 530.58 575.40, 527.11 539.18, 534.46 502.86 C 541.81 466.55, 557.76 427.02, 579.40 393.20 C 601.04 359.39, 630.53 328.82, 664.32 299.99 C 698.10 271.17, 739.80 237.81, 782.12 220.26 C 824.44 202.72, 873.24 197.89, 918.24 194.72 C 963.24 191.56, 1010.85 194.51, 1052.12 201.26 C 1093.39 208.01, 1128.85 219.71, 1165.83 235.23 C 1202.82 250.75, 1241.81 273.03, 1274.04 294.37 C 1306.27 315.72, 1335.57 336.41, 1359.19 363.31 C 1382.81 390.22, 1400.47 422.17, 1415.76 455.83 Z" transform="translate(-3.00 1.10)" fill="none" stroke="url(#gradMain)" stroke-width="117.5" stroke-linecap="round" stroke-linejoin="round" opacity="0.045"/>
<path d="M 1415.76 455.83 C 1431.06 489.49, 1451.16 528.01, 1450.98 565.27 C 1450.79 602.53, 1437.10 644.02, 1414.66 679.39 C 1392.22 714.75, 1354.24 748.67, 1316.36 777.47 C 1278.48 806.27, 1233.75 836.03, 1187.37 852.20 C 1141.00 868.36, 1086.56 869.42, 1038.09 874.46 C 989.62 879.50, 942.52 885.71, 896.56 882.44 C 850.61 879.17, 803.99 868.80, 762.36 854.85 C 720.73 840.90, 680.07 821.72, 646.80 798.73 C 613.53 775.75, 581.34 748.23, 562.75 716.96 C 544.17 685.68, 540.01 646.76, 535.29 611.08 C 530.58 575.40, 527.11 539.18, 534.46 502.86 C 541.81 466.55, 557.76 427.02, 579.40 393.20 C 601.04 359.39, 630.53 328.82, 664.32 299.99 C 698.10 271.17, 739.80 237.81, 782.12 220.26 C 824.44 202.72, 873.24 197.89, 918.24 194.72 C 963.24 191.56, 1010.85 194.51, 1052.12 201.26 C 1093.39 208.01, 1128.85 219.71, 1165.83 235.23 C 1202.82 250.75, 1241.81 273.03, 1274.04 294.37 C 1306.27 315.72, 1335.57 336.41, 1359.19 363.31 C 1382.81 390.22, 1400.47 422.17, 1415.76 455.83 Z" transform="translate(-3.00 1.10)" fill="none" stroke="url(#gradMain)" stroke-width="94.0" stroke-linecap="round" stroke-linejoin="round" opacity="0.069"/>
<path d="M 1415.76 455.83 C 1431.06 489.49, 1451.16 528.01, 1450.98 565.27 C 1450.79 602.53, 1437.10 644.02, 1414.66 679.39 C 1392.22 714.75, 1354.24 748.67, 1316.36 777.47 C 1278.48 806.27, 1233.75 836.03, 1187.37 852.20 C 1141.00 868.36, 1086.56 869.42, 1038.09 874.46 C 989.62 879.50, 942.52 885.71, 896.56 882.44 C 850.61 879.17, 803.99 868.80, 762.36 854.85 C 720.73 840.90, 680.07 821.72, 646.80 798.73 C 613.53 775.75, 581.34 748.23, 562.75 716.96 C 544.17 685.68, 540.01 646.76, 535.29 611.08 C 530.58 575.40, 527.11 539.18, 534.46 502.86 C 541.81 466.55, 557.76 427.02, 579.40 393.20 C 601.04 359.39, 630.53 328.82, 664.32 299.99 C 698.10 271.17, 739.80 237.81, 782.12 220.26 C 824.44 202.72, 873.24 197.89, 918.24 194.72 C 963.24 191.56, 1010.85 194.51, 1052.12 201.26 C 1093.39 208.01, 1128.85 219.71, 1165.83 235.23 C 1202.82 250.75, 1241.81 273.03, 1274.04 294.37 C 1306.27 315.72, 1335.57 336.41, 1359.19 363.31 C 1382.81 390.22, 1400.47 422.17, 1415.76 455.83 Z" transform="translate(-3.00 1.10)" fill="none" stroke="url(#gradMain)" stroke-width="67.7" stroke-linecap="round" stroke-linejoin="round" opacity="0.051"/>
<path d="M 1328.60 473.76 C 1339.36 500.75, 1346.76 532.18, 1344.40 562.08 C 1342.04 591.98, 1331.05 625.01, 1314.43 653.14 C 1297.82 681.27, 1273.14 708.13, 1244.71 730.85 C 1216.27 753.57, 1180.19 776.60, 1143.80 789.45 C 1107.42 802.31, 1064.46 803.76, 1026.37 807.98 C 988.28 812.20, 951.14 818.64, 915.25 814.78 C 879.37 810.93, 842.64 796.59, 811.08 784.85 C 779.52 773.11, 751.69 761.73, 725.88 744.34 C 700.08 726.96, 671.46 705.25, 656.25 680.54 C 641.04 655.84, 638.60 624.41, 634.63 596.12 C 630.67 567.84, 626.58 539.06, 632.48 510.85 C 638.37 482.64, 652.56 453.01, 669.99 426.87 C 687.42 400.73, 710.86 375.86, 737.08 354.01 C 763.31 332.16, 794.86 309.31, 827.34 295.74 C 859.83 282.18, 896.90 277.42, 931.97 272.63 C 967.04 267.85, 1005.19 261.77, 1037.76 267.02 C 1070.33 272.26, 1099.20 290.85, 1127.40 304.12 C 1155.59 317.39, 1181.52 330.63, 1206.93 346.64 C 1232.34 362.64, 1259.59 378.95, 1279.87 400.14 C 1300.15 421.33, 1317.84 446.77, 1328.60 473.76 Z" transform="" fill="none" stroke="url(#gradBlue)" stroke-width="127.1" stroke-linecap="round" stroke-linejoin="round" opacity="0.028"/>
<path d="M 1328.60 473.76 C 1339.36 500.75, 1346.76 532.18, 1344.40 562.08 C 1342.04 591.98, 1331.05 625.01, 1314.43 653.14 C 1297.82 681.27, 1273.14 708.13, 1244.71 730.85 C 1216.27 753.57, 1180.19 776.60, 1143.80 789.45 C 1107.42 802.31, 1064.46 803.76, 1026.37 807.98 C 988.28 812.20, 951.14 818.64, 915.25 814.78 C 879.37 810.93, 842.64 796.59, 811.08 784.85 C 779.52 773.11, 751.69 761.73, 725.88 744.34 C 700.08 726.96, 671.46 705.25, 656.25 680.54 C 641.04 655.84, 638.60 624.41, 634.63 596.12 C 630.67 567.84, 626.58 539.06, 632.48 510.85 C 638.37 482.64, 652.56 453.01, 669.99 426.87 C 687.42 400.73, 710.86 375.86, 737.08 354.01 C 763.31 332.16, 794.86 309.31, 827.34 295.74 C 859.83 282.18, 896.90 277.42, 931.97 272.63 C 967.04 267.85, 1005.19 261.77, 1037.76 267.02 C 1070.33 272.26, 1099.20 290.85, 1127.40 304.12 C 1155.59 317.39, 1181.52 330.63, 1206.93 346.64 C 1232.34 362.64, 1259.59 378.95, 1279.87 400.14 C 1300.15 421.33, 1317.84 446.77, 1328.60 473.76 Z" transform="" fill="none" stroke="url(#gradBlue)" stroke-width="102.5" stroke-linecap="round" stroke-linejoin="round" opacity="0.042"/>
<path d="M 1328.60 473.76 C 1339.36 500.75, 1346.76 532.18, 1344.40 562.08 C 1342.04 591.98, 1331.05 625.01, 1314.43 653.14 C 1297.82 681.27, 1273.14 708.13, 1244.71 730.85 C 1216.27 753.57, 1180.19 776.60, 1143.80 789.45 C 1107.42 802.31, 1064.46 803.76, 1026.37 807.98 C 988.28 812.20, 951.14 818.64, 915.25 814.78 C 879.37 810.93, 842.64 796.59, 811.08 784.85 C 779.52 773.11, 751.69 761.73, 725.88 744.34 C 700.08 726.96, 671.46 705.25, 656.25 680.54 C 641.04 655.84, 638.60 624.41, 634.63 596.12 C 630.67 567.84, 626.58 539.06, 632.48 510.85 C 638.37 482.64, 652.56 453.01, 669.99 426.87 C 687.42 400.73, 710.86 375.86, 737.08 354.01 C 763.31 332.16, 794.86 309.31, 827.34 295.74 C 859.83 282.18, 896.90 277.42, 931.97 272.63 C 967.04 267.85, 1005.19 261.77, 1037.76 267.02 C 1070.33 272.26, 1099.20 290.85, 1127.40 304.12 C 1155.59 317.39, 1181.52 330.63, 1206.93 346.64 C 1232.34 362.64, 1259.59 378.95, 1279.87 400.14 C 1300.15 421.33, 1317.84 446.77, 1328.60 473.76 Z" transform="" fill="none" stroke="url(#gradBlue)" stroke-width="82.0" stroke-linecap="round" stroke-linejoin="round" opacity="0.064"/>
<path d="M 1328.60 473.76 C 1339.36 500.75, 1346.76 532.18, 1344.40 562.08 C 1342.04 591.98, 1331.05 625.01, 1314.43 653.14 C 1297.82 681.27, 1273.14 708.13, 1244.71 730.85 C 1216.27 753.57, 1180.19 776.60, 1143.80 789.45 C 1107.42 802.31, 1064.46 803.76, 1026.37 807.98 C 988.28 812.20, 951.14 818.64, 915.25 814.78 C 879.37 810.93, 842.64 796.59, 811.08 784.85 C 779.52 773.11, 751.69 761.73, 725.88 744.34 C 700.08 726.96, 671.46 705.25, 656.25 680.54 C 641.04 655.84, 638.60 624.41, 634.63 596.12 C 630.67 567.84, 626.58 539.06, 632.48 510.85 C 638.37 482.64, 652.56 453.01, 669.99 426.87 C 687.42 400.73, 710.86 375.86, 737.08 354.01 C 763.31 332.16, 794.86 309.31, 827.34 295.74 C 859.83 282.18, 896.90 277.42, 931.97 272.63 C 967.04 267.85, 1005.19 261.77, 1037.76 267.02 C 1070.33 272.26, 1099.20 290.85, 1127.40 304.12 C 1155.59 317.39, 1181.52 330.63, 1206.93 346.64 C 1232.34 362.64, 1259.59 378.95, 1279.87 400.14 C 1300.15 421.33, 1317.84 446.77, 1328.60 473.76 Z" transform="" fill="none" stroke="url(#gradBlue)" stroke-width="59.0" stroke-linecap="round" stroke-linejoin="round" opacity="0.048"/>
<path d="M 1328.60 473.76 C 1339.36 500.75, 1346.76 532.18, 1344.40 562.08 C 1342.04 591.98, 1331.05 625.01, 1314.43 653.14 C 1297.82 681.27, 1273.14 708.13, 1244.71 730.85 C 1216.27 753.57, 1180.19 776.60, 1143.80 789.45 C 1107.42 802.31, 1064.46 803.76, 1026.37 807.98 C 988.28 812.20, 951.14 818.64, 915.25 814.78 C 879.37 810.93, 842.64 796.59, 811.08 784.85 C 779.52 773.11, 751.69 761.73, 725.88 744.34 C 700.08 726.96, 671.46 705.25, 656.25 680.54 C 641.04 655.84, 638.60 624.41, 634.63 596.12 C 630.67 567.84, 626.58 539.06, 632.48 510.85 C 638.37 482.64, 652.56 453.01, 669.99 426.87 C 687.42 400.73, 710.86 375.86, 737.08 354.01 C 763.31 332.16, 794.86 309.31, 827.34 295.74 C 859.83 282.18, 896.90 277.42, 931.97 272.63 C 967.04 267.85, 1005.19 261.77, 1037.76 267.02 C 1070.33 272.26, 1099.20 290.85, 1127.40 304.12 C 1155.59 317.39, 1181.52 330.63, 1206.93 346.64 C 1232.34 362.64, 1259.59 378.95, 1279.87 400.14 C 1300.15 421.33, 1317.84 446.77, 1328.60 473.76 Z" transform="translate(4.00 2.00)" fill="none" stroke="url(#gradBlue)" stroke-width="127.1" stroke-linecap="round" stroke-linejoin="round" opacity="0.028"/>
<path d="M 1328.60 473.76 C 1339.36 500.75, 1346.76 532.18, 1344.40 562.08 C 1342.04 591.98, 1331.05 625.01, 1314.43 653.14 C 1297.82 681.27, 1273.14 708.13, 1244.71 730.85 C 1216.27 753.57, 1180.19 776.60, 1143.80 789.45 C 1107.42 802.31, 1064.46 803.76, 1026.37 807.98 C 988.28 812.20, 951.14 818.64, 915.25 814.78 C 879.37 810.93, 842.64 796.59, 811.08 784.85 C 779.52 773.11, 751.69 761.73, 725.88 744.34 C 700.08 726.96, 671.46 705.25, 656.25 680.54 C 641.04 655.84, 638.60 624.41, 634.63 596.12 C 630.67 567.84, 626.58 539.06, 632.48 510.85 C 638.37 482.64, 652.56 453.01, 669.99 426.87 C 687.42 400.73, 710.86 375.86, 737.08 354.01 C 763.31 332.16, 794.86 309.31, 827.34 295.74 C 859.83 282.18, 896.90 277.42, 931.97 272.63 C 967.04 267.85, 1005.19 261.77, 1037.76 267.02 C 1070.33 272.26, 1099.20 290.85, 1127.40 304.12 C 1155.59 317.39, 1181.52 330.63, 1206.93 346.64 C 1232.34 362.64, 1259.59 378.95, 1279.87 400.14 C 1300.15 421.33, 1317.84 446.77, 1328.60 473.76 Z" transform="translate(4.00 2.00)" fill="none" stroke="url(#gradBlue)" stroke-width="102.5" stroke-linecap="round" stroke-linejoin="round" opacity="0.042"/>
<path d="M 1328.60 473.76 C 1339.36 500.75, 1346.76 532.18, 1344.40 562.08 C 1342.04 591.98, 1331.05 625.01, 1314.43 653.14 C 1297.82 681.27, 1273.14 708.13, 1244.71 730.85 C 1216.27 753.57, 1180.19 776.60, 1143.80 789.45 C 1107.42 802.31, 1064.46 803.76, 1026.37 807.98 C 988.28 812.20, 951.14 818.64, 915.25 814.78 C 879.37 810.93, 842.64 796.59, 811.08 784.85 C 779.52 773.11, 751.69 761.73, 725.88 744.34 C 700.08 726.96, 671.46 705.25, 656.25 680.54 C 641.04 655.84, 638.60 624.41, 634.63 596.12 C 630.67 567.84, 626.58 539.06, 632.48 510.85 C 638.37 482.64, 652.56 453.01, 669.99 426.87 C 687.42 400.73, 710.86 375.86, 737.08 354.01 C 763.31 332.16, 794.86 309.31, 827.34 295.74 C 859.83 282.18, 896.90 277.42, 931.97 272.63 C 967.04 267.85, 1005.19 261.77, 1037.76 267.02 C 1070.33 272.26, 1099.20 290.85, 1127.40 304.12 C 1155.59 317.39, 1181.52 330.63, 1206.93 346.64 C 1232.34 362.64, 1259.59 378.95, 1279.87 400.14 C 1300.15 421.33, 1317.84 446.77, 1328.60 473.76 Z" transform="translate(4.00 2.00)" fill="none" stroke="url(#gradBlue)" stroke-width="82.0" stroke-linecap="round" stroke-linejoin="round" opacity="0.064"/>
<path d="M 1328.60 473.76 C 1339.36 500.75, 1346.76 532.18, 1344.40 562.08 C 1342.04 591.98, 1331.05 625.01, 1314.43 653.14 C 1297.82 681.27, 1273.14 708.13, 1244.71 730.85 C 1216.27 753.57, 1180.19 776.60, 1143.80 789.45 C 1107.42 802.31, 1064.46 803.76, 1026.37 807.98 C 988.28 812.20, 951.14 818.64, 915.25 814.78 C 879.37 810.93, 842.64 796.59, 811.08 784.85 C 779.52 773.11, 751.69 761.73, 725.88 744.34 C 700.08 726.96, 671.46 705.25, 656.25 680.54 C 641.04 655.84, 638.60 624.41, 634.63 596.12 C 630.67 567.84, 626.58 539.06, 632.48 510.85 C 638.37 482.64, 652.56 453.01, 669.99 426.87 C 687.42 400.73, 710.86 375.86, 737.08 354.01 C 763.31 332.16, 794.86 309.31, 827.34 295.74 C 859.83 282.18, 896.90 277.42, 931.97 272.63 C 967.04 267.85, 1005.19 261.77, 1037.76 267.02 C 1070.33 272.26, 1099.20 290.85, 1127.40 304.12 C 1155.59 317.39, 1181.52 330.63, 1206.93 346.64 C 1232.34 362.64, 1259.59 378.95, 1279.87 400.14 C 1300.15 421.33, 1317.84 446.77, 1328.60 473.76 Z" transform="translate(4.00 2.00)" fill="none" stroke="url(#gradBlue)" stroke-width="59.0" stroke-linecap="round" stroke-linejoin="round" opacity="0.048"/>
<path d="M 1328.60 473.76 C 1339.36 500.75, 1346.76 532.18, 1344.40 562.08 C 1342.04 591.98, 1331.05 625.01, 1314.43 653.14 C 1297.82 681.27, 1273.14 708.13, 1244.71 730.85 C 1216.27 753.57, 1180.19 776.60, 1143.80 789.45 C 1107.42 802.31, 1064.46 803.76, 1026.37 807.98 C 988.28 812.20, 951.14 818.64, 915.25 814.78 C 879.37 810.93, 842.64 796.59, 811.08 784.85 C 779.52 773.11, 751.69 761.73, 725.88 744.34 C 700.08 726.96, 671.46 705.25, 656.25 680.54 C 641.04 655.84, 638.60 624.41, 634.63 596.12 C 630.67 567.84, 626.58 539.06, 632.48 510.85 C 638.37 482.64, 652.56 453.01, 669.99 426.87 C 687.42 400.73, 710.86 375.86, 737.08 354.01 C 763.31 332.16, 794.86 309.31, 827.34 295.74 C 859.83 282.18, 896.90 277.42, 931.97 272.63 C 967.04 267.85, 1005.19 261.77, 1037.76 267.02 C 1070.33 272.26, 1099.20 290.85, 1127.40 304.12 C 1155.59 317.39, 1181.52 330.63, 1206.93 346.64 C 1232.34 362.64, 1259.59 378.95, 1279.87 400.14 C 1300.15 421.33, 1317.84 446.77, 1328.60 473.76 Z" transform="translate(-3.00 1.10)" fill="none" stroke="url(#gradBlue)" stroke-width="127.1" stroke-linecap="round" stroke-linejoin="round" opacity="0.028"/>
<path d="M 1328.60 473.76 C 1339.36 500.75, 1346.76 532.18, 1344.40 562.08 C 1342.04 591.98, 1331.05 625.01, 1314.43 653.14 C 1297.82 681.27, 1273.14 708.13, 1244.71 730.85 C 1216.27 753.57, 1180.19 776.60, 1143.80 789.45 C 1107.42 802.31, 1064.46 803.76, 1026.37 807.98 C 988.28 812.20, 951.14 818.64, 915.25 814.78 C 879.37 810.93, 842.64 796.59, 811.08 784.85 C 779.52 773.11, 751.69 761.73, 725.88 744.34 C 700.08 726.96, 671.46 705.25, 656.25 680.54 C 641.04 655.84, 638.60 624.41, 634.63 596.12 C 630.67 567.84, 626.58 539.06, 632.48 510.85 C 638.37 482.64, 652.56 453.01, 669.99 426.87 C 687.42 400.73, 710.86 375.86, 737.08 354.01 C 763.31 332.16, 794.86 309.31, 827.34 295.74 C 859.83 282.18, 896.90 277.42, 931.97 272.63 C 967.04 267.85, 1005.19 261.77, 1037.76 267.02 C 1070.33 272.26, 1099.20 290.85, 1127.40 304.12 C 1155.59 317.39, 1181.52 330.63, 1206.93 346.64 C 1232.34 362.64, 1259.59 378.95, 1279.87 400.14 C 1300.15 421.33, 1317.84 446.77, 1328.60 473.76 Z" transform="translate(-3.00 1.10)" fill="none" stroke="url(#gradBlue)" stroke-width="102.5" stroke-linecap="round" stroke-linejoin="round" opacity="0.042"/>
<path d="M 1328.60 473.76 C 1339.36 500.75, 1346.76 532.18, 1344.40 562.08 C 1342.04 591.98, 1331.05 625.01, 1314.43 653.14 C 1297.82 681.27, 1273.14 708.13, 1244.71 730.85 C 1216.27 753.57, 1180.19 776.60, 1143.80 789.45 C 1107.42 802.31, 1064.46 803.76, 1026.37 807.98 C 988.28 812.20, 951.14 818.64, 915.25 814.78 C 879.37 810.93, 842.64 796.59, 811.08 784.85 C 779.52 773.11, 751.69 761.73, 725.88 744.34 C 700.08 726.96, 671.46 705.25, 656.25 680.54 C 641.04 655.84, 638.60 624.41, 634.63 596.12 C 630.67 567.84, 626.58 539.06, 632.48 510.85 C 638.37 482.64, 652.56 453.01, 669.99 426.87 C 687.42 400.73, 710.86 375.86, 737.08 354.01 C 763.31 332.16, 794.86 309.31, 827.34 295.74 C 859.83 282.18, 896.90 277.42, 931.97 272.63 C 967.04 267.85, 1005.19 261.77, 1037.76 267.02 C 1070.33 272.26, 1099.20 290.85, 1127.40 304.12 C 1155.59 317.39, 1181.52 330.63, 1206.93 346.64 C 1232.34 362.64, 1259.59 378.95, 1279.87 400.14 C 1300.15 421.33, 1317.84 446.77, 1328.60 473.76 Z" transform="translate(-3.00 1.10)" fill="none" stroke="url(#gradBlue)" stroke-width="82.0" stroke-linecap="round" stroke-linejoin="round" opacity="0.064"/>
<path d="M 1328.60 473.76 C 1339.36 500.75, 1346.76 532.18, 1344.40 562.08 C 1342.04 591.98, 1331.05 625.01, 1314.43 653.14 C 1297.82 681.27, 1273.14 708.13, 1244.71 730.85 C 1216.27 753.57, 1180.19 776.60, 1143.80 789.45 C 1107.42 802.31, 1064.46 803.76, 1026.37 807.98 C 988.28 812.20, 951.14 818.64, 915.25 814.78 C 879.37 810.93, 842.64 796.59, 811.08 784.85 C 779.52 773.11, 751.69 761.73, 725.88 744.34 C 700.08 726.96, 671.46 705.25, 656.25 680.54 C 641.04 655.84, 638.60 624.41, 634.63 596.12 C 630.67 567.84, 626.58 539.06, 632.48 510.85 C 638.37 482.64, 652.56 453.01, 669.99 426.87 C 687.42 400.73, 710.86 375.86, 737.08 354.01 C 763.31 332.16, 794.86 309.31, 827.34 295.74 C 859.83 282.18, 896.90 277.42, 931.97 272.63 C 967.04 267.85, 1005.19 261.77, 1037.76 267.02 C 1070.33 272.26, 1099.20 290.85, 1127.40 304.12 C 1155.59 317.39, 1181.52 330.63, 1206.93 346.64 C 1232.34 362.64, 1259.59 378.95, 1279.87 400.14 C 1300.15 421.33, 1317.84 446.77, 1328.60 473.76 Z" transform="translate(-3.00 1.10)" fill="none" stroke="url(#gradBlue)" stroke-width="59.0" stroke-linecap="round" stroke-linejoin="round" opacity="0.048"/></g>
</svg>
