<?xml version="1.0" encoding="UTF-8"?>
<svg xmlns="http://www.w3.org/2000/svg" width="1920" height="1080" viewBox="0 0 1920 1080" fill="none">
  <defs>
    
    <linearGradient id="gradMain" x1="12%" y1="14%" x2="84%" y2="88%">
      <stop offset="0%" stop-color="#F3BCD3" stop-opacity="0.95"/>
      <stop offset="48%" stop-color="#F7EEE5" stop-opacity="0.60"/>
      <stop offset="100%" stop-color="#D4DCF8" stop-opacity="0.95"/>
    </linearGradient>
    <linearGradient id="gradPink" x1="8%" y1="10%" x2="70%" y2="72%">
      <stop offset="0%" stop-color="#F4BDD4" stop-opacity="1"/>
      <stop offset="100%" stop-color="#FAF5EF" stop-opacity="0.20"/>
    </linearGradient>
    <linearGradient id="gradBlue" x1="32%" y1="22%" x2="82%" y2="90%">
      <stop offset="0%" stop-color="#EEF1FC" stop-opacity="0.20"/>
      <stop offset="100%" stop-color="#D4DCF8" stop-opacity="1"/>
    </linearGradient>
    <radialGradient id="haloPink" cx="50%" cy="50%" r="50%">
      <stop offset="0%" stop-color="#F5C6DA" stop-opacity="0.34"/>
      <stop offset="100%" stop-color="#F5C6DA" stop-opacity="0"/>
    </radialGradient>
    <radialGradient id="haloBlue" cx="50%" cy="50%" r="50%">
      <stop offset="0%" stop-color="#D7DEF8" stop-opacity="0.36"/>
      <stop offset="100%" stop-color="#D7DEF8" stop-opacity="0"/>
    </radialGradient>
    <radialGradient id="haloCream" cx="50%" cy="50%" r="50%">
      <stop offset="0%" stop-color="#F7EFE4" stop-opacity="0.26"/>
      <stop offset="100%" stop-color="#F7EFE4" stop-opacity="0"/>
    </radialGradient>
    <radialGradient id="centerWash" cx="50%" cy="50%" r="54%">
      <stop offset="0%" stop-color="#F6EFF2" stop-opacity="0.24"/>
      <stop offset="60%" stop-color="#FFFFFF" stop-opacity="0.05"/>
      <stop offset="100%" stop-color="#FFFFFF" stop-opacity="0"/>
    </radialGradient>
    
  </defs>
  <ellipse cx="960.0" cy="540.0" rx="499.2" ry="280.8" fill="url(#centerWash)" opacity="0.8"/>
  <g><ellipse cx="930.0" cy="260.0" rx="340.0" ry="190.0" fill="url(#haloPink)" opacity="0.680"/>
<ellipse cx="1190.0" cy="760.0" rx="400.0" ry="260.0" fill="url(#haloBlue)" opacity="0.700"/></g>
  <g><path d="M 1630.38 419.37 C 1651.51 463.76, 1668.41 517.86, 1666.75 568.65 C 1665.09 619.44, 1649.36 675.42, 1620.41 724.11 C 1591.46 772.80, 1543.41 822.48, 1493.06 860.78 C 1442.72 899.09, 1380.89 933.89, 1318.34 953.93 C 1255.79 973.98, 1183.60 975.07, 1117.77 981.06 C 1051.95 987.05, 983.67 995.36, 923.39 989.88 C 863.10 984.39, 809.63 966.85, 756.06 948.15 C 702.50 929.45, 645.89 908.17, 601.99 877.69 C 558.09 847.21, 520.23 806.57, 492.66 765.27 C 465.08 723.97, 442.65 677.34, 436.54 629.88 C 430.42 582.42, 444.70 529.81, 455.95 480.50 C 467.20 431.19, 476.96 379.18, 504.04 334.02 C 531.12 288.86, 573.85 247.34, 618.42 209.54 C 663.00 171.75, 715.16 131.11, 771.50 107.23 C 827.84 83.34, 895.47 69.25, 956.46 66.23 C 1017.45 63.20, 1080.44 80.45, 1137.46 89.09 C 1194.49 97.73, 1248.31 99.00, 1298.63 118.06 C 1348.96 137.12, 1399.20 172.74, 1439.41 203.45 C 1479.63 234.16, 1508.10 266.32, 1539.93 302.31 C 1571.76 338.30, 1609.24 374.98, 1630.38 419.37 Z" transform="" fill="none" stroke="url(#gradPink)" stroke-width="192.2" stroke-linecap="round" stroke-linejoin="round" opacity="0.040"/>
<path d="M 1630.38 419.37 C 1651.51 463.76, 1668.41 517.86, 1666.75 568.65 C 1665.09 619.44, 1649.36 675.42, 1620.41 724.11 C 1591.46 772.80, 1543.41 822.48, 1493.06 860.78 C 1442.72 899.09, 1380.89 933.89, 1318.34 953.93 C 1255.79 973.98, 1183.60 975.07, 1117.77 981.06 C 1051.95 987.05, 983.67 995.36, 923.39 989.88 C 863.10 984.39, 809.63 966.85, 756.06 948.15 C 702.50 929.45, 645.89 908.17, 601.99 877.69 C 558.09 847.21, 520.23 806.57, 492.66 765.27 C 465.08 723.97, 442.65 677.34, 436.54 629.88 C 430.42 582.42, 444.70 529.81, 455.95 480.50 C 467.20 431.19, 476.96 379.18, 504.04 334.02 C 531.12 288.86, 573.85 247.34, 618.42 209.54 C 663.00 171.75, 715.16 131.11, 771.50 107.23 C 827.84 83.34, 895.47 69.25, 956.46 66.23 C 1017.45 63.20, 1080.44 80.45, 1137.46 89.09 C 1194.49 97.73, 1248.31 99.00, 1298.63 118.06 C 1348.96 137.12, 1399.20 172.74, 1439.41 203.45 C 1479.63 234.16, 1508.10 266.32, 1539.93 302.31 C 1571.76 338.30, 1609.24 374.98, 1630.38 419.37 Z" transform="" fill="none" stroke="url(#gradPink)" stroke-width="155.0" stroke-linecap="round" stroke-linejoin="round" opacity="0.060"/>
<path d="M 1630.38 419.37 C 1651.51 463.76, 1668.41 517.86, 1666.75 568.65 C 1665.09 619.44, 1649.36 675.42, 1620.41 724.11 C 1591.46 772.80, 1543.41 822.48, 1493.06 860.78 C 1442.72 899.09, 1380.89 933.89, 1318.34 953.93 C 1255.79 973.98, 1183.60 975.07, 1117.77 981.06 C 1051.95 987.05, 983.67 995.36, 923.39 989.88 C 863.10 984.39, 809.63 966.85, 756.06 948.15 C 702.50 929.45, 645.89 908.17, 601.99 877.69 C 558.09 847.21, 520.23 806.57, 492.66 765.27 C 465.08 723.97, 442.65 677.34, 436.54 629.88 C 430.42 582.42, 444.70 529.81, 455.95 480.50 C 467.20 431.19, 476.96 379.18, 504.04 334.02 C 531.12 288.86, 573.85 247.34, 618.42 209.54 C 663.00 171.75, 715.16 131.11, 771.50 107.23 C 827.84 83.34, 895.47 69.25, 956.46 66.23 C 1017.45 63.20, 1080.44 80.45, 1137.46 89.09 C 1194.49 97.73, 1248.31 99.00, 1298.63 118.06 C 1348.96 137.12, 1399.20 172.74, 1439.41 203.45 C 1479.63 234.16, 1508.10 266.32, 1539.93 302.31 C 1571.76 338.30, 1609.24 374.98, 1630.38 419.37 Z" transform="" fill="none" stroke="url(#gradPink)" stroke-width="124.0" stroke-linecap="round" stroke-linejoin="round" opacity="0.092"/>
<path d="M 1630.38 419.37 C 1651.51 463.76, 1668.41 517.86, 1666.75 568.65 C 1665.09 619.44, 1649.36 675.42, 1620.41 724.11 C 1591.46 772.80, 1543.41 822.48, 1493.06 860.78 C 1442.72 899.09, 1380.89 933.89, 1318.34 953.93 C 1255.79 973.98, 1183.60 975.07, 1117.77 981.06 C 1051.95 987.05, 983.67 995.36, 923.39 989.88 C 863.10 984.39, 809.63 966.85, 756.06 948.15 C 702.50 929.45, 645.89 908.17, 601.99 877.69 C 558.09 847.21, 520.23 806.57, 492.66 765.27 C 465.08 723.97, 442.65 677.34, 436.54 629.88 C 430.42 582.42, 444.70 529.81, 455.95 480.50 C 467.20 431.19, 476.96 379.18, 504.04 334.02 C 531.12 288.86, 573.85 247.34, 618.42 209.54 C 663.00 171.75, 715.16 131.11, 771.50 107.23 C 827.84 83.34, 895.47 69.25, 956.46 66.23 C 1017.45 63.20, 1080.44 80.45, 1137.46 89.09 C 1194.49 97.73, 1248.31 99.00, 1298.63 118.06 C 1348.96 137.12, 1399.20 172.74, 1439.41 203.45 C 1479.63 234.16, 1508.10 266.32, 1539.93 302.31 C 1571.76 338.30, 1609.24 374.98, 1630.38 419.37 Z" transform="" fill="none" stroke="url(#gradPink)" stroke-width="89.3" stroke-linecap="round" stroke-linejoin="round" opacity="0.068"/>
<path d="M 1630.38 419.37 C 1651.51 463.76, 1668.41 517.86, 1666.75 568.65 C 1665.09 619.44, 1649.36 675.42, 1620.41 724.11 C 1591.46 772.80, 1543.41 822.48, 1493.06 860.78 C 1442.72 899.09, 1380.89 933.89, 1318.34 953.93 C 1255.79 973.98, 1183.60 975.07, 1117.77 981.06 C 1051.95 987.05, 983.67 995.36, 923.39 989.88 C 863.10 984.39, 809.63 966.85, 756.06 948.15 C 702.50 929.45, 645.89 908.17, 601.99 877.69 C 558.09 847.21, 520.23 806.57, 492.66 765.27 C 465.08 723.97, 442.65 677.34, 436.54 629.88 C 430.42 582.42, 444.70 529.81, 455.95 480.50 C 467.20 431.19, 476.96 379.18, 504.04 334.02 C 531.12 288.86, 573.85 247.34, 618.42 209.54 C 663.00 171.75, 715.16 131.11, 771.50 107.23 C 827.84 83.34, 895.47 69.25, 956.46 66.23 C 1017.45 63.20, 1080.44 80.45, 1137.46 89.09 C 1194.49 97.73, 1248.31 99.00, 1298.63 118.06 C 1348.96 137.12, 1399.20 172.74, 1439.41 203.45 C 1479.63 234.16, 1508.10 266.32, 1539.93 302.31 C 1571.76 338.30, 1609.24 374.98, 1630.38 419.37 Z" transform="translate(4.00 2.00)" fill="none" stroke="url(#gradPink)" stroke-width="192.2" stroke-linecap="round" stroke-linejoin="round" opacity="0.040"/>
<path d="M 1630.38 419.37 C 1651.51 463.76, 1668.41 517.86, 1666.75 568.65 C 1665.09 619.44, 1649.36 675.42, 1620.41 724.11 C 1591.46 772.80, 1543.41 822.48, 1493.06 860.78 C 1442.72 899.09, 1380.89 933.89, 1318.34 953.93 C 1255.79 973.98, 1183.60 975.07, 1117.77 981.06 C 1051.95 987.05, 983.67 995.36, 923.39 989.88 C 863.10 984.39, 809.63 966.85, 756.06 948.15 C 702.50 929.45, 645.89 908.17, 601.99 877.69 C 558.09 847.21, 520.23 806.57, 492.66 765.27 C 465.08 723.97, 442.65 677.34, 436.54 629.88 C 430.42 582.42, 444.70 529.81, 455.95 480.50 C 467.20 431.19, 476.96 379.18, 504.04 334.02 C 531.12 288.86, 573.85 247.34, 618.42 209.54 C 663.00 171.75, 715.16 131.11, 771.50 107.23 C 827.84 83.34, 895.47 69.25, 956.46 66.23 C 1017.45 63.20, 1080.44 80.45, 1137.46 89.09 C 1194.49 97.73, 1248.31 99.00, 1298.63 118.06 C 1348.96 137.12, 1399.20 172.74, 1439.41 203.45 C 1479.63 234.16, 1508.10 266.32, 1539.93 302.31 C 1571.76 338.30, 1609.24 374.98, 1630.38 419.37 Z" transform="translate(4.00 2.00)" fill="none" stroke="url(#gradPink)" stroke-width="155.0" stroke-linecap="round" stroke-linejoin="round" opacity="0.060"/>
<path d="M 1630.38 419.37 C 1651.51 463.76, 1668.41 517.86, 1666.75 568.65 C 1665.09 619.44, 1649.36 675.42, 1620.41 724.11 C 1591.46 772.80, 1543.41 822.48, 1493.06 860.78 C 1442.72 899.09, 1380.89 933.89, 1318.34 953.93 C 1255.79 973.98, 1183.60 975.07, 1117.77 981.06 C 1051.95 987.05, 983.67 995.36, 923.39 989.88 C 863.10 984.39, 809.63 966.85, 756.06 948.15 C 702.50 929.45, 645.89 908.17, 601.99 877.69 C 558.09 847.21, 520.23 806.57, 492.66 765.27 C 465.08 723.97, 442.65 677.34, 436.54 629.88 C 430.42 582.42, 444.70 529.81, 455.95 480.50 C 467.20 431.19, 476.96 379.18, 504.04 334.02 C 531.12 288.86, 573.85 247.34, 618.42 209.54 C 663.00 171.75, 715.16 131.11, 771.50 107.23 C 827.84 83.34, 895.47 69.25, 956.46 66.23 C 1017.45 63.20, 1080.44 80.45, 1137.46 89.09 C 1194.49 97.73, 1248.31 99.00, 1298.63 118.06 C 1348.96 137.12, 1399.20 172.74, 1439.41 203.45 C 1479.63 234.16, 1508.10 266.32, 1539.93 302.31 C 1571.76 338.30, 1609.24 374.98, 1630.38 419.37 Z" transform="translate(4.00 2.00)" fill="none" stroke="url(#gradPink)" stroke-width="124.0" stroke-linecap="round" stroke-linejoin="round" opacity="0.092"/>
<path d="M 1630.38 419.37 C 1651.51 463.76, 1668.41 517.86, 1666.75 568.65 C 1665.09 619.44, 1649.36 675.42, 1620.41 724.11 C 1591.46 772.80, 1543.41 822.48, 1493.06 860.78 C 1442.72 899.09, 1380.89 933.89, 1318.34 953.93 C 1255.79 973.98, 1183.60 975.07, 1117.77 981.06 C 1051.95 987.05, 983.67 995.36, 923.39 989.88 C 863.10 984.39, 809.63 966.85, 756.06 948.15 C 702.50 929.45, 645.89 908.17, 601.99 877.69 C 558.09 847.21, 520.23 806.57, 492.66 765.27 C 465.08 723.97, 442.65 677.34, 436.54 629.88 C 430.42 582.42, 444.70 529.81, 455.95 480.50 C 467.20 431.19, 476.96 379.18, 504.04 334.02 C 531.12 288.86, 573.85 247.34, 618.42 209.54 C 663.00 171.75, 715.16 131.11, 771.50 107.23 C 827.84 83.34, 895.47 69.25, 956.46 66.23 C 1017.45 63.20, 1080.44 80.45, 1137.46 89.09 C 1194.49 97.73, 1248.31 99.00, 1298.63 118.06 C 1348.96 137.12, 1399.20 172.74, 1439.41 203.45 C 1479.63 234.16, 1508.10 266.32, 1539.93 302.31 C 1571.76 338.30, 1609.24 374.98, 1630.38 419.37 Z" transform="translate(4.00 2.00)" fill="none" stroke="url(#gradPink)" stroke-width="89.3" stroke-linecap="round" stroke-linejoin="round" opacity="0.068"/>
<path d="M 1630.38 419.37 C 1651.51 463.76, 1668.41 517.86, 1666.75 568.65 C 1665.09 619.44, 1649.36 675.42, 1620.41 724.11 C 1591.46 772.80, 1543.41 822.48, 1493.06 860.78 C 1442.72 899.09, 1380.89 933.89, 1318.34 953.93 C 1255.79 973.98, 1183.60 975.07, 1117.77 981.06 C 1051.95 987.05, 983.67 995.36, 923.39 989.88 C 863.10 984.39, 809.63 966.85, 756.06 948.15 C 702.50 929.45, 645.89 908.17, 601.99 877.69 C 558.09 847.21, 520.23 806.57, 492.66 765.27 C 465.08 723.97, 442.65 677.34, 436.54 629.88 C 430.42 582.42, 444.70 529.81, 455.95 480.50 C 467.20 431.19, 476.96 379.18, 504.04 334.02 C 531.12 288.86, 573.85 247.34, 618.42 209.54 C 663.00 171.75, 715.16 131.11, 771.50 107.23 C 827.84 83.34, 895.47 69.25, 956.46 66.23 C 1017.45 63.20, 1080.44 80.45, 1137.46 89.09 C 1194.49 97.73, 1248.31 99.00, 1298.63 118.06 C 1348.96 137.12, 1399.20 172.74, 1439.41 203.45 C 1479.63 234.16, 1508.10 266.32, 1539.93 302.31 C 1571.76 338.30, 1609.24 374.98, 1630.38 419.37 Z" transform="translate(-3.00 1.10)" fill="none" stroke="url(#gradPink)" stroke-width="192.2" stroke-linecap="round" stroke-linejoin="round" opacity="0.040"/>
<path d="M 1630.38 419.37 C 1651.51 463.76, 1668.41 517.86, 1666.75 568.65 C 1665.09 619.44, 1649.36 675.42, 1620.41 724.11 C 1591.46 772.80, 1543.41 822.48, 1493.06 860.78 C 1442.72 899.09, 1380.89 933.89, 1318.34 953.93 C 1255.79 973.98, 1183.60 975.07, 1117.77 981.06 C 1051.95 987.05, 983.67 995.36, 923.39 989.88 C 863.10 984.39, 809.63 966.85, 756.06 948.15 C 702.50 929.45, 645.89 908.17, 601.99 877.69 C 558.09 847.21, 520.23 806.57, 492.66 765.27 C 465.08 723.97, 442.65 677.34, 436.54 629.88 C 430.42 582.42, 444.70 529.81, 455.95 480.50 C 467.20 431.19, 476.96 379.18, 504.04 334.02 C 531.12 288.86, 573.85 247.34, 618.42 209.54 C 663.00 171.75, 715.16 131.11, 771.50 107.23 C 827.84 83.34, 895.47 69.25, 956.46 66.23 C 1017.45 63.20, 1080.44 80.45, 1137.46 89.09 C 1194.49 97.73, 1248.31 99.00, 1298.63 118.06 C 1348.96 137.12, 1399.20 172.74, 1439.41 203.45 C 1479.63 234.16, 1508.10 266.32, 1539.93 302.31 C 1571.76 338.30, 1609.24 374.98, 1630.38 419.37 Z" transform="translate(-3.00 1.10)" fill="none" stroke="url(#gradPink)" stroke-width="155.0" stroke-linecap="round" stroke-linejoin="round" opacity="0.060"/>
<path d="M 1630.38 419.37 C 1651.51 463.76, 1668.41 517.86, 1666.75 568.65 C 1665.09 619.44, 1649.36 675.42, 1620.41 724.11 C 1591.46 772.80, 1543.41 822.48, 1493.06 860.78 C 1442.72 899.09, 1380.89 933.89, 1318.34 953.93 C 1255.79 973.98, 1183.60 975.07, 1117.77 981.06 C 1051.95 987.05, 983.67 995.36, 923.39 989.88 C 863.10 984.39, 809.63 966.85, 756.06 948.15 C 702.50 929.45, 645.89 908.17, 601.99 877.69 C 558.09 847.21, 520.23 806.57, 492.66 765.27 C 465.08 723.97, 442.65 677.34, 436.54 629.88 C 430.42 582.42, 444.70 529.81, 455.95 480.50 C 467.20 431.19, 476.96 379.18, 504.04 334.02 C 531.12 288.86, 573.85 247.34, 618.42 209.54 C 663.00 171.75, 715.16 131.11, 771.50 107.23 C 827.84 83.34, 895.47 69.25, 956.46 66.23 C 1017.45 63.20, 1080.44 80.45, 1137.46 89.09 C 1194.49 97.73, 1248.31 99.00, 1298.63 118.06 C 1348.96 137.12, 1399.20 172.74, 1439.41 203.45 C 1479.63 234.16, 1508.10 266.32, 1539.93 302.31 C 1571.76 338.30, 1609.24 374.98, 1630.38 419.37 Z" transform="translate(-3.00 1.10)" fill="none" stroke="url(#gradPink)" stroke-width="124.0" stroke-linecap="round" stroke-linejoin="round" opacity="0.092"/>
<path d="M 1630.38 419.37 C 1651.51 463.76, 1668.41 517.86, 1666.75 568.65 C 1665.09 619.44, 1649.36 675.42, 1620.41 724.11 C 1591.46 772.80, 1543.41 822.48, 1493.06 860.78 C 1442.72 899.09, 1380.89 933.89, 1318.34 953.93 C 1255.79 973.98, 1183.60 975.07, 1117.77 981.06 C 1051.95 987.05, 983.67 995.36, 923.39 989.88 C 863.10 984.39, 809.63 966.85, 756.06 948.15 C 702.50 929.45, 645.89 908.17, 601.99 877.69 C 558.09 847.21, 520.23 806.57, 492.66 765.27 C 465.08 723.97, 442.65 677.34, 436.54 629.88 C 430.42 582.42, 444.70 529.81, 455.95 480.50 C 467.20 431.19, 476.96 379.18, 504.04 334.02 C 531.12 288.86, 573.85 247.34, 618.42 209.54 C 663.00 171.75, 715.16 131.11, 771.50 107.23 C 827.84 83.34, 895.47 69.25, 956.46 66.23 C 1017.45 63.20, 1080.44 80.45, 1137.46 89.09 C 1194.49 97.73, 1248.31 99.00, 1298.63 118.06 C 1348.96 137.12, 1399.20 172.74, 1439.41 203.45 C 1479.63 234.16, 1508.10 266.32, 1539.93 302.31 C 1571.76 338.30, 1609.24 374.98, 1630.38 419.37 Z" transform="translate(-3.00 1.10)" fill="none" stroke="url(#gradPink)" stroke-width="89.3" stroke-linecap="round" stroke-linejoin="round" opacity="0.068"/>
<path d="M 1541.37 437.20 C 1558.71 477.38, 1593.24 521.95, 1594.56 565.20 C 1595.88 608.45, 1575.60 655.23, 1549.29 696.70 C 1522.99 738.16, 1482.00 781.65, 1436.73 814.00 C 1391.46 846.34, 1332.20 870.66, 1277.67 890.77 C 1223.15 910.87, 1165.29 927.05, 1109.58 934.62 C 1053.87 942.18, 997.47 941.67, 943.43 936.15 C 889.40 930.64, 832.31 918.72, 785.37 901.52 C 738.43 884.32, 700.02 860.54, 661.81 832.94 C 623.60 805.35, 579.66 771.89, 556.11 735.94 C 532.57 699.98, 526.33 658.29, 520.53 617.20 C 514.74 576.12, 512.57 531.28, 521.33 489.43 C 530.10 447.57, 547.22 405.62, 573.13 366.06 C 599.03 326.50, 637.35 284.43, 676.76 252.05 C 716.18 219.68, 761.21 192.70, 809.60 171.81 C 857.99 150.92, 914.05 130.82, 967.12 126.70 C 1020.20 122.58, 1079.81 136.90, 1128.06 147.08 C 1176.31 157.26, 1214.06 171.00, 1256.63 187.78 C 1299.19 204.56, 1344.49 225.03, 1383.48 247.75 C 1422.47 270.47, 1464.26 292.52, 1490.57 324.10 C 1516.89 355.67, 1524.04 397.02, 1541.37 437.20 Z" transform="" fill="none" stroke="url(#gradMain)" stroke-width="179.8" stroke-linecap="round" stroke-linejoin="round" opacity="0.038"/>
<path d="M 1541.37 437.20 C 1558.71 477.38, 1593.24 521.95, 1594.56 565.20 C 1595.88 608.45, 1575.60 655.23, 1549.29 696.70 C 1522.99 738.16, 1482.00 781.65, 1436.73 814.00 C 1391.46 846.34, 1332.20 870.66, 1277.67 890.77 C 1223.15 910.87, 1165.29 927.05, 1109.58 934.62 C 1053.87 942.18, 997.47 941.67, 943.43 936.15 C 889.40 930.64, 832.31 918.72, 785.37 901.52 C 738.43 884.32, 700.02 860.54, 661.81 832.94 C 623.60 805.35, 579.66 771.89, 556.11 735.94 C 532.57 699.98, 526.33 658.29, 520.53 617.20 C 514.74 576.12, 512.57 531.28, 521.33 489.43 C 530.10 447.57, 547.22 405.62, 573.13 366.06 C 599.03 326.50, 637.35 284.43, 676.76 252.05 C 716.18 219.68, 761.21 192.70, 809.60 171.81 C 857.99 150.92, 914.05 130.82, 967.12 126.70 C 1020.20 122.58, 1079.81 136.90, 1128.06 147.08 C 1176.31 157.26, 1214.06 171.00, 1256.63 187.78 C 1299.19 204.56, 1344.49 225.03, 1383.48 247.75 C 1422.47 270.47, 1464.26 292.52, 1490.57 324.10 C 1516.89 355.67, 1524.04 397.02, 1541.37 437.20 Z" transform="" fill="none" stroke="url(#gradMain)" stroke-width="145.0" stroke-linecap="round" stroke-linejoin="round" opacity="0.057"/>
<path d="M 1541.37 437.20 C 1558.71 477.38, 1593.24 521.95, 1594.56 565.20 C 1595.88 608.45, 1575.60 655.23, 1549.29 696.70 C 1522.99 738.16, 1482.00 781.65, 1436.73 814.00 C 1391.46 846.34, 1332.20 870.66, 1277.67 890.77 C 1223.15 910.87, 1165.29 927.05, 1109.58 934.62 C 1053.87 942.18, 997.47 941.67, 943.43 936.15 C 889.40 930.64, 832.31 918.72, 785.37 901.52 C 738.43 884.32, 700.02 860.54, 661.81 832.94 C 623.60 805.35, 579.66 771.89, 556.11 735.94 C 532.57 699.98, 526.33 658.29, 520.53 617.20 C 514.74 576.12, 512.57 531.28, 521.33 489.43 C 530.10 447.57, 547.22 405.62, 573.13 366.06 C 599.03 326.50, 637.35 284.43, 676.76 252.05 C 716.18 219.68, 761.21 192.70, 809.60 171.81 C 857.99 150.92, 914.05 130.82, 967.12 126.70 C 1020.20 122.58, 1079.81 136.90, 1128.06 147.08 C 1176.31 157.26, 1214.06 171.00, 1256.63 187.78 C 1299.19 204.56, 1344.49 225.03, 1383.48 247.75 C 1422.47 270.47, 1464.26 292.52, 1490.57 324.10 C 1516.89 355.67, 1524.04 397.02, 1541.37 437.20 Z" transform="" fill="none" stroke="url(#gradMain)" stroke-width="116.0" stroke-linecap="round" stroke-linejoin="round" opacity="0.087"/>
<path d="M 1541.37 437.20 C 1558.71 477.38, 1593.24 521.95, 1594.56 565.20 C 1595.88 608.45, 1575.60 655.23, 1549.29 696.70 C 1522.99 738.16, 1482.00 781.65, 1436.73 814.00 C 1391.46 846.34, 1332.20 870.66, 1277.67 890.77 C 1223.15 910.87, 1165.29 927.05, 1109.58 934.62 C 1053.87 942.18, 997.47 941.67, 943.43 936.15 C 889.40 930.64, 832.31 918.72, 785.37 901.52 C 738.43 884.32, 700.02 860.54, 661.81 832.94 C 623.60 805.35, 579.66 771.89, 556.11 735.94 C 532.57 699.98, 526.33 658.29, 520.53 617.20 C 514.74 576.12, 512.57 531.28, 521.33 489.43 C 530.10 447.57, 547.22 405.62, 573.13 366.06 C 599.03 326.50, 637.35 284.43, 676.76 252.05 C 716.18 219.68, 761.21 192.70, 809.60 171.81 C 857.99 150.92, 914.05 130.82, 967.12 126.70 C 1020.20 122.58, 1079.81 136.90, 1128.06 147.08 C 1176.31 157.26, 1214.06 171.00, 1256.63 187.78 C 1299.19 204.56, 1344.49 225.03, 1383.48 247.75 C 1422.47 270.47, 1464.26 292.52, 1490.57 324.10 C 1516.89 355.67, 1524.04 397.02, 1541.37 437.20 Z" transform="" fill="none" stroke="url(#gradMain)" stroke-width="83.5" stroke-linecap="round" stroke-linejoin="round" opacity="0.065"/>
<path d="M 1541.37 437.20 C 1558.71 477.38, 1593.24 521.95, 1594.56 565.20 C 1595.88 608.45, 1575.60 655.23, 1549.29 696.70 C 1522.99 738.16, 1482.00 781.65, 1436.73 814.00 C 1391.46 846.34, 1332.20 870.66, 1277.67 890.77 C 1223.15 910.87, 1165.29 927.05, 1109.58 934.62 C 1053.87 942.18, 997.47 941.67, 943.43 936.15 C 889.40 930.64, 832.31 918.72, 785.37 901.52 C 738.43 884.32, 700.02 860.54, 661.81 832.94 C 623.60 805.35, 579.66 771.89, 556.11 735.94 C 532.57 699.98, 526.33 658.29, 520.53 617.20 C 514.74 576.12, 512.57 531.28, 521.33 489.43 C 530.10 447.57, 547.22 405.62, 573.13 366.06 C 599.03 326.50, 637.35 284.43, 676.76 252.05 C 716.18 219.68, 761.21 192.70, 809.60 171.81 C 857.99 150.92, 914.05 130.82, 967.12 126.70 C 1020.20 122.58, 1079.81 136.90, 1128.06 147.08 C 1176.31 157.26, 1214.06 171.00, 1256.63 187.78 C 1299.19 204.56, 1344.49 225.03, 1383.48 247.75 C 1422.47 270.47, 1464.26 292.52, 1490.57 324.10 C 1516.89 355.67, 1524.04 397.02, 1541.37 437.20 Z" transform="translate(4.00 2.00)" fill="none" stroke="url(#gradMain)" stroke-width="179.8" stroke-linecap="round" stroke-linejoin="round" opacity="0.038"/>
<path d="M 1541.37 437.20 C 1558.71 477.38, 1593.24 521.95, 1594.56 565.20 C 1595.88 608.45, 1575.60 655.23, 1549.29 696.70 C 1522.99 738.16, 1482.00 781.65, 1436.73 814.00 C 1391.46 846.34, 1332.20 870.66, 1277.67 890.77 C 1223.15 910.87, 1165.29 927.05, 1109.58 934.62 C 1053.87 942.18, 997.47 941.67, 943.43 936.15 C 889.40 930.64, 832.31 918.72, 785.37 901.52 C 738.43 884.32, 700.02 860.54, 661.81 832.94 C 623.60 805.35, 579.66 771.89, 556.11 735.94 C 532.57 699.98, 526.33 658.29, 520.53 617.20 C 514.74 576.12, 512.57 531.28, 521.33 489.43 C 530.10 447.57, 547.22 405.62, 573.13 366.06 C 599.03 326.50, 637.35 284.43, 676.76 252.05 C 716.18 219.68, 761.21 192.70, 809.60 171.81 C 857.99 150.92, 914.05 130.82, 967.12 126.70 C 1020.20 122.58, 1079.81 136.90, 1128.06 147.08 C 1176.31 157.26, 1214.06 171.00, 1256.63 187.78 C 1299.19 204.56, 1344.49 225.03, 1383.48 247.75 C 1422.47 270.47, 1464.26 292.52, 1490.57 324.10 C 1516.89 355.67, 1524.04 397.02, 1541.37 437.20 Z" transform="translate(4.00 2.00)" fill="none" stroke="url(#gradMain)" stroke-width="145.0" stroke-linecap="round" stroke-linejoin="round" opacity="0.057"/>
<path d="M 1541.37 437.20 C 1558.71 477.38, 1593.24 521.95, 1594.56 565.20 C 1595.88 608.45, 1575.60 655.23, 1549.29 696.70 C 1522.99 738.16, 1482.00 781.65, 1436.73 814.00 C 1391.46 846.34, 1332.20 870.66, 1277.67 890.77 C 1223.15 910.87, 1165.29 927.05, 1109.58 934.62 C 1053.87 942.18, 997.47 941.67, 943.43 936.15 C 889.40 930.64, 832.31 918.72, 785.37 901.52 C 738.43 884.32, 700.02 860.54, 661.81 832.94 C 623.60 805.35, 579.66 771.89, 556.11 735.94 C 532.57 699.98, 526.33 658.29, 520.53 617.20 C 514.74 576.12, 512.57 531.28, 521.33 489.43 C 530.10 447.57, 547.22 405.62, 573.13 366.06 C 599.03 326.50, 637.35 284.43, 676.76 252.05 C 716.18 219.68, 761.21 192.70, 809.60 171.81 C 857.99 150.92, 914.05 130.82, 967.12 126.70 C 1020.20 122.58, 1079.81 136.90, 1128.06 147.08 C 1176.31 157.26, 1214.06 171.00, 1256.63 187.78 C 1299.19 204.56, 1344.49 225.03, 1383.48 247.75 C 1422.47 270.47, 1464.26 292.52, 1490.57 324.10 C 1516.89 355.67, 1524.04 397.02, 1541.37 437.20 Z" transform="translate(4.00 2.00)" fill="none" stroke="url(#gradMain)" stroke-width="116.0" stroke-linecap="round" stroke-linejoin="round" opacity="0.087"/>
<path d="M 1541.37 437.20 C 1558.71 477.38, 1593.24 521.95, 1594.56 565.20 C 1595.88 608.45, 1575.60 655.23, 1549.29 696.70 C 1522.99 738.16, 1482.00 781.65, 1436.73 814.00 C 1391.46 846.34, 1332.20 870.66, 1277.67 890.77 C 1223.15 910.87, 1165.29 927.05, 1109.58 934.62 C 1053.87 942.18, 997.47 941.67, 943.43 936.15 C 889.40 930.64, 832.31 918.72, 785.37 901.52 C 738.43 884.32, 700.02 860.54, 661.81 832.94 C 623.60 805.35, 579.66 771.89, 556.11 735.94 C 532.57 699.98, 526.33 658.29, 520.53 617.20 C 514.74 576.12, 512.57 531.28, 521.33 489.43 C 530.10 447.57, 547.22 405.62, 573.13 366.06 C 599.03 326.50, 637.35 284.43, 676.76 252.05 C 716.18 219.68, 761.21 192.70, 809.60 171.81 C 857.99 150.92, 914.05 130.82, 967.12 126.70 C 1020.20 122.58, 1079.81 136.90, 1128.06 147.08 C 1176.31 157.26, 1214.06 171.00, 1256.63 187.78 C 1299.19 204.56, 1344.49 225.03, 1383.48 247.75 C 1422.47 270.47, 1464.26 292.52, 1490.57 324.10 C 1516.89 355.67, 1524.04 397.02, 1541.37 437.20 Z" transform="translate(4.00 2.00)" fill="none" stroke="url(#gradMain)" stroke-width="83.5" stroke-linecap="round" stroke-linejoin="round" opacity="0.065"/>
<path d="M 1541.37 437.20 C 1558.71 477.38, 1593.24 521.95, 1594.56 565.20 C 1595.88 608.45, 1575.60 655.23, 1549.29 696.70 C 1522.99 738.16, 1482.00 781.65, 1436.73 814.00 C 1391.46 846.34, 1332.20 870.66, 1277.67 890.77 C 1223.15 910.87, 1165.29 927.05, 1109.58 934.62 C 1053.87 942.18, 997.47 941.67, 943.43 936.15 C 889.40 930.64, 832.31 918.72, 785.37 901.52 C 738.43 884.32, 700.02 860.54, 661.81 832.94 C 623.60 805.35, 579.66 771.89, 556.11 735.94 C 532.57 699.98, 526.33 658.29, 520.53 617.20 C 514.74 576.12, 512.57 531.28, 521.33 489.43 C 530.10 447.57, 547.22 405.62, 573.13 366.06 C 599.03 326.50, 637.35 284.43, 676.76 252.05 C 716.18 219.68, 761.21 192.70, 809.60 171.81 C 857.99 150.92, 914.05 130.82, 967.12 126.70 C 1020.20 122.58, 1079.81 136.90, 1128.06 147.08 C 1176.31 157.26, 1214.06 171.00, 1256.63 187.78 C 1299.19 204.56, 1344.49 225.03, 1383.48 247.75 C 1422.47 270.47, 1464.26 292.52, 1490.57 324.10 C 1516.89 355.67, 1524.04 397.02, 1541.37 437.20 Z" transform="translate(-3.00 1.10)" fill="none" stroke="url(#gradMain)" stroke-width="179.8" stroke-linecap="round" stroke-linejoin="round" opacity="0.038"/>
<path d="M 1541.37 437.20 C 1558.71 477.38, 1593.24 521.95, 1594.56 565.20 C 1595.88 608.45, 1575.60 655.23, 1549.29 696.70 C 1522.99 738.16, 1482.00 781.65, 1436.73 814.00 C 1391.46 846.34, 1332.20 870.66, 1277.67 890.77 C 1223.15 910.87, 1165.29 927.05, 1109.58 934.62 C 1053.87 942.18, 997.47 941.67, 943.43 936.15 C 889.40 930.64, 832.31 918.72, 785.37 901.52 C 738.43 884.32, 700.02 860.54, 661.81 832.94 C 623.60 805.35, 579.66 771.89, 556.11 735.94 C 532.57 699.98, 526.33 658.29, 520.53 617.20 C 514.74 576.12, 512.57 531.28, 521.33 489.43 C 530.10 447.57, 547.22 405.62, 573.13 366.06 C 599.03 326.50, 637.35 284.43, 676.76 252.05 C 716.18 219.68, 761.21 192.70, 809.60 171.81 C 857.99 150.92, 914.05 130.82, 967.12 126.70 C 1020.20 122.58, 1079.81 136.90, 1128.06 147.08 C 1176.31 157.26, 1214.06 171.00, 1256.63 187.78 C 1299.19 204.56, 1344.49 225.03, 1383.48 247.75 C 1422.47 270.47, 1464.26 292.52, 1490.57 324.10 C 1516.89 355.67, 1524.04 397.02, 1541.37 437.20 Z" transform="translate(-3.00 1.10)" fill="none" stroke="url(#gradMain)" stroke-width="145.0" stroke-linecap="round" stroke-linejoin="round" opacity="0.057"/>
<path d="M 1541.37 437.20 C 1558.71 477.38, 1593.24 521.95, 1594.56 565.20 C 1595.88 608.45, 1575.60 655.23, 1549.29 696.70 C 1522.99 738.16, 1482.00 781.65, 1436.73 814.00 C 1391.46 846.34, 1332.20 870.66, 1277.67 890.77 C 1223.15 910.87, 1165.29 927.05, 1109.58 934.62 C 1053.87 942.18, 997.47 941.67, 943.43 936.15 C 889.40 930.64, 832.31 918.72, 785.37 901.52 C 738.43 884.32, 700.02 860.54, 661.81 832.94 C 623.60 805.35, 579.66 771.89, 556.11 735.94 C 532.57 699.98, 526.33 658.29, 520.53 617.20 C 514.74 576.12, 512.57 531.28, 521.33 489.43 C 530.10 447.57, 547.22 405.62, 573.13 366.06 C 599.03 326.50, 637.35 284.43, 676.76 252.05 C 716.18 219.68, 761.21 192.70, 809.60 171.81 C 857.99 150.92, 914.05 130.82, 967.12 126.70 C 1020.20 122.58, 1079.81 136.90, 1128.06 147.08 C 1176.31 157.26, 1214.06 171.00, 1256.63 187.78 C 1299.19 204.56, 1344.49 225.03, 1383.48 247.75 C 1422.47 270.47, 1464.26 292.52, 1490.57 324.10 C 1516.89 355.67, 1524.04 397.02, 1541.37 437.20 Z" transform="translate(-3.00 1.10)" fill="none" stroke="url(#gradMain)" stroke-width="116.0" stroke-linecap="round" stroke-linejoin="round" opacity="0.087"/>
<path d="M 1541.37 437.20 C 1558.71 477.38, 1593.24 521.95, 1594.56 565.20 C 1595.88 608.45, 1575.60 655.23, 1549.29 696.70 C 1522.99 738.16, 1482.00 781.65, 1436.73 814.00 C 1391.46 846.34, 1332.20 870.66, 1277.67 890.77 C 1223.15 910.87, 1165.29 927.05, 1109.58 934.62 C 1053.87 942.18, 997.47 941.67, 943.43 936.15 C 889.40 930.64, 832.31 918.72, 785.37 901.52 C 738.43 884.32, 700.02 860.54, 661.81 832.94 C 623.60 805.35, 579.66 771.89, 556.11 735.94 C 532.57 699.98, 526.33 658.29, 520.53 617.20 C 514.74 576.12, 512.57 531.28, 521.33 489.43 C 530.10 447.57, 547.22 405.62, 573.13 366.06 C 599.03 326.50, 637.35 284.43, 676.76 252.05 C 716.18 219.68, 761.21 192.70, 809.60 171.81 C 857.99 150.92, 914.05 130.82, 967.12 126.70 C 1020.20 122.58, 1079.81 136.90, 1128.06 147.08 C 1176.31 157.26, 1214.06 171.00, 1256.63 187.78 C 1299.19 204.56, 1344.49 225.03, 1383.48 247.75 C 1422.47 270.47, 1464.26 292.52, 1490.57 324.10 C 1516.89 355.67, 1524.04 397.02, 1541.37 437.20 Z" transform="translate(-3.00 1.10)" fill="none" stroke="url(#gradMain)" stroke-width="83.5" stroke-linecap="round" stroke-linejoin="round" opacity="0.065"/>
<path d="M 1484.56 449.39 C 1502.00 482.28, 1513.37 524.11, 1510.25 561.94 C 1507.14 599.77, 1488.26 640.34, 1465.85 676.35 C 1443.44 712.36, 1412.48 749.61, 1375.79 778.00 C 1339.11 806.38, 1292.14 832.07, 1245.74 846.67 C 1199.35 861.27, 1145.60 862.21, 1097.41 865.60 C 1049.22 869.00, 1002.48 871.21, 956.60 867.04 C 910.73 862.87, 863.32 854.06, 822.17 840.57 C 781.02 827.08, 741.46 808.58, 709.71 786.10 C 677.96 763.62, 652.65 735.34, 631.68 705.69 C 610.70 676.04, 589.85 642.49, 583.87 608.20 C 577.88 573.92, 584.80 536.14, 595.75 499.96 C 606.70 463.78, 627.35 424.64, 649.56 391.11 C 671.77 357.57, 696.60 327.12, 729.00 298.76 C 761.41 270.39, 802.48 239.32, 843.98 220.94 C 885.48 202.55, 933.86 192.45, 978.01 188.45 C 1022.17 184.45, 1067.12 189.55, 1108.90 196.95 C 1150.69 204.34, 1191.55 216.70, 1228.72 232.84 C 1265.88 248.98, 1302.41 271.83, 1331.90 293.79 C 1361.39 315.75, 1380.22 338.64, 1405.67 364.58 C 1431.11 390.51, 1467.13 416.49, 1484.56 449.39 Z" transform="" fill="none" stroke="url(#gradBlue)" stroke-width="167.4" stroke-linecap="round" stroke-linejoin="round" opacity="0.036"/>
<path d="M 1484.56 449.39 C 1502.00 482.28, 1513.37 524.11, 1510.25 561.94 C 1507.14 599.77, 1488.26 640.34, 1465.85 676.35 C 1443.44 712.36, 1412.48 749.61, 1375.79 778.00 C 1339.11 806.38, 1292.14 832.07, 1245.74 846.67 C 1199.35 861.27, 1145.60 862.21, 1097.41 865.60 C 1049.22 869.00, 1002.48 871.21, 956.60 867.04 C 910.73 862.87, 863.32 854.06, 822.17 840.57 C 781.02 827.08, 741.46 808.58, 709.71 786.10 C 677.96 763.62, 652.65 735.34, 631.68 705.69 C 610.70 676.04, 589.85 642.49, 583.87 608.20 C 577.88 573.92, 584.80 536.14, 595.75 499.96 C 606.70 463.78, 627.35 424.64, 649.56 391.11 C 671.77 357.57, 696.60 327.12, 729.00 298.76 C 761.41 270.39, 802.48 239.32, 843.98 220.94 C 885.48 202.55, 933.86 192.45, 978.01 188.45 C 1022.17 184.45, 1067.12 189.55, 1108.90 196.95 C 1150.69 204.34, 1191.55 216.70, 1228.72 232.84 C 1265.88 248.98, 1302.41 271.83, 1331.90 293.79 C 1361.39 315.75, 1380.22 338.64, 1405.67 364.58 C 1431.11 390.51, 1467.13 416.49, 1484.56 449.39 Z" transform="" fill="none" stroke="url(#gradBlue)" stroke-width="135.0" stroke-linecap="round" stroke-linejoin="round" opacity="0.054"/>
<path d="M 1484.56 449.39 C 1502.00 482.28, 1513.37 524.11, 1510.25 561.94 C 1507.14 599.77, 1488.26 640.34, 1465.85 676.35 C 1443.44 712.36, 1412.48 749.61, 1375.79 778.00 C 1339.11 806.38, 1292.14 832.07, 1245.74 846.67 C 1199.35 861.27, 1145.60 862.21, 1097.41 865.60 C 1049.22 869.00, 1002.48 871.21, 956.60 867.04 C 910.73 862.87, 863.32 854.06, 822.17 840.57 C 781.02 827.08, 741.46 808.58, 709.71 786.10 C 677.96 763.62, 652.65 735.34, 631.68 705.69 C 610.70 676.04, 589.85 642.49, 583.87 608.20 C 577.88 573.92, 584.80 536.14, 595.75 499.96 C 606.70 463.78, 627.35 424.64, 649.56 391.11 C 671.77 357.57, 696.60 327.12, 729.00 298.76 C 761.41 270.39, 802.48 239.32, 843.98 220.94 C 885.48 202.55, 933.86 192.45, 978.01 188.45 C 1022.17 184.45, 1067.12 189.55, 1108.90 196.95 C 1150.69 204.34, 1191.55 216.70, 1228.72 232.84 C 1265.88 248.98, 1302.41 271.83, 1331.90 293.79 C 1361.39 315.75, 1380.22 338.64, 1405.67 364.58 C 1431.11 390.51, 1467.13 416.49, 1484.56 449.39 Z" transform="" fill="none" stroke="url(#gradBlue)" stroke-width="108.0" stroke-linecap="round" stroke-linejoin="round" opacity="0.083"/>
<path d="M 1484.56 449.39 C 1502.00 482.28, 1513.37 524.11, 1510.25 561.94 C 1507.14 599.77, 1488.26 640.34, 1465.85 676.35 C 1443.44 712.36, 1412.48 749.61, 1375.79 778.00 C 1339.11 806.38, 1292.14 832.07, 1245.74 846.67 C 1199.35 861.27, 1145.60 862.21, 1097.41 865.60 C 1049.22 869.00, 1002.48 871.21, 956.60 867.04 C 910.73 862.87, 863.32 854.06, 822.17 840.57 C 781.02 827.08, 741.46 808.58, 709.71 786.10 C 677.96 763.62, 652.65 735.34, 631.68 705.69 C 610.70 676.04, 589.85 642.49, 583.87 608.20 C 577.88 573.92, 584.80 536.14, 595.75 499.96 C 606.70 463.78, 627.35 424.64, 649.56 391.11 C 671.77 357.57, 696.60 327.12, 729.00 298.76 C 761.41 270.39, 802.48 239.32, 843.98 220.94 C 885.48 202.55, 933.86 192.45, 978.01 188.45 C 1022.17 184.45, 1067.12 189.55, 1108.90 196.95 C 1150.69 204.34, 1191.55 216.70, 1228.72 232.84 C 1265.88 248.98, 1302.41 271.83, 1331.90 293.79 C 1361.39 315.75, 1380.22 338.64, 1405.67 364.58 C 1431.11 390.51, 1467.13 416.49, 1484.56 449.39 Z" transform="" fill="none" stroke="url(#gradBlue)" stroke-width="77.8" stroke-linecap="round" stroke-linejoin="round" opacity="0.061"/>
<path d="M 1484.56 449.39 C 1502.00 482.28, 1513.37 524.11, 1510.25 561.94 C 1507.14 599.77, 1488.26 640.34, 1465.85 676.35 C 1443.44 712.36, 1412.48 749.61, 1375.79 778.00 C 1339.11 806.38, 1292.14 832.07, 1245.74 846.67 C 1199.35 861.27, 1145.60 862.21, 1097.41 865.60 C 1049.22 869.00, 1002.48 871.21, 956.60 867.04 C 910.73 862.87, 863.32 854.06, 822.17 840.57 C 781.02 827.08, 741.46 808.58, 709.71 786.10 C 677.96 763.62, 652.65 735.34, 631.68 705.69 C 610.70 676.04, 589.85 642.49, 583.87 608.20 C 577.88 573.92, 584.80 536.14, 595.75 499.96 C 606.70 463.78, 627.35 424.64, 649.56 391.11 C 671.77 357.57, 696.60 327.12, 729.00 298.76 C 761.41 270.39, 802.48 239.32, 843.98 220.94 C 885.48 202.55, 933.86 192.45, 978.01 188.45 C 1022.17 184.45, 1067.12 189.55, 1108.90 196.95 C 1150.69 204.34, 1191.55 216.70, 1228.72 232.84 C 1265.88 248.98, 1302.41 271.83, 1331.90 293.79 C 1361.39 315.75, 1380.22 338.64, 1405.67 364.58 C 1431.11 390.51, 1467.13 416.49, 1484.56 449.39 Z" transform="translate(4.00 2.00)" fill="none" stroke="url(#gradBlue)" stroke-width="167.4" stroke-linecap="round" stroke-linejoin="round" opacity="0.036"/>
<path d="M 1484.56 449.39 C 1502.00 482.28, 1513.37 524.11, 1510.25 561.94 C 1507.14 599.77, 1488.26 640.34, 1465.85 676.35 C 1443.44 712.36, 1412.48 749.61, 1375.79 778.00 C 1339.11 806.38, 1292.14 832.07, 1245.74 846.67 C 1199.35 861.27, 1145.60 862.21, 1097.41 865.60 C 1049.22 869.00, 1002.48 871.21, 956.60 867.04 C 910.73 862.87, 863.32 854.06, 822.17 840.57 C 781.02 827.08, 741.46 808.58, 709.71 786.10 C 677.96 763.62, 652.65 735.34, 631.68 705.69 C 610.70 676.04, 589.85 642.49, 583.87 608.20 C 577.88 573.92, 584.80 536.14, 595.75 499.96 C 606.70 463.78, 627.35 424.64, 649.56 391.11 C 671.77 357.57, 696.60 327.12, 729.00 298.76 C 761.41 270.39, 802.48 239.32, 843.98 220.94 C 885.48 202.55, 933.86 192.45, 978.01 188.45 C 1022.17 184.45, 1067.12 189.55, 1108.90 196.95 C 1150.69 204.34, 1191.55 216.70, 1228.72 232.84 C 1265.88 248.98, 1302.41 271.83, 1331.90 293.79 C 1361.39 315.75, 1380.22 338.64, 1405.67 364.58 C 1431.11 390.51, 1467.13 416.49, 1484.56 449.39 Z" transform="translate(4.00 2.00)" fill="none" stroke="url(#gradBlue)" stroke-width="135.0" stroke-linecap="round" stroke-linejoin="round" opacity="0.054"/>
<path d="M 1484.56 449.39 C 1502.00 482.28, 1513.37 524.11, 1510.25 561.94 C 1507.14 599.77, 1488.26 640.34, 1465.85 676.35 C 1443.44 712.36, 1412.48 749.61, 1375.79 778.00 C 1339.11 806.38, 1292.14 832.07, 1245.74 846.67 C 1199.35 861.27, 1145.60 862.21, 1097.41 865.60 C 1049.22 869.00, 1002.48 871.21, 956.60 867.04 C 910.73 862.87, 863.32 854.06, 822.17 840.57 C 781.02 827.08, 741.46 808.58, 709.71 786.10 C 677.96 763.62, 652.65 735.34, 631.68 705.69 C 610.70 676.04, 589.85 642.49, 583.87 608.20 C 577.88 573.92, 584.80 536.14, 595.75 499.96 C 606.70 463.78, 627.35 424.64, 649.56 391.11 C 671.77 357.57, 696.60 327.12, 729.00 298.76 C 761.41 270.39, 802.48 239.32, 843.98 220.94 C 885.48 202.55, 933.86 192.45, 978.01 188.45 C 1022.17 184.45, 1067.12 189.55, 1108.90 196.95 C 1150.69 204.34, 1191.55 216.70, 1228.72 232.84 C 1265.88 248.98, 1302.41 271.83, 1331.90 293.79 C 1361.39 315.75, 1380.22 338.64, 1405.67 364.58 C 1431.11 390.51, 1467.13 416.49, 1484.56 449.39 Z" transform="translate(4.00 2.00)" fill="none" stroke="url(#gradBlue)" stroke-width="108.0" stroke-linecap="round" stroke-linejoin="round" opacity="0.083"/>
<path d="M 1484.56 449.39 C 1502.00 482.28, 1513.37 524.11, 1510.25 561.94 C 1507.14 599.77, 1488.26 640.34, 1465.85 676.35 C 1443.44 712.36, 1412.48 749.61, 1375.79 778.00 C 1339.11 806.38, 1292.14 832.07, 1245.74 846.67 C 1199.35 861.27, 1145.60 862.21, 1097.41 865.60 C 1049.22 869.00, 1002.48 871.21, 956.60 867.04 C 910.73 862.87, 863.32 854.06, 822.17 840.57 C 781.02 827.08, 741.46 808.58, 709.71 786.10 C 677.96 763.62, 652.65 735.34, 631.68 705.69 C 610.70 676.04, 589.85 642.49, 583.87 608.20 C 577.88 573.92, 584.80 536.14, 595.75 499.96 C 606.70 463.78, 627.35 424.64, 649.56 391.11 C 671.77 357.57, 696.60 327.12, 729.00 298.76 C 761.41 270.39, 802.48 239.32, 843.98 220.94 C 885.48 202.55, 933.86 192.45, 978.01 188.45 C 1022.17 184.45, 1067.12 189.55, 1108.90 196.95 C 1150.69 204.34, 1191.55 216.70, 1228.72 232.84 C 1265.88 248.98, 1302.41 271.83, 1331.90 293.79 C 1361.39 315.75, 1380.22 338.64, 1405.67 364.58 C 1431.11 390.51, 1467.13 416.49, 1484.56 449.39 Z" transform="translate(4.00 2.00)" fill="none" stroke="url(#gradBlue)" stroke-width="77.8" stroke-linecap="round" stroke-linejoin="round" opacity="0.061"/>
<path d="M 1484.56 449.39 C 1502.00 482.28, 1513.37 524.11, 1510.25 561.94 C 1507.14 599.77, 1488.26 640.34, 1465.85 676.35 C 1443.44 712.36, 1412.48 749.61, 1375.79 778.00 C 1339.11 806.38, 1292.14 832.07, 1245.74 846.67 C 1199.35 861.27, 1145.60 862.21, 1097.41 865.60 C 1049.22 869.00, 1002.48 871.21, 956.60 867.04 C 910.73 862.87, 863.32 854.06, 822.17 840.57 C 781.02 827.08, 741.46 808.58, 709.71 786.10 C 677.96 763.62, 652.65 735.34, 631.68 705.69 C 610.70 676.04, 589.85 642.49, 583.87 608.20 C 577.88 573.92, 584.80 536.14, 595.75 499.96 C 606.70 463.78, 627.35 424.64, 649.56 391.11 C 671.77 357.57, 696.60 327.12, 729.00 298.76 C 761.41 270.39, 802.48 239.32, 843.98 220.94 C 885.48 202.55, 933.86 192.45, 978.01 188.45 C 1022.17 184.45, 1067.12 189.55, 1108.90 196.95 C 1150.69 204.34, 1191.55 216.70, 1228.72 232.84 C 1265.88 248.98, 1302.41 271.83, 1331.90 293.79 C 1361.39 315.75, 1380.22 338.64, 1405.67 364.58 C 1431.11 390.51, 1467.13 416.49, 1484.56 449.39 Z" transform="translate(-3.00 1.10)" fill="none" stroke="url(#gradBlue)" stroke-width="167.4" stroke-linecap="round" stroke-linejoin="round" opacity="0.036"/>
<path d="M 1484.56 449.39 C 1502.00 482.28, 1513.37 524.11, 1510.25 561.94 C 1507.14 599.77, 1488.26 640.34, 1465.85 676.35 C 1443.44 712.36, 1412.48 749.61, 1375.79 778.00 C 1339.11 806.38, 1292.14 832.07, 1245.74 846.67 C 1199.35 861.27, 1145.60 862.21, 1097.41 865.60 C 1049.22 869.00, 1002.48 871.21, 956.60 867.04 C 910.73 862.87, 863.32 854.06, 822.17 840.57 C 781.02 827.08, 741.46 808.58, 709.71 786.10 C 677.96 763.62, 652.65 735.34, 631.68 705.69 C 610.70 676.04, 589.85 642.49, 583.87 608.20 C 577.88 573.92, 584.80 536.14, 595.75 499.96 C 606.70 463.78, 627.35 424.64, 649.56 391.11 C 671.77 357.57, 696.60 327.12, 729.00 298.76 C 761.41 270.39, 802.48 239.32, 843.98 220.94 C 885.48 202.55, 933.86 192.45, 978.01 188.45 C 1022.17 184.45, 1067.12 189.55, 1108.90 196.95 C 1150.69 204.34, 1191.55 216.70, 1228.72 232.84 C 1265.88 248.98, 1302.41 271.83, 1331.90 293.79 C 1361.39 315.75, 1380.22 338.64, 1405.67 364.58 C 1431.11 390.51, 1467.13 416.49, 1484.56 449.39 Z" transform="translate(-3.00 1.10)" fill="none" stroke="url(#gradBlue)" stroke-width="135.0" stroke-linecap="round" stroke-linejoin="round" opacity="0.054"/>
<path d="M 1484.56 449.39 C 1502.00 482.28, 1513.37 524.11, 1510.25 561.94 C 1507.14 599.77, 1488.26 640.34, 1465.85 676.35 C 1443.44 712.36, 1412.48 749.61, 1375.79 778.00 C 1339.11 806.38, 1292.14 832.07, 1245.74 846.67 C 1199.35 861.27, 1145.60 862.21, 1097.41 865.60 C 1049.22 869.00, 1002.48 871.21, 956.60 867.04 C 910.73 862.87, 863.32 854.06, 822.17 840.57 C 781.02 827.08, 741.46 808.58, 709.71 786.10 C 677.96 763.62, 652.65 735.34, 631.68 705.69 C 610.70 676.04, 589.85 642.49, 583.87 608.20 C 577.88 573.92, 584.80 536.14, 595.75 499.96 C 606.70 463.78, 627.35 424.64, 649.56 391.11 C 671.77 357.57, 696.60 327.12, 729.00 298.76 C 761.41 270.39, 802.48 239.32, 843.98 220.94 C 885.48 202.55, 933.86 192.45, 978.01 188.45 C 1022.17 184.45, 1067.12 189.55, 1108.90 196.95 C 1150.69 204.34, 1191.55 216.70, 1228.72 232.84 C 1265.88 248.98, 1302.41 271.83, 1331.90 293.79 C 1361.39 315.75, 1380.22 338.64, 1405.67 364.58 C 1431.11 390.51, 1467.13 416.49, 1484.56 449.39 Z" transform="translate(-3.00 1.10)" fill="none" stroke="url(#gradBlue)" stroke-width="108.0" stroke-linecap="round" stroke-linejoin="round" opacity="0.083"/>
<path d="M 1484.56 449.39 C 1502.00 482.28, 1513.37 524.11, 1510.25 561.94 C 1507.14 599.77, 1488.26 640.34, 1465.85 676.35 C 1443.44 712.36, 1412.48 749.61, 1375.79 778.00 C 1339.11 806.38, 1292.14 832.07, 1245.74 846.67 C 1199.35 861.27, 1145.60 862.21, 1097.41 865.60 C 1049.22 869.00, 1002.48 871.21, 956.60 867.04 C 910.73 862.87, 863.32 854.06, 822.17 840.57 C 781.02 827.08, 741.46 808.58, 709.71 786.10 C 677.96 763.62, 652.65 735.34, 631.68 705.69 C 610.70 676.04, 589.85 642.49, 583.87 608.20 C 577.88 573.92, 584.80 536.14, 595.75 499.96 C 606.70 463.78, 627.35 424.64, 649.56 391.11 C 671.77 357.57, 696.60 327.12, 729.00 298.76 C 761.41 270.39, 802.48 239.32, 843.98 220.94 C 885.48 202.55, 933.86 192.45, 978.01 188.45 C 1022.17 184.45, 1067.12 189.55, 1108.90 196.95 C 1150.69 204.34, 1191.55 216.70, 1228.72 232.84 C 1265.88 248.98, 1302.41 271.83, 1331.90 293.79 C 1361.39 315.75, 1380.22 338.64, 1405.67 364.58 C 1431.11 390.51, 1467.13 416.49, 1484.56 449.39 Z" transform="translate(-3.00 1.10)" fill="none" stroke="url(#gradBlue)" stroke-width="77.8" stroke-linecap="round" stroke-linejoin="round" opacity="0.061"/>
<path d="M 1409.03 464.55 C 1422.02 493.16, 1441.61 525.94, 1440.35 557.56 C 1439.08 589.17, 1420.66 622.99, 1401.44 654.23 C 1382.22 685.48, 1356.64 721.61, 1325.01 745.03 C 1293.37 768.44, 1250.94 782.39, 1211.64 794.73 C 1172.34 807.08, 1128.99 814.29, 1089.21 819.11 C 1049.44 823.93, 1011.05 826.66, 972.98 823.63 C 934.91 820.61, 895.77 813.29, 860.82 800.95 C 825.87 788.61, 789.88 769.37, 763.29 749.59 C 736.69 729.81, 715.66 708.26, 701.26 682.27 C 686.85 656.28, 680.27 623.45, 676.84 593.66 C 673.42 563.86, 675.94 533.51, 680.70 503.49 C 685.45 473.47, 689.21 442.34, 705.38 413.55 C 721.56 384.76, 749.83 354.71, 777.76 330.73 C 805.68 306.76, 837.90 284.01, 872.93 269.70 C 907.97 255.39, 950.13 247.34, 987.96 244.87 C 1025.80 242.40, 1064.49 248.50, 1099.95 254.88 C 1135.40 261.26, 1170.66 270.08, 1200.68 283.15 C 1230.70 296.23, 1253.11 316.22, 1280.06 333.34 C 1307.02 350.47, 1340.91 364.04, 1362.41 385.91 C 1383.90 407.78, 1396.04 435.95, 1409.03 464.55 Z" transform="" fill="none" stroke="url(#gradMain)" stroke-width="155.0" stroke-linecap="round" stroke-linejoin="round" opacity="0.034"/>
<path d="M 1409.03 464.55 C 1422.02 493.16, 1441.61 525.94, 1440.35 557.56 C 1439.08 589.17, 1420.66 622.99, 1401.44 654.23 C 1382.22 685.48, 1356.64 721.61, 1325.01 745.03 C 1293.37 768.44, 1250.94 782.39, 1211.64 794.73 C 1172.34 807.08, 1128.99 814.29, 1089.21 819.11 C 1049.44 823.93, 1011.05 826.66, 972.98 823.63 C 934.91 820.61, 895.77 813.29, 860.82 800.95 C 825.87 788.61, 789.88 769.37, 763.29 749.59 C 736.69 729.81, 715.66 708.26, 701.26 682.27 C 686.85 656.28, 680.27 623.45, 676.84 593.66 C 673.42 563.86, 675.94 533.51, 680.70 503.49 C 685.45 473.47, 689.21 442.34, 705.38 413.55 C 721.56 384.76, 749.83 354.71, 777.76 330.73 C 805.68 306.76, 837.90 284.01, 872.93 269.70 C 907.97 255.39, 950.13 247.34, 987.96 244.87 C 1025.80 242.40, 1064.49 248.50, 1099.95 254.88 C 1135.40 261.26, 1170.66 270.08, 1200.68 283.15 C 1230.70 296.23, 1253.11 316.22, 1280.06 333.34 C 1307.02 350.47, 1340.91 364.04, 1362.41 385.91 C 1383.90 407.78, 1396.04 435.95, 1409.03 464.55 Z" transform="" fill="none" stroke="url(#gradMain)" stroke-width="125.0" stroke-linecap="round" stroke-linejoin="round" opacity="0.051"/>
<path d="M 1409.03 464.55 C 1422.02 493.16, 1441.61 525.94, 1440.35 557.56 C 1439.08 589.17, 1420.66 622.99, 1401.44 654.23 C 1382.22 685.48, 1356.64 721.61, 1325.01 745.03 C 1293.37 768.44, 1250.94 782.39, 1211.64 794.73 C 1172.34 807.08, 1128.99 814.29, 1089.21 819.11 C 1049.44 823.93, 1011.05 826.66, 972.98 823.63 C 934.91 820.61, 895.77 813.29, 860.82 800.95 C 825.87 788.61, 789.88 769.37, 763.29 749.59 C 736.69 729.81, 715.66 708.26, 701.26 682.27 C 686.85 656.28, 680.27 623.45, 676.84 593.66 C 673.42 563.86, 675.94 533.51, 680.70 503.49 C 685.45 473.47, 689.21 442.34, 705.38 413.55 C 721.56 384.76, 749.83 354.71, 777.76 330.73 C 805.68 306.76, 837.90 284.01, 872.93 269.70 C 907.97 255.39, 950.13 247.34, 987.96 244.87 C 1025.80 242.40, 1064.49 248.50, 1099.95 254.88 C 1135.40 261.26, 1170.66 270.08, 1200.68 283.15 C 1230.70 296.23, 1253.11 316.22, 1280.06 333.34 C 1307.02 350.47, 1340.91 364.04, 1362.41 385.91 C 1383.90 407.78, 1396.04 435.95, 1409.03 464.55 Z" transform="" fill="none" stroke="url(#gradMain)" stroke-width="100.0" stroke-linecap="round" stroke-linejoin="round" opacity="0.078"/>
<path d="M 1409.03 464.55 C 1422.02 493.16, 1441.61 525.94, 1440.35 557.56 C 1439.08 589.17, 1420.66 622.99, 1401.44 654.23 C 1382.22 685.48, 1356.64 721.61, 1325.01 745.03 C 1293.37 768.44, 1250.94 782.39, 1211.64 794.73 C 1172.34 807.08, 1128.99 814.29, 1089.21 819.11 C 1049.44 823.93, 1011.05 826.66, 972.98 823.63 C 934.91 820.61, 895.77 813.29, 860.82 800.95 C 825.87 788.61, 789.88 769.37, 763.29 749.59 C 736.69 729.81, 715.66 708.26, 701.26 682.27 C 686.85 656.28, 680.27 623.45, 676.84 593.66 C 673.42 563.86, 675.94 533.51, 680.70 503.49 C 685.45 473.47, 689.21 442.34, 705.38 413.55 C 721.56 384.76, 749.83 354.71, 777.76 330.73 C 805.68 306.76, 837.90 284.01, 872.93 269.70 C 907.97 255.39, 950.13 247.34, 987.96 244.87 C 1025.80 242.40, 1064.49 248.50, 1099.95 254.88 C 1135.40 261.26, 1170.66 270.08, 1200.68 283.15 C 1230.70 296.23, 1253.11 316.22, 1280.06 333.34 C 1307.02 350.47, 1340.91 364.04, 1362.41 385.91 C 1383.90 407.78, 1396.04 435.95, 1409.03 464.55 Z" transform="" fill="none" stroke="url(#gradMain)" stroke-width="72.0" stroke-linecap="round" stroke-linejoin="round" opacity="0.058"/>
<path d="M 1409.03 464.55 C 1422.02 493.16, 1441.61 525.94, 1440.35 557.56 C 1439.08 589.17, 1420.66 622.99, 1401.44 654.23 C 1382.22 685.48, 1356.64 721.61, 1325.01 745.03 C 1293.37 768.44, 1250.94 782.39, 1211.64 794.73 C 1172.34 807.08, 1128.99 814.29, 1089.21 819.11 C 1049.44 823.93, 1011.05 826.66, 972.98 823.63 C 934.91 820.61, 895.77 813.29, 860.82 800.95 C 825.87 788.61, 789.88 769.37, 763.29 749.59 C 736.69 729.81, 715.66 708.26, 701.26 682.27 C 686.85 656.28, 680.27 623.45, 676.84 593.66 C 673.42 563.86, 675.94 533.51, 680.70 503.49 C 685.45 473.47, 689.21 442.34, 705.38 413.55 C 721.56 384.76, 749.83 354.71, 777.76 330.73 C 805.68 306.76, 837.90 284.01, 872.93 269.70 C 907.97 255.39, 950.13 247.34, 987.96 244.87 C 1025.80 242.40, 1064.49 248.50, 1099.95 254.88 C 1135.40 261.26, 1170.66 270.08, 1200.68 283.15 C 1230.70 296.23, 1253.11 316.22, 1280.06 333.34 C 1307.02 350.47, 1340.91 364.04, 1362.41 385.91 C 1383.90 407.78, 1396.04 435.95, 1409.03 464.55 Z" transform="translate(4.00 2.00)" fill="none" stroke="url(#gradMain)" stroke-width="155.0" stroke-linecap="round" stroke-linejoin="round" opacity="0.034"/>
<path d="M 1409.03 464.55 C 1422.02 493.16, 1441.61 525.94, 1440.35 557.56 C 1439.08 589.17, 1420.66 622.99, 1401.44 654.23 C 1382.22 685.48, 1356.64 721.61, 1325.01 745.03 C 1293.37 768.44, 1250.94 782.39, 1211.64 794.73 C 1172.34 807.08, 1128.99 814.29, 1089.21 819.11 C 1049.44 823.93, 1011.05 826.66, 972.98 823.63 C 934.91 820.61, 895.77 813.29, 860.82 800.95 C 825.87 788.61, 789.88 769.37, 763.29 749.59 C 736.69 729.81, 715.66 708.26, 701.26 682.27 C 686.85 656.28, 680.27 623.45, 676.84 593.66 C 673.42 563.86, 675.94 533.51, 680.70 503.49 C 685.45 473.47, 689.21 442.34, 705.38 413.55 C 721.56 384.76, 749.83 354.71, 777.76 330.73 C 805.68 306.76, 837.90 284.01, 872.93 269.70 C 907.97 255.39, 950.13 247.34, 987.96 244.87 C 1025.80 242.40, 1064.49 248.50, 1099.95 254.88 C 1135.40 261.26, 1170.66 270.08, 1200.68 283.15 C 1230.70 296.23, 1253.11 316.22, 1280.06 333.34 C 1307.02 350.47, 1340.91 364.04, 1362.41 385.91 C 1383.90 407.78, 1396.04 435.95, 1409.03 464.55 Z" transform="translate(4.00 2.00)" fill="none" stroke="url(#gradMain)" stroke-width="125.0" stroke-linecap="round" stroke-linejoin="round" opacity="0.051"/>
<path d="M 1409.03 464.55 C 1422.02 493.16, 1441.61 525.94, 1440.35 557.56 C 1439.08 589.17, 1420.66 622.99, 1401.44 654.23 C 1382.22 685.48, 1356.64 721.61, 1325.01 745.03 C 1293.37 768.44, 1250.94 782.39, 1211.64 794.73 C 1172.34 807.08, 1128.99 814.29, 1089.21 819.11 C 1049.44 823.93, 1011.05 826.66, 972.98 823.63 C 934.91 820.61, 895.77 813.29, 860.82 800.95 C 825.87 788.61, 789.88 769.37, 763.29 749.59 C 736.69 729.81, 715.66 708.26, 701.26 682.27 C 686.85 656.28, 680.27 623.45, 676.84 593.66 C 673.42 563.86, 675.94 533.51, 680.70 503.49 C 685.45 473.47, 689.21 442.34, 705.38 413.55 C 721.56 384.76, 749.83 354.71, 777.76 330.73 C 805.68 306.76, 837.90 284.01, 872.93 269.70 C 907.97 255.39, 950.13 247.34, 987.96 244.87 C 1025.80 242.40, 1064.49 248.50, 1099.95 254.88 C 1135.40 261.26, 1170.66 270.08, 1200.68 283.15 C 1230.70 296.23, 1253.11 316.22, 1280.06 333.34 C 1307.02 350.47, 1340.91 364.04, 1362.41 385.91 C 1383.90 407.78, 1396.04 435.95, 1409.03 464.55 Z" transform="translate(4.00 2.00)" fill="none" stroke="url(#gradMain)" stroke-width="100.0" stroke-linecap="round" stroke-linejoin="round" opacity="0.078"/>
<path d="M 1409.03 464.55 C 1422.02 493.16, 1441.61 525.94, 1440.35 557.56 C 1439.08 589.17, 1420.66 622.99, 1401.44 654.23 C 1382.22 685.48, 1356.64 721.61, 1325.01 745.03 C 1293.37 768.44, 1250.94 782.39, 1211.64 794.73 C 1172.34 807.08, 1128.99 814.29, 1089.21 819.11 C 1049.44 823.93, 1011.05 826.66, 972.98 823.63 C 934.91 820.61, 895.77 813.29, 860.82 800.95 C 825.87 788.61, 789.88 769.37, 763.29 749.59 C 736.69 729.81, 715.66 708.26, 701.26 682.27 C 686.85 656.28, 680.27 623.45, 676.84 593.66 C 673.42 563.86, 675.94 533.51, 680.70 503.49 C 685.45 473.47, 689.21 442.34, 705.38 413.55 C 721.56 384.76, 749.83 354.71, 777.76 330.73 C 805.68 306.76, 837.90 284.01, 872.93 269.70 C 907.97 255.39, 950.13 247.34, 987.96 244.87 C 1025.80 242.40, 1064.49 248.50, 1099.95 254.88 C 1135.40 261.26, 1170.66 270.08, 1200.68 283.15 C 1230.70 296.23, 1253.11 316.22, 1280.06 333.34 C 1307.02 350.47, 1340.91 364.04, 1362.41 385.91 C 1383.90 407.78, 1396.04 435.95, 1409.03 464.55 Z" transform="translate(4.00 2.00)" fill="none" stroke="url(#gradMain)" stroke-width="72.0" stroke-linecap="round" stroke-linejoin="round" opacity="0.058"/>
<path d="M 1409.03 464.55 C 1422.02 493.16, 1441.61 525.94, 1440.35 557.56 C 1439.08 589.17, 1420.66 622.99, 1401.44 654.23 C 1382.22 685.48, 1356.64 721.61, 1325.01 745.03 C 1293.37 768.44, 1250.94 782.39, 1211.64 794.73 C 1172.34 807.08, 1128.99 814.29, 1089.21 819.11 C 1049.44 823.93, 1011.05 826.66, 972.98 823.63 C 934.91 820.61, 895.77 813.29, 860.82 800.95 C 825.87 788.61, 789.88 769.37, 763.29 749.59 C 736.69 729.81, 715.66 708.26, 701.26 682.27 C 686.85 656.28, 680.27 623.45, 676.84 593.66 C 673.42 563.86, 675.94 533.51, 680.70 503.49 C 685.45 473.47, 689.21 442.34, 705.38 413.55 C 721.56 384.76, 749.83 354.71, 777.76 330.73 C 805.68 306.76, 837.90 284.01, 872.93 269.70 C 907.97 255.39, 950.13 247.34, 987.96 244.87 C 1025.80 242.40, 1064.49 248.50, 1099.95 254.88 C 1135.40 261.26, 1170.66 270.08, 1200.68 283.15 C 1230.70 296.23, 1253.11 316.22, 1280.06 333.34 C 1307.02 350.47, 1340.91 364.04, 1362.41 385.91 C 1383.90 407.78, 1396.04 435.95, 1409.03 464.55 Z" transform="translate(-3.00 1.10)" fill="none" stroke="url(#gradMain)" stroke-width="155.0" stroke-linecap="round" stroke-linejoin="round" opacity="0.034"/>
<path d="M 1409.03 464.55 C 1422.02 493.16, 1441.61 525.94, 1440.35 557.56 C 1439.08 589.17, 1420.66 622.99, 1401.44 654.23 C 1382.22 685.48, 1356.64 721.61, 1325.01 745.03 C 1293.37 768.44, 1250.94 782.39, 1211.64 794.73 C 1172.34 807.08, 1128.99 814.29, 1089.21 819.11 C 1049.44 823.93, 1011.05 826.66, 972.98 823.63 C 934.91 820.61, 895.77 813.29, 860.82 800.95 C 825.87 788.61, 789.88 769.37, 763.29 749.59 C 736.69 729.81, 715.66 708.26, 701.26 682.27 C 686.85 656.28, 680.27 623.45, 676.84 593.66 C 673.42 563.86, 675.94 533.51, 680.70 503.49 C 685.45 473.47, 689.21 442.34, 705.38 413.55 C 721.56 384.76, 749.83 354.71, 777.76 330.73 C 805.68 306.76, 837.90 284.01, 872.93 269.70 C 907.97 255.39, 950.13 247.34, 987.96 244.87 C 1025.80 242.40, 1064.49 248.50, 1099.95 254.88 C 1135.40 261.26, 1170.66 270.08, 1200.68 283.15 C 1230.70 296.23, 1253.11 316.22, 1280.06 333.34 C 1307.02 350.47, 1340.91 364.04, 1362.41 385.91 C 1383.90 407.78, 1396.04 435.95, 1409.03 464.55 Z" transform="translate(-3.00 1.10)" fill="none" stroke="url(#gradMain)" stroke-width="125.0" stroke-linecap="round" stroke-linejoin="round" opacity="0.051"/>
<path d="M 1409.03 464.55 C 1422.02 493.16, 1441.61 525.94, 1440.35 557.56 C 1439.08 589.17, 1420.66 622.99, 1401.44 654.23 C 1382.22 685.48, 1356.64 721.61, 1325.01 745.03 C 1293.37 768.44, 1250.94 782.39, 1211.64 794.73 C 1172.34 807.08, 1128.99 814.29, 1089.21 819.11 C 1049.44 823.93, 1011.05 826.66, 972.98 823.63 C 934.91 820.61, 895.77 813.29, 860.82 800.95 C 825.87 788.61, 789.88 769.37, 763.29 749.59 C 736.69 729.81, 715.66 708.26, 701.26 682.27 C 686.85 656.28, 680.27 623.45, 676.84 593.66 C 673.42 563.86, 675.94 533.51, 680.70 503.49 C 685.45 473.47, 689.21 442.34, 705.38 413.55 C 721.56 384.76, 749.83 354.71, 777.76 330.73 C 805.68 306.76, 837.90 284.01, 872.93 269.70 C 907.97 255.39, 950.13 247.34, 987.96 244.87 C 1025.80 242.40, 1064.49 248.50, 1099.95 254.88 C 1135.40 261.26, 1170.66 270.08, 1200.68 283.15 C 1230.70 296.23, 1253.11 316.22, 1280.06 333.34 C 1307.02 350.47, 1340.91 364.04, 1362.41 385.91 C 1383.90 407.78, 1396.04 435.95, 1409.03 464.55 Z" transform="translate(-3.00 1.10)" fill="none" stroke="url(#gradMain)" stroke-width="100.0" stroke-linecap="round" stroke-linejoin="round" opacity="0.078"/>
<path d="M 1409.03 464.55 C 1422.02 493.16, 1441.61 525.94, 1440.35 557.56 C 1439.08 589.17, 1420.66 622.99, 1401.44 654.23 C 1382.22 685.48, 1356.64 721.61, 1325.01 745.03 C 1293.37 768.44, 1250.94 782.39, 1211.64 794.73 C 1172.34 807.08, 1128.99 814.29, 1089.21 819.11 C 1049.44 823.93, 1011.05 826.66, 972.98 823.63 C 934.91 820.61, 895.77 813.29, 860.82 800.95 C 825.87 788.61, 789.88 769.37, 763.29 749.59 C 736.69 729.81, 715.66 708.26, 701.26 682.27 C 686.85 656.28, 680.27 623.45, 676.84 593.66 C 673.42 563.86, 675.94 533.51, 680.70 503.49 C 685.45 473.47, 689.21 442.34, 705.38 413.55 C 721.56 384.76, 749.83 354.71, 777.76 330.73 C 805.68 306.76, 837.90 284.01, 872.93 269.70 C 907.97 255.39, 950.13 247.34, 987.96 244.87 C 1025.80 242.40, 1064.49 248.50, 1099.95 254.88 C 1135.40 261.26, 1170.66 270.08, 1200.68 283.15 C 1230.70 296.23, 1253.11 316.22, 1280.06 333.34 C 1307.02 350.47, 1340.91 364.04, 1362.41 385.91 C 1383.90 407.78, 1396.04 435.95, 1409.03 464.55 Z" transform="translate(-3.00 1.10)" fill="none" stroke="url(#gradMain)" stroke-width="72.0" stroke-linecap="round" stroke-linejoin="round" opacity="0.058"/>
<path d="M 1347.38 477.13 C 1358.65 500.56, 1370.83 526.36, 1369.78 553.41 C 1368.73 580.47, 1356.72 614.60, 1341.09 639.46 C 1325.47 664.32, 1302.32 683.59, 1276.02 702.57 C 1249.73 721.55, 1215.65 740.67, 1183.33 753.33 C 1151.00 765.99, 1115.45 775.31, 1082.06 778.53 C 1048.67 781.74, 1015.41 776.10, 982.99 772.63 C 950.58 769.16, 916.27 767.18, 887.59 757.72 C 858.91 748.27, 833.72 731.99, 810.92 715.90 C 788.12 699.80, 765.71 682.56, 750.79 661.17 C 735.87 639.77, 725.95 612.90, 721.38 587.51 C 716.82 562.12, 716.47 534.44, 723.39 508.81 C 730.30 483.18, 747.18 457.12, 762.88 433.72 C 778.59 410.31, 794.89 388.52, 817.61 368.38 C 840.32 348.24, 869.31 325.19, 899.16 312.89 C 929.01 300.60, 964.80 297.00, 996.73 294.62 C 1028.67 292.24, 1061.29 294.08, 1090.77 298.60 C 1120.26 303.12, 1148.35 310.81, 1173.63 321.73 C 1198.90 332.66, 1221.01 348.97, 1242.44 364.15 C 1263.87 379.33, 1284.72 393.98, 1302.21 412.81 C 1319.70 431.64, 1336.12 453.69, 1347.38 477.13 Z" transform="" fill="none" stroke="url(#gradPink)" stroke-width="142.6" stroke-linecap="round" stroke-linejoin="round" opacity="0.032"/>
<path d="M 1347.38 477.13 C 1358.65 500.56, 1370.83 526.36, 1369.78 553.41 C 1368.73 580.47, 1356.72 614.60, 1341.09 639.46 C 1325.47 664.32, 1302.32 683.59, 1276.02 702.57 C 1249.73 721.55, 1215.65 740.67, 1183.33 753.33 C 1151.00 765.99, 1115.45 775.31, 1082.06 778.53 C 1048.67 781.74, 1015.41 776.10, 982.99 772.63 C 950.58 769.16, 916.27 767.18, 887.59 757.72 C 858.91 748.27, 833.72 731.99, 810.92 715.90 C 788.12 699.80, 765.71 682.56, 750.79 661.17 C 735.87 639.77, 725.95 612.90, 721.38 587.51 C 716.82 562.12, 716.47 534.44, 723.39 508.81 C 730.30 483.18, 747.18 457.12, 762.88 433.72 C 778.59 410.31, 794.89 388.52, 817.61 368.38 C 840.32 348.24, 869.31 325.19, 899.16 312.89 C 929.01 300.60, 964.80 297.00, 996.73 294.62 C 1028.67 292.24, 1061.29 294.08, 1090.77 298.60 C 1120.26 303.12, 1148.35 310.81, 1173.63 321.73 C 1198.90 332.66, 1221.01 348.97, 1242.44 364.15 C 1263.87 379.33, 1284.72 393.98, 1302.21 412.81 C 1319.70 431.64, 1336.12 453.69, 1347.38 477.13 Z" transform="" fill="none" stroke="url(#gradPink)" stroke-width="115.0" stroke-linecap="round" stroke-linejoin="round" opacity="0.048"/>
<path d="M 1347.38 477.13 C 1358.65 500.56, 1370.83 526.36, 1369.78 553.41 C 1368.73 580.47, 1356.72 614.60, 1341.09 639.46 C 1325.47 664.32, 1302.32 683.59, 1276.02 702.57 C 1249.73 721.55, 1215.65 740.67, 1183.33 753.33 C 1151.00 765.99, 1115.45 775.31, 1082.06 778.53 C 1048.67 781.74, 1015.41 776.10, 982.99 772.63 C 950.58 769.16, 916.27 767.18, 887.59 757.72 C 858.91 748.27, 833.72 731.99, 810.92 715.90 C 788.12 699.80, 765.71 682.56, 750.79 661.17 C 735.87 639.77, 725.95 612.90, 721.38 587.51 C 716.82 562.12, 716.47 534.44, 723.39 508.81 C 730.30 483.18, 747.18 457.12, 762.88 433.72 C 778.59 410.31, 794.89 388.52, 817.61 368.38 C 840.32 348.24, 869.31 325.19, 899.16 312.89 C 929.01 300.60, 964.80 297.00, 996.73 294.62 C 1028.67 292.24, 1061.29 294.08, 1090.77 298.60 C 1120.26 303.12, 1148.35 310.81, 1173.63 321.73 C 1198.90 332.66, 1221.01 348.97, 1242.44 364.15 C 1263.87 379.33, 1284.72 393.98, 1302.21 412.81 C 1319.70 431.64, 1336.12 453.69, 1347.38 477.13 Z" transform="" fill="none" stroke="url(#gradPink)" stroke-width="92.0" stroke-linecap="round" stroke-linejoin="round" opacity="0.074"/>
<path d="M 1347.38 477.13 C 1358.65 500.56, 1370.83 526.36, 1369.78 553.41 C 1368.73 580.47, 1356.72 614.60, 1341.09 639.46 C 1325.47 664.32, 1302.32 683.59, 1276.02 702.57 C 1249.73 721.55, 1215.65 740.67, 1183.33 753.33 C 1151.00 765.99, 1115.45 775.31, 1082.06 778.53 C 1048.67 781.74, 1015.41 776.10, 982.99 772.63 C 950.58 769.16, 916.27 767.18, 887.59 757.72 C 858.91 748.27, 833.72 731.99, 810.92 715.90 C 788.12 699.80, 765.71 682.56, 750.79 661.17 C 735.87 639.77, 725.95 612.90, 721.38 587.51 C 716.82 562.12, 716.47 534.44, 723.39 508.81 C 730.30 483.18, 747.18 457.12, 762.88 433.72 C 778.59 410.31, 794.89 388.52, 817.61 368.38 C 840.32 348.24, 869.31 325.19, 899.16 312.89 C 929.01 300.60, 964.80 297.00, 996.73 294.62 C 1028.67 292.24, 1061.29 294.08, 1090.77 298.60 C 1120.26 303.12, 1148.35 310.81, 1173.63 321.73 C 1198.90 332.66, 1221.01 348.97, 1242.44 364.15 C 1263.87 379.33, 1284.72 393.98, 1302.21 412.81 C 1319.70 431.64, 1336.12 453.69, 1347.38 477.13 Z" transform="" fill="none" stroke="url(#gradPink)" stroke-width="66.2" stroke-linecap="round" stroke-linejoin="round" opacity="0.054"/>
<path d="M 1347.38 477.13 C 1358.65 500.56, 1370.83 526.36, 1369.78 553.41 C 1368.73 580.47, 1356.72 614.60, 1341.09 639.46 C 1325.47 664.32, 1302.32 683.59, 1276.02 702.57 C 1249.73 721.55, 1215.65 740.67, 1183.33 753.33 C 1151.00 765.99, 1115.45 775.31, 1082.06 778.53 C 1048.67 781.74, 1015.41 776.10, 982.99 772.63 C 950.58 769.16, 916.27 767.18, 887.59 757.72 C 858.91 748.27, 833.72 731.99, 810.92 715.90 C 788.12 699.80, 765.71 682.56, 750.79 661.17 C 735.87 639.77, 725.95 612.90, 721.38 587.51 C 716.82 562.12, 716.47 534.44, 723.39 508.81 C 730.30 483.18, 747.18 457.12, 762.88 433.72 C 778.59 410.31, 794.89 388.52, 817.61 368.38 C 840.32 348.24, 869.31 325.19, 899.16 312.89 C 929.01 300.60, 964.80 297.00, 996.73 294.62 C 1028.67 292.24, 1061.29 294.08, 1090.77 298.60 C 1120.26 303.12, 1148.35 310.81, 1173.63 321.73 C 1198.90 332.66, 1221.01 348.97, 1242.44 364.15 C 1263.87 379.33, 1284.72 393.98, 1302.21 412.81 C 1319.70 431.64, 1336.12 453.69, 1347.38 477.13 Z" transform="translate(4.00 2.00)" fill="none" stroke="url(#gradPink)" stroke-width="142.6" stroke-linecap="round" stroke-linejoin="round" opacity="0.032"/>
<path d="M 1347.38 477.13 C 1358.65 500.56, 1370.83 526.36, 1369.78 553.41 C 1368.73 580.47, 1356.72 614.60, 1341.09 639.46 C 1325.47 664.32, 1302.32 683.59, 1276.02 702.57 C 1249.73 721.55, 1215.65 740.67, 1183.33 753.33 C 1151.00 765.99, 1115.45 775.31, 1082.06 778.53 C 1048.67 781.74, 1015.41 776.10, 982.99 772.63 C 950.58 769.16, 916.27 767.18, 887.59 757.72 C 858.91 748.27, 833.72 731.99, 810.92 715.90 C 788.12 699.80, 765.71 682.56, 750.79 661.17 C 735.87 639.77, 725.95 612.90, 721.38 587.51 C 716.82 562.12, 716.47 534.44, 723.39 508.81 C 730.30 483.18, 747.18 457.12, 762.88 433.72 C 778.59 410.31, 794.89 388.52, 817.61 368.38 C 840.32 348.24, 869.31 325.19, 899.16 312.89 C 929.01 300.60, 964.80 297.00, 996.73 294.62 C 1028.67 292.24, 1061.29 294.08, 1090.77 298.60 C 1120.26 303.12, 1148.35 310.81, 1173.63 321.73 C 1198.90 332.66, 1221.01 348.97, 1242.44 364.15 C 1263.87 379.33, 1284.72 393.98, 1302.21 412.81 C 1319.70 431.64, 1336.12 453.69, 1347.38 477.13 Z" transform="translate(4.00 2.00)" fill="none" stroke="url(#gradPink)" stroke-width="115.0" stroke-linecap="round" stroke-linejoin="round" opacity="0.048"/>
<path d="M 1347.38 477.13 C 1358.65 500.56, 1370.83 526.36, 1369.78 553.41 C 1368.73 580.47, 1356.72 614.60, 1341.09 639.46 C 1325.47 664.32, 1302.32 683.59, 1276.02 702.57 C 1249.73 721.55, 1215.65 740.67, 1183.33 753.33 C 1151.00 765.99, 1115.45 775.31, 1082.06 778.53 C 1048.67 781.74, 1015.41 776.10, 982.99 772.63 C 950.58 769.16, 916.27 767.18, 887.59 757.72 C 858.91 748.27, 833.72 731.99, 810.92 715.90 C 788.12 699.80, 765.71 682.56, 750.79 661.17 C 735.87 639.77, 725.95 612.90, 721.38 587.51 C 716.82 562.12, 716.47 534.44, 723.39 508.81 C 730.30 483.18, 747.18 457.12, 762.88 433.72 C 778.59 410.31, 794.89 388.52, 817.61 368.38 C 840.32 348.24, 869.31 325.19, 899.16 312.89 C 929.01 300.60, 964.80 297.00, 996.73 294.62 C 1028.67 292.24, 1061.29 294.08, 1090.77 298.60 C 1120.26 303.12, 1148.35 310.81, 1173.63 321.73 C 1198.90 332.66, 1221.01 348.97, 1242.44 364.15 C 1263.87 379.33, 1284.72 393.98, 1302.21 412.81 C 1319.70 431.64, 1336.12 453.69, 1347.38 477.13 Z" transform="translate(4.00 2.00)" fill="none" stroke="url(#gradPink)" stroke-width="92.0" stroke-linecap="round" stroke-linejoin="round" opacity="0.074"/>
<path d="M 1347.38 477.13 C 1358.65 500.56, 1370.83 526.36, 1369.78 553.41 C 1368.73 580.47, 1356.72 614.60, 1341.09 639.46 C 1325.47 664.32, 1302.32 683.59, 1276.02 702.57 C 1249.73 721.55, 1215.65 740.67, 1183.33 753.33 C 1151.00 765.99, 1115.45 775.31, 1082.06 778.53 C 1048.67 781.74, 1015.41 776.10, 982.99 772.63 C 950.58 769.16, 916.27 767.18, 887.59 757.72 C 858.91 748.27, 833.72 731.99, 810.92 715.90 C 788.12 699.80, 765.71 682.56, 750.79 661.17 C 735.87 639.77, 725.95 612.90, 721.38 587.51 C 716.82 562.12, 716.47 534.44, 723.39 508.81 C 730.30 483.18, 747.18 457.12, 762.88 433.72 C 778.59 410.31, 794.89 388.52, 817.61 368.38 C 840.32 348.24, 869.31 325.19, 899.16 312.89 C 929.01 300.60, 964.80 297.00, 996.73 294.62 C 1028.67 292.24, 1061.29 294.08, 1090.77 298.60 C 1120.26 303.12, 1148.35 310.81, 1173.63 321.73 C 1198.90 332.66, 1221.01 348.97, 1242.44 364.15 C 1263.87 379.33, 1284.72 393.98, 1302.21 412.81 C 1319.70 431.64, 1336.12 453.69, 1347.38 477.13 Z" transform="translate(4.00 2.00)" fill="none" stroke="url(#gradPink)" stroke-width="66.2" stroke-linecap="round" stroke-linejoin="round" opacity="0.054"/>
<path d="M 1347.38 477.13 C 1358.65 500.56, 1370.83 526.36, 1369.78 553.41 C 1368.73 580.47, 1356.72 614.60, 1341.09 639.46 C 1325.47 664.32, 1302.32 683.59, 1276.02 702.57 C 1249.73 721.55, 1215.65 740.67, 1183.33 753.33 C 1151.00 765.99, 1115.45 775.31, 1082.06 778.53 C 1048.67 781.74, 1015.41 776.10, 982.99 772.63 C 950.58 769.16, 916.27 767.18, 887.59 757.72 C 858.91 748.27, 833.72 731.99, 810.92 715.90 C 788.12 699.80, 765.71 682.56, 750.79 661.17 C 735.87 639.77, 725.95 612.90, 721.38 587.51 C 716.82 562.12, 716.47 534.44, 723.39 508.81 C 730.30 483.18, 747.18 457.12, 762.88 433.72 C 778.59 410.31, 794.89 388.52, 817.61 368.38 C 840.32 348.24, 869.31 325.19, 899.16 312.89 C 929.01 300.60, 964.80 297.00, 996.73 294.62 C 1028.67 292.24, 1061.29 294.08, 1090.77 298.60 C 1120.26 303.12, 1148.35 310.81, 1173.63 321.73 C 1198.90 332.66, 1221.01 348.97, 1242.44 364.15 C 1263.87 379.33, 1284.72 393.98, 1302.21 412.81 C 1319.70 431.64, 1336.12 453.69, 1347.38 477.13 Z" transform="translate(-3.00 1.10)" fill="none" stroke="url(#gradPink)" stroke-width="142.6" stroke-linecap="round" stroke-linejoin="round" opacity="0.032"/>
<path d="M 1347.38 477.13 C 1358.65 500.56, 1370.83 526.36, 1369.78 553.41 C 1368.73 580.47, 1356.72 614.60, 1341.09 639.46 C 1325.47 664.32, 1302.32 683.59, 1276.02 702.57 C 1249.73 721.55, 1215.65 740.67, 1183.33 753.33 C 1151.00 765.99, 1115.45 775.31, 1082.06 778.53 C 1048.67 781.74, 1015.41 776.10, 982.99 772.63 C 950.58 769.16, 916.27 767.18, 887.59 757.72 C 858.91 748.27, 833.72 731.99, 810.92 715.90 C 788.12 699.80, 765.71 682.56, 750.79 661.17 C 735.87 639.77, 725.95 612.90, 721.38 587.51 C 716.82 562.12, 716.47 534.44, 723.39 508.81 C 730.30 483.18, 747.18 457.12, 762.88 433.72 C 778.59 410.31, 794.89 388.52, 817.61 368.38 C 840.32 348.24, 869.31 325.19, 899.16 312.89 C 929.01 300.60, 964.80 297.00, 996.73 294.62 C 1028.67 292.24, 1061.29 294.08, 1090.77 298.60 C 1120.26 303.12, 1148.35 310.81, 1173.63 321.73 C 1198.90 332.66, 1221.01 348.97, 1242.44 364.15 C 1263.87 379.33, 1284.72 393.98, 1302.21 412.81 C 1319.70 431.64, 1336.12 453.69, 1347.38 477.13 Z" transform="translate(-3.00 1.10)" fill="none" stroke="url(#gradPink)" stroke-width="115.0" stroke-linecap="round" stroke-linejoin="round" opacity="0.048"/>
<path d="M 1347.38 477.13 C 1358.65 500.56, 1370.83 526.36, 1369.78 553.41 C 1368.73 580.47, 1356.72 614.60, 1341.09 639.46 C 1325.47 664.32, 1302.32 683.59, 1276.02 702.57 C 1249.73 721.55, 1215.65 740.67, 1183.33 753.33 C 1151.00 765.99, 1115.45 775.31, 1082.06 778.53 C 1048.67 781.74, 1015.41 776.10, 982.99 772.63 C 950.58 769.16, 916.27 767.18, 887.59 757.72 C 858.91 748.27, 833.72 731.99, 810.92 715.90 C 788.12 699.80, 765.71 682.56, 750.79 661.17 C 735.87 639.77, 725.95 612.90, 721.38 587.51 C 716.82 562.12, 716.47 534.44, 723.39 508.81 C 730.30 483.18, 747.18 457.12, 762.88 433.72 C 778.59 410.31, 794.89 388.52, 817.61 368.38 C 840.32 348.24, 869.31 325.19, 899.16 312.89 C 929.01 300.60, 964.80 297.00, 996.73 294.62 C 1028.67 292.24, 1061.29 294.08, 1090.77 298.60 C 1120.26 303.12, 1148.35 310.81, 1173.63 321.73 C 1198.90 332.66, 1221.01 348.97, 1242.44 364.15 C 1263.87 379.33, 1284.72 393.98, 1302.21 412.81 C 1319.70 431.64, 1336.12 453.69, 1347.38 477.13 Z" transform="translate(-3.00 1.10)" fill="none" stroke="url(#gradPink)" stroke-width="92.0" stroke-linecap="round" stroke-linejoin="round" opacity="0.074"/>
<path d="M 1347.38 477.13 C 1358.65 500.56, 1370.83 526.36, 1369.78 553.41 C 1368.73 580.47, 1356.72 614.60, 1341.09 639.46 C 1325.47 664.32, 1302.32 683.59, 1276.02 702.57 C 1249.73 721.55, 1215.65 740.67, 1183.33 753.33 C 1151.00 765.99, 1115.45 775.31, 1082.06 778.53 C 1048.67 781.74, 1015.41 776.10, 982.99 772.63 C 950.58 769.16, 916.27 767.18, 887.59 757.72 C 858.91 748.27, 833.72 731.99, 810.92 715.90 C 788.12 699.80, 765.71 682.56, 750.79 661.17 C 735.87 639.77, 725.95 612.90, 721.38 587.51 C 716.82 562.12, 716.47 534.44, 723.39 508.81 C 730.30 483.18, 747.18 457.12, 762.88 433.72 C 778.59 410.31, 794.89 388.52, 817.61 368.38 C 840.32 348.24, 869.31 325.19, 899.16 312.89 C 929.01 300.60, 964.80 297.00, 996.73 294.62 C 1028.67 292.24, 1061.29 294.08, 1090.77 298.60 C 1120.26 303.12, 1148.35 310.81, 1173.63 321.73 C 1198.90 332.66, 1221.01 348.97, 1242.44 364.15 C 1263.87 379.33, 1284.72 393.98, 1302.21 412.81 C 1319.70 431.64, 1336.12 453.69, 1347.38 477.13 Z" transform="translate(-3.00 1.10)" fill="none" stroke="url(#gradPink)" stroke-width="66.2" stroke-linecap="round" stroke-linejoin="round" opacity="0.054"/>
<path d="M 1287.73 489.35 C 1297.06 508.40, 1308.92 529.76, 1307.52 551.60 C 1306.12 573.44, 1291.90 600.04, 1279.33 620.39 C 1266.77 640.74, 1253.09 658.46, 1232.12 673.69 C 1211.15 688.93, 1179.94 702.35, 1153.52 711.80 C 1127.09 721.25, 1100.15 728.06, 1073.58 730.41 C 1047.00 732.77, 1019.74 728.88, 994.08 725.95 C 968.42 723.02, 942.89 719.86, 919.62 712.84 C 896.35 705.82, 872.89 696.90, 854.47 683.83 C 836.05 670.76, 820.21 652.13, 809.08 634.41 C 797.94 616.70, 790.73 597.60, 787.63 577.53 C 784.54 557.46, 785.17 534.37, 790.50 513.98 C 795.83 493.59, 806.89 474.19, 819.60 455.20 C 832.30 436.22, 848.51 415.80, 866.74 400.06 C 884.97 384.33, 905.87 370.14, 928.99 360.81 C 952.11 351.48, 980.27 346.47, 1005.45 344.08 C 1030.64 341.70, 1057.16 342.07, 1080.10 346.51 C 1103.03 350.96, 1122.51 362.30, 1143.07 370.74 C 1163.62 379.19, 1185.37 386.09, 1203.44 397.18 C 1221.52 408.27, 1237.47 421.94, 1251.52 437.30 C 1265.57 452.66, 1278.40 470.30, 1287.73 489.35 Z" transform="" fill="none" stroke="url(#gradMain)" stroke-width="130.2" stroke-linecap="round" stroke-linejoin="round" opacity="0.030"/>
<path d="M 1287.73 489.35 C 1297.06 508.40, 1308.92 529.76, 1307.52 551.60 C 1306.12 573.44, 1291.90 600.04, 1279.33 620.39 C 1266.77 640.74, 1253.09 658.46, 1232.12 673.69 C 1211.15 688.93, 1179.94 702.35, 1153.52 711.80 C 1127.09 721.25, 1100.15 728.06, 1073.58 730.41 C 1047.00 732.77, 1019.74 728.88, 994.08 725.95 C 968.42 723.02, 942.89 719.86, 919.62 712.84 C 896.35 705.82, 872.89 696.90, 854.47 683.83 C 836.05 670.76, 820.21 652.13, 809.08 634.41 C 797.94 616.70, 790.73 597.60, 787.63 577.53 C 784.54 557.46, 785.17 534.37, 790.50 513.98 C 795.83 493.59, 806.89 474.19, 819.60 455.20 C 832.30 436.22, 848.51 415.80, 866.74 400.06 C 884.97 384.33, 905.87 370.14, 928.99 360.81 C 952.11 351.48, 980.27 346.47, 1005.45 344.08 C 1030.64 341.70, 1057.16 342.07, 1080.10 346.51 C 1103.03 350.96, 1122.51 362.30, 1143.07 370.74 C 1163.62 379.19, 1185.37 386.09, 1203.44 397.18 C 1221.52 408.27, 1237.47 421.94, 1251.52 437.30 C 1265.57 452.66, 1278.40 470.30, 1287.73 489.35 Z" transform="" fill="none" stroke="url(#gradMain)" stroke-width="105.0" stroke-linecap="round" stroke-linejoin="round" opacity="0.045"/>
<path d="M 1287.73 489.35 C 1297.06 508.40, 1308.92 529.76, 1307.52 551.60 C 1306.12 573.44, 1291.90 600.04, 1279.33 620.39 C 1266.77 640.74, 1253.09 658.46, 1232.12 673.69 C 1211.15 688.93, 1179.94 702.35, 1153.52 711.80 C 1127.09 721.25, 1100.15 728.06, 1073.58 730.41 C 1047.00 732.77, 1019.74 728.88, 994.08 725.95 C 968.42 723.02, 942.89 719.86, 919.62 712.84 C 896.35 705.82, 872.89 696.90, 854.47 683.83 C 836.05 670.76, 820.21 652.13, 809.08 634.41 C 797.94 616.70, 790.73 597.60, 787.63 577.53 C 784.54 557.46, 785.17 534.37, 790.50 513.98 C 795.83 493.59, 806.89 474.19, 819.60 455.20 C 832.30 436.22, 848.51 415.80, 866.74 400.06 C 884.97 384.33, 905.87 370.14, 928.99 360.81 C 952.11 351.48, 980.27 346.47, 1005.45 344.08 C 1030.64 341.70, 1057.16 342.07, 1080.10 346.51 C 1103.03 350.96, 1122.51 362.30, 1143.07 370.74 C 1163.62 379.19, 1185.37 386.09, 1203.44 397.18 C 1221.52 408.27, 1237.47 421.94, 1251.52 437.30 C 1265.57 452.66, 1278.40 470.30, 1287.73 489.35 Z" transform="" fill="none" stroke="url(#gradMain)" stroke-width="84.0" stroke-linecap="round" stroke-linejoin="round" opacity="0.069"/>
<path d="M 1287.73 489.35 C 1297.06 508.40, 1308.92 529.76, 1307.52 551.60 C 1306.12 573.44, 1291.90 600.04, 1279.33 620.39 C 1266.77 640.74, 1253.09 658.46, 1232.12 673.69 C 1211.15 688.93, 1179.94 702.35, 1153.52 711.80 C 1127.09 721.25, 1100.15 728.06, 1073.58 730.41 C 1047.00 732.77, 1019.74 728.88, 994.08 725.95 C 968.42 723.02, 942.89 719.86, 919.62 712.84 C 896.35 705.82, 872.89 696.90, 854.47 683.83 C 836.05 670.76, 820.21 652.13, 809.08 634.41 C 797.94 616.70, 790.73 597.60, 787.63 577.53 C 784.54 557.46, 785.17 534.37, 790.50 513.98 C 795.83 493.59, 806.89 474.19, 819.60 455.20 C 832.30 436.22, 848.51 415.80, 866.74 400.06 C 884.97 384.33, 905.87 370.14, 928.99 360.81 C 952.11 351.48, 980.27 346.47, 1005.45 344.08 C 1030.64 341.70, 1057.16 342.07, 1080.10 346.51 C 1103.03 350.96, 1122.51 362.30, 1143.07 370.74 C 1163.62 379.19, 1185.37 386.09, 1203.44 397.18 C 1221.52 408.27, 1237.47 421.94, 1251.52 437.30 C 1265.57 452.66, 1278.40 470.30, 1287.73 489.35 Z" transform="" fill="none" stroke="url(#gradMain)" stroke-width="60.5" stroke-linecap="round" stroke-linejoin="round" opacity="0.051"/>
<path d="M 1287.73 489.35 C 1297.06 508.40, 1308.92 529.76, 1307.52 551.60 C 1306.12 573.44, 1291.90 600.04, 1279.33 620.39 C 1266.77 640.74, 1253.09 658.46, 1232.12 673.69 C 1211.15 688.93, 1179.94 702.35, 1153.52 711.80 C 1127.09 721.25, 1100.15 728.06, 1073.58 730.41 C 1047.00 732.77, 1019.74 728.88, 994.08 725.95 C 968.42 723.02, 942.89 719.86, 919.62 712.84 C 896.35 705.82, 872.89 696.90, 854.47 683.83 C 836.05 670.76, 820.21 652.13, 809.08 634.41 C 797.94 616.70, 790.73 597.60, 787.63 577.53 C 784.54 557.46, 785.17 534.37, 790.50 513.98 C 795.83 493.59, 806.89 474.19, 819.60 455.20 C 832.30 436.22, 848.51 415.80, 866.74 400.06 C 884.97 384.33, 905.87 370.14, 928.99 360.81 C 952.11 351.48, 980.27 346.47, 1005.45 344.08 C 1030.64 341.70, 1057.16 342.07, 1080.10 346.51 C 1103.03 350.96, 1122.51 362.30, 1143.07 370.74 C 1163.62 379.19, 1185.37 386.09, 1203.44 397.18 C 1221.52 408.27, 1237.47 421.94, 1251.52 437.30 C 1265.57 452.66, 1278.40 470.30, 1287.73 489.35 Z" transform="translate(4.00 2.00)" fill="none" stroke="url(#gradMain)" stroke-width="130.2" stroke-linecap="round" stroke-linejoin="round" opacity="0.030"/>
<path d="M 1287.73 489.35 C 1297.06 508.40, 1308.92 529.76, 1307.52 551.60 C 1306.12 573.44, 1291.90 600.04, 1279.33 620.39 C 1266.77 640.74, 1253.09 658.46, 1232.12 673.69 C 1211.15 688.93, 1179.94 702.35, 1153.52 711.80 C 1127.09 721.25, 1100.15 728.06, 1073.58 730.41 C 1047.00 732.77, 1019.74 728.88, 994.08 725.95 C 968.42 723.02, 942.89 719.86, 919.62 712.84 C 896.35 705.82, 872.89 696.90, 854.47 683.83 C 836.05 670.76, 820.21 652.13, 809.08 634.41 C 797.94 616.70, 790.73 597.60, 787.63 577.53 C 784.54 557.46, 785.17 534.37, 790.50 513.98 C 795.83 493.59, 806.89 474.19, 819.60 455.20 C 832.30 436.22, 848.51 415.80, 866.74 400.06 C 884.97 384.33, 905.87 370.14, 928.99 360.81 C 952.11 351.48, 980.27 346.47, 1005.45 344.08 C 1030.64 341.70, 1057.16 342.07, 1080.10 346.51 C 1103.03 350.96, 1122.51 362.30, 1143.07 370.74 C 1163.62 379.19, 1185.37 386.09, 1203.44 397.18 C 1221.52 408.27, 1237.47 421.94, 1251.52 437.30 C 1265.57 452.66, 1278.40 470.30, 1287.73 489.35 Z" transform="translate(4.00 2.00)" fill="none" stroke="url(#gradMain)" stroke-width="105.0" stroke-linecap="round" stroke-linejoin="round" opacity="0.045"/>
<path d="M 1287.73 489.35 C 1297.06 508.40, 1308.92 529.76, 1307.52 551.60 C 1306.12 573.44, 1291.90 600.04, 1279.33 620.39 C 1266.77 640.74, 1253.09 658.46, 1232.12 673.69 C 1211.15 688.93, 1179.94 702.35, 1153.52 711.80 C 1127.09 721.25, 1100.15 728.06, 1073.58 730.41 C 1047.00 732.77, 1019.74 728.88, 994.08 725.95 C 968.42 723.02, 942.89 719.86, 919.62 712.84 C 896.35 705.82, 872.89 696.90, 854.47 683.83 C 836.05 670.76, 820.21 652.13, 809.08 634.41 C 797.94 616.70, 790.73 597.60, 787.63 577.53 C 784.54 557.46, 785.17 534.37, 790.50 513.98 C 795.83 493.59, 806.89 474.19, 819.60 455.20 C 832.30 436.22, 848.51 415.80, 866.74 400.06 C 884.97 384.33, 905.87 370.14, 928.99 360.81 C 952.11 351.48, 980.27 346.47, 1005.45 344.08 C 1030.64 341.70, 1057.16 342.07, 1080.10 346.51 C 1103.03 350.96, 1122.51 362.30, 1143.07 370.74 C 1163.62 379.19, 1185.37 386.09, 1203.44 397.18 C 1221.52 408.27, 1237.47 421.94, 1251.52 437.30 C 1265.57 452.66, 1278.40 470.30, 1287.73 489.35 Z" transform="translate(4.00 2.00)" fill="none" stroke="url(#gradMain)" stroke-width="84.0" stroke-linecap="round" stroke-linejoin="round" opacity="0.069"/>
<path d="M 1287.73 489.35 C 1297.06 508.40, 1308.92 529.76, 1307.52 551.60 C 1306.12 573.44, 1291.90 600.04, 1279.33 620.39 C 1266.77 640.74, 1253.09 658.46, 1232.12 673.69 C 1211.15 688.93, 1179.94 702.35, 1153.52 711.80 C 1127.09 721.25, 1100.15 728.06, 1073.58 730.41 C 1047.00 732.77, 1019.74 728.88, 994.08 725.95 C 968.42 723.02, 942.89 719.86, 919.62 712.84 C 896.35 705.82, 872.89 696.90, 854.47 683.83 C 836.05 670.76, 820.21 652.13, 809.08 634.41 C 797.94 616.70, 790.73 597.60, 787.63 577.53 C 784.54 557.46, 785.17 534.37, 790.50 513.98 C 795.83 493.59, 806.89 474.19, 819.60 455.20 C 832.30 436.22, 848.51 415.80, 866.74 400.06 C 884.97 384.33, 905.87 370.14, 928.99 360.81 C 952.11 351.48, 980.27 346.47, 1005.45 344.08 C 1030.64 341.70, 1057.16 342.07, 1080.10 346.51 C 1103.03 350.96, 1122.51 362.30, 1143.07 370.74 C 1163.62 379.19, 1185.37 386.09, 1203.44 397.18 C 1221.52 408.27, 1237.47 421.94, 1251.52 437.30 C 1265.57 452.66, 1278.40 470.30, 1287.73 489.35 Z" transform="translate(4.00 2.00)" fill="none" stroke="url(#gradMain)" stroke-width="60.5" stroke-linecap="round" stroke-linejoin="round" opacity="0.051"/>
<path d="M 1287.73 489.35 C 1297.06 508.40, 1308.92 529.76, 1307.52 551.60 C 1306.12 573.44, 1291.90 600.04, 1279.33 620.39 C 1266.77 640.74, 1253.09 658.46, 1232.12 673.69 C 1211.15 688.93, 1179.94 702.35, 1153.52 711.80 C 1127.09 721.25, 1100.15 728.06, 1073.58 730.41 C 1047.00 732.77, 1019.74 728.88, 994.08 725.95 C 968.42 723.02, 942.89 719.86, 919.62 712.84 C 896.35 705.82, 872.89 696.90, 854.47 683.83 C 836.05 670.76, 820.21 652.13, 809.08 634.41 C 797.94 616.70, 790.73 597.60, 787.63 577.53 C 784.54 557.46, 785.17 534.37, 790.50 513.98 C 795.83 493.59, 806.89 474.19, 819.60 455.20 C 832.30 436.22, 848.51 415.80, 866.74 400.06 C 884.97 384.33, 905.87 370.14, 928.99 360.81 C 952.11 351.48, 980.27 346.47, 1005.45 344.08 C 1030.64 341.70, 1057.16 342.07, 1080.10 346.51 C 1103.03 350.96, 1122.51 362.30, 1143.07 370.74 C 1163.62 379.19, 1185.37 386.09, 1203.44 397.18 C 1221.52 408.27, 1237.47 421.94, 1251.52 437.30 C 1265.57 452.66, 1278.40 470.30, 1287.73 489.35 Z" transform="translate(-3.00 1.10)" fill="none" stroke="url(#gradMain)" stroke-width="130.2" stroke-linecap="round" stroke-linejoin="round" opacity="0.030"/>
<path d="M 1287.73 489.35 C 1297.06 508.40, 1308.92 529.76, 1307.52 551.60 C 1306.12 573.44, 1291.90 600.04, 1279.33 620.39 C 1266.77 640.74, 1253.09 658.46, 1232.12 673.69 C 1211.15 688.93, 1179.94 702.35, 1153.52 711.80 C 1127.09 721.25, 1100.15 728.06, 1073.58 730.41 C 1047.00 732.77, 1019.74 728.88, 994.08 725.95 C 968.42 723.02, 942.89 719.86, 919.62 712.84 C 896.35 705.82, 872.89 696.90, 854.47 683.83 C 836.05 670.76, 820.21 652.13, 809.08 634.41 C 797.94 616.70, 790.73 597.60, 787.63 577.53 C 784.54 557.46, 785.17 534.37, 790.50 513.98 C 795.83 493.59, 806.89 474.19, 819.60 455.20 C 832.30 436.22, 848.51 415.80, 866.74 400.06 C 884.97 384.33, 905.87 370.14, 928.99 360.81 C 952.11 351.48, 980.27 346.47, 1005.45 344.08 C 1030.64 341.70, 1057.16 342.07, 1080.10 346.51 C 1103.03 350.96, 1122.51 362.30, 1143.07 370.74 C 1163.62 379.19, 1185.37 386.09, 1203.44 397.18 C 1221.52 408.27, 1237.47 421.94, 1251.52 437.30 C 1265.57 452.66, 1278.40 470.30, 1287.73 489.35 Z" transform="translate(-3.00 1.10)" fill="none" stroke="url(#gradMain)" stroke-width="105.0" stroke-linecap="round" stroke-linejoin="round" opacity="0.045"/>
<path d="M 1287.73 489.35 C 1297.06 508.40, 1308.92 529.76, 1307.52 551.60 C 1306.12 573.44, 1291.90 600.04, 1279.33 620.39 C 1266.77 640.74, 1253.09 658.46, 1232.12 673.69 C 1211.15 688.93, 1179.94 702.35, 1153.52 711.80 C 1127.09 721.25, 1100.15 728.06, 1073.58 730.41 C 1047.00 732.77, 1019.74 728.88, 994.08 725.95 C 968.42 723.02, 942.89 719.86, 919.62 712.84 C 896.35 705.82, 872.89 696.90, 854.47 683.83 C 836.05 670.76, 820.21 652.13, 809.08 634.41 C 797.94 616.70, 790.73 597.60, 787.63 577.53 C 784.54 557.46, 785.17 534.37, 790.50 513.98 C 795.83 493.59, 806.89 474.19, 819.60 455.20 C 832.30 436.22, 848.51 415.80, 866.74 400.06 C 884.97 384.33, 905.87 370.14, 928.99 360.81 C 952.11 351.48, 980.27 346.47, 1005.45 344.08 C 1030.64 341.70, 1057.16 342.07, 1080.10 346.51 C 1103.03 350.96, 1122.51 362.30, 1143.07 370.74 C 1163.62 379.19, 1185.37 386.09, 1203.44 397.18 C 1221.52 408.27, 1237.47 421.94, 1251.52 437.30 C 1265.57 452.66, 1278.40 470.30, 1287.73 489.35 Z" transform="translate(-3.00 1.10)" fill="none" stroke="url(#gradMain)" stroke-width="84.0" stroke-linecap="round" stroke-linejoin="round" opacity="0.069"/>
<path d="M 1287.73 489.35 C 1297.06 508.40, 1308.92 529.76, 1307.52 551.60 C 1306.12 573.44, 1291.90 600.04, 1279.33 620.39 C 1266.77 640.74, 1253.09 658.46, 1232.12 673.69 C 1211.15 688.93, 1179.94 702.35, 1153.52 711.80 C 1127.09 721.25, 1100.15 728.06, 1073.58 730.41 C 1047.00 732.77, 1019.74 728.88, 994.08 725.95 C 968.42 723.02, 942.89 719.86, 919.62 712.84 C 896.35 705.82, 872.89 696.90, 854.47 683.83 C 836.05 670.76, 820.21 652.13, 809.08 634.41 C 797.94 616.70, 790.73 597.60, 787.63 577.53 C 784.54 557.46, 785.17 534.37, 790.50 513.98 C 795.83 493.59, 806.89 474.19, 819.60 455.20 C 832.30 436.22, 848.51 415.80, 866.74 400.06 C 884.97 384.33, 905.87 370.14, 928.99 360.81 C 952.11 351.48, 980.27 346.47, 1005.45 344.08 C 1030.64 341.70, 1057.16 342.07, 1080.10 346.51 C 1103.03 350.96, 1122.51 362.30, 1143.07 370.74 C 1163.62 379.19, 1185.37 386.09, 1203.44 397.18 C 1221.52 408.27, 1237.47 421.94, 1251.52 437.30 C 1265.57 452.66, 1278.40 470.30, 1287.73 489.35 Z" transform="translate(-3.00 1.10)" fill="none" stroke="url(#gradMain)" stroke-width="60.5" stroke-linecap="round" stroke-linejoin="round" opacity="0.051"/>
<path d="M 1229.97 501.10 C 1237.18 515.79, 1244.53 532.72, 1244.01 549.52 C 1243.49 566.33, 1236.28 586.26, 1226.85 601.91 C 1217.43 617.56, 1203.79 631.71, 1187.47 643.41 C 1171.14 655.10, 1149.31 665.68, 1128.90 672.08 C 1108.49 678.48, 1085.80 679.71, 1065.00 681.80 C 1044.20 683.89, 1023.67 685.83, 1004.09 684.62 C 984.51 683.42, 964.88 680.62, 947.50 674.56 C 930.11 668.51, 913.70 658.52, 899.79 648.30 C 885.87 638.08, 873.46 626.40, 864.02 613.24 C 854.58 600.07, 845.19 584.75, 843.13 569.31 C 841.07 553.88, 847.37 536.47, 851.63 520.62 C 855.90 504.77, 860.56 488.74, 868.73 474.20 C 876.90 459.66, 886.47 445.59, 900.65 433.39 C 914.83 421.18, 935.08 408.81, 953.78 400.96 C 972.49 393.12, 993.26 387.74, 1012.90 386.32 C 1032.54 384.89, 1053.44 389.05, 1071.63 392.42 C 1089.82 395.78, 1106.39 399.91, 1122.04 406.52 C 1137.68 413.12, 1152.37 422.90, 1165.49 432.05 C 1178.61 441.20, 1190.01 449.90, 1200.76 461.41 C 1211.51 472.92, 1222.76 486.42, 1229.97 501.10 Z" transform="" fill="none" stroke="url(#gradBlue)" stroke-width="117.8" stroke-linecap="round" stroke-linejoin="round" opacity="0.028"/>
<path d="M 1229.97 501.10 C 1237.18 515.79, 1244.53 532.72, 1244.01 549.52 C 1243.49 566.33, 1236.28 586.26, 1226.85 601.91 C 1217.43 617.56, 1203.79 631.71, 1187.47 643.41 C 1171.14 655.10, 1149.31 665.68, 1128.90 672.08 C 1108.49 678.48, 1085.80 679.71, 1065.00 681.80 C 1044.20 683.89, 1023.67 685.83, 1004.09 684.62 C 984.51 683.42, 964.88 680.62, 947.50 674.56 C 930.11 668.51, 913.70 658.52, 899.79 648.30 C 885.87 638.08, 873.46 626.40, 864.02 613.24 C 854.58 600.07, 845.19 584.75, 843.13 569.31 C 841.07 553.88, 847.37 536.47, 851.63 520.62 C 855.90 504.77, 860.56 488.74, 868.73 474.20 C 876.90 459.66, 886.47 445.59, 900.65 433.39 C 914.83 421.18, 935.08 408.81, 953.78 400.96 C 972.49 393.12, 993.26 387.74, 1012.90 386.32 C 1032.54 384.89, 1053.44 389.05, 1071.63 392.42 C 1089.82 395.78, 1106.39 399.91, 1122.04 406.52 C 1137.68 413.12, 1152.37 422.90, 1165.49 432.05 C 1178.61 441.20, 1190.01 449.90, 1200.76 461.41 C 1211.51 472.92, 1222.76 486.42, 1229.97 501.10 Z" transform="" fill="none" stroke="url(#gradBlue)" stroke-width="95.0" stroke-linecap="round" stroke-linejoin="round" opacity="0.042"/>
<path d="M 1229.97 501.10 C 1237.18 515.79, 1244.53 532.72, 1244.01 549.52 C 1243.49 566.33, 1236.28 586.26, 1226.85 601.91 C 1217.43 617.56, 1203.79 631.71, 1187.47 643.41 C 1171.14 655.10, 1149.31 665.68, 1128.90 672.08 C 1108.49 678.48, 1085.80 679.71, 1065.00 681.80 C 1044.20 683.89, 1023.67 685.83, 1004.09 684.62 C 984.51 683.42, 964.88 680.62, 947.50 674.56 C 930.11 668.51, 913.70 658.52, 899.79 648.30 C 885.87 638.08, 873.46 626.40, 864.02 613.24 C 854.58 600.07, 845.19 584.75, 843.13 569.31 C 841.07 553.88, 847.37 536.47, 851.63 520.62 C 855.90 504.77, 860.56 488.74, 868.73 474.20 C 876.90 459.66, 886.47 445.59, 900.65 433.39 C 914.83 421.18, 935.08 408.81, 953.78 400.96 C 972.49 393.12, 993.26 387.74, 1012.90 386.32 C 1032.54 384.89, 1053.44 389.05, 1071.63 392.42 C 1089.82 395.78, 1106.39 399.91, 1122.04 406.52 C 1137.68 413.12, 1152.37 422.90, 1165.49 432.05 C 1178.61 441.20, 1190.01 449.90, 1200.76 461.41 C 1211.51 472.92, 1222.76 486.42, 1229.97 501.10 Z" transform="" fill="none" stroke="url(#gradBlue)" stroke-width="76.0" stroke-linecap="round" stroke-linejoin="round" opacity="0.064"/>
<path d="M 1229.97 501.10 C 1237.18 515.79, 1244.53 532.72, 1244.01 549.52 C 1243.49 566.33, 1236.28 586.26, 1226.85 601.91 C 1217.43 617.56, 1203.79 631.71, 1187.47 643.41 C 1171.14 655.10, 1149.31 665.68, 1128.90 672.08 C 1108.49 678.48, 1085.80 679.71, 1065.00 681.80 C 1044.20 683.89, 1023.67 685.83, 1004.09 684.62 C 984.51 683.42, 964.88 680.62, 947.50 674.56 C 930.11 668.51, 913.70 658.52, 899.79 648.30 C 885.87 638.08, 873.46 626.40, 864.02 613.24 C 854.58 600.07, 845.19 584.75, 843.13 569.31 C 841.07 553.88, 847.37 536.47, 851.63 520.62 C 855.90 504.77, 860.56 488.74, 868.73 474.20 C 876.90 459.66, 886.47 445.59, 900.65 433.39 C 914.83 421.18, 935.08 408.81, 953.78 400.96 C 972.49 393.12, 993.26 387.74, 1012.90 386.32 C 1032.54 384.89, 1053.44 389.05, 1071.63 392.42 C 1089.82 395.78, 1106.39 399.91, 1122.04 406.52 C 1137.68 413.12, 1152.37 422.90, 1165.49 432.05 C 1178.61 441.20, 1190.01 449.90, 1200.76 461.41 C 1211.51 472.92, 1222.76 486.42, 1229.97 501.10 Z" transform="" fill="none" stroke="url(#gradBlue)" stroke-width="54.7" stroke-linecap="round" stroke-linejoin="round" opacity="0.048"/>
<path d="M 1229.97 501.10 C 1237.18 515.79, 1244.53 532.72, 1244.01 549.52 C 1243.49 566.33, 1236.28 586.26, 1226.85 601.91 C 1217.43 617.56, 1203.79 631.71, 1187.47 643.41 C 1171.14 655.10, 1149.31 665.68, 1128.90 672.08 C 1108.49 678.48, 1085.80 679.71, 1065.00 681.80 C 1044.20 683.89, 1023.67 685.83, 1004.09 684.62 C 984.51 683.42, 964.88 680.62, 947.50 674.56 C 930.11 668.51, 913.70 658.52, 899.79 648.30 C 885.87 638.08, 873.46 626.40, 864.02 613.24 C 854.58 600.07, 845.19 584.75, 843.13 569.31 C 841.07 553.88, 847.37 536.47, 851.63 520.62 C 855.90 504.77, 860.56 488.74, 868.73 474.20 C 876.90 459.66, 886.47 445.59, 900.65 433.39 C 914.83 421.18, 935.08 408.81, 953.78 400.96 C 972.49 393.12, 993.26 387.74, 1012.90 386.32 C 1032.54 384.89, 1053.44 389.05, 1071.63 392.42 C 1089.82 395.78, 1106.39 399.91, 1122.04 406.52 C 1137.68 413.12, 1152.37 422.90, 1165.49 432.05 C 1178.61 441.20, 1190.01 449.90, 1200.76 461.41 C 1211.51 472.92, 1222.76 486.42, 1229.97 501.10 Z" transform="translate(4.00 2.00)" fill="none" stroke="url(#gradBlue)" stroke-width="117.8" stroke-linecap="round" stroke-linejoin="round" opacity="0.028"/>
<path d="M 1229.97 501.10 C 1237.18 515.79, 1244.53 532.72, 1244.01 549.52 C 1243.49 566.33, 1236.28 586.26, 1226.85 601.91 C 1217.43 617.56, 1203.79 631.71, 1187.47 643.41 C 1171.14 655.10, 1149.31 665.68, 1128.90 672.08 C 1108.49 678.48, 1085.80 679.71, 1065.00 681.80 C 1044.20 683.89, 1023.67 685.83, 1004.09 684.62 C 984.51 683.42, 964.88 680.62, 947.50 674.56 C 930.11 668.51, 913.70 658.52, 899.79 648.30 C 885.87 638.08, 873.46 626.40, 864.02 613.24 C 854.58 600.07, 845.19 584.75, 843.13 569.31 C 841.07 553.88, 847.37 536.47, 851.63 520.62 C 855.90 504.77, 860.56 488.74, 868.73 474.20 C 876.90 459.66, 886.47 445.59, 900.65 433.39 C 914.83 421.18, 935.08 408.81, 953.78 400.96 C 972.49 393.12, 993.26 387.74, 1012.90 386.32 C 1032.54 384.89, 1053.44 389.05, 1071.63 392.42 C 1089.82 395.78, 1106.39 399.91, 1122.04 406.52 C 1137.68 413.12, 1152.37 422.90, 1165.49 432.05 C 1178.61 441.20, 1190.01 449.90, 1200.76 461.41 C 1211.51 472.92, 1222.76 486.42, 1229.97 501.10 Z" transform="translate(4.00 2.00)" fill="none" stroke="url(#gradBlue)" stroke-width="95.0" stroke-linecap="round" stroke-linejoin="round" opacity="0.042"/>
<path d="M 1229.97 501.10 C 1237.18 515.79, 1244.53 532.72, 1244.01 549.52 C 1243.49 566.33, 1236.28 586.26, 1226.85 601.91 C 1217.43 617.56, 1203.79 631.71, 1187.47 643.41 C 1171.14 655.10, 1149.31 665.68, 1128.90 672.08 C 1108.49 678.48, 1085.80 679.71, 1065.00 681.80 C 1044.20 683.89, 1023.67 685.83, 1004.09 684.62 C 984.51 683.42, 964.88 680.62, 947.50 674.56 C 930.11 668.51, 913.70 658.52, 899.79 648.30 C 885.87 638.08, 873.46 626.40, 864.02 613.24 C 854.58 600.07, 845.19 584.75, 843.13 569.31 C 841.07 553.88, 847.37 536.47, 851.63 520.62 C 855.90 504.77, 860.56 488.74, 868.73 474.20 C 876.90 459.66, 886.47 445.59, 900.65 433.39 C 914.83 421.18, 935.08 408.81, 953.78 400.96 C 972.49 393.12, 993.26 387.74, 1012.90 386.32 C 1032.54 384.89, 1053.44 389.05, 1071.63 392.42 C 1089.82 395.78, 1106.39 399.91, 1122.04 406.52 C 1137.68 413.12, 1152.37 422.90, 1165.49 432.05 C 1178.61 441.20, 1190.01 449.90, 1200.76 461.41 C 1211.51 472.92, 1222.76 486.42, 1229.97 501.10 Z" transform="translate(4.00 2.00)" fill="none" stroke="url(#gradBlue)" stroke-width="76.0" stroke-linecap="round" stroke-linejoin="round" opacity="0.064"/>
<path d="M 1229.97 501.10 C 1237.18 515.79, 1244.53 532.72, 1244.01 549.52 C 1243.49 566.33, 1236.28 586.26, 1226.85 601.91 C 1217.43 617.56, 1203.79 631.71, 1187.47 643.41 C 1171.14 655.10, 1149.31 665.68, 1128.90 672.08 C 1108.49 678.48, 1085.80 679.71, 1065.00 681.80 C 1044.20 683.89, 1023.67 685.83, 1004.09 684.62 C 984.51 683.42, 964.88 680.62, 947.50 674.56 C 930.11 668.51, 913.70 658.52, 899.79 648.30 C 885.87 638.08, 873.46 626.40, 864.02 613.24 C 854.58 600.07, 845.19 584.75, 843.13 569.31 C 841.07 553.88, 847.37 536.47, 851.63 520.62 C 855.90 504.77, 860.56 488.74, 868.73 474.20 C 876.90 459.66, 886.47 445.59, 900.65 433.39 C 914.83 421.18, 935.08 408.81, 953.78 400.96 C 972.49 393.12, 993.26 387.74, 1012.90 386.32 C 1032.54 384.89, 1053.44 389.05, 1071.63 392.42 C 1089.82 395.78, 1106.39 399.91, 1122.04 406.52 C 1137.68 413.12, 1152.37 422.90, 1165.49 432.05 C 1178.61 441.20, 1190.01 449.90, 1200.76 461.41 C 1211.51 472.92, 1222.76 486.42, 1229.97 501.10 Z" transform="translate(4.00 2.00)" fill="none" stroke="url(#gradBlue)" stroke-width="54.7" stroke-linecap="round" stroke-linejoin="round" opacity="0.048"/>
<path d="M 1229.97 501.10 C 1237.18 515.79, 1244.53 532.72, 1244.01 549.52 C 1243.49 566.33, 1236.28 586.26, 1226.85 601.91 C 1217.43 617.56, 1203.79 631.71, 1187.47 643.41 C 1171.14 655.10, 1149.31 665.68, 1128.90 672.08 C 1108.49 678.48, 1085.80 679.71, 1065.00 681.80 C 1044.20 683.89, 1023.67 685.83, 1004.09 684.62 C 984.51 683.42, 964.88 680.62, 947.50 674.56 C 930.11 668.51, 913.70 658.52, 899.79 648.30 C 885.87 638.08, 873.46 626.40, 864.02 613.24 C 854.58 600.07, 845.19 584.75, 843.13 569.31 C 841.07 553.88, 847.37 536.47, 851.63 520.62 C 855.90 504.77, 860.56 488.74, 868.73 474.20 C 876.90 459.66, 886.47 445.59, 900.65 433.39 C 914.83 421.18, 935.08 408.81, 953.78 400.96 C 972.49 393.12, 993.26 387.74, 1012.90 386.32 C 1032.54 384.89, 1053.44 389.05, 1071.63 392.42 C 1089.82 395.78, 1106.39 399.91, 1122.04 406.52 C 1137.68 413.12, 1152.37 422.90, 1165.49 432.05 C 1178.61 441.20, 1190.01 449.90, 1200.76 461.41 C 1211.51 472.92, 1222.76 486.42, 1229.97 501.10 Z" transform="translate(-3.00 1.10)" fill="none" stroke="url(#gradBlue)" stroke-width="117.8" stroke-linecap="round" stroke-linejoin="round" opacity="0.028"/>
<path d="M 1229.97 501.10 C 1237.18 515.79, 1244.53 532.72, 1244.01 549.52 C 1243.49 566.33, 1236.28 586.26, 1226.85 601.91 C 1217.43 617.56, 1203.79 631.71, 1187.47 643.41 C 1171.14 655.10, 1149.31 665.68, 1128.90 672.08 C 1108.49 678.48, 1085.80 679.71, 1065.00 681.80 C 1044.20 683.89, 1023.67 685.83, 1004.09 684.62 C 984.51 683.42, 964.88 680.62, 947.50 674.56 C 930.11 668.51, 913.70 658.52, 899.79 648.30 C 885.87 638.08, 873.46 626.40, 864.02 613.24 C 854.58 600.07, 845.19 584.75, 843.13 569.31 C 841.07 553.88, 847.37 536.47, 851.63 520.62 C 855.90 504.77, 860.56 488.74, 868.73 474.20 C 876.90 459.66, 886.47 445.59, 900.65 433.39 C 914.83 421.18, 935.08 408.81, 953.78 400.96 C 972.49 393.12, 993.26 387.74, 1012.90 386.32 C 1032.54 384.89, 1053.44 389.05, 1071.63 392.42 C 1089.82 395.78, 1106.39 399.91, 1122.04 406.52 C 1137.68 413.12, 1152.37 422.90, 1165.49 432.05 C 1178.61 441.20, 1190.01 449.90, 1200.76 461.41 C 1211.51 472.92, 1222.76 486.42, 1229.97 501.10 Z" transform="translate(-3.00 1.10)" fill="none" stroke="url(#gradBlue)" stroke-width="95.0" stroke-linecap="round" stroke-linejoin="round" opacity="0.042"/>
<path d="M 1229.97 501.10 C 1237.18 515.79, 1244.53 532.72, 1244.01 549.52 C 1243.49 566.33, 1236.28 586.26, 1226.85 601.91 C 1217.43 617.56, 1203.79 631.71, 1187.47 643.41 C 1171.14 655.10, 1149.31 665.68, 1128.90 672.08 C 1108.49 678.48, 1085.80 679.71, 1065.00 681.80 C 1044.20 683.89, 1023.67 685.83, 1004.09 684.62 C 984.51 683.42, 964.88 680.62, 947.50 674.56 C 930.11 668.51, 913.70 658.52, 899.79 648.30 C 885.87 638.08, 873.46 626.40, 864.02 613.24 C 854.58 600.07, 845.19 584.75, 843.13 569.31 C 841.07 553.88, 847.37 536.47, 851.63 520.62 C 855.90 504.77, 860.56 488.74, 868.73 474.20 C 876.90 459.66, 886.47 445.59, 900.65 433.39 C 914.83 421.18, 935.08 408.81, 953.78 400.96 C 972.49 393.12, 993.26 387.74, 1012.90 386.32 C 1032.54 384.89, 1053.44 389.05, 1071.63 392.42 C 1089.82 395.78, 1106.39 399.91, 1122.04 406.52 C 1137.68 413.12, 1152.37 422.90, 1165.49 432.05 C 1178.61 441.20, 1190.01 449.90, 1200.76 461.41 C 1211.51 472.92, 1222.76 486.42, 1229.97 501.10 Z" transform="translate(-3.00 1.10)" fill="none" stroke="url(#gradBlue)" stroke-width="76.0" stroke-linecap="round" stroke-linejoin="round" opacity="0.064"/>
<path d="M 1229.97 501.10 C 1237.18 515.79, 1244.53 532.72, 1244.01 549.52 C 1243.49 566.33, 1236.28 586.26, 1226.85 601.91 C 1217.43 617.56, 1203.79 631.71, 1187.47 643.41 C 1171.14 655.10, 1149.31 665.68, 1128.90 672.08 C 1108.49 678.48, 1085.80 679.71, 1065.00 681.80 C 1044.20 683.89, 1023.67 685.83, 1004.09 684.62 C 984.51 683.42, 964.88 680.62, 947.50 674.56 C 930.11 668.51, 913.70 658.52, 899.79 648.30 C 885.87 638.08, 873.46 626.40, 864.02 613.24 C 854.58 600.07, 845.19 584.75, 843.13 569.31 C 841.07 553.88, 847.37 536.47, 851.63 520.62 C 855.90 504.77, 860.56 488.74, 868.73 474.20 C 876.90 459.66, 886.47 445.59, 900.65 433.39 C 914.83 421.18, 935.08 408.81, 953.78 400.96 C 972.49 393.12, 993.26 387.74, 1012.90 386.32 C 1032.54 384.89, 1053.44 389.05, 1071.63 392.42 C 1089.82 395.78, 1106.39 399.91, 1122.04 406.52 C 1137.68 413.12, 1152.37 422.90, 1165.49 432.05 C 1178.61 441.20, 1190.01 449.90, 1200.76 461.41 C 1211.51 472.92, 1222.76 486.42, 1229.97 501.10 Z" transform="translate(-3.00 1.10)" fill="none" stroke="url(#gradBlue)" stroke-width="54.7" stroke-linecap="round" stroke-linejoin="round" opacity="0.048"/></g>
</svg>
